G04 #@! TF.GenerationSoftware,KiCad,Pcbnew,5.0.2-bee76a0~70~ubuntu18.04.1*
G04 #@! TF.CreationDate,2020-01-17T08:49:31+02:00*
G04 #@! TF.ProjectId,nanoSense-Motion,4b656d65-742d-4424-9c45-2e6b69636164,rev?*
G04 #@! TF.SameCoordinates,Original*
G04 #@! TF.FileFunction,Copper,L2,Bot*
G04 #@! TF.FilePolarity,Positive*
%FSLAX46Y46*%
G04 Gerber Fmt 4.6, Leading zero omitted, Abs format (unit mm)*
G04 Created by KiCad (PCBNEW 5.0.2-bee76a0~70~ubuntu18.04.1) date Fri 17 Jan 2020 08:49:31 AM EET*
%MOMM*%
%LPD*%
G01*
G04 APERTURE LIST*
G04 #@! TA.AperFunction,ComponentPad*
%ADD10O,1.000000X1.000000*%
G04 #@! TD*
G04 #@! TA.AperFunction,ComponentPad*
%ADD11R,1.000000X1.000000*%
G04 #@! TD*
G04 #@! TA.AperFunction,SMDPad,CuDef*
%ADD12R,2.600000X3.600000*%
G04 #@! TD*
G04 #@! TA.AperFunction,Conductor*
%ADD13C,0.100000*%
G04 #@! TD*
G04 #@! TA.AperFunction,SMDPad,CuDef*
%ADD14C,0.975000*%
G04 #@! TD*
G04 #@! TA.AperFunction,ViaPad*
%ADD15C,0.600000*%
G04 #@! TD*
G04 #@! TA.AperFunction,ViaPad*
%ADD16C,0.800000*%
G04 #@! TD*
G04 #@! TA.AperFunction,Conductor*
%ADD17C,0.250000*%
G04 #@! TD*
G04 #@! TA.AperFunction,Conductor*
%ADD18C,0.160000*%
G04 #@! TD*
G04 APERTURE END LIST*
D10*
G04 #@! TO.P,J1,10*
G04 #@! TO.N,RESET*
X160040000Y-52510000D03*
G04 #@! TO.P,J1,9*
G04 #@! TO.N,GND*
X160040000Y-53780000D03*
G04 #@! TO.P,J1,8*
G04 #@! TO.N,Net-(J1-Pad8)*
X158770000Y-52510000D03*
G04 #@! TO.P,J1,7*
G04 #@! TO.N,GND*
X158770000Y-53780000D03*
G04 #@! TO.P,J1,6*
G04 #@! TO.N,Net-(J1-Pad6)*
X157500000Y-52510000D03*
G04 #@! TO.P,J1,5*
G04 #@! TO.N,GND*
X157500000Y-53780000D03*
G04 #@! TO.P,J1,4*
G04 #@! TO.N,SWCLK*
X156230000Y-52510000D03*
G04 #@! TO.P,J1,3*
G04 #@! TO.N,GND*
X156230000Y-53780000D03*
G04 #@! TO.P,J1,2*
G04 #@! TO.N,SWDIO*
X154960000Y-52510000D03*
D11*
G04 #@! TO.P,J1,1*
G04 #@! TO.N,+BATT*
X154960000Y-53780000D03*
G04 #@! TD*
D12*
G04 #@! TO.P,BT1,2*
G04 #@! TO.N,GND*
X171700000Y-43575000D03*
G04 #@! TO.P,BT1,1*
G04 #@! TO.N,+BATT*
X142400000Y-43575000D03*
G04 #@! TD*
D13*
G04 #@! TO.N,+BATT*
G04 #@! TO.C,C1*
G36*
X170700142Y-37701174D02*
X170723803Y-37704684D01*
X170747007Y-37710496D01*
X170769529Y-37718554D01*
X170791153Y-37728782D01*
X170811670Y-37741079D01*
X170830883Y-37755329D01*
X170848607Y-37771393D01*
X170864671Y-37789117D01*
X170878921Y-37808330D01*
X170891218Y-37828847D01*
X170901446Y-37850471D01*
X170909504Y-37872993D01*
X170915316Y-37896197D01*
X170918826Y-37919858D01*
X170920000Y-37943750D01*
X170920000Y-38431250D01*
X170918826Y-38455142D01*
X170915316Y-38478803D01*
X170909504Y-38502007D01*
X170901446Y-38524529D01*
X170891218Y-38546153D01*
X170878921Y-38566670D01*
X170864671Y-38585883D01*
X170848607Y-38603607D01*
X170830883Y-38619671D01*
X170811670Y-38633921D01*
X170791153Y-38646218D01*
X170769529Y-38656446D01*
X170747007Y-38664504D01*
X170723803Y-38670316D01*
X170700142Y-38673826D01*
X170676250Y-38675000D01*
X169763750Y-38675000D01*
X169739858Y-38673826D01*
X169716197Y-38670316D01*
X169692993Y-38664504D01*
X169670471Y-38656446D01*
X169648847Y-38646218D01*
X169628330Y-38633921D01*
X169609117Y-38619671D01*
X169591393Y-38603607D01*
X169575329Y-38585883D01*
X169561079Y-38566670D01*
X169548782Y-38546153D01*
X169538554Y-38524529D01*
X169530496Y-38502007D01*
X169524684Y-38478803D01*
X169521174Y-38455142D01*
X169520000Y-38431250D01*
X169520000Y-37943750D01*
X169521174Y-37919858D01*
X169524684Y-37896197D01*
X169530496Y-37872993D01*
X169538554Y-37850471D01*
X169548782Y-37828847D01*
X169561079Y-37808330D01*
X169575329Y-37789117D01*
X169591393Y-37771393D01*
X169609117Y-37755329D01*
X169628330Y-37741079D01*
X169648847Y-37728782D01*
X169670471Y-37718554D01*
X169692993Y-37710496D01*
X169716197Y-37704684D01*
X169739858Y-37701174D01*
X169763750Y-37700000D01*
X170676250Y-37700000D01*
X170700142Y-37701174D01*
X170700142Y-37701174D01*
G37*
D14*
G04 #@! TD*
G04 #@! TO.P,C1,1*
G04 #@! TO.N,+BATT*
X170220000Y-38187500D03*
D13*
G04 #@! TO.N,GND*
G04 #@! TO.C,C1*
G36*
X170700142Y-35826174D02*
X170723803Y-35829684D01*
X170747007Y-35835496D01*
X170769529Y-35843554D01*
X170791153Y-35853782D01*
X170811670Y-35866079D01*
X170830883Y-35880329D01*
X170848607Y-35896393D01*
X170864671Y-35914117D01*
X170878921Y-35933330D01*
X170891218Y-35953847D01*
X170901446Y-35975471D01*
X170909504Y-35997993D01*
X170915316Y-36021197D01*
X170918826Y-36044858D01*
X170920000Y-36068750D01*
X170920000Y-36556250D01*
X170918826Y-36580142D01*
X170915316Y-36603803D01*
X170909504Y-36627007D01*
X170901446Y-36649529D01*
X170891218Y-36671153D01*
X170878921Y-36691670D01*
X170864671Y-36710883D01*
X170848607Y-36728607D01*
X170830883Y-36744671D01*
X170811670Y-36758921D01*
X170791153Y-36771218D01*
X170769529Y-36781446D01*
X170747007Y-36789504D01*
X170723803Y-36795316D01*
X170700142Y-36798826D01*
X170676250Y-36800000D01*
X169763750Y-36800000D01*
X169739858Y-36798826D01*
X169716197Y-36795316D01*
X169692993Y-36789504D01*
X169670471Y-36781446D01*
X169648847Y-36771218D01*
X169628330Y-36758921D01*
X169609117Y-36744671D01*
X169591393Y-36728607D01*
X169575329Y-36710883D01*
X169561079Y-36691670D01*
X169548782Y-36671153D01*
X169538554Y-36649529D01*
X169530496Y-36627007D01*
X169524684Y-36603803D01*
X169521174Y-36580142D01*
X169520000Y-36556250D01*
X169520000Y-36068750D01*
X169521174Y-36044858D01*
X169524684Y-36021197D01*
X169530496Y-35997993D01*
X169538554Y-35975471D01*
X169548782Y-35953847D01*
X169561079Y-35933330D01*
X169575329Y-35914117D01*
X169591393Y-35896393D01*
X169609117Y-35880329D01*
X169628330Y-35866079D01*
X169648847Y-35853782D01*
X169670471Y-35843554D01*
X169692993Y-35835496D01*
X169716197Y-35829684D01*
X169739858Y-35826174D01*
X169763750Y-35825000D01*
X170676250Y-35825000D01*
X170700142Y-35826174D01*
X170700142Y-35826174D01*
G37*
D14*
G04 #@! TD*
G04 #@! TO.P,C1,2*
G04 #@! TO.N,GND*
X170220000Y-36312500D03*
D13*
G04 #@! TO.N,GND*
G04 #@! TO.C,C3*
G36*
X144655142Y-50101174D02*
X144678803Y-50104684D01*
X144702007Y-50110496D01*
X144724529Y-50118554D01*
X144746153Y-50128782D01*
X144766670Y-50141079D01*
X144785883Y-50155329D01*
X144803607Y-50171393D01*
X144819671Y-50189117D01*
X144833921Y-50208330D01*
X144846218Y-50228847D01*
X144856446Y-50250471D01*
X144864504Y-50272993D01*
X144870316Y-50296197D01*
X144873826Y-50319858D01*
X144875000Y-50343750D01*
X144875000Y-51256250D01*
X144873826Y-51280142D01*
X144870316Y-51303803D01*
X144864504Y-51327007D01*
X144856446Y-51349529D01*
X144846218Y-51371153D01*
X144833921Y-51391670D01*
X144819671Y-51410883D01*
X144803607Y-51428607D01*
X144785883Y-51444671D01*
X144766670Y-51458921D01*
X144746153Y-51471218D01*
X144724529Y-51481446D01*
X144702007Y-51489504D01*
X144678803Y-51495316D01*
X144655142Y-51498826D01*
X144631250Y-51500000D01*
X144143750Y-51500000D01*
X144119858Y-51498826D01*
X144096197Y-51495316D01*
X144072993Y-51489504D01*
X144050471Y-51481446D01*
X144028847Y-51471218D01*
X144008330Y-51458921D01*
X143989117Y-51444671D01*
X143971393Y-51428607D01*
X143955329Y-51410883D01*
X143941079Y-51391670D01*
X143928782Y-51371153D01*
X143918554Y-51349529D01*
X143910496Y-51327007D01*
X143904684Y-51303803D01*
X143901174Y-51280142D01*
X143900000Y-51256250D01*
X143900000Y-50343750D01*
X143901174Y-50319858D01*
X143904684Y-50296197D01*
X143910496Y-50272993D01*
X143918554Y-50250471D01*
X143928782Y-50228847D01*
X143941079Y-50208330D01*
X143955329Y-50189117D01*
X143971393Y-50171393D01*
X143989117Y-50155329D01*
X144008330Y-50141079D01*
X144028847Y-50128782D01*
X144050471Y-50118554D01*
X144072993Y-50110496D01*
X144096197Y-50104684D01*
X144119858Y-50101174D01*
X144143750Y-50100000D01*
X144631250Y-50100000D01*
X144655142Y-50101174D01*
X144655142Y-50101174D01*
G37*
D14*
G04 #@! TD*
G04 #@! TO.P,C3,2*
G04 #@! TO.N,GND*
X144387500Y-50800000D03*
D13*
G04 #@! TO.N,+BATT*
G04 #@! TO.C,C3*
G36*
X142780142Y-50101174D02*
X142803803Y-50104684D01*
X142827007Y-50110496D01*
X142849529Y-50118554D01*
X142871153Y-50128782D01*
X142891670Y-50141079D01*
X142910883Y-50155329D01*
X142928607Y-50171393D01*
X142944671Y-50189117D01*
X142958921Y-50208330D01*
X142971218Y-50228847D01*
X142981446Y-50250471D01*
X142989504Y-50272993D01*
X142995316Y-50296197D01*
X142998826Y-50319858D01*
X143000000Y-50343750D01*
X143000000Y-51256250D01*
X142998826Y-51280142D01*
X142995316Y-51303803D01*
X142989504Y-51327007D01*
X142981446Y-51349529D01*
X142971218Y-51371153D01*
X142958921Y-51391670D01*
X142944671Y-51410883D01*
X142928607Y-51428607D01*
X142910883Y-51444671D01*
X142891670Y-51458921D01*
X142871153Y-51471218D01*
X142849529Y-51481446D01*
X142827007Y-51489504D01*
X142803803Y-51495316D01*
X142780142Y-51498826D01*
X142756250Y-51500000D01*
X142268750Y-51500000D01*
X142244858Y-51498826D01*
X142221197Y-51495316D01*
X142197993Y-51489504D01*
X142175471Y-51481446D01*
X142153847Y-51471218D01*
X142133330Y-51458921D01*
X142114117Y-51444671D01*
X142096393Y-51428607D01*
X142080329Y-51410883D01*
X142066079Y-51391670D01*
X142053782Y-51371153D01*
X142043554Y-51349529D01*
X142035496Y-51327007D01*
X142029684Y-51303803D01*
X142026174Y-51280142D01*
X142025000Y-51256250D01*
X142025000Y-50343750D01*
X142026174Y-50319858D01*
X142029684Y-50296197D01*
X142035496Y-50272993D01*
X142043554Y-50250471D01*
X142053782Y-50228847D01*
X142066079Y-50208330D01*
X142080329Y-50189117D01*
X142096393Y-50171393D01*
X142114117Y-50155329D01*
X142133330Y-50141079D01*
X142153847Y-50128782D01*
X142175471Y-50118554D01*
X142197993Y-50110496D01*
X142221197Y-50104684D01*
X142244858Y-50101174D01*
X142268750Y-50100000D01*
X142756250Y-50100000D01*
X142780142Y-50101174D01*
X142780142Y-50101174D01*
G37*
D14*
G04 #@! TD*
G04 #@! TO.P,C3,1*
G04 #@! TO.N,+BATT*
X142512500Y-50800000D03*
D13*
G04 #@! TO.N,GND*
G04 #@! TO.C,C10*
G36*
X144663769Y-48050181D02*
X144687430Y-48053691D01*
X144710634Y-48059503D01*
X144733156Y-48067561D01*
X144754780Y-48077789D01*
X144775297Y-48090086D01*
X144794510Y-48104336D01*
X144812234Y-48120400D01*
X144828298Y-48138124D01*
X144842548Y-48157337D01*
X144854845Y-48177854D01*
X144865073Y-48199478D01*
X144873131Y-48222000D01*
X144878943Y-48245204D01*
X144882453Y-48268865D01*
X144883627Y-48292757D01*
X144883627Y-49205257D01*
X144882453Y-49229149D01*
X144878943Y-49252810D01*
X144873131Y-49276014D01*
X144865073Y-49298536D01*
X144854845Y-49320160D01*
X144842548Y-49340677D01*
X144828298Y-49359890D01*
X144812234Y-49377614D01*
X144794510Y-49393678D01*
X144775297Y-49407928D01*
X144754780Y-49420225D01*
X144733156Y-49430453D01*
X144710634Y-49438511D01*
X144687430Y-49444323D01*
X144663769Y-49447833D01*
X144639877Y-49449007D01*
X144152377Y-49449007D01*
X144128485Y-49447833D01*
X144104824Y-49444323D01*
X144081620Y-49438511D01*
X144059098Y-49430453D01*
X144037474Y-49420225D01*
X144016957Y-49407928D01*
X143997744Y-49393678D01*
X143980020Y-49377614D01*
X143963956Y-49359890D01*
X143949706Y-49340677D01*
X143937409Y-49320160D01*
X143927181Y-49298536D01*
X143919123Y-49276014D01*
X143913311Y-49252810D01*
X143909801Y-49229149D01*
X143908627Y-49205257D01*
X143908627Y-48292757D01*
X143909801Y-48268865D01*
X143913311Y-48245204D01*
X143919123Y-48222000D01*
X143927181Y-48199478D01*
X143937409Y-48177854D01*
X143949706Y-48157337D01*
X143963956Y-48138124D01*
X143980020Y-48120400D01*
X143997744Y-48104336D01*
X144016957Y-48090086D01*
X144037474Y-48077789D01*
X144059098Y-48067561D01*
X144081620Y-48059503D01*
X144104824Y-48053691D01*
X144128485Y-48050181D01*
X144152377Y-48049007D01*
X144639877Y-48049007D01*
X144663769Y-48050181D01*
X144663769Y-48050181D01*
G37*
D14*
G04 #@! TD*
G04 #@! TO.P,C10,2*
G04 #@! TO.N,GND*
X144396127Y-48749007D03*
D13*
G04 #@! TO.N,+BATT*
G04 #@! TO.C,C10*
G36*
X142788769Y-48050181D02*
X142812430Y-48053691D01*
X142835634Y-48059503D01*
X142858156Y-48067561D01*
X142879780Y-48077789D01*
X142900297Y-48090086D01*
X142919510Y-48104336D01*
X142937234Y-48120400D01*
X142953298Y-48138124D01*
X142967548Y-48157337D01*
X142979845Y-48177854D01*
X142990073Y-48199478D01*
X142998131Y-48222000D01*
X143003943Y-48245204D01*
X143007453Y-48268865D01*
X143008627Y-48292757D01*
X143008627Y-49205257D01*
X143007453Y-49229149D01*
X143003943Y-49252810D01*
X142998131Y-49276014D01*
X142990073Y-49298536D01*
X142979845Y-49320160D01*
X142967548Y-49340677D01*
X142953298Y-49359890D01*
X142937234Y-49377614D01*
X142919510Y-49393678D01*
X142900297Y-49407928D01*
X142879780Y-49420225D01*
X142858156Y-49430453D01*
X142835634Y-49438511D01*
X142812430Y-49444323D01*
X142788769Y-49447833D01*
X142764877Y-49449007D01*
X142277377Y-49449007D01*
X142253485Y-49447833D01*
X142229824Y-49444323D01*
X142206620Y-49438511D01*
X142184098Y-49430453D01*
X142162474Y-49420225D01*
X142141957Y-49407928D01*
X142122744Y-49393678D01*
X142105020Y-49377614D01*
X142088956Y-49359890D01*
X142074706Y-49340677D01*
X142062409Y-49320160D01*
X142052181Y-49298536D01*
X142044123Y-49276014D01*
X142038311Y-49252810D01*
X142034801Y-49229149D01*
X142033627Y-49205257D01*
X142033627Y-48292757D01*
X142034801Y-48268865D01*
X142038311Y-48245204D01*
X142044123Y-48222000D01*
X142052181Y-48199478D01*
X142062409Y-48177854D01*
X142074706Y-48157337D01*
X142088956Y-48138124D01*
X142105020Y-48120400D01*
X142122744Y-48104336D01*
X142141957Y-48090086D01*
X142162474Y-48077789D01*
X142184098Y-48067561D01*
X142206620Y-48059503D01*
X142229824Y-48053691D01*
X142253485Y-48050181D01*
X142277377Y-48049007D01*
X142764877Y-48049007D01*
X142788769Y-48050181D01*
X142788769Y-48050181D01*
G37*
D14*
G04 #@! TD*
G04 #@! TO.P,C10,1*
G04 #@! TO.N,+BATT*
X142521127Y-48749007D03*
D13*
G04 #@! TO.N,VDDA*
G04 #@! TO.C,R2*
G36*
X142929956Y-37625048D02*
X142953617Y-37628558D01*
X142976821Y-37634370D01*
X142999343Y-37642428D01*
X143020967Y-37652656D01*
X143041484Y-37664953D01*
X143060697Y-37679203D01*
X143078421Y-37695267D01*
X143094485Y-37712991D01*
X143108735Y-37732204D01*
X143121032Y-37752721D01*
X143131260Y-37774345D01*
X143139318Y-37796867D01*
X143145130Y-37820071D01*
X143148640Y-37843732D01*
X143149814Y-37867624D01*
X143149814Y-38780124D01*
X143148640Y-38804016D01*
X143145130Y-38827677D01*
X143139318Y-38850881D01*
X143131260Y-38873403D01*
X143121032Y-38895027D01*
X143108735Y-38915544D01*
X143094485Y-38934757D01*
X143078421Y-38952481D01*
X143060697Y-38968545D01*
X143041484Y-38982795D01*
X143020967Y-38995092D01*
X142999343Y-39005320D01*
X142976821Y-39013378D01*
X142953617Y-39019190D01*
X142929956Y-39022700D01*
X142906064Y-39023874D01*
X142418564Y-39023874D01*
X142394672Y-39022700D01*
X142371011Y-39019190D01*
X142347807Y-39013378D01*
X142325285Y-39005320D01*
X142303661Y-38995092D01*
X142283144Y-38982795D01*
X142263931Y-38968545D01*
X142246207Y-38952481D01*
X142230143Y-38934757D01*
X142215893Y-38915544D01*
X142203596Y-38895027D01*
X142193368Y-38873403D01*
X142185310Y-38850881D01*
X142179498Y-38827677D01*
X142175988Y-38804016D01*
X142174814Y-38780124D01*
X142174814Y-37867624D01*
X142175988Y-37843732D01*
X142179498Y-37820071D01*
X142185310Y-37796867D01*
X142193368Y-37774345D01*
X142203596Y-37752721D01*
X142215893Y-37732204D01*
X142230143Y-37712991D01*
X142246207Y-37695267D01*
X142263931Y-37679203D01*
X142283144Y-37664953D01*
X142303661Y-37652656D01*
X142325285Y-37642428D01*
X142347807Y-37634370D01*
X142371011Y-37628558D01*
X142394672Y-37625048D01*
X142418564Y-37623874D01*
X142906064Y-37623874D01*
X142929956Y-37625048D01*
X142929956Y-37625048D01*
G37*
D14*
G04 #@! TD*
G04 #@! TO.P,R2,1*
G04 #@! TO.N,VDDA*
X142662314Y-38323874D03*
D13*
G04 #@! TO.N,Net-(IC1-Pad3)*
G04 #@! TO.C,R2*
G36*
X144804956Y-37625048D02*
X144828617Y-37628558D01*
X144851821Y-37634370D01*
X144874343Y-37642428D01*
X144895967Y-37652656D01*
X144916484Y-37664953D01*
X144935697Y-37679203D01*
X144953421Y-37695267D01*
X144969485Y-37712991D01*
X144983735Y-37732204D01*
X144996032Y-37752721D01*
X145006260Y-37774345D01*
X145014318Y-37796867D01*
X145020130Y-37820071D01*
X145023640Y-37843732D01*
X145024814Y-37867624D01*
X145024814Y-38780124D01*
X145023640Y-38804016D01*
X145020130Y-38827677D01*
X145014318Y-38850881D01*
X145006260Y-38873403D01*
X144996032Y-38895027D01*
X144983735Y-38915544D01*
X144969485Y-38934757D01*
X144953421Y-38952481D01*
X144935697Y-38968545D01*
X144916484Y-38982795D01*
X144895967Y-38995092D01*
X144874343Y-39005320D01*
X144851821Y-39013378D01*
X144828617Y-39019190D01*
X144804956Y-39022700D01*
X144781064Y-39023874D01*
X144293564Y-39023874D01*
X144269672Y-39022700D01*
X144246011Y-39019190D01*
X144222807Y-39013378D01*
X144200285Y-39005320D01*
X144178661Y-38995092D01*
X144158144Y-38982795D01*
X144138931Y-38968545D01*
X144121207Y-38952481D01*
X144105143Y-38934757D01*
X144090893Y-38915544D01*
X144078596Y-38895027D01*
X144068368Y-38873403D01*
X144060310Y-38850881D01*
X144054498Y-38827677D01*
X144050988Y-38804016D01*
X144049814Y-38780124D01*
X144049814Y-37867624D01*
X144050988Y-37843732D01*
X144054498Y-37820071D01*
X144060310Y-37796867D01*
X144068368Y-37774345D01*
X144078596Y-37752721D01*
X144090893Y-37732204D01*
X144105143Y-37712991D01*
X144121207Y-37695267D01*
X144138931Y-37679203D01*
X144158144Y-37664953D01*
X144178661Y-37652656D01*
X144200285Y-37642428D01*
X144222807Y-37634370D01*
X144246011Y-37628558D01*
X144269672Y-37625048D01*
X144293564Y-37623874D01*
X144781064Y-37623874D01*
X144804956Y-37625048D01*
X144804956Y-37625048D01*
G37*
D14*
G04 #@! TD*
G04 #@! TO.P,R2,2*
G04 #@! TO.N,Net-(IC1-Pad3)*
X144537314Y-38323874D03*
D13*
G04 #@! TO.N,GND*
G04 #@! TO.C,R3*
G36*
X142930142Y-35641174D02*
X142953803Y-35644684D01*
X142977007Y-35650496D01*
X142999529Y-35658554D01*
X143021153Y-35668782D01*
X143041670Y-35681079D01*
X143060883Y-35695329D01*
X143078607Y-35711393D01*
X143094671Y-35729117D01*
X143108921Y-35748330D01*
X143121218Y-35768847D01*
X143131446Y-35790471D01*
X143139504Y-35812993D01*
X143145316Y-35836197D01*
X143148826Y-35859858D01*
X143150000Y-35883750D01*
X143150000Y-36796250D01*
X143148826Y-36820142D01*
X143145316Y-36843803D01*
X143139504Y-36867007D01*
X143131446Y-36889529D01*
X143121218Y-36911153D01*
X143108921Y-36931670D01*
X143094671Y-36950883D01*
X143078607Y-36968607D01*
X143060883Y-36984671D01*
X143041670Y-36998921D01*
X143021153Y-37011218D01*
X142999529Y-37021446D01*
X142977007Y-37029504D01*
X142953803Y-37035316D01*
X142930142Y-37038826D01*
X142906250Y-37040000D01*
X142418750Y-37040000D01*
X142394858Y-37038826D01*
X142371197Y-37035316D01*
X142347993Y-37029504D01*
X142325471Y-37021446D01*
X142303847Y-37011218D01*
X142283330Y-36998921D01*
X142264117Y-36984671D01*
X142246393Y-36968607D01*
X142230329Y-36950883D01*
X142216079Y-36931670D01*
X142203782Y-36911153D01*
X142193554Y-36889529D01*
X142185496Y-36867007D01*
X142179684Y-36843803D01*
X142176174Y-36820142D01*
X142175000Y-36796250D01*
X142175000Y-35883750D01*
X142176174Y-35859858D01*
X142179684Y-35836197D01*
X142185496Y-35812993D01*
X142193554Y-35790471D01*
X142203782Y-35768847D01*
X142216079Y-35748330D01*
X142230329Y-35729117D01*
X142246393Y-35711393D01*
X142264117Y-35695329D01*
X142283330Y-35681079D01*
X142303847Y-35668782D01*
X142325471Y-35658554D01*
X142347993Y-35650496D01*
X142371197Y-35644684D01*
X142394858Y-35641174D01*
X142418750Y-35640000D01*
X142906250Y-35640000D01*
X142930142Y-35641174D01*
X142930142Y-35641174D01*
G37*
D14*
G04 #@! TD*
G04 #@! TO.P,R3,2*
G04 #@! TO.N,GND*
X142662500Y-36340000D03*
D13*
G04 #@! TO.N,Net-(IC1-Pad3)*
G04 #@! TO.C,R3*
G36*
X144805142Y-35641174D02*
X144828803Y-35644684D01*
X144852007Y-35650496D01*
X144874529Y-35658554D01*
X144896153Y-35668782D01*
X144916670Y-35681079D01*
X144935883Y-35695329D01*
X144953607Y-35711393D01*
X144969671Y-35729117D01*
X144983921Y-35748330D01*
X144996218Y-35768847D01*
X145006446Y-35790471D01*
X145014504Y-35812993D01*
X145020316Y-35836197D01*
X145023826Y-35859858D01*
X145025000Y-35883750D01*
X145025000Y-36796250D01*
X145023826Y-36820142D01*
X145020316Y-36843803D01*
X145014504Y-36867007D01*
X145006446Y-36889529D01*
X144996218Y-36911153D01*
X144983921Y-36931670D01*
X144969671Y-36950883D01*
X144953607Y-36968607D01*
X144935883Y-36984671D01*
X144916670Y-36998921D01*
X144896153Y-37011218D01*
X144874529Y-37021446D01*
X144852007Y-37029504D01*
X144828803Y-37035316D01*
X144805142Y-37038826D01*
X144781250Y-37040000D01*
X144293750Y-37040000D01*
X144269858Y-37038826D01*
X144246197Y-37035316D01*
X144222993Y-37029504D01*
X144200471Y-37021446D01*
X144178847Y-37011218D01*
X144158330Y-36998921D01*
X144139117Y-36984671D01*
X144121393Y-36968607D01*
X144105329Y-36950883D01*
X144091079Y-36931670D01*
X144078782Y-36911153D01*
X144068554Y-36889529D01*
X144060496Y-36867007D01*
X144054684Y-36843803D01*
X144051174Y-36820142D01*
X144050000Y-36796250D01*
X144050000Y-35883750D01*
X144051174Y-35859858D01*
X144054684Y-35836197D01*
X144060496Y-35812993D01*
X144068554Y-35790471D01*
X144078782Y-35768847D01*
X144091079Y-35748330D01*
X144105329Y-35729117D01*
X144121393Y-35711393D01*
X144139117Y-35695329D01*
X144158330Y-35681079D01*
X144178847Y-35668782D01*
X144200471Y-35658554D01*
X144222993Y-35650496D01*
X144246197Y-35644684D01*
X144269858Y-35641174D01*
X144293750Y-35640000D01*
X144781250Y-35640000D01*
X144805142Y-35641174D01*
X144805142Y-35641174D01*
G37*
D14*
G04 #@! TD*
G04 #@! TO.P,R3,1*
G04 #@! TO.N,Net-(IC1-Pad3)*
X144537500Y-36340000D03*
D15*
G04 #@! TO.N,GND*
X145330000Y-50780000D03*
X172500000Y-42500000D03*
X172500000Y-44250000D03*
X171750000Y-45000000D03*
X170500000Y-44250000D03*
X144830000Y-34980000D03*
X158558000Y-48726000D03*
X155790000Y-46230000D03*
X161700000Y-48342500D03*
X151910000Y-41200000D03*
X155490000Y-43090000D03*
X149950000Y-42920000D03*
X151690000Y-45970000D03*
X162820000Y-46640000D03*
X163040000Y-50400000D03*
X167500000Y-47000000D03*
X170500000Y-47000000D03*
X169000000Y-47000000D03*
X168000000Y-48000000D03*
X168000000Y-49500000D03*
X168000000Y-51000000D03*
X168000000Y-52500000D03*
X166500000Y-50500000D03*
X165000000Y-50500000D03*
X169000000Y-44250000D03*
X167500000Y-44250000D03*
X166000000Y-44250000D03*
X164500000Y-44250000D03*
X172740000Y-45750000D03*
X165250000Y-43250000D03*
X166250000Y-42250000D03*
X166350000Y-41000000D03*
X167250000Y-40250000D03*
X167750000Y-39000000D03*
X167750000Y-37500000D03*
X167500000Y-36250000D03*
X167000000Y-35000000D03*
X165500000Y-34750000D03*
X164000000Y-34750000D03*
X172500000Y-41000000D03*
X172500000Y-39500000D03*
X172500000Y-38000000D03*
X172500000Y-36500000D03*
X172500000Y-35000000D03*
X171650000Y-34070000D03*
X170250000Y-33750000D03*
X168500000Y-33750000D03*
X166750000Y-33750000D03*
X172000000Y-53500000D03*
X170500000Y-53750000D03*
X169000000Y-53750000D03*
X167500000Y-53750000D03*
X166000000Y-53750000D03*
X164500000Y-53750000D03*
X169750000Y-52750000D03*
X171250000Y-52750000D03*
X163040000Y-53750000D03*
X161500000Y-53780000D03*
X161500000Y-52250000D03*
X162500000Y-51500000D03*
X152750000Y-53750000D03*
X143750000Y-40500000D03*
X144750000Y-41750000D03*
X144650000Y-43500000D03*
X141400000Y-39200000D03*
X141400000Y-40600000D03*
X146400000Y-41800000D03*
X146670000Y-43380000D03*
X148100000Y-43340000D03*
X148430000Y-41990000D03*
X144220000Y-45200000D03*
X144130000Y-47040000D03*
X145370000Y-48790000D03*
X146800000Y-49000000D03*
X148200000Y-50200000D03*
X150510000Y-48860000D03*
X151480000Y-42620000D03*
X148430000Y-45920000D03*
X150250000Y-39750000D03*
X150250000Y-37500000D03*
X150250000Y-35250000D03*
X155470000Y-49090000D03*
X150510000Y-50270000D03*
X141520000Y-46370000D03*
X141360000Y-48850000D03*
X141350000Y-51770000D03*
X165000000Y-33750000D03*
X163250000Y-33750000D03*
X161460000Y-33640000D03*
X159710000Y-33520000D03*
X158000000Y-33500000D03*
X156140000Y-33450000D03*
X154000000Y-33630000D03*
X151990000Y-33780000D03*
X147050000Y-51410000D03*
X150020000Y-53830000D03*
X147200000Y-53830000D03*
X144590000Y-53830000D03*
X142250000Y-53500000D03*
X153750000Y-45250000D03*
X147520000Y-34910000D03*
X164070000Y-40180000D03*
X157210000Y-47480000D03*
X158440000Y-51330000D03*
G04 #@! TO.N,+BATT*
X156600000Y-51440000D03*
X154450000Y-37750000D03*
X163780000Y-41130000D03*
D16*
G04 #@! TO.N,VDDA*
X141478000Y-37846000D03*
D15*
G04 #@! TO.N,Net-(IC1-Pad3)*
X147413000Y-39025000D03*
G04 #@! TO.N,AnalogPowerEnable*
X155570000Y-38847500D03*
X155484873Y-41615000D03*
G04 #@! TO.N,Net-(IC2-Pad49)*
X158250000Y-42500000D03*
G04 #@! TO.N,Net-(IC2-Pad45)*
X160433928Y-47817290D03*
X161520000Y-47300000D03*
G04 #@! TO.N,Net-(IC2-Pad27)*
X158840000Y-37660000D03*
X155250201Y-42349417D03*
G04 #@! TO.N,RESET*
X159620000Y-38810000D03*
G04 #@! TO.N,SWCLK*
X155660000Y-44010000D03*
G04 #@! TO.N,SWDIO*
X155654186Y-44775475D03*
G04 #@! TD*
D17*
G04 #@! TO.N,+BATT*
X156899999Y-51140001D02*
X156899999Y-49980001D01*
X156600000Y-51440000D02*
X156899999Y-51140001D01*
X170220000Y-38187500D02*
X163682500Y-38187500D01*
X163480000Y-38390000D02*
X162800000Y-37710000D01*
X163682500Y-38187500D02*
X163480000Y-38390000D01*
X154450000Y-37750000D02*
X154450000Y-36330000D01*
X154450000Y-36330000D02*
X154790000Y-35990000D01*
X142522500Y-43697500D02*
X142400000Y-43575000D01*
X142522500Y-52230000D02*
X142522500Y-43697500D01*
X154960000Y-53780000D02*
X154210000Y-53780000D01*
X154210000Y-53780000D02*
X154000000Y-53570000D01*
X154000000Y-53570000D02*
X154000000Y-53250000D01*
X142792500Y-52500000D02*
X142522500Y-52230000D01*
X154000000Y-53250000D02*
X153250000Y-52500000D01*
X153250000Y-52500000D02*
X142792500Y-52500000D01*
X156430000Y-35990000D02*
X159320000Y-35990000D01*
X162800000Y-37710000D02*
X161040000Y-37710000D01*
X156430000Y-35990000D02*
X156720000Y-35990000D01*
X159320000Y-35990000D02*
X161040000Y-37710000D01*
X154790000Y-35990000D02*
X156430000Y-35990000D01*
X162980000Y-40330000D02*
X163780000Y-41130000D01*
X162980000Y-38890000D02*
X162980000Y-40330000D01*
X163480000Y-38390000D02*
X162980000Y-38890000D01*
X156899999Y-48710001D02*
X156899999Y-51140001D01*
X158760000Y-42910000D02*
X158760000Y-46850000D01*
X161040000Y-37710000D02*
X159655802Y-37710000D01*
X159425001Y-38166201D02*
X159034307Y-38556895D01*
X159655802Y-37710000D02*
X159425001Y-37940801D01*
X159034307Y-42635693D02*
X158760000Y-42910000D01*
X158760000Y-46850000D02*
X156899999Y-48710001D01*
X159425001Y-37940801D02*
X159425001Y-38166201D01*
X159034307Y-38556895D02*
X159034307Y-42635693D01*
G04 #@! TO.N,VDDA*
X142662314Y-38323874D02*
X141955874Y-38323874D01*
X141955874Y-38323874D02*
X141478000Y-37846000D01*
G04 #@! TO.N,Net-(IC1-Pad3)*
X144537500Y-38323688D02*
X144537314Y-38323874D01*
X144537500Y-36340000D02*
X144537500Y-38323688D01*
X147213000Y-38825000D02*
X147413000Y-39025000D01*
X146145000Y-38825000D02*
X147213000Y-38825000D01*
X145643874Y-38323874D02*
X146145000Y-38825000D01*
X144537314Y-38323874D02*
X145643874Y-38323874D01*
G04 #@! TO.N,AnalogPowerEnable*
X155484873Y-38932627D02*
X155570000Y-38847500D01*
X155484873Y-41615000D02*
X155484873Y-38932627D01*
D18*
G04 #@! TO.N,Net-(IC2-Pad45)*
X160941218Y-47310000D02*
X160433928Y-47817290D01*
X161530000Y-47310000D02*
X160941218Y-47310000D01*
D17*
G04 #@! TO.N,Net-(IC2-Pad27)*
X158540001Y-39545326D02*
X158365327Y-39720000D01*
D18*
X158540001Y-38534999D02*
X158540001Y-39545326D01*
X158449803Y-39635524D02*
X158365327Y-39720000D01*
X158840000Y-38235000D02*
X158540001Y-38534999D01*
X158365327Y-39720000D02*
X155781974Y-42303353D01*
X158840000Y-38235000D02*
X158840000Y-37660000D01*
X155710000Y-42313882D02*
X155710000Y-42303353D01*
X155674465Y-42349417D02*
X155710000Y-42313882D01*
X155781974Y-42303353D02*
X155710000Y-42303353D01*
X155250201Y-42349417D02*
X155674465Y-42349417D01*
X155710000Y-42303353D02*
X155357710Y-42303353D01*
G04 #@! TO.N,RESET*
X159559308Y-40159308D02*
X160550000Y-41150000D01*
X160550000Y-41150000D02*
X160550000Y-45650000D01*
X160550000Y-45650000D02*
X160525000Y-45675000D01*
X159559308Y-47740692D02*
X160525000Y-46775000D01*
X160040000Y-52510000D02*
X159559308Y-52029308D01*
X159559308Y-52029308D02*
X159559308Y-47740692D01*
X160525000Y-45675000D02*
X160525000Y-46775000D01*
X159559308Y-39270000D02*
X159559308Y-40159308D01*
X159620000Y-39234264D02*
X159620000Y-38810000D01*
X159584264Y-39270000D02*
X159620000Y-39234264D01*
X159559308Y-39270000D02*
X159584264Y-39270000D01*
G04 #@! TO.N,SWCLK*
X156183613Y-44109349D02*
X156084264Y-44010000D01*
X157145010Y-46657552D02*
X157145009Y-45792869D01*
X155438781Y-51718781D02*
X155438781Y-51313781D01*
X155438781Y-51313781D02*
X155845009Y-50907553D01*
X156330011Y-49672551D02*
X156330011Y-47472551D01*
X156084264Y-44010000D02*
X155660000Y-44010000D01*
X156330011Y-47472551D02*
X157145010Y-46657552D01*
X156230000Y-52510000D02*
X155438781Y-51718781D01*
X155845009Y-50907553D02*
X155845010Y-50157552D01*
X155845010Y-50157552D02*
X156330011Y-49672551D01*
X156183613Y-44109349D02*
X156209349Y-44109349D01*
X156302140Y-44202140D02*
X156302140Y-44950000D01*
X156209349Y-44109349D02*
X156302140Y-44202140D01*
X157145009Y-45792869D02*
X156302140Y-44950000D01*
G04 #@! TO.N,SWDIO*
X156825000Y-45925422D02*
X156825000Y-46525000D01*
X156010001Y-47339999D02*
X156010001Y-49539999D01*
X156825000Y-46525000D02*
X156010001Y-47339999D01*
X156010001Y-49539999D02*
X155525000Y-50025000D01*
X155525000Y-50025000D02*
X155525000Y-50775000D01*
X154960000Y-51340000D02*
X154960000Y-52510000D01*
X155525000Y-50775000D02*
X154960000Y-51340000D01*
X155982130Y-45082552D02*
X156825000Y-45925422D01*
X155982130Y-44952130D02*
X155982130Y-45082552D01*
X155740000Y-44710000D02*
X155982130Y-44952130D01*
G04 #@! TD*
D17*
G04 #@! TO.N,GND*
G36*
X141100000Y-45757346D02*
X142022501Y-45757346D01*
X142022501Y-47724529D01*
X141834660Y-47850040D01*
X141698940Y-48053160D01*
X141651281Y-48292757D01*
X141651281Y-49205257D01*
X141698940Y-49444854D01*
X141834660Y-49647974D01*
X142019712Y-49771621D01*
X141826033Y-49901033D01*
X141690313Y-50104153D01*
X141642654Y-50343750D01*
X141642654Y-51256250D01*
X141690313Y-51495847D01*
X141826033Y-51698967D01*
X142022500Y-51830242D01*
X142022500Y-52180759D01*
X142012705Y-52230000D01*
X142022500Y-52279241D01*
X142022500Y-52279242D01*
X142051511Y-52425089D01*
X142162020Y-52590480D01*
X142203771Y-52618377D01*
X142404123Y-52818729D01*
X142432020Y-52860480D01*
X142597410Y-52970989D01*
X142707418Y-52992871D01*
X142792500Y-53009795D01*
X142841743Y-53000000D01*
X153042894Y-53000000D01*
X153500000Y-53457107D01*
X153500000Y-53520759D01*
X153490205Y-53570000D01*
X153500000Y-53619241D01*
X153500000Y-53619242D01*
X153529011Y-53765089D01*
X153639520Y-53930480D01*
X153681271Y-53958377D01*
X153821623Y-54098729D01*
X153849520Y-54140480D01*
X153997159Y-54239128D01*
X154013430Y-54250000D01*
X142582058Y-54250000D01*
X142116254Y-54183292D01*
X141717380Y-54001935D01*
X141385435Y-53715912D01*
X141147114Y-53348228D01*
X141017108Y-52913520D01*
X141000000Y-52683298D01*
X141000000Y-45737455D01*
X141100000Y-45757346D01*
X141100000Y-45757346D01*
G37*
X141100000Y-45757346D02*
X142022501Y-45757346D01*
X142022501Y-47724529D01*
X141834660Y-47850040D01*
X141698940Y-48053160D01*
X141651281Y-48292757D01*
X141651281Y-49205257D01*
X141698940Y-49444854D01*
X141834660Y-49647974D01*
X142019712Y-49771621D01*
X141826033Y-49901033D01*
X141690313Y-50104153D01*
X141642654Y-50343750D01*
X141642654Y-51256250D01*
X141690313Y-51495847D01*
X141826033Y-51698967D01*
X142022500Y-51830242D01*
X142022500Y-52180759D01*
X142012705Y-52230000D01*
X142022500Y-52279241D01*
X142022500Y-52279242D01*
X142051511Y-52425089D01*
X142162020Y-52590480D01*
X142203771Y-52618377D01*
X142404123Y-52818729D01*
X142432020Y-52860480D01*
X142597410Y-52970989D01*
X142707418Y-52992871D01*
X142792500Y-53009795D01*
X142841743Y-53000000D01*
X153042894Y-53000000D01*
X153500000Y-53457107D01*
X153500000Y-53520759D01*
X153490205Y-53570000D01*
X153500000Y-53619241D01*
X153500000Y-53619242D01*
X153529011Y-53765089D01*
X153639520Y-53930480D01*
X153681271Y-53958377D01*
X153821623Y-54098729D01*
X153849520Y-54140480D01*
X153997159Y-54239128D01*
X154013430Y-54250000D01*
X142582058Y-54250000D01*
X142116254Y-54183292D01*
X141717380Y-54001935D01*
X141385435Y-53715912D01*
X141147114Y-53348228D01*
X141017108Y-52913520D01*
X141000000Y-52683298D01*
X141000000Y-45737455D01*
X141100000Y-45757346D01*
G36*
X171983745Y-33216708D02*
X172382621Y-33398066D01*
X172714564Y-33684087D01*
X172952887Y-34051776D01*
X173082892Y-34486480D01*
X173100000Y-34716702D01*
X173100000Y-41410524D01*
X173074592Y-41400000D01*
X171818750Y-41400000D01*
X171725000Y-41493750D01*
X171725000Y-43550000D01*
X171745000Y-43550000D01*
X171745000Y-43600000D01*
X171725000Y-43600000D01*
X171725000Y-45656250D01*
X171818750Y-45750000D01*
X173074592Y-45750000D01*
X173100001Y-45739475D01*
X173100001Y-47487518D01*
X168629232Y-47515002D01*
X168583166Y-47524105D01*
X168542380Y-47550850D01*
X168514934Y-47591167D01*
X168505005Y-47638918D01*
X168465005Y-52258918D01*
X168474711Y-52308305D01*
X168501972Y-52348748D01*
X168542635Y-52375679D01*
X168590509Y-52384999D01*
X173100001Y-52366630D01*
X173100001Y-52667935D01*
X173033292Y-53133746D01*
X172851935Y-53532620D01*
X172565912Y-53864565D01*
X172198228Y-54102886D01*
X171763520Y-54232892D01*
X171533298Y-54250000D01*
X160776037Y-54250000D01*
X160899967Y-53941517D01*
X160820896Y-53805000D01*
X160065000Y-53805000D01*
X160065000Y-53825000D01*
X160015000Y-53825000D01*
X160015000Y-53805000D01*
X158795000Y-53805000D01*
X158795000Y-53825000D01*
X158745000Y-53825000D01*
X158745000Y-53805000D01*
X157525000Y-53805000D01*
X157525000Y-53825000D01*
X157475000Y-53825000D01*
X157475000Y-53805000D01*
X156255000Y-53805000D01*
X156255000Y-53825000D01*
X156205000Y-53825000D01*
X156205000Y-53805000D01*
X156185000Y-53805000D01*
X156185000Y-53755000D01*
X156205000Y-53755000D01*
X156205000Y-53735000D01*
X156255000Y-53735000D01*
X156255000Y-53755000D01*
X157475000Y-53755000D01*
X157475000Y-53735000D01*
X157525000Y-53735000D01*
X157525000Y-53755000D01*
X158745000Y-53755000D01*
X158745000Y-53735000D01*
X158795000Y-53735000D01*
X158795000Y-53755000D01*
X160015000Y-53755000D01*
X160015000Y-53735000D01*
X160065000Y-53735000D01*
X160065000Y-53755000D01*
X160820896Y-53755000D01*
X160899967Y-53618483D01*
X160772696Y-53301683D01*
X160637236Y-53163294D01*
X160670840Y-53140840D01*
X160864232Y-52851408D01*
X160932142Y-52510000D01*
X160864232Y-52168592D01*
X160670840Y-51879160D01*
X160381408Y-51685768D01*
X160126179Y-51635000D01*
X160014308Y-51635000D01*
X160014308Y-48352264D01*
X160051571Y-48389527D01*
X160299662Y-48492290D01*
X160568194Y-48492290D01*
X160816285Y-48389527D01*
X161006165Y-48199647D01*
X161108928Y-47951556D01*
X161108928Y-47843522D01*
X161137643Y-47872237D01*
X161385734Y-47975000D01*
X161654266Y-47975000D01*
X161902357Y-47872237D01*
X162092237Y-47682357D01*
X162195000Y-47434266D01*
X162195000Y-47165734D01*
X162092237Y-46917643D01*
X161902357Y-46727763D01*
X161654266Y-46625000D01*
X161385734Y-46625000D01*
X161137643Y-46727763D01*
X161010406Y-46855000D01*
X160986021Y-46855000D01*
X160973496Y-46852509D01*
X160980000Y-46819809D01*
X160988913Y-46775000D01*
X160980000Y-46730191D01*
X160980000Y-45820494D01*
X161005000Y-45694809D01*
X161005000Y-45694805D01*
X161013912Y-45650001D01*
X161005000Y-45605197D01*
X161005000Y-43693750D01*
X170025000Y-43693750D01*
X170025000Y-45449592D01*
X170082090Y-45587421D01*
X170187580Y-45692910D01*
X170325408Y-45750000D01*
X171581250Y-45750000D01*
X171675000Y-45656250D01*
X171675000Y-43600000D01*
X170118750Y-43600000D01*
X170025000Y-43693750D01*
X161005000Y-43693750D01*
X161005000Y-41194804D01*
X161013912Y-41149999D01*
X161005000Y-41105192D01*
X161005000Y-41105191D01*
X160978600Y-40972468D01*
X160878036Y-40821964D01*
X160840049Y-40796582D01*
X160014308Y-39970842D01*
X160014308Y-39463117D01*
X160048600Y-39411796D01*
X160067422Y-39317172D01*
X160192237Y-39192357D01*
X160295000Y-38944266D01*
X160295000Y-38675734D01*
X160192237Y-38427643D01*
X160002357Y-38237763D01*
X159935331Y-38210000D01*
X160990758Y-38210000D01*
X161039999Y-38219795D01*
X161089240Y-38210000D01*
X162592894Y-38210000D01*
X162772894Y-38390000D01*
X162661270Y-38501624D01*
X162619520Y-38529520D01*
X162509011Y-38694911D01*
X162482158Y-38829910D01*
X162470205Y-38890000D01*
X162480000Y-38939242D01*
X162480001Y-40280754D01*
X162470205Y-40330000D01*
X162493947Y-40449356D01*
X162509012Y-40525090D01*
X162619521Y-40690480D01*
X162661268Y-40718374D01*
X163105000Y-41162107D01*
X163105000Y-41264266D01*
X163207763Y-41512357D01*
X163397643Y-41702237D01*
X163645734Y-41805000D01*
X163914266Y-41805000D01*
X164162357Y-41702237D01*
X164164186Y-41700408D01*
X170025000Y-41700408D01*
X170025000Y-43456250D01*
X170118750Y-43550000D01*
X171675000Y-43550000D01*
X171675000Y-41493750D01*
X171581250Y-41400000D01*
X170325408Y-41400000D01*
X170187580Y-41457090D01*
X170082090Y-41562579D01*
X170025000Y-41700408D01*
X164164186Y-41700408D01*
X164352237Y-41512357D01*
X164455000Y-41264266D01*
X164455000Y-40995734D01*
X164352237Y-40747643D01*
X164162357Y-40557763D01*
X163914266Y-40455000D01*
X163812107Y-40455000D01*
X163480000Y-40122894D01*
X163480000Y-39097106D01*
X163798737Y-38778370D01*
X163840479Y-38750479D01*
X163868370Y-38708737D01*
X163868373Y-38708734D01*
X163868375Y-38708731D01*
X163889606Y-38687500D01*
X169196440Y-38687500D01*
X169321033Y-38873967D01*
X169524153Y-39009687D01*
X169763750Y-39057346D01*
X170676250Y-39057346D01*
X170915847Y-39009687D01*
X171118967Y-38873967D01*
X171254687Y-38670847D01*
X171302346Y-38431250D01*
X171302346Y-37943750D01*
X171254687Y-37704153D01*
X171118967Y-37501033D01*
X170915847Y-37365313D01*
X170676250Y-37317654D01*
X169763750Y-37317654D01*
X169524153Y-37365313D01*
X169321033Y-37501033D01*
X169196440Y-37687500D01*
X163731740Y-37687500D01*
X163682499Y-37677705D01*
X163633258Y-37687500D01*
X163633257Y-37687500D01*
X163509269Y-37712163D01*
X163188376Y-37391270D01*
X163160480Y-37349520D01*
X162995090Y-37239011D01*
X162849243Y-37210000D01*
X162849241Y-37210000D01*
X162800000Y-37200205D01*
X162750759Y-37210000D01*
X161247107Y-37210000D01*
X160468357Y-36431250D01*
X169145000Y-36431250D01*
X169145000Y-36874592D01*
X169202090Y-37012420D01*
X169307579Y-37117910D01*
X169445408Y-37175000D01*
X170101250Y-37175000D01*
X170195000Y-37081250D01*
X170195000Y-36337500D01*
X170245000Y-36337500D01*
X170245000Y-37081250D01*
X170338750Y-37175000D01*
X170994592Y-37175000D01*
X171132421Y-37117910D01*
X171237910Y-37012420D01*
X171295000Y-36874592D01*
X171295000Y-36431250D01*
X171201250Y-36337500D01*
X170245000Y-36337500D01*
X170195000Y-36337500D01*
X169238750Y-36337500D01*
X169145000Y-36431250D01*
X160468357Y-36431250D01*
X159787515Y-35750408D01*
X169145000Y-35750408D01*
X169145000Y-36193750D01*
X169238750Y-36287500D01*
X170195000Y-36287500D01*
X170195000Y-35543750D01*
X170245000Y-35543750D01*
X170245000Y-36287500D01*
X171201250Y-36287500D01*
X171295000Y-36193750D01*
X171295000Y-35750408D01*
X171237910Y-35612580D01*
X171132421Y-35507090D01*
X170994592Y-35450000D01*
X170338750Y-35450000D01*
X170245000Y-35543750D01*
X170195000Y-35543750D01*
X170101250Y-35450000D01*
X169445408Y-35450000D01*
X169307579Y-35507090D01*
X169202090Y-35612580D01*
X169145000Y-35750408D01*
X159787515Y-35750408D01*
X159708376Y-35671270D01*
X159680480Y-35629520D01*
X159515090Y-35519011D01*
X159369243Y-35490000D01*
X159369241Y-35490000D01*
X159320000Y-35480205D01*
X159270759Y-35490000D01*
X154839243Y-35490000D01*
X154790000Y-35480205D01*
X154740757Y-35490000D01*
X154594910Y-35519011D01*
X154429520Y-35629520D01*
X154401625Y-35671268D01*
X154131268Y-35941626D01*
X154089521Y-35969520D01*
X154061627Y-36011267D01*
X153979012Y-36134910D01*
X153940205Y-36330000D01*
X153950001Y-36379246D01*
X153950000Y-37295406D01*
X153877763Y-37367643D01*
X153775000Y-37615734D01*
X153775000Y-37884266D01*
X153877763Y-38132357D01*
X154067643Y-38322237D01*
X154315734Y-38425000D01*
X154584266Y-38425000D01*
X154832357Y-38322237D01*
X155022237Y-38132357D01*
X155125000Y-37884266D01*
X155125000Y-37615734D01*
X155022237Y-37367643D01*
X154950000Y-37295406D01*
X154950000Y-36537106D01*
X154997107Y-36490000D01*
X159112894Y-36490000D01*
X159832893Y-37210000D01*
X159705045Y-37210000D01*
X159655802Y-37200205D01*
X159606559Y-37210000D01*
X159460712Y-37239011D01*
X159408495Y-37273901D01*
X159222357Y-37087763D01*
X158974266Y-36985000D01*
X158705734Y-36985000D01*
X158457643Y-37087763D01*
X158267763Y-37277643D01*
X158165000Y-37525734D01*
X158165000Y-37794266D01*
X158267763Y-38042357D01*
X158328470Y-38103064D01*
X158249955Y-38181579D01*
X158211965Y-38206963D01*
X158111401Y-38357468D01*
X158085001Y-38490191D01*
X158085001Y-38490194D01*
X158076089Y-38534999D01*
X158085001Y-38579804D01*
X158085002Y-39293219D01*
X157976954Y-39401267D01*
X157894339Y-39524910D01*
X157888724Y-39553136D01*
X156101661Y-41340199D01*
X156057110Y-41232643D01*
X155984873Y-41160406D01*
X155984873Y-39387221D01*
X156142237Y-39229857D01*
X156245000Y-38981766D01*
X156245000Y-38713234D01*
X156142237Y-38465143D01*
X155952357Y-38275263D01*
X155704266Y-38172500D01*
X155435734Y-38172500D01*
X155187643Y-38275263D01*
X154997763Y-38465143D01*
X154895000Y-38713234D01*
X154895000Y-38981766D01*
X154984874Y-39198740D01*
X154984873Y-41160406D01*
X154912636Y-41232643D01*
X154809873Y-41480734D01*
X154809873Y-41749266D01*
X154835028Y-41809996D01*
X154677964Y-41967060D01*
X154575201Y-42215151D01*
X154575201Y-42483683D01*
X154677964Y-42731774D01*
X154867844Y-42921654D01*
X155115935Y-43024417D01*
X155384467Y-43024417D01*
X155632558Y-42921654D01*
X155757373Y-42796839D01*
X155851997Y-42778017D01*
X155904588Y-42742877D01*
X155959506Y-42731953D01*
X156110010Y-42631389D01*
X156135395Y-42593398D01*
X158532191Y-40196603D01*
X158534307Y-40196182D01*
X158534308Y-41887150D01*
X158384266Y-41825000D01*
X158115734Y-41825000D01*
X157867643Y-41927763D01*
X157677763Y-42117643D01*
X157575000Y-42365734D01*
X157575000Y-42634266D01*
X157677763Y-42882357D01*
X157867643Y-43072237D01*
X158115734Y-43175000D01*
X158260000Y-43175000D01*
X158260001Y-46642892D01*
X156785011Y-48117883D01*
X156785011Y-47661017D01*
X157435061Y-47010968D01*
X157473046Y-46985587D01*
X157518445Y-46917643D01*
X157573610Y-46835084D01*
X157608923Y-46657552D01*
X157600010Y-46612742D01*
X157600008Y-45837682D01*
X157608922Y-45792869D01*
X157573609Y-45615337D01*
X157498427Y-45502820D01*
X157498425Y-45502818D01*
X157473044Y-45464833D01*
X157435059Y-45439452D01*
X156757140Y-44761534D01*
X156757140Y-44246943D01*
X156766052Y-44202139D01*
X156757140Y-44157335D01*
X156757140Y-44157331D01*
X156730740Y-44024608D01*
X156630176Y-43874104D01*
X156592188Y-43848721D01*
X156562769Y-43819302D01*
X156537385Y-43781313D01*
X156431336Y-43710453D01*
X156412300Y-43681964D01*
X156261796Y-43581400D01*
X156167172Y-43562578D01*
X156042357Y-43437763D01*
X155794266Y-43335000D01*
X155525734Y-43335000D01*
X155277643Y-43437763D01*
X155087763Y-43627643D01*
X154985000Y-43875734D01*
X154985000Y-44144266D01*
X155086283Y-44388784D01*
X155081949Y-44393118D01*
X154979186Y-44641209D01*
X154979186Y-44909741D01*
X155081949Y-45157832D01*
X155271829Y-45347712D01*
X155519920Y-45450475D01*
X155706587Y-45450475D01*
X156370000Y-46113889D01*
X156370001Y-46336533D01*
X155719955Y-46986578D01*
X155681965Y-47011963D01*
X155581401Y-47162468D01*
X155555001Y-47295191D01*
X155555001Y-47295194D01*
X155546089Y-47339999D01*
X155555001Y-47384804D01*
X155555002Y-49351531D01*
X155234954Y-49671580D01*
X155196964Y-49696964D01*
X155096400Y-49847469D01*
X155070000Y-49980192D01*
X155070000Y-49980195D01*
X155061088Y-50025000D01*
X155070000Y-50069806D01*
X155070001Y-50586533D01*
X154669954Y-50986580D01*
X154631964Y-51011964D01*
X154531400Y-51162469D01*
X154505000Y-51295192D01*
X154505000Y-51295195D01*
X154496088Y-51340000D01*
X154505000Y-51384805D01*
X154505000Y-51761667D01*
X154329160Y-51879160D01*
X154135768Y-52168592D01*
X154067858Y-52510000D01*
X154092875Y-52635768D01*
X153638376Y-52181270D01*
X153610480Y-52139520D01*
X153445090Y-52029011D01*
X153299243Y-52000000D01*
X153299241Y-52000000D01*
X153250000Y-51990205D01*
X153200759Y-52000000D01*
X143022500Y-52000000D01*
X143022500Y-51816878D01*
X143198967Y-51698967D01*
X143334687Y-51495847D01*
X143382346Y-51256250D01*
X143382346Y-50918750D01*
X143525000Y-50918750D01*
X143525000Y-51574592D01*
X143582090Y-51712421D01*
X143687580Y-51817910D01*
X143825408Y-51875000D01*
X144268750Y-51875000D01*
X144362500Y-51781250D01*
X144362500Y-50825000D01*
X144412500Y-50825000D01*
X144412500Y-51781250D01*
X144506250Y-51875000D01*
X144949592Y-51875000D01*
X145087420Y-51817910D01*
X145192910Y-51712421D01*
X145250000Y-51574592D01*
X145250000Y-50918750D01*
X145156250Y-50825000D01*
X144412500Y-50825000D01*
X144362500Y-50825000D01*
X143618750Y-50825000D01*
X143525000Y-50918750D01*
X143382346Y-50918750D01*
X143382346Y-50343750D01*
X143334687Y-50104153D01*
X143282072Y-50025408D01*
X143525000Y-50025408D01*
X143525000Y-50681250D01*
X143618750Y-50775000D01*
X144362500Y-50775000D01*
X144362500Y-49818750D01*
X144412500Y-49818750D01*
X144412500Y-50775000D01*
X145156250Y-50775000D01*
X145250000Y-50681250D01*
X145250000Y-50025408D01*
X145192910Y-49887579D01*
X145087420Y-49782090D01*
X145073418Y-49776290D01*
X145096047Y-49766917D01*
X145201537Y-49661428D01*
X145258627Y-49523599D01*
X145258627Y-48867757D01*
X145164877Y-48774007D01*
X144421127Y-48774007D01*
X144421127Y-49730257D01*
X144461060Y-49770190D01*
X144412500Y-49818750D01*
X144362500Y-49818750D01*
X144322567Y-49778817D01*
X144371127Y-49730257D01*
X144371127Y-48774007D01*
X143627377Y-48774007D01*
X143533627Y-48867757D01*
X143533627Y-49523599D01*
X143590717Y-49661428D01*
X143696207Y-49766917D01*
X143710209Y-49772717D01*
X143687580Y-49782090D01*
X143582090Y-49887579D01*
X143525000Y-50025408D01*
X143282072Y-50025408D01*
X143198967Y-49901033D01*
X143022500Y-49783122D01*
X143022500Y-49771649D01*
X143207594Y-49647974D01*
X143343314Y-49444854D01*
X143390973Y-49205257D01*
X143390973Y-48292757D01*
X143343314Y-48053160D01*
X143290699Y-47974415D01*
X143533627Y-47974415D01*
X143533627Y-48630257D01*
X143627377Y-48724007D01*
X144371127Y-48724007D01*
X144371127Y-47767757D01*
X144421127Y-47767757D01*
X144421127Y-48724007D01*
X145164877Y-48724007D01*
X145258627Y-48630257D01*
X145258627Y-47974415D01*
X145201537Y-47836586D01*
X145096047Y-47731097D01*
X144958219Y-47674007D01*
X144514877Y-47674007D01*
X144421127Y-47767757D01*
X144371127Y-47767757D01*
X144277377Y-47674007D01*
X143834035Y-47674007D01*
X143696207Y-47731097D01*
X143590717Y-47836586D01*
X143533627Y-47974415D01*
X143290699Y-47974415D01*
X143207594Y-47850040D01*
X143022500Y-47726365D01*
X143022500Y-45757346D01*
X143700000Y-45757346D01*
X143846317Y-45728242D01*
X143970359Y-45645359D01*
X144053242Y-45521317D01*
X144082346Y-45375000D01*
X144082346Y-41775000D01*
X144053242Y-41628683D01*
X143970359Y-41504641D01*
X143846317Y-41421758D01*
X143700000Y-41392654D01*
X141100000Y-41392654D01*
X141000000Y-41412545D01*
X141000000Y-40845843D01*
X148025000Y-40845843D01*
X148025000Y-41154157D01*
X148142987Y-41439002D01*
X148360998Y-41657013D01*
X148645843Y-41775000D01*
X148954157Y-41775000D01*
X149239002Y-41657013D01*
X149457013Y-41439002D01*
X149575000Y-41154157D01*
X149575000Y-40845843D01*
X149457013Y-40560998D01*
X149239002Y-40342987D01*
X148954157Y-40225000D01*
X148645843Y-40225000D01*
X148360998Y-40342987D01*
X148142987Y-40560998D01*
X148025000Y-40845843D01*
X141000000Y-40845843D01*
X141000000Y-38464015D01*
X141038998Y-38503013D01*
X141323843Y-38621000D01*
X141545893Y-38621000D01*
X141567499Y-38642606D01*
X141595394Y-38684354D01*
X141760784Y-38794863D01*
X141796826Y-38802032D01*
X141840127Y-39019721D01*
X141975847Y-39222841D01*
X142178967Y-39358561D01*
X142418564Y-39406220D01*
X142906064Y-39406220D01*
X143145661Y-39358561D01*
X143348781Y-39222841D01*
X143484501Y-39019721D01*
X143532160Y-38780124D01*
X143532160Y-37867624D01*
X143667468Y-37867624D01*
X143667468Y-38780124D01*
X143715127Y-39019721D01*
X143850847Y-39222841D01*
X144053967Y-39358561D01*
X144293564Y-39406220D01*
X144781064Y-39406220D01*
X145020661Y-39358561D01*
X145223781Y-39222841D01*
X145359501Y-39019721D01*
X145398458Y-38823874D01*
X145436768Y-38823874D01*
X145756625Y-39143732D01*
X145784520Y-39185480D01*
X145949910Y-39295989D01*
X146095757Y-39325000D01*
X146095758Y-39325000D01*
X146144999Y-39334795D01*
X146194240Y-39325000D01*
X146806649Y-39325000D01*
X146840763Y-39407357D01*
X147030643Y-39597237D01*
X147278734Y-39700000D01*
X147547266Y-39700000D01*
X147795357Y-39597237D01*
X147985237Y-39407357D01*
X148088000Y-39159266D01*
X148088000Y-38890734D01*
X147985237Y-38642643D01*
X147795357Y-38452763D01*
X147547266Y-38350000D01*
X147387925Y-38350000D01*
X147262243Y-38325000D01*
X147262241Y-38325000D01*
X147213000Y-38315205D01*
X147163759Y-38325000D01*
X146352107Y-38325000D01*
X146032250Y-38005144D01*
X146004354Y-37963394D01*
X145838964Y-37852885D01*
X145693117Y-37823874D01*
X145693115Y-37823874D01*
X145643874Y-37814079D01*
X145594633Y-37823874D01*
X145398458Y-37823874D01*
X145359501Y-37628027D01*
X145223781Y-37424907D01*
X145084734Y-37331999D01*
X145223967Y-37238967D01*
X145359687Y-37035847D01*
X145407346Y-36796250D01*
X145407346Y-35883750D01*
X145359687Y-35644153D01*
X145223967Y-35441033D01*
X145020847Y-35305313D01*
X144781250Y-35257654D01*
X144293750Y-35257654D01*
X144054153Y-35305313D01*
X143851033Y-35441033D01*
X143715313Y-35644153D01*
X143667654Y-35883750D01*
X143667654Y-36796250D01*
X143715313Y-37035847D01*
X143851033Y-37238967D01*
X143990080Y-37331875D01*
X143850847Y-37424907D01*
X143715127Y-37628027D01*
X143667468Y-37867624D01*
X143532160Y-37867624D01*
X143484501Y-37628027D01*
X143348781Y-37424907D01*
X143292103Y-37387036D01*
X143362420Y-37357910D01*
X143467910Y-37252421D01*
X143525000Y-37114592D01*
X143525000Y-36458750D01*
X143431250Y-36365000D01*
X142687500Y-36365000D01*
X142687500Y-36385000D01*
X142637500Y-36385000D01*
X142637500Y-36365000D01*
X141893750Y-36365000D01*
X141800000Y-36458750D01*
X141800000Y-37114592D01*
X141812965Y-37145893D01*
X141632157Y-37071000D01*
X141323843Y-37071000D01*
X141038998Y-37188987D01*
X141000000Y-37227985D01*
X141000000Y-35565408D01*
X141800000Y-35565408D01*
X141800000Y-36221250D01*
X141893750Y-36315000D01*
X142637500Y-36315000D01*
X142637500Y-36295000D01*
X142687500Y-36295000D01*
X142687500Y-36315000D01*
X143431250Y-36315000D01*
X143525000Y-36221250D01*
X143525000Y-35565408D01*
X143467910Y-35427579D01*
X143368173Y-35327842D01*
X143457013Y-35239002D01*
X143575000Y-34954157D01*
X143575000Y-34645843D01*
X143457013Y-34360998D01*
X143239002Y-34142987D01*
X142954157Y-34025000D01*
X142645843Y-34025000D01*
X142360998Y-34142987D01*
X142142987Y-34360998D01*
X142025000Y-34645843D01*
X142025000Y-34954157D01*
X142142987Y-35239002D01*
X142168985Y-35265000D01*
X142100408Y-35265000D01*
X141962580Y-35322090D01*
X141857090Y-35427579D01*
X141800000Y-35565408D01*
X141000000Y-35565408D01*
X141000000Y-34732058D01*
X141066708Y-34266255D01*
X141248066Y-33867379D01*
X141534087Y-33535436D01*
X141901776Y-33297113D01*
X142336480Y-33167108D01*
X142566702Y-33150000D01*
X171517942Y-33150000D01*
X171983745Y-33216708D01*
X171983745Y-33216708D01*
G37*
X171983745Y-33216708D02*
X172382621Y-33398066D01*
X172714564Y-33684087D01*
X172952887Y-34051776D01*
X173082892Y-34486480D01*
X173100000Y-34716702D01*
X173100000Y-41410524D01*
X173074592Y-41400000D01*
X171818750Y-41400000D01*
X171725000Y-41493750D01*
X171725000Y-43550000D01*
X171745000Y-43550000D01*
X171745000Y-43600000D01*
X171725000Y-43600000D01*
X171725000Y-45656250D01*
X171818750Y-45750000D01*
X173074592Y-45750000D01*
X173100001Y-45739475D01*
X173100001Y-47487518D01*
X168629232Y-47515002D01*
X168583166Y-47524105D01*
X168542380Y-47550850D01*
X168514934Y-47591167D01*
X168505005Y-47638918D01*
X168465005Y-52258918D01*
X168474711Y-52308305D01*
X168501972Y-52348748D01*
X168542635Y-52375679D01*
X168590509Y-52384999D01*
X173100001Y-52366630D01*
X173100001Y-52667935D01*
X173033292Y-53133746D01*
X172851935Y-53532620D01*
X172565912Y-53864565D01*
X172198228Y-54102886D01*
X171763520Y-54232892D01*
X171533298Y-54250000D01*
X160776037Y-54250000D01*
X160899967Y-53941517D01*
X160820896Y-53805000D01*
X160065000Y-53805000D01*
X160065000Y-53825000D01*
X160015000Y-53825000D01*
X160015000Y-53805000D01*
X158795000Y-53805000D01*
X158795000Y-53825000D01*
X158745000Y-53825000D01*
X158745000Y-53805000D01*
X157525000Y-53805000D01*
X157525000Y-53825000D01*
X157475000Y-53825000D01*
X157475000Y-53805000D01*
X156255000Y-53805000D01*
X156255000Y-53825000D01*
X156205000Y-53825000D01*
X156205000Y-53805000D01*
X156185000Y-53805000D01*
X156185000Y-53755000D01*
X156205000Y-53755000D01*
X156205000Y-53735000D01*
X156255000Y-53735000D01*
X156255000Y-53755000D01*
X157475000Y-53755000D01*
X157475000Y-53735000D01*
X157525000Y-53735000D01*
X157525000Y-53755000D01*
X158745000Y-53755000D01*
X158745000Y-53735000D01*
X158795000Y-53735000D01*
X158795000Y-53755000D01*
X160015000Y-53755000D01*
X160015000Y-53735000D01*
X160065000Y-53735000D01*
X160065000Y-53755000D01*
X160820896Y-53755000D01*
X160899967Y-53618483D01*
X160772696Y-53301683D01*
X160637236Y-53163294D01*
X160670840Y-53140840D01*
X160864232Y-52851408D01*
X160932142Y-52510000D01*
X160864232Y-52168592D01*
X160670840Y-51879160D01*
X160381408Y-51685768D01*
X160126179Y-51635000D01*
X160014308Y-51635000D01*
X160014308Y-48352264D01*
X160051571Y-48389527D01*
X160299662Y-48492290D01*
X160568194Y-48492290D01*
X160816285Y-48389527D01*
X161006165Y-48199647D01*
X161108928Y-47951556D01*
X161108928Y-47843522D01*
X161137643Y-47872237D01*
X161385734Y-47975000D01*
X161654266Y-47975000D01*
X161902357Y-47872237D01*
X162092237Y-47682357D01*
X162195000Y-47434266D01*
X162195000Y-47165734D01*
X162092237Y-46917643D01*
X161902357Y-46727763D01*
X161654266Y-46625000D01*
X161385734Y-46625000D01*
X161137643Y-46727763D01*
X161010406Y-46855000D01*
X160986021Y-46855000D01*
X160973496Y-46852509D01*
X160980000Y-46819809D01*
X160988913Y-46775000D01*
X160980000Y-46730191D01*
X160980000Y-45820494D01*
X161005000Y-45694809D01*
X161005000Y-45694805D01*
X161013912Y-45650001D01*
X161005000Y-45605197D01*
X161005000Y-43693750D01*
X170025000Y-43693750D01*
X170025000Y-45449592D01*
X170082090Y-45587421D01*
X170187580Y-45692910D01*
X170325408Y-45750000D01*
X171581250Y-45750000D01*
X171675000Y-45656250D01*
X171675000Y-43600000D01*
X170118750Y-43600000D01*
X170025000Y-43693750D01*
X161005000Y-43693750D01*
X161005000Y-41194804D01*
X161013912Y-41149999D01*
X161005000Y-41105192D01*
X161005000Y-41105191D01*
X160978600Y-40972468D01*
X160878036Y-40821964D01*
X160840049Y-40796582D01*
X160014308Y-39970842D01*
X160014308Y-39463117D01*
X160048600Y-39411796D01*
X160067422Y-39317172D01*
X160192237Y-39192357D01*
X160295000Y-38944266D01*
X160295000Y-38675734D01*
X160192237Y-38427643D01*
X160002357Y-38237763D01*
X159935331Y-38210000D01*
X160990758Y-38210000D01*
X161039999Y-38219795D01*
X161089240Y-38210000D01*
X162592894Y-38210000D01*
X162772894Y-38390000D01*
X162661270Y-38501624D01*
X162619520Y-38529520D01*
X162509011Y-38694911D01*
X162482158Y-38829910D01*
X162470205Y-38890000D01*
X162480000Y-38939242D01*
X162480001Y-40280754D01*
X162470205Y-40330000D01*
X162493947Y-40449356D01*
X162509012Y-40525090D01*
X162619521Y-40690480D01*
X162661268Y-40718374D01*
X163105000Y-41162107D01*
X163105000Y-41264266D01*
X163207763Y-41512357D01*
X163397643Y-41702237D01*
X163645734Y-41805000D01*
X163914266Y-41805000D01*
X164162357Y-41702237D01*
X164164186Y-41700408D01*
X170025000Y-41700408D01*
X170025000Y-43456250D01*
X170118750Y-43550000D01*
X171675000Y-43550000D01*
X171675000Y-41493750D01*
X171581250Y-41400000D01*
X170325408Y-41400000D01*
X170187580Y-41457090D01*
X170082090Y-41562579D01*
X170025000Y-41700408D01*
X164164186Y-41700408D01*
X164352237Y-41512357D01*
X164455000Y-41264266D01*
X164455000Y-40995734D01*
X164352237Y-40747643D01*
X164162357Y-40557763D01*
X163914266Y-40455000D01*
X163812107Y-40455000D01*
X163480000Y-40122894D01*
X163480000Y-39097106D01*
X163798737Y-38778370D01*
X163840479Y-38750479D01*
X163868370Y-38708737D01*
X163868373Y-38708734D01*
X163868375Y-38708731D01*
X163889606Y-38687500D01*
X169196440Y-38687500D01*
X169321033Y-38873967D01*
X169524153Y-39009687D01*
X169763750Y-39057346D01*
X170676250Y-39057346D01*
X170915847Y-39009687D01*
X171118967Y-38873967D01*
X171254687Y-38670847D01*
X171302346Y-38431250D01*
X171302346Y-37943750D01*
X171254687Y-37704153D01*
X171118967Y-37501033D01*
X170915847Y-37365313D01*
X170676250Y-37317654D01*
X169763750Y-37317654D01*
X169524153Y-37365313D01*
X169321033Y-37501033D01*
X169196440Y-37687500D01*
X163731740Y-37687500D01*
X163682499Y-37677705D01*
X163633258Y-37687500D01*
X163633257Y-37687500D01*
X163509269Y-37712163D01*
X163188376Y-37391270D01*
X163160480Y-37349520D01*
X162995090Y-37239011D01*
X162849243Y-37210000D01*
X162849241Y-37210000D01*
X162800000Y-37200205D01*
X162750759Y-37210000D01*
X161247107Y-37210000D01*
X160468357Y-36431250D01*
X169145000Y-36431250D01*
X169145000Y-36874592D01*
X169202090Y-37012420D01*
X169307579Y-37117910D01*
X169445408Y-37175000D01*
X170101250Y-37175000D01*
X170195000Y-37081250D01*
X170195000Y-36337500D01*
X170245000Y-36337500D01*
X170245000Y-37081250D01*
X170338750Y-37175000D01*
X170994592Y-37175000D01*
X171132421Y-37117910D01*
X171237910Y-37012420D01*
X171295000Y-36874592D01*
X171295000Y-36431250D01*
X171201250Y-36337500D01*
X170245000Y-36337500D01*
X170195000Y-36337500D01*
X169238750Y-36337500D01*
X169145000Y-36431250D01*
X160468357Y-36431250D01*
X159787515Y-35750408D01*
X169145000Y-35750408D01*
X169145000Y-36193750D01*
X169238750Y-36287500D01*
X170195000Y-36287500D01*
X170195000Y-35543750D01*
X170245000Y-35543750D01*
X170245000Y-36287500D01*
X171201250Y-36287500D01*
X171295000Y-36193750D01*
X171295000Y-35750408D01*
X171237910Y-35612580D01*
X171132421Y-35507090D01*
X170994592Y-35450000D01*
X170338750Y-35450000D01*
X170245000Y-35543750D01*
X170195000Y-35543750D01*
X170101250Y-35450000D01*
X169445408Y-35450000D01*
X169307579Y-35507090D01*
X169202090Y-35612580D01*
X169145000Y-35750408D01*
X159787515Y-35750408D01*
X159708376Y-35671270D01*
X159680480Y-35629520D01*
X159515090Y-35519011D01*
X159369243Y-35490000D01*
X159369241Y-35490000D01*
X159320000Y-35480205D01*
X159270759Y-35490000D01*
X154839243Y-35490000D01*
X154790000Y-35480205D01*
X154740757Y-35490000D01*
X154594910Y-35519011D01*
X154429520Y-35629520D01*
X154401625Y-35671268D01*
X154131268Y-35941626D01*
X154089521Y-35969520D01*
X154061627Y-36011267D01*
X153979012Y-36134910D01*
X153940205Y-36330000D01*
X153950001Y-36379246D01*
X153950000Y-37295406D01*
X153877763Y-37367643D01*
X153775000Y-37615734D01*
X153775000Y-37884266D01*
X153877763Y-38132357D01*
X154067643Y-38322237D01*
X154315734Y-38425000D01*
X154584266Y-38425000D01*
X154832357Y-38322237D01*
X155022237Y-38132357D01*
X155125000Y-37884266D01*
X155125000Y-37615734D01*
X155022237Y-37367643D01*
X154950000Y-37295406D01*
X154950000Y-36537106D01*
X154997107Y-36490000D01*
X159112894Y-36490000D01*
X159832893Y-37210000D01*
X159705045Y-37210000D01*
X159655802Y-37200205D01*
X159606559Y-37210000D01*
X159460712Y-37239011D01*
X159408495Y-37273901D01*
X159222357Y-37087763D01*
X158974266Y-36985000D01*
X158705734Y-36985000D01*
X158457643Y-37087763D01*
X158267763Y-37277643D01*
X158165000Y-37525734D01*
X158165000Y-37794266D01*
X158267763Y-38042357D01*
X158328470Y-38103064D01*
X158249955Y-38181579D01*
X158211965Y-38206963D01*
X158111401Y-38357468D01*
X158085001Y-38490191D01*
X158085001Y-38490194D01*
X158076089Y-38534999D01*
X158085001Y-38579804D01*
X158085002Y-39293219D01*
X157976954Y-39401267D01*
X157894339Y-39524910D01*
X157888724Y-39553136D01*
X156101661Y-41340199D01*
X156057110Y-41232643D01*
X155984873Y-41160406D01*
X155984873Y-39387221D01*
X156142237Y-39229857D01*
X156245000Y-38981766D01*
X156245000Y-38713234D01*
X156142237Y-38465143D01*
X155952357Y-38275263D01*
X155704266Y-38172500D01*
X155435734Y-38172500D01*
X155187643Y-38275263D01*
X154997763Y-38465143D01*
X154895000Y-38713234D01*
X154895000Y-38981766D01*
X154984874Y-39198740D01*
X154984873Y-41160406D01*
X154912636Y-41232643D01*
X154809873Y-41480734D01*
X154809873Y-41749266D01*
X154835028Y-41809996D01*
X154677964Y-41967060D01*
X154575201Y-42215151D01*
X154575201Y-42483683D01*
X154677964Y-42731774D01*
X154867844Y-42921654D01*
X155115935Y-43024417D01*
X155384467Y-43024417D01*
X155632558Y-42921654D01*
X155757373Y-42796839D01*
X155851997Y-42778017D01*
X155904588Y-42742877D01*
X155959506Y-42731953D01*
X156110010Y-42631389D01*
X156135395Y-42593398D01*
X158532191Y-40196603D01*
X158534307Y-40196182D01*
X158534308Y-41887150D01*
X158384266Y-41825000D01*
X158115734Y-41825000D01*
X157867643Y-41927763D01*
X157677763Y-42117643D01*
X157575000Y-42365734D01*
X157575000Y-42634266D01*
X157677763Y-42882357D01*
X157867643Y-43072237D01*
X158115734Y-43175000D01*
X158260000Y-43175000D01*
X158260001Y-46642892D01*
X156785011Y-48117883D01*
X156785011Y-47661017D01*
X157435061Y-47010968D01*
X157473046Y-46985587D01*
X157518445Y-46917643D01*
X157573610Y-46835084D01*
X157608923Y-46657552D01*
X157600010Y-46612742D01*
X157600008Y-45837682D01*
X157608922Y-45792869D01*
X157573609Y-45615337D01*
X157498427Y-45502820D01*
X157498425Y-45502818D01*
X157473044Y-45464833D01*
X157435059Y-45439452D01*
X156757140Y-44761534D01*
X156757140Y-44246943D01*
X156766052Y-44202139D01*
X156757140Y-44157335D01*
X156757140Y-44157331D01*
X156730740Y-44024608D01*
X156630176Y-43874104D01*
X156592188Y-43848721D01*
X156562769Y-43819302D01*
X156537385Y-43781313D01*
X156431336Y-43710453D01*
X156412300Y-43681964D01*
X156261796Y-43581400D01*
X156167172Y-43562578D01*
X156042357Y-43437763D01*
X155794266Y-43335000D01*
X155525734Y-43335000D01*
X155277643Y-43437763D01*
X155087763Y-43627643D01*
X154985000Y-43875734D01*
X154985000Y-44144266D01*
X155086283Y-44388784D01*
X155081949Y-44393118D01*
X154979186Y-44641209D01*
X154979186Y-44909741D01*
X155081949Y-45157832D01*
X155271829Y-45347712D01*
X155519920Y-45450475D01*
X155706587Y-45450475D01*
X156370000Y-46113889D01*
X156370001Y-46336533D01*
X155719955Y-46986578D01*
X155681965Y-47011963D01*
X155581401Y-47162468D01*
X155555001Y-47295191D01*
X155555001Y-47295194D01*
X155546089Y-47339999D01*
X155555001Y-47384804D01*
X155555002Y-49351531D01*
X155234954Y-49671580D01*
X155196964Y-49696964D01*
X155096400Y-49847469D01*
X155070000Y-49980192D01*
X155070000Y-49980195D01*
X155061088Y-50025000D01*
X155070000Y-50069806D01*
X155070001Y-50586533D01*
X154669954Y-50986580D01*
X154631964Y-51011964D01*
X154531400Y-51162469D01*
X154505000Y-51295192D01*
X154505000Y-51295195D01*
X154496088Y-51340000D01*
X154505000Y-51384805D01*
X154505000Y-51761667D01*
X154329160Y-51879160D01*
X154135768Y-52168592D01*
X154067858Y-52510000D01*
X154092875Y-52635768D01*
X153638376Y-52181270D01*
X153610480Y-52139520D01*
X153445090Y-52029011D01*
X153299243Y-52000000D01*
X153299241Y-52000000D01*
X153250000Y-51990205D01*
X153200759Y-52000000D01*
X143022500Y-52000000D01*
X143022500Y-51816878D01*
X143198967Y-51698967D01*
X143334687Y-51495847D01*
X143382346Y-51256250D01*
X143382346Y-50918750D01*
X143525000Y-50918750D01*
X143525000Y-51574592D01*
X143582090Y-51712421D01*
X143687580Y-51817910D01*
X143825408Y-51875000D01*
X144268750Y-51875000D01*
X144362500Y-51781250D01*
X144362500Y-50825000D01*
X144412500Y-50825000D01*
X144412500Y-51781250D01*
X144506250Y-51875000D01*
X144949592Y-51875000D01*
X145087420Y-51817910D01*
X145192910Y-51712421D01*
X145250000Y-51574592D01*
X145250000Y-50918750D01*
X145156250Y-50825000D01*
X144412500Y-50825000D01*
X144362500Y-50825000D01*
X143618750Y-50825000D01*
X143525000Y-50918750D01*
X143382346Y-50918750D01*
X143382346Y-50343750D01*
X143334687Y-50104153D01*
X143282072Y-50025408D01*
X143525000Y-50025408D01*
X143525000Y-50681250D01*
X143618750Y-50775000D01*
X144362500Y-50775000D01*
X144362500Y-49818750D01*
X144412500Y-49818750D01*
X144412500Y-50775000D01*
X145156250Y-50775000D01*
X145250000Y-50681250D01*
X145250000Y-50025408D01*
X145192910Y-49887579D01*
X145087420Y-49782090D01*
X145073418Y-49776290D01*
X145096047Y-49766917D01*
X145201537Y-49661428D01*
X145258627Y-49523599D01*
X145258627Y-48867757D01*
X145164877Y-48774007D01*
X144421127Y-48774007D01*
X144421127Y-49730257D01*
X144461060Y-49770190D01*
X144412500Y-49818750D01*
X144362500Y-49818750D01*
X144322567Y-49778817D01*
X144371127Y-49730257D01*
X144371127Y-48774007D01*
X143627377Y-48774007D01*
X143533627Y-48867757D01*
X143533627Y-49523599D01*
X143590717Y-49661428D01*
X143696207Y-49766917D01*
X143710209Y-49772717D01*
X143687580Y-49782090D01*
X143582090Y-49887579D01*
X143525000Y-50025408D01*
X143282072Y-50025408D01*
X143198967Y-49901033D01*
X143022500Y-49783122D01*
X143022500Y-49771649D01*
X143207594Y-49647974D01*
X143343314Y-49444854D01*
X143390973Y-49205257D01*
X143390973Y-48292757D01*
X143343314Y-48053160D01*
X143290699Y-47974415D01*
X143533627Y-47974415D01*
X143533627Y-48630257D01*
X143627377Y-48724007D01*
X144371127Y-48724007D01*
X144371127Y-47767757D01*
X144421127Y-47767757D01*
X144421127Y-48724007D01*
X145164877Y-48724007D01*
X145258627Y-48630257D01*
X145258627Y-47974415D01*
X145201537Y-47836586D01*
X145096047Y-47731097D01*
X144958219Y-47674007D01*
X144514877Y-47674007D01*
X144421127Y-47767757D01*
X144371127Y-47767757D01*
X144277377Y-47674007D01*
X143834035Y-47674007D01*
X143696207Y-47731097D01*
X143590717Y-47836586D01*
X143533627Y-47974415D01*
X143290699Y-47974415D01*
X143207594Y-47850040D01*
X143022500Y-47726365D01*
X143022500Y-45757346D01*
X143700000Y-45757346D01*
X143846317Y-45728242D01*
X143970359Y-45645359D01*
X144053242Y-45521317D01*
X144082346Y-45375000D01*
X144082346Y-41775000D01*
X144053242Y-41628683D01*
X143970359Y-41504641D01*
X143846317Y-41421758D01*
X143700000Y-41392654D01*
X141100000Y-41392654D01*
X141000000Y-41412545D01*
X141000000Y-40845843D01*
X148025000Y-40845843D01*
X148025000Y-41154157D01*
X148142987Y-41439002D01*
X148360998Y-41657013D01*
X148645843Y-41775000D01*
X148954157Y-41775000D01*
X149239002Y-41657013D01*
X149457013Y-41439002D01*
X149575000Y-41154157D01*
X149575000Y-40845843D01*
X149457013Y-40560998D01*
X149239002Y-40342987D01*
X148954157Y-40225000D01*
X148645843Y-40225000D01*
X148360998Y-40342987D01*
X148142987Y-40560998D01*
X148025000Y-40845843D01*
X141000000Y-40845843D01*
X141000000Y-38464015D01*
X141038998Y-38503013D01*
X141323843Y-38621000D01*
X141545893Y-38621000D01*
X141567499Y-38642606D01*
X141595394Y-38684354D01*
X141760784Y-38794863D01*
X141796826Y-38802032D01*
X141840127Y-39019721D01*
X141975847Y-39222841D01*
X142178967Y-39358561D01*
X142418564Y-39406220D01*
X142906064Y-39406220D01*
X143145661Y-39358561D01*
X143348781Y-39222841D01*
X143484501Y-39019721D01*
X143532160Y-38780124D01*
X143532160Y-37867624D01*
X143667468Y-37867624D01*
X143667468Y-38780124D01*
X143715127Y-39019721D01*
X143850847Y-39222841D01*
X144053967Y-39358561D01*
X144293564Y-39406220D01*
X144781064Y-39406220D01*
X145020661Y-39358561D01*
X145223781Y-39222841D01*
X145359501Y-39019721D01*
X145398458Y-38823874D01*
X145436768Y-38823874D01*
X145756625Y-39143732D01*
X145784520Y-39185480D01*
X145949910Y-39295989D01*
X146095757Y-39325000D01*
X146095758Y-39325000D01*
X146144999Y-39334795D01*
X146194240Y-39325000D01*
X146806649Y-39325000D01*
X146840763Y-39407357D01*
X147030643Y-39597237D01*
X147278734Y-39700000D01*
X147547266Y-39700000D01*
X147795357Y-39597237D01*
X147985237Y-39407357D01*
X148088000Y-39159266D01*
X148088000Y-38890734D01*
X147985237Y-38642643D01*
X147795357Y-38452763D01*
X147547266Y-38350000D01*
X147387925Y-38350000D01*
X147262243Y-38325000D01*
X147262241Y-38325000D01*
X147213000Y-38315205D01*
X147163759Y-38325000D01*
X146352107Y-38325000D01*
X146032250Y-38005144D01*
X146004354Y-37963394D01*
X145838964Y-37852885D01*
X145693117Y-37823874D01*
X145693115Y-37823874D01*
X145643874Y-37814079D01*
X145594633Y-37823874D01*
X145398458Y-37823874D01*
X145359501Y-37628027D01*
X145223781Y-37424907D01*
X145084734Y-37331999D01*
X145223967Y-37238967D01*
X145359687Y-37035847D01*
X145407346Y-36796250D01*
X145407346Y-35883750D01*
X145359687Y-35644153D01*
X145223967Y-35441033D01*
X145020847Y-35305313D01*
X144781250Y-35257654D01*
X144293750Y-35257654D01*
X144054153Y-35305313D01*
X143851033Y-35441033D01*
X143715313Y-35644153D01*
X143667654Y-35883750D01*
X143667654Y-36796250D01*
X143715313Y-37035847D01*
X143851033Y-37238967D01*
X143990080Y-37331875D01*
X143850847Y-37424907D01*
X143715127Y-37628027D01*
X143667468Y-37867624D01*
X143532160Y-37867624D01*
X143484501Y-37628027D01*
X143348781Y-37424907D01*
X143292103Y-37387036D01*
X143362420Y-37357910D01*
X143467910Y-37252421D01*
X143525000Y-37114592D01*
X143525000Y-36458750D01*
X143431250Y-36365000D01*
X142687500Y-36365000D01*
X142687500Y-36385000D01*
X142637500Y-36385000D01*
X142637500Y-36365000D01*
X141893750Y-36365000D01*
X141800000Y-36458750D01*
X141800000Y-37114592D01*
X141812965Y-37145893D01*
X141632157Y-37071000D01*
X141323843Y-37071000D01*
X141038998Y-37188987D01*
X141000000Y-37227985D01*
X141000000Y-35565408D01*
X141800000Y-35565408D01*
X141800000Y-36221250D01*
X141893750Y-36315000D01*
X142637500Y-36315000D01*
X142637500Y-36295000D01*
X142687500Y-36295000D01*
X142687500Y-36315000D01*
X143431250Y-36315000D01*
X143525000Y-36221250D01*
X143525000Y-35565408D01*
X143467910Y-35427579D01*
X143368173Y-35327842D01*
X143457013Y-35239002D01*
X143575000Y-34954157D01*
X143575000Y-34645843D01*
X143457013Y-34360998D01*
X143239002Y-34142987D01*
X142954157Y-34025000D01*
X142645843Y-34025000D01*
X142360998Y-34142987D01*
X142142987Y-34360998D01*
X142025000Y-34645843D01*
X142025000Y-34954157D01*
X142142987Y-35239002D01*
X142168985Y-35265000D01*
X142100408Y-35265000D01*
X141962580Y-35322090D01*
X141857090Y-35427579D01*
X141800000Y-35565408D01*
X141000000Y-35565408D01*
X141000000Y-34732058D01*
X141066708Y-34266255D01*
X141248066Y-33867379D01*
X141534087Y-33535436D01*
X141901776Y-33297113D01*
X142336480Y-33167108D01*
X142566702Y-33150000D01*
X171517942Y-33150000D01*
X171983745Y-33216708D01*
G36*
X160095000Y-41338467D02*
X160095001Y-45504503D01*
X160070000Y-45630192D01*
X160070000Y-45630195D01*
X160061088Y-45675000D01*
X160070000Y-45719805D01*
X160070001Y-46586532D01*
X159269260Y-47387273D01*
X159231273Y-47412656D01*
X159205890Y-47450644D01*
X159130708Y-47563161D01*
X159095396Y-47740692D01*
X159104309Y-47785502D01*
X159104308Y-51684356D01*
X158856179Y-51635000D01*
X158683821Y-51635000D01*
X158428592Y-51685768D01*
X158139160Y-51879160D01*
X158135000Y-51885386D01*
X158130840Y-51879160D01*
X157841408Y-51685768D01*
X157586179Y-51635000D01*
X157413821Y-51635000D01*
X157235119Y-51670546D01*
X157275000Y-51574266D01*
X157275000Y-51478749D01*
X157370988Y-51335091D01*
X157399999Y-51189244D01*
X157399999Y-51189243D01*
X157409794Y-51140001D01*
X157399999Y-51090758D01*
X157399999Y-48917107D01*
X159078732Y-47238375D01*
X159120480Y-47210480D01*
X159230989Y-47045090D01*
X159260000Y-46899243D01*
X159269795Y-46850000D01*
X159260000Y-46800757D01*
X159260000Y-43117106D01*
X159353036Y-43024070D01*
X159394787Y-42996173D01*
X159505296Y-42830783D01*
X159534307Y-42684936D01*
X159544102Y-42635693D01*
X159534307Y-42586450D01*
X159534307Y-40777773D01*
X160095000Y-41338467D01*
X160095000Y-41338467D01*
G37*
X160095000Y-41338467D02*
X160095001Y-45504503D01*
X160070000Y-45630192D01*
X160070000Y-45630195D01*
X160061088Y-45675000D01*
X160070000Y-45719805D01*
X160070001Y-46586532D01*
X159269260Y-47387273D01*
X159231273Y-47412656D01*
X159205890Y-47450644D01*
X159130708Y-47563161D01*
X159095396Y-47740692D01*
X159104309Y-47785502D01*
X159104308Y-51684356D01*
X158856179Y-51635000D01*
X158683821Y-51635000D01*
X158428592Y-51685768D01*
X158139160Y-51879160D01*
X158135000Y-51885386D01*
X158130840Y-51879160D01*
X157841408Y-51685768D01*
X157586179Y-51635000D01*
X157413821Y-51635000D01*
X157235119Y-51670546D01*
X157275000Y-51574266D01*
X157275000Y-51478749D01*
X157370988Y-51335091D01*
X157399999Y-51189244D01*
X157399999Y-51189243D01*
X157409794Y-51140001D01*
X157399999Y-51090758D01*
X157399999Y-48917107D01*
X159078732Y-47238375D01*
X159120480Y-47210480D01*
X159230989Y-47045090D01*
X159260000Y-46899243D01*
X159269795Y-46850000D01*
X159260000Y-46800757D01*
X159260000Y-43117106D01*
X159353036Y-43024070D01*
X159394787Y-42996173D01*
X159505296Y-42830783D01*
X159534307Y-42684936D01*
X159544102Y-42635693D01*
X159534307Y-42586450D01*
X159534307Y-40777773D01*
X160095000Y-41338467D01*
G04 #@! TD*
M02*
