G04 #@! TF.GenerationSoftware,KiCad,Pcbnew,5.0.2-bee76a0~70~ubuntu18.04.1*
G04 #@! TF.CreationDate,2020-01-17T08:49:31+02:00*
G04 #@! TF.ProjectId,nanoSense-Motion,4b656d65-742d-4424-9c45-2e6b69636164,rev?*
G04 #@! TF.SameCoordinates,Original*
G04 #@! TF.FileFunction,Soldermask,Top*
G04 #@! TF.FilePolarity,Negative*
%FSLAX46Y46*%
G04 Gerber Fmt 4.6, Leading zero omitted, Abs format (unit mm)*
G04 Created by KiCad (PCBNEW 5.0.2-bee76a0~70~ubuntu18.04.1) date Fri 17 Jan 2020 08:49:31 AM EET*
%MOMM*%
%LPD*%
G01*
G04 APERTURE LIST*
%ADD10C,0.100000*%
G04 APERTURE END LIST*
D10*
G36*
X155068015Y-51966973D02*
X155171879Y-51998479D01*
X155267600Y-52049644D01*
X155351501Y-52118499D01*
X155420356Y-52202400D01*
X155471521Y-52298121D01*
X155475383Y-52310854D01*
X155484760Y-52333493D01*
X155498374Y-52353867D01*
X155515701Y-52371194D01*
X155536076Y-52384808D01*
X155558715Y-52394186D01*
X155582748Y-52398966D01*
X155607252Y-52398966D01*
X155631286Y-52394185D01*
X155653925Y-52384808D01*
X155674299Y-52371194D01*
X155691626Y-52353867D01*
X155705240Y-52333492D01*
X155714617Y-52310854D01*
X155718479Y-52298121D01*
X155769644Y-52202400D01*
X155838499Y-52118499D01*
X155922400Y-52049644D01*
X156018121Y-51998479D01*
X156121985Y-51966973D01*
X156202933Y-51959000D01*
X156257067Y-51959000D01*
X156338015Y-51966973D01*
X156441879Y-51998479D01*
X156537600Y-52049644D01*
X156621501Y-52118499D01*
X156690356Y-52202400D01*
X156741521Y-52298121D01*
X156745383Y-52310854D01*
X156754760Y-52333493D01*
X156768374Y-52353867D01*
X156785701Y-52371194D01*
X156806076Y-52384808D01*
X156828715Y-52394186D01*
X156852748Y-52398966D01*
X156877252Y-52398966D01*
X156901286Y-52394185D01*
X156923925Y-52384808D01*
X156944299Y-52371194D01*
X156961626Y-52353867D01*
X156975240Y-52333492D01*
X156984617Y-52310854D01*
X156988479Y-52298121D01*
X157039644Y-52202400D01*
X157108499Y-52118499D01*
X157192400Y-52049644D01*
X157288121Y-51998479D01*
X157391985Y-51966973D01*
X157472933Y-51959000D01*
X157527067Y-51959000D01*
X157608015Y-51966973D01*
X157711879Y-51998479D01*
X157807600Y-52049644D01*
X157891501Y-52118499D01*
X157960356Y-52202400D01*
X158011521Y-52298121D01*
X158015383Y-52310854D01*
X158024760Y-52333493D01*
X158038374Y-52353867D01*
X158055701Y-52371194D01*
X158076076Y-52384808D01*
X158098715Y-52394186D01*
X158122748Y-52398966D01*
X158147252Y-52398966D01*
X158171286Y-52394185D01*
X158193925Y-52384808D01*
X158214299Y-52371194D01*
X158231626Y-52353867D01*
X158245240Y-52333492D01*
X158254617Y-52310854D01*
X158258479Y-52298121D01*
X158309644Y-52202400D01*
X158378499Y-52118499D01*
X158462400Y-52049644D01*
X158558121Y-51998479D01*
X158661985Y-51966973D01*
X158742933Y-51959000D01*
X158797067Y-51959000D01*
X158878015Y-51966973D01*
X158981879Y-51998479D01*
X159077600Y-52049644D01*
X159161501Y-52118499D01*
X159230356Y-52202400D01*
X159281521Y-52298121D01*
X159285383Y-52310854D01*
X159294760Y-52333493D01*
X159308374Y-52353867D01*
X159325701Y-52371194D01*
X159346076Y-52384808D01*
X159368715Y-52394186D01*
X159392748Y-52398966D01*
X159417252Y-52398966D01*
X159441286Y-52394185D01*
X159463925Y-52384808D01*
X159484299Y-52371194D01*
X159501626Y-52353867D01*
X159515240Y-52333492D01*
X159524617Y-52310854D01*
X159528479Y-52298121D01*
X159579644Y-52202400D01*
X159648499Y-52118499D01*
X159732400Y-52049644D01*
X159828121Y-51998479D01*
X159931985Y-51966973D01*
X160012933Y-51959000D01*
X160067067Y-51959000D01*
X160148015Y-51966973D01*
X160251879Y-51998479D01*
X160347600Y-52049644D01*
X160431501Y-52118499D01*
X160500356Y-52202400D01*
X160551521Y-52298121D01*
X160583027Y-52401985D01*
X160593666Y-52510000D01*
X160583027Y-52618015D01*
X160551521Y-52721879D01*
X160500356Y-52817600D01*
X160431501Y-52901501D01*
X160347600Y-52970356D01*
X160251879Y-53021521D01*
X160239142Y-53025385D01*
X160216507Y-53034760D01*
X160196133Y-53048374D01*
X160178806Y-53065701D01*
X160165192Y-53086076D01*
X160155814Y-53108715D01*
X160151034Y-53132748D01*
X160151034Y-53157252D01*
X160155815Y-53181286D01*
X160165192Y-53203925D01*
X160178806Y-53224299D01*
X160196133Y-53241626D01*
X160216508Y-53255240D01*
X160239142Y-53264615D01*
X160251879Y-53268479D01*
X160347600Y-53319644D01*
X160431501Y-53388499D01*
X160500356Y-53472400D01*
X160551521Y-53568121D01*
X160583027Y-53671985D01*
X160593666Y-53780000D01*
X160583027Y-53888015D01*
X160551521Y-53991879D01*
X160500356Y-54087600D01*
X160431501Y-54171501D01*
X160347600Y-54240356D01*
X160251879Y-54291521D01*
X160148015Y-54323027D01*
X160067067Y-54331000D01*
X160012933Y-54331000D01*
X159931985Y-54323027D01*
X159828121Y-54291521D01*
X159732400Y-54240356D01*
X159648499Y-54171501D01*
X159579644Y-54087600D01*
X159528479Y-53991879D01*
X159524615Y-53979142D01*
X159515240Y-53956507D01*
X159501626Y-53936133D01*
X159484299Y-53918806D01*
X159463924Y-53905192D01*
X159441285Y-53895814D01*
X159417252Y-53891034D01*
X159392748Y-53891034D01*
X159368714Y-53895815D01*
X159346075Y-53905192D01*
X159325701Y-53918806D01*
X159308374Y-53936133D01*
X159294760Y-53956508D01*
X159285385Y-53979142D01*
X159281521Y-53991879D01*
X159230356Y-54087600D01*
X159161501Y-54171501D01*
X159077600Y-54240356D01*
X158981879Y-54291521D01*
X158878015Y-54323027D01*
X158797067Y-54331000D01*
X158742933Y-54331000D01*
X158661985Y-54323027D01*
X158558121Y-54291521D01*
X158462400Y-54240356D01*
X158378499Y-54171501D01*
X158309644Y-54087600D01*
X158258479Y-53991879D01*
X158254615Y-53979142D01*
X158245240Y-53956507D01*
X158231626Y-53936133D01*
X158214299Y-53918806D01*
X158193924Y-53905192D01*
X158171285Y-53895814D01*
X158147252Y-53891034D01*
X158122748Y-53891034D01*
X158098714Y-53895815D01*
X158076075Y-53905192D01*
X158055701Y-53918806D01*
X158038374Y-53936133D01*
X158024760Y-53956508D01*
X158015385Y-53979142D01*
X158011521Y-53991879D01*
X157960356Y-54087600D01*
X157891501Y-54171501D01*
X157807600Y-54240356D01*
X157711879Y-54291521D01*
X157608015Y-54323027D01*
X157527067Y-54331000D01*
X157472933Y-54331000D01*
X157391985Y-54323027D01*
X157288121Y-54291521D01*
X157192400Y-54240356D01*
X157108499Y-54171501D01*
X157039644Y-54087600D01*
X156988479Y-53991879D01*
X156984615Y-53979142D01*
X156975240Y-53956507D01*
X156961626Y-53936133D01*
X156944299Y-53918806D01*
X156923924Y-53905192D01*
X156901285Y-53895814D01*
X156877252Y-53891034D01*
X156852748Y-53891034D01*
X156828714Y-53895815D01*
X156806075Y-53905192D01*
X156785701Y-53918806D01*
X156768374Y-53936133D01*
X156754760Y-53956508D01*
X156745385Y-53979142D01*
X156741521Y-53991879D01*
X156690356Y-54087600D01*
X156621501Y-54171501D01*
X156537600Y-54240356D01*
X156441879Y-54291521D01*
X156338015Y-54323027D01*
X156257067Y-54331000D01*
X156202933Y-54331000D01*
X156121985Y-54323027D01*
X156018121Y-54291521D01*
X155922400Y-54240356D01*
X155838499Y-54171501D01*
X155769644Y-54087600D01*
X155746234Y-54043805D01*
X155732626Y-54023439D01*
X155715299Y-54006111D01*
X155694924Y-53992498D01*
X155672285Y-53983120D01*
X155648252Y-53978340D01*
X155623748Y-53978340D01*
X155599714Y-53983121D01*
X155577075Y-53992498D01*
X155556701Y-54006112D01*
X155539373Y-54023439D01*
X155525760Y-54043814D01*
X155516382Y-54066453D01*
X155511000Y-54102738D01*
X155511000Y-54331000D01*
X154409000Y-54331000D01*
X154409000Y-53229000D01*
X154637262Y-53229000D01*
X154661648Y-53226598D01*
X154685097Y-53219485D01*
X154706708Y-53207934D01*
X154725650Y-53192388D01*
X154741196Y-53173446D01*
X154752747Y-53151835D01*
X154759860Y-53128386D01*
X154762262Y-53104000D01*
X154761056Y-53091748D01*
X155158340Y-53091748D01*
X155158340Y-53116252D01*
X155163121Y-53140286D01*
X155172498Y-53162925D01*
X155186112Y-53183299D01*
X155203439Y-53200627D01*
X155223814Y-53214240D01*
X155246453Y-53223618D01*
X155282738Y-53229000D01*
X155511000Y-53229000D01*
X155511000Y-53457262D01*
X155513402Y-53481648D01*
X155520515Y-53505097D01*
X155532066Y-53526708D01*
X155547612Y-53545650D01*
X155566554Y-53561196D01*
X155588165Y-53572747D01*
X155611614Y-53579860D01*
X155636000Y-53582262D01*
X155660386Y-53579860D01*
X155683835Y-53572747D01*
X155705446Y-53561196D01*
X155724388Y-53545650D01*
X155746236Y-53516192D01*
X155769644Y-53472400D01*
X155838499Y-53388499D01*
X155922400Y-53319644D01*
X156018121Y-53268479D01*
X156030858Y-53264615D01*
X156053493Y-53255240D01*
X156073867Y-53241626D01*
X156091194Y-53224299D01*
X156104808Y-53203924D01*
X156114186Y-53181285D01*
X156118966Y-53157252D01*
X156118966Y-53132748D01*
X156341034Y-53132748D01*
X156341034Y-53157252D01*
X156345815Y-53181286D01*
X156355192Y-53203925D01*
X156368806Y-53224299D01*
X156386133Y-53241626D01*
X156406508Y-53255240D01*
X156429142Y-53264615D01*
X156441879Y-53268479D01*
X156537600Y-53319644D01*
X156621501Y-53388499D01*
X156690356Y-53472400D01*
X156741521Y-53568121D01*
X156745383Y-53580854D01*
X156754760Y-53603493D01*
X156768374Y-53623867D01*
X156785701Y-53641194D01*
X156806076Y-53654808D01*
X156828715Y-53664186D01*
X156852748Y-53668966D01*
X156877252Y-53668966D01*
X156901286Y-53664185D01*
X156923925Y-53654808D01*
X156944299Y-53641194D01*
X156961626Y-53623867D01*
X156975240Y-53603492D01*
X156984617Y-53580854D01*
X156988479Y-53568121D01*
X157039644Y-53472400D01*
X157108499Y-53388499D01*
X157192400Y-53319644D01*
X157288121Y-53268479D01*
X157300858Y-53264615D01*
X157323493Y-53255240D01*
X157343867Y-53241626D01*
X157361194Y-53224299D01*
X157374808Y-53203924D01*
X157384186Y-53181285D01*
X157388966Y-53157252D01*
X157388966Y-53132748D01*
X157611034Y-53132748D01*
X157611034Y-53157252D01*
X157615815Y-53181286D01*
X157625192Y-53203925D01*
X157638806Y-53224299D01*
X157656133Y-53241626D01*
X157676508Y-53255240D01*
X157699142Y-53264615D01*
X157711879Y-53268479D01*
X157807600Y-53319644D01*
X157891501Y-53388499D01*
X157960356Y-53472400D01*
X158011521Y-53568121D01*
X158015383Y-53580854D01*
X158024760Y-53603493D01*
X158038374Y-53623867D01*
X158055701Y-53641194D01*
X158076076Y-53654808D01*
X158098715Y-53664186D01*
X158122748Y-53668966D01*
X158147252Y-53668966D01*
X158171286Y-53664185D01*
X158193925Y-53654808D01*
X158214299Y-53641194D01*
X158231626Y-53623867D01*
X158245240Y-53603492D01*
X158254617Y-53580854D01*
X158258479Y-53568121D01*
X158309644Y-53472400D01*
X158378499Y-53388499D01*
X158462400Y-53319644D01*
X158558121Y-53268479D01*
X158570858Y-53264615D01*
X158593493Y-53255240D01*
X158613867Y-53241626D01*
X158631194Y-53224299D01*
X158644808Y-53203924D01*
X158654186Y-53181285D01*
X158658966Y-53157252D01*
X158658966Y-53132748D01*
X158881034Y-53132748D01*
X158881034Y-53157252D01*
X158885815Y-53181286D01*
X158895192Y-53203925D01*
X158908806Y-53224299D01*
X158926133Y-53241626D01*
X158946508Y-53255240D01*
X158969142Y-53264615D01*
X158981879Y-53268479D01*
X159077600Y-53319644D01*
X159161501Y-53388499D01*
X159230356Y-53472400D01*
X159281521Y-53568121D01*
X159285383Y-53580854D01*
X159294760Y-53603493D01*
X159308374Y-53623867D01*
X159325701Y-53641194D01*
X159346076Y-53654808D01*
X159368715Y-53664186D01*
X159392748Y-53668966D01*
X159417252Y-53668966D01*
X159441286Y-53664185D01*
X159463925Y-53654808D01*
X159484299Y-53641194D01*
X159501626Y-53623867D01*
X159515240Y-53603492D01*
X159524617Y-53580854D01*
X159528479Y-53568121D01*
X159579644Y-53472400D01*
X159648499Y-53388499D01*
X159732400Y-53319644D01*
X159828121Y-53268479D01*
X159840858Y-53264615D01*
X159863493Y-53255240D01*
X159883867Y-53241626D01*
X159901194Y-53224299D01*
X159914808Y-53203924D01*
X159924186Y-53181285D01*
X159928966Y-53157252D01*
X159928966Y-53132748D01*
X159924185Y-53108714D01*
X159914808Y-53086075D01*
X159901194Y-53065701D01*
X159883867Y-53048374D01*
X159863492Y-53034760D01*
X159840858Y-53025385D01*
X159828121Y-53021521D01*
X159732400Y-52970356D01*
X159648499Y-52901501D01*
X159579644Y-52817600D01*
X159528479Y-52721879D01*
X159524615Y-52709142D01*
X159515240Y-52686507D01*
X159501626Y-52666133D01*
X159484299Y-52648806D01*
X159463924Y-52635192D01*
X159441285Y-52625814D01*
X159417252Y-52621034D01*
X159392748Y-52621034D01*
X159368714Y-52625815D01*
X159346075Y-52635192D01*
X159325701Y-52648806D01*
X159308374Y-52666133D01*
X159294760Y-52686508D01*
X159285385Y-52709142D01*
X159281521Y-52721879D01*
X159230356Y-52817600D01*
X159161501Y-52901501D01*
X159077600Y-52970356D01*
X158981879Y-53021521D01*
X158969142Y-53025385D01*
X158946507Y-53034760D01*
X158926133Y-53048374D01*
X158908806Y-53065701D01*
X158895192Y-53086076D01*
X158885814Y-53108715D01*
X158881034Y-53132748D01*
X158658966Y-53132748D01*
X158654185Y-53108714D01*
X158644808Y-53086075D01*
X158631194Y-53065701D01*
X158613867Y-53048374D01*
X158593492Y-53034760D01*
X158570858Y-53025385D01*
X158558121Y-53021521D01*
X158462400Y-52970356D01*
X158378499Y-52901501D01*
X158309644Y-52817600D01*
X158258479Y-52721879D01*
X158254615Y-52709142D01*
X158245240Y-52686507D01*
X158231626Y-52666133D01*
X158214299Y-52648806D01*
X158193924Y-52635192D01*
X158171285Y-52625814D01*
X158147252Y-52621034D01*
X158122748Y-52621034D01*
X158098714Y-52625815D01*
X158076075Y-52635192D01*
X158055701Y-52648806D01*
X158038374Y-52666133D01*
X158024760Y-52686508D01*
X158015385Y-52709142D01*
X158011521Y-52721879D01*
X157960356Y-52817600D01*
X157891501Y-52901501D01*
X157807600Y-52970356D01*
X157711879Y-53021521D01*
X157699142Y-53025385D01*
X157676507Y-53034760D01*
X157656133Y-53048374D01*
X157638806Y-53065701D01*
X157625192Y-53086076D01*
X157615814Y-53108715D01*
X157611034Y-53132748D01*
X157388966Y-53132748D01*
X157384185Y-53108714D01*
X157374808Y-53086075D01*
X157361194Y-53065701D01*
X157343867Y-53048374D01*
X157323492Y-53034760D01*
X157300858Y-53025385D01*
X157288121Y-53021521D01*
X157192400Y-52970356D01*
X157108499Y-52901501D01*
X157039644Y-52817600D01*
X156988479Y-52721879D01*
X156984615Y-52709142D01*
X156975240Y-52686507D01*
X156961626Y-52666133D01*
X156944299Y-52648806D01*
X156923924Y-52635192D01*
X156901285Y-52625814D01*
X156877252Y-52621034D01*
X156852748Y-52621034D01*
X156828714Y-52625815D01*
X156806075Y-52635192D01*
X156785701Y-52648806D01*
X156768374Y-52666133D01*
X156754760Y-52686508D01*
X156745385Y-52709142D01*
X156741521Y-52721879D01*
X156690356Y-52817600D01*
X156621501Y-52901501D01*
X156537600Y-52970356D01*
X156441879Y-53021521D01*
X156429142Y-53025385D01*
X156406507Y-53034760D01*
X156386133Y-53048374D01*
X156368806Y-53065701D01*
X156355192Y-53086076D01*
X156345814Y-53108715D01*
X156341034Y-53132748D01*
X156118966Y-53132748D01*
X156114185Y-53108714D01*
X156104808Y-53086075D01*
X156091194Y-53065701D01*
X156073867Y-53048374D01*
X156053492Y-53034760D01*
X156030858Y-53025385D01*
X156018121Y-53021521D01*
X155922400Y-52970356D01*
X155838499Y-52901501D01*
X155769644Y-52817600D01*
X155718479Y-52721879D01*
X155714615Y-52709142D01*
X155705240Y-52686507D01*
X155691626Y-52666133D01*
X155674299Y-52648806D01*
X155653924Y-52635192D01*
X155631285Y-52625814D01*
X155607252Y-52621034D01*
X155582748Y-52621034D01*
X155558714Y-52625815D01*
X155536075Y-52635192D01*
X155515701Y-52648806D01*
X155498374Y-52666133D01*
X155484760Y-52686508D01*
X155475385Y-52709142D01*
X155471521Y-52721879D01*
X155420356Y-52817600D01*
X155351501Y-52901501D01*
X155267600Y-52970356D01*
X155223805Y-52993766D01*
X155203439Y-53007374D01*
X155186111Y-53024701D01*
X155172498Y-53045076D01*
X155163120Y-53067715D01*
X155158340Y-53091748D01*
X154761056Y-53091748D01*
X154759860Y-53079614D01*
X154752747Y-53056165D01*
X154741196Y-53034554D01*
X154725650Y-53015612D01*
X154696192Y-52993764D01*
X154652400Y-52970356D01*
X154568499Y-52901501D01*
X154499644Y-52817600D01*
X154448479Y-52721879D01*
X154416973Y-52618015D01*
X154406334Y-52510000D01*
X154416973Y-52401985D01*
X154448479Y-52298121D01*
X154499644Y-52202400D01*
X154568499Y-52118499D01*
X154652400Y-52049644D01*
X154748121Y-51998479D01*
X154851985Y-51966973D01*
X154932933Y-51959000D01*
X154987067Y-51959000D01*
X155068015Y-51966973D01*
X155068015Y-51966973D01*
G37*
G36*
X147601000Y-52861000D02*
X146399000Y-52861000D01*
X146399000Y-51859000D01*
X147601000Y-51859000D01*
X147601000Y-52861000D01*
X147601000Y-52861000D01*
G37*
G36*
X149901000Y-52861000D02*
X148699000Y-52861000D01*
X148699000Y-51859000D01*
X149901000Y-51859000D01*
X149901000Y-52861000D01*
X149901000Y-52861000D01*
G37*
G36*
X172851000Y-52001000D02*
X171149000Y-52001000D01*
X171149000Y-51099000D01*
X172851000Y-51099000D01*
X172851000Y-52001000D01*
X172851000Y-52001000D01*
G37*
G36*
X152684466Y-50513565D02*
X152723137Y-50525296D01*
X152758779Y-50544348D01*
X152790017Y-50569983D01*
X152815652Y-50601221D01*
X152834704Y-50636863D01*
X152846435Y-50675534D01*
X152851000Y-50721888D01*
X152851000Y-51373112D01*
X152846435Y-51419466D01*
X152834704Y-51458137D01*
X152815652Y-51493779D01*
X152790017Y-51525017D01*
X152758779Y-51550652D01*
X152723137Y-51569704D01*
X152684466Y-51581435D01*
X152638112Y-51586000D01*
X151561888Y-51586000D01*
X151515534Y-51581435D01*
X151476863Y-51569704D01*
X151441221Y-51550652D01*
X151409983Y-51525017D01*
X151384348Y-51493779D01*
X151365296Y-51458137D01*
X151353565Y-51419466D01*
X151349000Y-51373112D01*
X151349000Y-50721888D01*
X151353565Y-50675534D01*
X151365296Y-50636863D01*
X151384348Y-50601221D01*
X151409983Y-50569983D01*
X151441221Y-50544348D01*
X151476863Y-50525296D01*
X151515534Y-50513565D01*
X151561888Y-50509000D01*
X152638112Y-50509000D01*
X152684466Y-50513565D01*
X152684466Y-50513565D01*
G37*
G36*
X162244466Y-49593565D02*
X162283137Y-49605296D01*
X162318779Y-49624348D01*
X162350017Y-49649983D01*
X162375652Y-49681221D01*
X162394704Y-49716863D01*
X162406435Y-49755534D01*
X162411000Y-49801888D01*
X162411000Y-50453112D01*
X162406435Y-50499466D01*
X162394704Y-50538137D01*
X162375652Y-50573779D01*
X162350017Y-50605017D01*
X162318779Y-50630652D01*
X162283137Y-50649704D01*
X162244466Y-50661435D01*
X162198112Y-50666000D01*
X161121888Y-50666000D01*
X161075534Y-50661435D01*
X161036863Y-50649704D01*
X161001221Y-50630652D01*
X160969983Y-50605017D01*
X160944348Y-50573779D01*
X160925296Y-50538137D01*
X160913565Y-50499466D01*
X160909000Y-50453112D01*
X160909000Y-49801888D01*
X160913565Y-49755534D01*
X160925296Y-49716863D01*
X160944348Y-49681221D01*
X160969983Y-49649983D01*
X161001221Y-49624348D01*
X161036863Y-49605296D01*
X161075534Y-49593565D01*
X161121888Y-49589000D01*
X162198112Y-49589000D01*
X162244466Y-49593565D01*
X162244466Y-49593565D01*
G37*
G36*
X154874466Y-49523565D02*
X154913137Y-49535296D01*
X154948779Y-49554348D01*
X154980017Y-49579983D01*
X155005652Y-49611221D01*
X155024704Y-49646863D01*
X155036435Y-49685534D01*
X155041000Y-49731888D01*
X155041000Y-50383112D01*
X155036435Y-50429466D01*
X155024704Y-50468137D01*
X155005652Y-50503779D01*
X154980017Y-50535017D01*
X154948779Y-50560652D01*
X154913137Y-50579704D01*
X154874466Y-50591435D01*
X154828112Y-50596000D01*
X153751888Y-50596000D01*
X153705534Y-50591435D01*
X153666863Y-50579704D01*
X153631221Y-50560652D01*
X153599983Y-50535017D01*
X153574348Y-50503779D01*
X153555296Y-50468137D01*
X153543565Y-50429466D01*
X153539000Y-50383112D01*
X153539000Y-49731888D01*
X153543565Y-49685534D01*
X153555296Y-49646863D01*
X153574348Y-49611221D01*
X153599983Y-49579983D01*
X153631221Y-49554348D01*
X153666863Y-49535296D01*
X153705534Y-49523565D01*
X153751888Y-49519000D01*
X154828112Y-49519000D01*
X154874466Y-49523565D01*
X154874466Y-49523565D01*
G37*
G36*
X160459000Y-50277000D02*
X159457000Y-50277000D01*
X159457000Y-48275000D01*
X160459000Y-48275000D01*
X160459000Y-50277000D01*
X160459000Y-50277000D01*
G37*
G36*
X159059000Y-50277000D02*
X158057000Y-50277000D01*
X158057000Y-48275000D01*
X159059000Y-48275000D01*
X159059000Y-50277000D01*
X159059000Y-50277000D01*
G37*
G36*
X164811788Y-48783843D02*
X164850459Y-48795574D01*
X164886101Y-48814626D01*
X164917339Y-48840261D01*
X164942974Y-48871499D01*
X164962026Y-48907141D01*
X164973757Y-48945812D01*
X164978322Y-48992166D01*
X164978322Y-49643390D01*
X164973757Y-49689744D01*
X164962026Y-49728415D01*
X164942974Y-49764057D01*
X164917339Y-49795295D01*
X164886101Y-49820930D01*
X164850459Y-49839982D01*
X164811788Y-49851713D01*
X164765434Y-49856278D01*
X163689210Y-49856278D01*
X163642856Y-49851713D01*
X163604185Y-49839982D01*
X163568543Y-49820930D01*
X163537305Y-49795295D01*
X163511670Y-49764057D01*
X163492618Y-49728415D01*
X163480887Y-49689744D01*
X163476322Y-49643390D01*
X163476322Y-48992166D01*
X163480887Y-48945812D01*
X163492618Y-48907141D01*
X163511670Y-48871499D01*
X163537305Y-48840261D01*
X163568543Y-48814626D01*
X163604185Y-48795574D01*
X163642856Y-48783843D01*
X163689210Y-48779278D01*
X164765434Y-48779278D01*
X164811788Y-48783843D01*
X164811788Y-48783843D01*
G37*
G36*
X166764466Y-48781065D02*
X166803137Y-48792796D01*
X166838779Y-48811848D01*
X166870017Y-48837483D01*
X166895652Y-48868721D01*
X166914704Y-48904363D01*
X166926435Y-48943034D01*
X166931000Y-48989388D01*
X166931000Y-49640612D01*
X166926435Y-49686966D01*
X166914704Y-49725637D01*
X166895652Y-49761279D01*
X166870017Y-49792517D01*
X166838779Y-49818152D01*
X166803137Y-49837204D01*
X166764466Y-49848935D01*
X166718112Y-49853500D01*
X165641888Y-49853500D01*
X165595534Y-49848935D01*
X165556863Y-49837204D01*
X165521221Y-49818152D01*
X165489983Y-49792517D01*
X165464348Y-49761279D01*
X165445296Y-49725637D01*
X165433565Y-49686966D01*
X165429000Y-49640612D01*
X165429000Y-48989388D01*
X165433565Y-48943034D01*
X165445296Y-48904363D01*
X165464348Y-48868721D01*
X165489983Y-48837483D01*
X165521221Y-48811848D01*
X165556863Y-48792796D01*
X165595534Y-48781065D01*
X165641888Y-48776500D01*
X166718112Y-48776500D01*
X166764466Y-48781065D01*
X166764466Y-48781065D01*
G37*
G36*
X152684466Y-48638565D02*
X152723137Y-48650296D01*
X152758779Y-48669348D01*
X152790017Y-48694983D01*
X152815652Y-48726221D01*
X152834704Y-48761863D01*
X152846435Y-48800534D01*
X152851000Y-48846888D01*
X152851000Y-49498112D01*
X152846435Y-49544466D01*
X152834704Y-49583137D01*
X152815652Y-49618779D01*
X152790017Y-49650017D01*
X152758779Y-49675652D01*
X152723137Y-49694704D01*
X152684466Y-49706435D01*
X152638112Y-49711000D01*
X151561888Y-49711000D01*
X151515534Y-49706435D01*
X151476863Y-49694704D01*
X151441221Y-49675652D01*
X151409983Y-49650017D01*
X151384348Y-49618779D01*
X151365296Y-49583137D01*
X151353565Y-49544466D01*
X151349000Y-49498112D01*
X151349000Y-48846888D01*
X151353565Y-48800534D01*
X151365296Y-48761863D01*
X151384348Y-48726221D01*
X151409983Y-48694983D01*
X151441221Y-48669348D01*
X151476863Y-48650296D01*
X151515534Y-48638565D01*
X151561888Y-48634000D01*
X152638112Y-48634000D01*
X152684466Y-48638565D01*
X152684466Y-48638565D01*
G37*
G36*
X148901000Y-49561000D02*
X147399000Y-49561000D01*
X147399000Y-48559000D01*
X148901000Y-48559000D01*
X148901000Y-49561000D01*
X148901000Y-49561000D01*
G37*
G36*
X172851000Y-48801000D02*
X171149000Y-48801000D01*
X171149000Y-47899000D01*
X172851000Y-47899000D01*
X172851000Y-48801000D01*
X172851000Y-48801000D01*
G37*
G36*
X162244466Y-47718565D02*
X162283137Y-47730296D01*
X162318779Y-47749348D01*
X162350017Y-47774983D01*
X162375652Y-47806221D01*
X162394704Y-47841863D01*
X162406435Y-47880534D01*
X162411000Y-47926888D01*
X162411000Y-48578112D01*
X162406435Y-48624466D01*
X162394704Y-48663137D01*
X162375652Y-48698779D01*
X162350017Y-48730017D01*
X162318779Y-48755652D01*
X162283137Y-48774704D01*
X162244466Y-48786435D01*
X162198112Y-48791000D01*
X161121888Y-48791000D01*
X161075534Y-48786435D01*
X161036863Y-48774704D01*
X161001221Y-48755652D01*
X160969983Y-48730017D01*
X160944348Y-48698779D01*
X160925296Y-48663137D01*
X160913565Y-48624466D01*
X160909000Y-48578112D01*
X160909000Y-47926888D01*
X160913565Y-47880534D01*
X160925296Y-47841863D01*
X160944348Y-47806221D01*
X160969983Y-47774983D01*
X161001221Y-47749348D01*
X161036863Y-47730296D01*
X161075534Y-47718565D01*
X161121888Y-47714000D01*
X162198112Y-47714000D01*
X162244466Y-47718565D01*
X162244466Y-47718565D01*
G37*
G36*
X154874466Y-47648565D02*
X154913137Y-47660296D01*
X154948779Y-47679348D01*
X154980017Y-47704983D01*
X155005652Y-47736221D01*
X155024704Y-47771863D01*
X155036435Y-47810534D01*
X155041000Y-47856888D01*
X155041000Y-48508112D01*
X155036435Y-48554466D01*
X155024704Y-48593137D01*
X155005652Y-48628779D01*
X154980017Y-48660017D01*
X154948779Y-48685652D01*
X154913137Y-48704704D01*
X154874466Y-48716435D01*
X154828112Y-48721000D01*
X153751888Y-48721000D01*
X153705534Y-48716435D01*
X153666863Y-48704704D01*
X153631221Y-48685652D01*
X153599983Y-48660017D01*
X153574348Y-48628779D01*
X153555296Y-48593137D01*
X153543565Y-48554466D01*
X153539000Y-48508112D01*
X153539000Y-47856888D01*
X153543565Y-47810534D01*
X153555296Y-47771863D01*
X153574348Y-47736221D01*
X153599983Y-47704983D01*
X153631221Y-47679348D01*
X153666863Y-47660296D01*
X153705534Y-47648565D01*
X153751888Y-47644000D01*
X154828112Y-47644000D01*
X154874466Y-47648565D01*
X154874466Y-47648565D01*
G37*
G36*
X164811788Y-46908843D02*
X164850459Y-46920574D01*
X164886101Y-46939626D01*
X164917339Y-46965261D01*
X164942974Y-46996499D01*
X164962026Y-47032141D01*
X164973757Y-47070812D01*
X164978322Y-47117166D01*
X164978322Y-47768390D01*
X164973757Y-47814744D01*
X164962026Y-47853415D01*
X164942974Y-47889057D01*
X164917339Y-47920295D01*
X164886101Y-47945930D01*
X164850459Y-47964982D01*
X164811788Y-47976713D01*
X164765434Y-47981278D01*
X163689210Y-47981278D01*
X163642856Y-47976713D01*
X163604185Y-47964982D01*
X163568543Y-47945930D01*
X163537305Y-47920295D01*
X163511670Y-47889057D01*
X163492618Y-47853415D01*
X163480887Y-47814744D01*
X163476322Y-47768390D01*
X163476322Y-47117166D01*
X163480887Y-47070812D01*
X163492618Y-47032141D01*
X163511670Y-46996499D01*
X163537305Y-46965261D01*
X163568543Y-46939626D01*
X163604185Y-46920574D01*
X163642856Y-46908843D01*
X163689210Y-46904278D01*
X164765434Y-46904278D01*
X164811788Y-46908843D01*
X164811788Y-46908843D01*
G37*
G36*
X166764466Y-46906065D02*
X166803137Y-46917796D01*
X166838779Y-46936848D01*
X166870017Y-46962483D01*
X166895652Y-46993721D01*
X166914704Y-47029363D01*
X166926435Y-47068034D01*
X166931000Y-47114388D01*
X166931000Y-47765612D01*
X166926435Y-47811966D01*
X166914704Y-47850637D01*
X166895652Y-47886279D01*
X166870017Y-47917517D01*
X166838779Y-47943152D01*
X166803137Y-47962204D01*
X166764466Y-47973935D01*
X166718112Y-47978500D01*
X165641888Y-47978500D01*
X165595534Y-47973935D01*
X165556863Y-47962204D01*
X165521221Y-47943152D01*
X165489983Y-47917517D01*
X165464348Y-47886279D01*
X165445296Y-47850637D01*
X165433565Y-47811966D01*
X165429000Y-47765612D01*
X165429000Y-47114388D01*
X165433565Y-47068034D01*
X165445296Y-47029363D01*
X165464348Y-46993721D01*
X165489983Y-46962483D01*
X165521221Y-46936848D01*
X165556863Y-46917796D01*
X165595534Y-46906065D01*
X165641888Y-46901500D01*
X166718112Y-46901500D01*
X166764466Y-46906065D01*
X166764466Y-46906065D01*
G37*
G36*
X150431000Y-47901000D02*
X149749000Y-47901000D01*
X149749000Y-46489000D01*
X150431000Y-46489000D01*
X150431000Y-47901000D01*
X150431000Y-47901000D01*
G37*
G36*
X149481000Y-47901000D02*
X148799000Y-47901000D01*
X148799000Y-46489000D01*
X149481000Y-46489000D01*
X149481000Y-47901000D01*
X149481000Y-47901000D01*
G37*
G36*
X151381000Y-47901000D02*
X150699000Y-47901000D01*
X150699000Y-46489000D01*
X151381000Y-46489000D01*
X151381000Y-47901000D01*
X151381000Y-47901000D01*
G37*
G36*
X147809466Y-46293565D02*
X147848137Y-46305296D01*
X147883779Y-46324348D01*
X147915017Y-46349983D01*
X147940652Y-46381221D01*
X147959704Y-46416863D01*
X147971435Y-46455534D01*
X147976000Y-46501888D01*
X147976000Y-47578112D01*
X147971435Y-47624466D01*
X147959704Y-47663137D01*
X147940652Y-47698779D01*
X147915017Y-47730017D01*
X147883779Y-47755652D01*
X147848137Y-47774704D01*
X147809466Y-47786435D01*
X147763112Y-47791000D01*
X147111888Y-47791000D01*
X147065534Y-47786435D01*
X147026863Y-47774704D01*
X146991221Y-47755652D01*
X146959983Y-47730017D01*
X146934348Y-47698779D01*
X146915296Y-47663137D01*
X146903565Y-47624466D01*
X146899000Y-47578112D01*
X146899000Y-46501888D01*
X146903565Y-46455534D01*
X146915296Y-46416863D01*
X146934348Y-46381221D01*
X146959983Y-46349983D01*
X146991221Y-46324348D01*
X147026863Y-46305296D01*
X147065534Y-46293565D01*
X147111888Y-46289000D01*
X147763112Y-46289000D01*
X147809466Y-46293565D01*
X147809466Y-46293565D01*
G37*
G36*
X145934466Y-46293565D02*
X145973137Y-46305296D01*
X146008779Y-46324348D01*
X146040017Y-46349983D01*
X146065652Y-46381221D01*
X146084704Y-46416863D01*
X146096435Y-46455534D01*
X146101000Y-46501888D01*
X146101000Y-47578112D01*
X146096435Y-47624466D01*
X146084704Y-47663137D01*
X146065652Y-47698779D01*
X146040017Y-47730017D01*
X146008779Y-47755652D01*
X145973137Y-47774704D01*
X145934466Y-47786435D01*
X145888112Y-47791000D01*
X145236888Y-47791000D01*
X145190534Y-47786435D01*
X145151863Y-47774704D01*
X145116221Y-47755652D01*
X145084983Y-47730017D01*
X145059348Y-47698779D01*
X145040296Y-47663137D01*
X145028565Y-47624466D01*
X145024000Y-47578112D01*
X145024000Y-46501888D01*
X145028565Y-46455534D01*
X145040296Y-46416863D01*
X145059348Y-46381221D01*
X145084983Y-46349983D01*
X145116221Y-46324348D01*
X145151863Y-46305296D01*
X145190534Y-46293565D01*
X145236888Y-46289000D01*
X145888112Y-46289000D01*
X145934466Y-46293565D01*
X145934466Y-46293565D01*
G37*
G36*
X155029466Y-45643565D02*
X155068137Y-45655296D01*
X155103779Y-45674348D01*
X155135017Y-45699983D01*
X155160652Y-45731221D01*
X155179704Y-45766863D01*
X155191435Y-45805534D01*
X155196000Y-45851888D01*
X155196000Y-46928112D01*
X155191435Y-46974466D01*
X155179704Y-47013137D01*
X155160652Y-47048779D01*
X155135017Y-47080017D01*
X155103779Y-47105652D01*
X155068137Y-47124704D01*
X155029466Y-47136435D01*
X154983112Y-47141000D01*
X154331888Y-47141000D01*
X154285534Y-47136435D01*
X154246863Y-47124704D01*
X154211221Y-47105652D01*
X154179983Y-47080017D01*
X154154348Y-47048779D01*
X154135296Y-47013137D01*
X154123565Y-46974466D01*
X154119000Y-46928112D01*
X154119000Y-45851888D01*
X154123565Y-45805534D01*
X154135296Y-45766863D01*
X154154348Y-45731221D01*
X154179983Y-45699983D01*
X154211221Y-45674348D01*
X154246863Y-45655296D01*
X154285534Y-45643565D01*
X154331888Y-45639000D01*
X154983112Y-45639000D01*
X155029466Y-45643565D01*
X155029466Y-45643565D01*
G37*
G36*
X153154466Y-45643565D02*
X153193137Y-45655296D01*
X153228779Y-45674348D01*
X153260017Y-45699983D01*
X153285652Y-45731221D01*
X153304704Y-45766863D01*
X153316435Y-45805534D01*
X153321000Y-45851888D01*
X153321000Y-46928112D01*
X153316435Y-46974466D01*
X153304704Y-47013137D01*
X153285652Y-47048779D01*
X153260017Y-47080017D01*
X153228779Y-47105652D01*
X153193137Y-47124704D01*
X153154466Y-47136435D01*
X153108112Y-47141000D01*
X152456888Y-47141000D01*
X152410534Y-47136435D01*
X152371863Y-47124704D01*
X152336221Y-47105652D01*
X152304983Y-47080017D01*
X152279348Y-47048779D01*
X152260296Y-47013137D01*
X152248565Y-46974466D01*
X152244000Y-46928112D01*
X152244000Y-45851888D01*
X152248565Y-45805534D01*
X152260296Y-45766863D01*
X152279348Y-45731221D01*
X152304983Y-45699983D01*
X152336221Y-45674348D01*
X152371863Y-45655296D01*
X152410534Y-45643565D01*
X152456888Y-45639000D01*
X153108112Y-45639000D01*
X153154466Y-45643565D01*
X153154466Y-45643565D01*
G37*
G36*
X161878322Y-40929278D02*
X161880724Y-40953664D01*
X161887837Y-40977113D01*
X161899388Y-40998724D01*
X161914934Y-41017666D01*
X161933876Y-41033212D01*
X161955487Y-41044763D01*
X161978936Y-41051876D01*
X162003322Y-41054278D01*
X162953322Y-41054278D01*
X162953322Y-45756278D01*
X162003322Y-45756278D01*
X161978936Y-45758680D01*
X161955487Y-45765793D01*
X161933876Y-45777344D01*
X161914934Y-45792890D01*
X161899388Y-45811832D01*
X161887837Y-45833443D01*
X161880724Y-45856892D01*
X161878322Y-45881278D01*
X161878322Y-46831278D01*
X157176322Y-46831278D01*
X157176322Y-45881278D01*
X157173920Y-45856892D01*
X157166807Y-45833443D01*
X157155256Y-45811832D01*
X157139710Y-45792890D01*
X157120768Y-45777344D01*
X157099157Y-45765793D01*
X157075708Y-45758680D01*
X157051322Y-45756278D01*
X156101322Y-45756278D01*
X156101322Y-41054278D01*
X157051322Y-41054278D01*
X157075708Y-41051876D01*
X157099157Y-41044763D01*
X157120768Y-41033212D01*
X157139710Y-41017666D01*
X157155256Y-40998724D01*
X157166807Y-40977113D01*
X157173920Y-40953664D01*
X157176322Y-40929278D01*
X157176322Y-39979278D01*
X161878322Y-39979278D01*
X161878322Y-40929278D01*
X161878322Y-40929278D01*
G37*
G36*
X168046788Y-44848843D02*
X168085459Y-44860574D01*
X168121101Y-44879626D01*
X168152339Y-44905261D01*
X168177974Y-44936499D01*
X168197026Y-44972141D01*
X168208757Y-45010812D01*
X168213322Y-45057166D01*
X168213322Y-46133390D01*
X168208757Y-46179744D01*
X168197026Y-46218415D01*
X168177974Y-46254057D01*
X168152339Y-46285295D01*
X168121101Y-46310930D01*
X168085459Y-46329982D01*
X168046788Y-46341713D01*
X168000434Y-46346278D01*
X167349210Y-46346278D01*
X167302856Y-46341713D01*
X167264185Y-46329982D01*
X167228543Y-46310930D01*
X167197305Y-46285295D01*
X167171670Y-46254057D01*
X167152618Y-46218415D01*
X167140887Y-46179744D01*
X167136322Y-46133390D01*
X167136322Y-45057166D01*
X167140887Y-45010812D01*
X167152618Y-44972141D01*
X167171670Y-44936499D01*
X167197305Y-44905261D01*
X167228543Y-44879626D01*
X167264185Y-44860574D01*
X167302856Y-44848843D01*
X167349210Y-44844278D01*
X168000434Y-44844278D01*
X168046788Y-44848843D01*
X168046788Y-44848843D01*
G37*
G36*
X169921788Y-44848843D02*
X169960459Y-44860574D01*
X169996101Y-44879626D01*
X170027339Y-44905261D01*
X170052974Y-44936499D01*
X170072026Y-44972141D01*
X170083757Y-45010812D01*
X170088322Y-45057166D01*
X170088322Y-46133390D01*
X170083757Y-46179744D01*
X170072026Y-46218415D01*
X170052974Y-46254057D01*
X170027339Y-46285295D01*
X169996101Y-46310930D01*
X169960459Y-46329982D01*
X169921788Y-46341713D01*
X169875434Y-46346278D01*
X169224210Y-46346278D01*
X169177856Y-46341713D01*
X169139185Y-46329982D01*
X169103543Y-46310930D01*
X169072305Y-46285295D01*
X169046670Y-46254057D01*
X169027618Y-46218415D01*
X169015887Y-46179744D01*
X169011322Y-46133390D01*
X169011322Y-45057166D01*
X169015887Y-45010812D01*
X169027618Y-44972141D01*
X169046670Y-44936499D01*
X169072305Y-44905261D01*
X169103543Y-44879626D01*
X169139185Y-44860574D01*
X169177856Y-44848843D01*
X169224210Y-44844278D01*
X169875434Y-44844278D01*
X169921788Y-44848843D01*
X169921788Y-44848843D01*
G37*
G36*
X164621788Y-44848843D02*
X164660459Y-44860574D01*
X164696101Y-44879626D01*
X164727339Y-44905261D01*
X164752974Y-44936499D01*
X164772026Y-44972141D01*
X164783757Y-45010812D01*
X164788322Y-45057166D01*
X164788322Y-46133390D01*
X164783757Y-46179744D01*
X164772026Y-46218415D01*
X164752974Y-46254057D01*
X164727339Y-46285295D01*
X164696101Y-46310930D01*
X164660459Y-46329982D01*
X164621788Y-46341713D01*
X164575434Y-46346278D01*
X163924210Y-46346278D01*
X163877856Y-46341713D01*
X163839185Y-46329982D01*
X163803543Y-46310930D01*
X163772305Y-46285295D01*
X163746670Y-46254057D01*
X163727618Y-46218415D01*
X163715887Y-46179744D01*
X163711322Y-46133390D01*
X163711322Y-45057166D01*
X163715887Y-45010812D01*
X163727618Y-44972141D01*
X163746670Y-44936499D01*
X163772305Y-44905261D01*
X163803543Y-44879626D01*
X163839185Y-44860574D01*
X163877856Y-44848843D01*
X163924210Y-44844278D01*
X164575434Y-44844278D01*
X164621788Y-44848843D01*
X164621788Y-44848843D01*
G37*
G36*
X166496788Y-44848843D02*
X166535459Y-44860574D01*
X166571101Y-44879626D01*
X166602339Y-44905261D01*
X166627974Y-44936499D01*
X166647026Y-44972141D01*
X166658757Y-45010812D01*
X166663322Y-45057166D01*
X166663322Y-46133390D01*
X166658757Y-46179744D01*
X166647026Y-46218415D01*
X166627974Y-46254057D01*
X166602339Y-46285295D01*
X166571101Y-46310930D01*
X166535459Y-46329982D01*
X166496788Y-46341713D01*
X166450434Y-46346278D01*
X165799210Y-46346278D01*
X165752856Y-46341713D01*
X165714185Y-46329982D01*
X165678543Y-46310930D01*
X165647305Y-46285295D01*
X165621670Y-46254057D01*
X165602618Y-46218415D01*
X165590887Y-46179744D01*
X165586322Y-46133390D01*
X165586322Y-45057166D01*
X165590887Y-45010812D01*
X165602618Y-44972141D01*
X165621670Y-44936499D01*
X165647305Y-44905261D01*
X165678543Y-44879626D01*
X165714185Y-44860574D01*
X165752856Y-44848843D01*
X165799210Y-44844278D01*
X166450434Y-44844278D01*
X166496788Y-44848843D01*
X166496788Y-44848843D01*
G37*
G36*
X147799466Y-44083565D02*
X147838137Y-44095296D01*
X147873779Y-44114348D01*
X147905017Y-44139983D01*
X147930652Y-44171221D01*
X147949704Y-44206863D01*
X147961435Y-44245534D01*
X147966000Y-44291888D01*
X147966000Y-45368112D01*
X147961435Y-45414466D01*
X147949704Y-45453137D01*
X147930652Y-45488779D01*
X147905017Y-45520017D01*
X147873779Y-45545652D01*
X147838137Y-45564704D01*
X147799466Y-45576435D01*
X147753112Y-45581000D01*
X147101888Y-45581000D01*
X147055534Y-45576435D01*
X147016863Y-45564704D01*
X146981221Y-45545652D01*
X146949983Y-45520017D01*
X146924348Y-45488779D01*
X146905296Y-45453137D01*
X146893565Y-45414466D01*
X146889000Y-45368112D01*
X146889000Y-44291888D01*
X146893565Y-44245534D01*
X146905296Y-44206863D01*
X146924348Y-44171221D01*
X146949983Y-44139983D01*
X146981221Y-44114348D01*
X147016863Y-44095296D01*
X147055534Y-44083565D01*
X147101888Y-44079000D01*
X147753112Y-44079000D01*
X147799466Y-44083565D01*
X147799466Y-44083565D01*
G37*
G36*
X145924466Y-44083565D02*
X145963137Y-44095296D01*
X145998779Y-44114348D01*
X146030017Y-44139983D01*
X146055652Y-44171221D01*
X146074704Y-44206863D01*
X146086435Y-44245534D01*
X146091000Y-44291888D01*
X146091000Y-45368112D01*
X146086435Y-45414466D01*
X146074704Y-45453137D01*
X146055652Y-45488779D01*
X146030017Y-45520017D01*
X145998779Y-45545652D01*
X145963137Y-45564704D01*
X145924466Y-45576435D01*
X145878112Y-45581000D01*
X145226888Y-45581000D01*
X145180534Y-45576435D01*
X145141863Y-45564704D01*
X145106221Y-45545652D01*
X145074983Y-45520017D01*
X145049348Y-45488779D01*
X145030296Y-45453137D01*
X145018565Y-45414466D01*
X145014000Y-45368112D01*
X145014000Y-44291888D01*
X145018565Y-44245534D01*
X145030296Y-44206863D01*
X145049348Y-44171221D01*
X145074983Y-44139983D01*
X145106221Y-44114348D01*
X145141863Y-44095296D01*
X145180534Y-44083565D01*
X145226888Y-44079000D01*
X145878112Y-44079000D01*
X145924466Y-44083565D01*
X145924466Y-44083565D01*
G37*
G36*
X149481000Y-45491000D02*
X148799000Y-45491000D01*
X148799000Y-44079000D01*
X149481000Y-44079000D01*
X149481000Y-45491000D01*
X149481000Y-45491000D01*
G37*
G36*
X151381000Y-45491000D02*
X150699000Y-45491000D01*
X150699000Y-44079000D01*
X151381000Y-44079000D01*
X151381000Y-45491000D01*
X151381000Y-45491000D01*
G37*
G36*
X155059466Y-43443565D02*
X155098137Y-43455296D01*
X155133779Y-43474348D01*
X155165017Y-43499983D01*
X155190652Y-43531221D01*
X155209704Y-43566863D01*
X155221435Y-43605534D01*
X155226000Y-43651888D01*
X155226000Y-44728112D01*
X155221435Y-44774466D01*
X155209704Y-44813137D01*
X155190652Y-44848779D01*
X155165017Y-44880017D01*
X155133779Y-44905652D01*
X155098137Y-44924704D01*
X155059466Y-44936435D01*
X155013112Y-44941000D01*
X154361888Y-44941000D01*
X154315534Y-44936435D01*
X154276863Y-44924704D01*
X154241221Y-44905652D01*
X154209983Y-44880017D01*
X154184348Y-44848779D01*
X154165296Y-44813137D01*
X154153565Y-44774466D01*
X154149000Y-44728112D01*
X154149000Y-43651888D01*
X154153565Y-43605534D01*
X154165296Y-43566863D01*
X154184348Y-43531221D01*
X154209983Y-43499983D01*
X154241221Y-43474348D01*
X154276863Y-43455296D01*
X154315534Y-43443565D01*
X154361888Y-43439000D01*
X155013112Y-43439000D01*
X155059466Y-43443565D01*
X155059466Y-43443565D01*
G37*
G36*
X153184466Y-43443565D02*
X153223137Y-43455296D01*
X153258779Y-43474348D01*
X153290017Y-43499983D01*
X153315652Y-43531221D01*
X153334704Y-43566863D01*
X153346435Y-43605534D01*
X153351000Y-43651888D01*
X153351000Y-44728112D01*
X153346435Y-44774466D01*
X153334704Y-44813137D01*
X153315652Y-44848779D01*
X153290017Y-44880017D01*
X153258779Y-44905652D01*
X153223137Y-44924704D01*
X153184466Y-44936435D01*
X153138112Y-44941000D01*
X152486888Y-44941000D01*
X152440534Y-44936435D01*
X152401863Y-44924704D01*
X152366221Y-44905652D01*
X152334983Y-44880017D01*
X152309348Y-44848779D01*
X152290296Y-44813137D01*
X152278565Y-44774466D01*
X152274000Y-44728112D01*
X152274000Y-43651888D01*
X152278565Y-43605534D01*
X152290296Y-43566863D01*
X152309348Y-43531221D01*
X152334983Y-43499983D01*
X152366221Y-43474348D01*
X152401863Y-43455296D01*
X152440534Y-43443565D01*
X152486888Y-43439000D01*
X153138112Y-43439000D01*
X153184466Y-43443565D01*
X153184466Y-43443565D01*
G37*
G36*
X154621000Y-40959000D02*
X154623402Y-40983386D01*
X154630515Y-41006835D01*
X154642066Y-41028446D01*
X154657612Y-41047388D01*
X154676554Y-41062934D01*
X154698165Y-41074485D01*
X154721614Y-41081598D01*
X154746000Y-41084000D01*
X154896000Y-41084000D01*
X154896000Y-41536000D01*
X154746000Y-41536000D01*
X154721614Y-41538402D01*
X154698165Y-41545515D01*
X154676554Y-41557066D01*
X154657612Y-41572612D01*
X154642066Y-41591554D01*
X154630515Y-41613165D01*
X154623402Y-41636614D01*
X154621000Y-41661000D01*
X154621000Y-42291000D01*
X152719000Y-42291000D01*
X152719000Y-41661000D01*
X152716598Y-41636614D01*
X152709485Y-41613165D01*
X152697934Y-41591554D01*
X152682388Y-41572612D01*
X152663446Y-41557066D01*
X152641835Y-41545515D01*
X152618386Y-41538402D01*
X152594000Y-41536000D01*
X152444000Y-41536000D01*
X152444000Y-41136000D01*
X153176000Y-41136000D01*
X153176000Y-41484000D01*
X153178402Y-41508386D01*
X153185515Y-41531835D01*
X153197066Y-41553446D01*
X153212612Y-41572388D01*
X153231554Y-41587934D01*
X153253165Y-41599485D01*
X153276614Y-41606598D01*
X153301000Y-41609000D01*
X154039000Y-41609000D01*
X154063386Y-41606598D01*
X154086835Y-41599485D01*
X154108446Y-41587934D01*
X154127388Y-41572388D01*
X154142934Y-41553446D01*
X154154485Y-41531835D01*
X154161598Y-41508386D01*
X154164000Y-41484000D01*
X154164000Y-41136000D01*
X154161598Y-41111614D01*
X154154485Y-41088165D01*
X154142934Y-41066554D01*
X154127388Y-41047612D01*
X154108446Y-41032066D01*
X154086835Y-41020515D01*
X154063386Y-41013402D01*
X154039000Y-41011000D01*
X153301000Y-41011000D01*
X153276614Y-41013402D01*
X153253165Y-41020515D01*
X153231554Y-41032066D01*
X153212612Y-41047612D01*
X153197066Y-41066554D01*
X153185515Y-41088165D01*
X153178402Y-41111614D01*
X153176000Y-41136000D01*
X152444000Y-41136000D01*
X152444000Y-41084000D01*
X152594000Y-41084000D01*
X152618386Y-41081598D01*
X152641835Y-41074485D01*
X152663446Y-41062934D01*
X152682388Y-41047388D01*
X152697934Y-41028446D01*
X152709485Y-41006835D01*
X152716598Y-40983386D01*
X152719000Y-40959000D01*
X152719000Y-40329000D01*
X154621000Y-40329000D01*
X154621000Y-40959000D01*
X154621000Y-40959000D01*
G37*
G36*
X144975500Y-39601000D02*
X143398500Y-39601000D01*
X143398500Y-38449000D01*
X144975500Y-38449000D01*
X144975500Y-39601000D01*
X144975500Y-39601000D01*
G37*
G36*
X148201500Y-39601000D02*
X146624500Y-39601000D01*
X146624500Y-38449000D01*
X148201500Y-38449000D01*
X148201500Y-39601000D01*
X148201500Y-39601000D01*
G37*
G36*
X154111000Y-39496000D02*
X152309000Y-39496000D01*
X152309000Y-38344000D01*
X154111000Y-38344000D01*
X154111000Y-39496000D01*
X154111000Y-39496000D01*
G37*
G36*
X162571000Y-39481000D02*
X161669000Y-39481000D01*
X161669000Y-37879000D01*
X162571000Y-37879000D01*
X162571000Y-39481000D01*
X162571000Y-39481000D01*
G37*
G36*
X161071000Y-39481000D02*
X160169000Y-39481000D01*
X160169000Y-37879000D01*
X161071000Y-37879000D01*
X161071000Y-39481000D01*
X161071000Y-39481000D01*
G37*
G36*
X156154466Y-38313565D02*
X156193137Y-38325296D01*
X156228779Y-38344348D01*
X156260017Y-38369983D01*
X156285652Y-38401221D01*
X156304704Y-38436863D01*
X156316435Y-38475534D01*
X156321000Y-38521888D01*
X156321000Y-39173112D01*
X156316435Y-39219466D01*
X156304704Y-39258137D01*
X156285652Y-39293779D01*
X156260017Y-39325017D01*
X156228779Y-39350652D01*
X156193137Y-39369704D01*
X156154466Y-39381435D01*
X156108112Y-39386000D01*
X155031888Y-39386000D01*
X154985534Y-39381435D01*
X154946863Y-39369704D01*
X154911221Y-39350652D01*
X154879983Y-39325017D01*
X154854348Y-39293779D01*
X154835296Y-39258137D01*
X154823565Y-39219466D01*
X154819000Y-39173112D01*
X154819000Y-38521888D01*
X154823565Y-38475534D01*
X154835296Y-38436863D01*
X154854348Y-38401221D01*
X154879983Y-38369983D01*
X154911221Y-38344348D01*
X154946863Y-38325296D01*
X154985534Y-38313565D01*
X155031888Y-38309000D01*
X156108112Y-38309000D01*
X156154466Y-38313565D01*
X156154466Y-38313565D01*
G37*
G36*
X164566466Y-37797565D02*
X164605137Y-37809296D01*
X164640779Y-37828348D01*
X164672017Y-37853983D01*
X164697652Y-37885221D01*
X164716704Y-37920863D01*
X164728435Y-37959534D01*
X164733000Y-38005888D01*
X164733000Y-39082112D01*
X164728435Y-39128466D01*
X164716704Y-39167137D01*
X164697652Y-39202779D01*
X164672017Y-39234017D01*
X164640779Y-39259652D01*
X164605137Y-39278704D01*
X164566466Y-39290435D01*
X164520112Y-39295000D01*
X163868888Y-39295000D01*
X163822534Y-39290435D01*
X163783863Y-39278704D01*
X163748221Y-39259652D01*
X163716983Y-39234017D01*
X163691348Y-39202779D01*
X163672296Y-39167137D01*
X163660565Y-39128466D01*
X163656000Y-39082112D01*
X163656000Y-38005888D01*
X163660565Y-37959534D01*
X163672296Y-37920863D01*
X163691348Y-37885221D01*
X163716983Y-37853983D01*
X163748221Y-37828348D01*
X163783863Y-37809296D01*
X163822534Y-37797565D01*
X163868888Y-37793000D01*
X164520112Y-37793000D01*
X164566466Y-37797565D01*
X164566466Y-37797565D01*
G37*
G36*
X166441466Y-37797565D02*
X166480137Y-37809296D01*
X166515779Y-37828348D01*
X166547017Y-37853983D01*
X166572652Y-37885221D01*
X166591704Y-37920863D01*
X166603435Y-37959534D01*
X166608000Y-38005888D01*
X166608000Y-39082112D01*
X166603435Y-39128466D01*
X166591704Y-39167137D01*
X166572652Y-39202779D01*
X166547017Y-39234017D01*
X166515779Y-39259652D01*
X166480137Y-39278704D01*
X166441466Y-39290435D01*
X166395112Y-39295000D01*
X165743888Y-39295000D01*
X165697534Y-39290435D01*
X165658863Y-39278704D01*
X165623221Y-39259652D01*
X165591983Y-39234017D01*
X165566348Y-39202779D01*
X165547296Y-39167137D01*
X165535565Y-39128466D01*
X165531000Y-39082112D01*
X165531000Y-38005888D01*
X165535565Y-37959534D01*
X165547296Y-37920863D01*
X165566348Y-37885221D01*
X165591983Y-37853983D01*
X165623221Y-37828348D01*
X165658863Y-37809296D01*
X165697534Y-37797565D01*
X165743888Y-37793000D01*
X166395112Y-37793000D01*
X166441466Y-37797565D01*
X166441466Y-37797565D01*
G37*
G36*
X158224466Y-37833565D02*
X158263137Y-37845296D01*
X158298779Y-37864348D01*
X158330017Y-37889983D01*
X158355652Y-37921221D01*
X158374704Y-37956863D01*
X158386435Y-37995534D01*
X158391000Y-38041888D01*
X158391000Y-38693112D01*
X158386435Y-38739466D01*
X158374704Y-38778137D01*
X158355652Y-38813779D01*
X158330017Y-38845017D01*
X158298779Y-38870652D01*
X158263137Y-38889704D01*
X158224466Y-38901435D01*
X158178112Y-38906000D01*
X157101888Y-38906000D01*
X157055534Y-38901435D01*
X157016863Y-38889704D01*
X156981221Y-38870652D01*
X156949983Y-38845017D01*
X156924348Y-38813779D01*
X156905296Y-38778137D01*
X156893565Y-38739466D01*
X156889000Y-38693112D01*
X156889000Y-38041888D01*
X156893565Y-37995534D01*
X156905296Y-37956863D01*
X156924348Y-37921221D01*
X156949983Y-37889983D01*
X156981221Y-37864348D01*
X157016863Y-37845296D01*
X157055534Y-37833565D01*
X157101888Y-37829000D01*
X158178112Y-37829000D01*
X158224466Y-37833565D01*
X158224466Y-37833565D01*
G37*
G36*
X154111000Y-37596000D02*
X152309000Y-37596000D01*
X152309000Y-36444000D01*
X154111000Y-36444000D01*
X154111000Y-37596000D01*
X154111000Y-37596000D01*
G37*
G36*
X156154466Y-36438565D02*
X156193137Y-36450296D01*
X156228779Y-36469348D01*
X156260017Y-36494983D01*
X156285652Y-36526221D01*
X156304704Y-36561863D01*
X156316435Y-36600534D01*
X156321000Y-36646888D01*
X156321000Y-37298112D01*
X156316435Y-37344466D01*
X156304704Y-37383137D01*
X156285652Y-37418779D01*
X156260017Y-37450017D01*
X156228779Y-37475652D01*
X156193137Y-37494704D01*
X156154466Y-37506435D01*
X156108112Y-37511000D01*
X155031888Y-37511000D01*
X154985534Y-37506435D01*
X154946863Y-37494704D01*
X154911221Y-37475652D01*
X154879983Y-37450017D01*
X154854348Y-37418779D01*
X154835296Y-37383137D01*
X154823565Y-37344466D01*
X154819000Y-37298112D01*
X154819000Y-36646888D01*
X154823565Y-36600534D01*
X154835296Y-36561863D01*
X154854348Y-36526221D01*
X154879983Y-36494983D01*
X154911221Y-36469348D01*
X154946863Y-36450296D01*
X154985534Y-36438565D01*
X155031888Y-36434000D01*
X156108112Y-36434000D01*
X156154466Y-36438565D01*
X156154466Y-36438565D01*
G37*
G36*
X160636466Y-36347565D02*
X160675137Y-36359296D01*
X160710779Y-36378348D01*
X160742017Y-36403983D01*
X160767652Y-36435221D01*
X160786704Y-36470863D01*
X160798435Y-36509534D01*
X160803000Y-36555888D01*
X160803000Y-37207112D01*
X160798435Y-37253466D01*
X160786704Y-37292137D01*
X160767652Y-37327779D01*
X160742017Y-37359017D01*
X160710779Y-37384652D01*
X160675137Y-37403704D01*
X160636466Y-37415435D01*
X160590112Y-37420000D01*
X159513888Y-37420000D01*
X159467534Y-37415435D01*
X159428863Y-37403704D01*
X159393221Y-37384652D01*
X159361983Y-37359017D01*
X159336348Y-37327779D01*
X159317296Y-37292137D01*
X159305565Y-37253466D01*
X159301000Y-37207112D01*
X159301000Y-36555888D01*
X159305565Y-36509534D01*
X159317296Y-36470863D01*
X159336348Y-36435221D01*
X159361983Y-36403983D01*
X159393221Y-36378348D01*
X159428863Y-36359296D01*
X159467534Y-36347565D01*
X159513888Y-36343000D01*
X160590112Y-36343000D01*
X160636466Y-36347565D01*
X160636466Y-36347565D01*
G37*
G36*
X162668466Y-36347565D02*
X162707137Y-36359296D01*
X162742779Y-36378348D01*
X162774017Y-36403983D01*
X162799652Y-36435221D01*
X162818704Y-36470863D01*
X162830435Y-36509534D01*
X162835000Y-36555888D01*
X162835000Y-37207112D01*
X162830435Y-37253466D01*
X162818704Y-37292137D01*
X162799652Y-37327779D01*
X162774017Y-37359017D01*
X162742779Y-37384652D01*
X162707137Y-37403704D01*
X162668466Y-37415435D01*
X162622112Y-37420000D01*
X161545888Y-37420000D01*
X161499534Y-37415435D01*
X161460863Y-37403704D01*
X161425221Y-37384652D01*
X161393983Y-37359017D01*
X161368348Y-37327779D01*
X161349296Y-37292137D01*
X161337565Y-37253466D01*
X161333000Y-37207112D01*
X161333000Y-36555888D01*
X161337565Y-36509534D01*
X161349296Y-36470863D01*
X161368348Y-36435221D01*
X161393983Y-36403983D01*
X161425221Y-36378348D01*
X161460863Y-36359296D01*
X161499534Y-36347565D01*
X161545888Y-36343000D01*
X162622112Y-36343000D01*
X162668466Y-36347565D01*
X162668466Y-36347565D01*
G37*
G36*
X148201500Y-37351000D02*
X146624500Y-37351000D01*
X146624500Y-36199000D01*
X148201500Y-36199000D01*
X148201500Y-37351000D01*
X148201500Y-37351000D01*
G37*
G36*
X144975500Y-37351000D02*
X143398500Y-37351000D01*
X143398500Y-36199000D01*
X144975500Y-36199000D01*
X144975500Y-37351000D01*
X144975500Y-37351000D01*
G37*
G36*
X158224466Y-35958565D02*
X158263137Y-35970296D01*
X158298779Y-35989348D01*
X158330017Y-36014983D01*
X158355652Y-36046221D01*
X158374704Y-36081863D01*
X158386435Y-36120534D01*
X158391000Y-36166888D01*
X158391000Y-36818112D01*
X158386435Y-36864466D01*
X158374704Y-36903137D01*
X158355652Y-36938779D01*
X158330017Y-36970017D01*
X158298779Y-36995652D01*
X158263137Y-37014704D01*
X158224466Y-37026435D01*
X158178112Y-37031000D01*
X157101888Y-37031000D01*
X157055534Y-37026435D01*
X157016863Y-37014704D01*
X156981221Y-36995652D01*
X156949983Y-36970017D01*
X156924348Y-36938779D01*
X156905296Y-36903137D01*
X156893565Y-36864466D01*
X156889000Y-36818112D01*
X156889000Y-36166888D01*
X156893565Y-36120534D01*
X156905296Y-36081863D01*
X156924348Y-36046221D01*
X156949983Y-36014983D01*
X156981221Y-35989348D01*
X157016863Y-35970296D01*
X157055534Y-35958565D01*
X157101888Y-35954000D01*
X158178112Y-35954000D01*
X158224466Y-35958565D01*
X158224466Y-35958565D01*
G37*
G36*
X166441466Y-35511565D02*
X166480137Y-35523296D01*
X166515779Y-35542348D01*
X166547017Y-35567983D01*
X166572652Y-35599221D01*
X166591704Y-35634863D01*
X166603435Y-35673534D01*
X166608000Y-35719888D01*
X166608000Y-36796112D01*
X166603435Y-36842466D01*
X166591704Y-36881137D01*
X166572652Y-36916779D01*
X166547017Y-36948017D01*
X166515779Y-36973652D01*
X166480137Y-36992704D01*
X166441466Y-37004435D01*
X166395112Y-37009000D01*
X165743888Y-37009000D01*
X165697534Y-37004435D01*
X165658863Y-36992704D01*
X165623221Y-36973652D01*
X165591983Y-36948017D01*
X165566348Y-36916779D01*
X165547296Y-36881137D01*
X165535565Y-36842466D01*
X165531000Y-36796112D01*
X165531000Y-35719888D01*
X165535565Y-35673534D01*
X165547296Y-35634863D01*
X165566348Y-35599221D01*
X165591983Y-35567983D01*
X165623221Y-35542348D01*
X165658863Y-35523296D01*
X165697534Y-35511565D01*
X165743888Y-35507000D01*
X166395112Y-35507000D01*
X166441466Y-35511565D01*
X166441466Y-35511565D01*
G37*
G36*
X164566466Y-35511565D02*
X164605137Y-35523296D01*
X164640779Y-35542348D01*
X164672017Y-35567983D01*
X164697652Y-35599221D01*
X164716704Y-35634863D01*
X164728435Y-35673534D01*
X164733000Y-35719888D01*
X164733000Y-36796112D01*
X164728435Y-36842466D01*
X164716704Y-36881137D01*
X164697652Y-36916779D01*
X164672017Y-36948017D01*
X164640779Y-36973652D01*
X164605137Y-36992704D01*
X164566466Y-37004435D01*
X164520112Y-37009000D01*
X163868888Y-37009000D01*
X163822534Y-37004435D01*
X163783863Y-36992704D01*
X163748221Y-36973652D01*
X163716983Y-36948017D01*
X163691348Y-36916779D01*
X163672296Y-36881137D01*
X163660565Y-36842466D01*
X163656000Y-36796112D01*
X163656000Y-35719888D01*
X163660565Y-35673534D01*
X163672296Y-35634863D01*
X163691348Y-35599221D01*
X163716983Y-35567983D01*
X163748221Y-35542348D01*
X163783863Y-35523296D01*
X163822534Y-35511565D01*
X163868888Y-35507000D01*
X164520112Y-35507000D01*
X164566466Y-35511565D01*
X164566466Y-35511565D01*
G37*
G36*
X153004466Y-34443565D02*
X153043137Y-34455296D01*
X153078779Y-34474348D01*
X153110017Y-34499983D01*
X153135652Y-34531221D01*
X153154704Y-34566863D01*
X153166435Y-34605534D01*
X153171000Y-34651888D01*
X153171000Y-35728112D01*
X153166435Y-35774466D01*
X153154704Y-35813137D01*
X153135652Y-35848779D01*
X153110017Y-35880017D01*
X153078779Y-35905652D01*
X153043137Y-35924704D01*
X153004466Y-35936435D01*
X152958112Y-35941000D01*
X152306888Y-35941000D01*
X152260534Y-35936435D01*
X152221863Y-35924704D01*
X152186221Y-35905652D01*
X152154983Y-35880017D01*
X152129348Y-35848779D01*
X152110296Y-35813137D01*
X152098565Y-35774466D01*
X152094000Y-35728112D01*
X152094000Y-34651888D01*
X152098565Y-34605534D01*
X152110296Y-34566863D01*
X152129348Y-34531221D01*
X152154983Y-34499983D01*
X152186221Y-34474348D01*
X152221863Y-34455296D01*
X152260534Y-34443565D01*
X152306888Y-34439000D01*
X152958112Y-34439000D01*
X153004466Y-34443565D01*
X153004466Y-34443565D01*
G37*
G36*
X154879466Y-34443565D02*
X154918137Y-34455296D01*
X154953779Y-34474348D01*
X154985017Y-34499983D01*
X155010652Y-34531221D01*
X155029704Y-34566863D01*
X155041435Y-34605534D01*
X155046000Y-34651888D01*
X155046000Y-35728112D01*
X155041435Y-35774466D01*
X155029704Y-35813137D01*
X155010652Y-35848779D01*
X154985017Y-35880017D01*
X154953779Y-35905652D01*
X154918137Y-35924704D01*
X154879466Y-35936435D01*
X154833112Y-35941000D01*
X154181888Y-35941000D01*
X154135534Y-35936435D01*
X154096863Y-35924704D01*
X154061221Y-35905652D01*
X154029983Y-35880017D01*
X154004348Y-35848779D01*
X153985296Y-35813137D01*
X153973565Y-35774466D01*
X153969000Y-35728112D01*
X153969000Y-34651888D01*
X153973565Y-34605534D01*
X153985296Y-34566863D01*
X154004348Y-34531221D01*
X154029983Y-34499983D01*
X154061221Y-34474348D01*
X154096863Y-34455296D01*
X154135534Y-34443565D01*
X154181888Y-34439000D01*
X154833112Y-34439000D01*
X154879466Y-34443565D01*
X154879466Y-34443565D01*
G37*
G36*
X160636466Y-34472565D02*
X160675137Y-34484296D01*
X160710779Y-34503348D01*
X160742017Y-34528983D01*
X160767652Y-34560221D01*
X160786704Y-34595863D01*
X160798435Y-34634534D01*
X160803000Y-34680888D01*
X160803000Y-35332112D01*
X160798435Y-35378466D01*
X160786704Y-35417137D01*
X160767652Y-35452779D01*
X160742017Y-35484017D01*
X160710779Y-35509652D01*
X160675137Y-35528704D01*
X160636466Y-35540435D01*
X160590112Y-35545000D01*
X159513888Y-35545000D01*
X159467534Y-35540435D01*
X159428863Y-35528704D01*
X159393221Y-35509652D01*
X159361983Y-35484017D01*
X159336348Y-35452779D01*
X159317296Y-35417137D01*
X159305565Y-35378466D01*
X159301000Y-35332112D01*
X159301000Y-34680888D01*
X159305565Y-34634534D01*
X159317296Y-34595863D01*
X159336348Y-34560221D01*
X159361983Y-34528983D01*
X159393221Y-34503348D01*
X159428863Y-34484296D01*
X159467534Y-34472565D01*
X159513888Y-34468000D01*
X160590112Y-34468000D01*
X160636466Y-34472565D01*
X160636466Y-34472565D01*
G37*
G36*
X162668466Y-34472565D02*
X162707137Y-34484296D01*
X162742779Y-34503348D01*
X162774017Y-34528983D01*
X162799652Y-34560221D01*
X162818704Y-34595863D01*
X162830435Y-34634534D01*
X162835000Y-34680888D01*
X162835000Y-35332112D01*
X162830435Y-35378466D01*
X162818704Y-35417137D01*
X162799652Y-35452779D01*
X162774017Y-35484017D01*
X162742779Y-35509652D01*
X162707137Y-35528704D01*
X162668466Y-35540435D01*
X162622112Y-35545000D01*
X161545888Y-35545000D01*
X161499534Y-35540435D01*
X161460863Y-35528704D01*
X161425221Y-35509652D01*
X161393983Y-35484017D01*
X161368348Y-35452779D01*
X161349296Y-35417137D01*
X161337565Y-35378466D01*
X161333000Y-35332112D01*
X161333000Y-34680888D01*
X161337565Y-34634534D01*
X161349296Y-34595863D01*
X161368348Y-34560221D01*
X161393983Y-34528983D01*
X161425221Y-34503348D01*
X161460863Y-34484296D01*
X161499534Y-34472565D01*
X161545888Y-34468000D01*
X162622112Y-34468000D01*
X162668466Y-34472565D01*
X162668466Y-34472565D01*
G37*
G36*
X158469466Y-34023565D02*
X158508137Y-34035296D01*
X158543779Y-34054348D01*
X158575017Y-34079983D01*
X158600652Y-34111221D01*
X158619704Y-34146863D01*
X158631435Y-34185534D01*
X158636000Y-34231888D01*
X158636000Y-35308112D01*
X158631435Y-35354466D01*
X158619704Y-35393137D01*
X158600652Y-35428779D01*
X158575017Y-35460017D01*
X158543779Y-35485652D01*
X158508137Y-35504704D01*
X158469466Y-35516435D01*
X158423112Y-35521000D01*
X157771888Y-35521000D01*
X157725534Y-35516435D01*
X157686863Y-35504704D01*
X157651221Y-35485652D01*
X157619983Y-35460017D01*
X157594348Y-35428779D01*
X157575296Y-35393137D01*
X157563565Y-35354466D01*
X157559000Y-35308112D01*
X157559000Y-34231888D01*
X157563565Y-34185534D01*
X157575296Y-34146863D01*
X157594348Y-34111221D01*
X157619983Y-34079983D01*
X157651221Y-34054348D01*
X157686863Y-34035296D01*
X157725534Y-34023565D01*
X157771888Y-34019000D01*
X158423112Y-34019000D01*
X158469466Y-34023565D01*
X158469466Y-34023565D01*
G37*
G36*
X156594466Y-34023565D02*
X156633137Y-34035296D01*
X156668779Y-34054348D01*
X156700017Y-34079983D01*
X156725652Y-34111221D01*
X156744704Y-34146863D01*
X156756435Y-34185534D01*
X156761000Y-34231888D01*
X156761000Y-35308112D01*
X156756435Y-35354466D01*
X156744704Y-35393137D01*
X156725652Y-35428779D01*
X156700017Y-35460017D01*
X156668779Y-35485652D01*
X156633137Y-35504704D01*
X156594466Y-35516435D01*
X156548112Y-35521000D01*
X155896888Y-35521000D01*
X155850534Y-35516435D01*
X155811863Y-35504704D01*
X155776221Y-35485652D01*
X155744983Y-35460017D01*
X155719348Y-35428779D01*
X155700296Y-35393137D01*
X155688565Y-35354466D01*
X155684000Y-35308112D01*
X155684000Y-34231888D01*
X155688565Y-34185534D01*
X155700296Y-34146863D01*
X155719348Y-34111221D01*
X155744983Y-34079983D01*
X155776221Y-34054348D01*
X155811863Y-34035296D01*
X155850534Y-34023565D01*
X155896888Y-34019000D01*
X156548112Y-34019000D01*
X156594466Y-34023565D01*
X156594466Y-34023565D01*
G37*
M02*
