G04 #@! TF.GenerationSoftware,KiCad,Pcbnew,5.0.2-bee76a0~70~ubuntu18.04.1*
G04 #@! TF.CreationDate,2020-01-17T08:49:31+02:00*
G04 #@! TF.ProjectId,nanoSense-Motion,4b656d65-742d-4424-9c45-2e6b69636164,rev?*
G04 #@! TF.SameCoordinates,Original*
G04 #@! TF.FileFunction,Legend,Bot*
G04 #@! TF.FilePolarity,Positive*
%FSLAX46Y46*%
G04 Gerber Fmt 4.6, Leading zero omitted, Abs format (unit mm)*
G04 Created by KiCad (PCBNEW 5.0.2-bee76a0~70~ubuntu18.04.1) date Fri 17 Jan 2020 08:49:31 AM EET*
%MOMM*%
%LPD*%
G01*
G04 APERTURE LIST*
%ADD10C,0.150000*%
%ADD11C,0.120000*%
G04 APERTURE END LIST*
D10*
X166642857Y-34486904D02*
X166642857Y-33686904D01*
X166642857Y-34448809D02*
X166738095Y-34486904D01*
X166928571Y-34486904D01*
X167023809Y-34448809D01*
X167071428Y-34410714D01*
X167119047Y-34334523D01*
X167119047Y-34105952D01*
X167071428Y-34029761D01*
X167023809Y-33991666D01*
X166928571Y-33953571D01*
X166738095Y-33953571D01*
X166642857Y-33991666D01*
X165785714Y-34448809D02*
X165880952Y-34486904D01*
X166071428Y-34486904D01*
X166166666Y-34448809D01*
X166214285Y-34372619D01*
X166214285Y-34067857D01*
X166166666Y-33991666D01*
X166071428Y-33953571D01*
X165880952Y-33953571D01*
X165785714Y-33991666D01*
X165738095Y-34067857D01*
X165738095Y-34144047D01*
X166214285Y-34220238D01*
X165357142Y-34448809D02*
X165261904Y-34486904D01*
X165071428Y-34486904D01*
X164976190Y-34448809D01*
X164928571Y-34372619D01*
X164928571Y-34334523D01*
X164976190Y-34258333D01*
X165071428Y-34220238D01*
X165214285Y-34220238D01*
X165309523Y-34182142D01*
X165357142Y-34105952D01*
X165357142Y-34067857D01*
X165309523Y-33991666D01*
X165214285Y-33953571D01*
X165071428Y-33953571D01*
X164976190Y-33991666D01*
X164500000Y-34486904D02*
X164500000Y-33953571D01*
X164500000Y-33686904D02*
X164547619Y-33725000D01*
X164500000Y-33763095D01*
X164452380Y-33725000D01*
X164500000Y-33686904D01*
X164500000Y-33763095D01*
X163595238Y-33953571D02*
X163595238Y-34601190D01*
X163642857Y-34677380D01*
X163690476Y-34715476D01*
X163785714Y-34753571D01*
X163928571Y-34753571D01*
X164023809Y-34715476D01*
X163595238Y-34448809D02*
X163690476Y-34486904D01*
X163880952Y-34486904D01*
X163976190Y-34448809D01*
X164023809Y-34410714D01*
X164071428Y-34334523D01*
X164071428Y-34105952D01*
X164023809Y-34029761D01*
X163976190Y-33991666D01*
X163880952Y-33953571D01*
X163690476Y-33953571D01*
X163595238Y-33991666D01*
X163119047Y-33953571D02*
X163119047Y-34486904D01*
X163119047Y-34029761D02*
X163071428Y-33991666D01*
X162976190Y-33953571D01*
X162833333Y-33953571D01*
X162738095Y-33991666D01*
X162690476Y-34067857D01*
X162690476Y-34486904D01*
X161833333Y-34448809D02*
X161928571Y-34486904D01*
X162119047Y-34486904D01*
X162214285Y-34448809D01*
X162261904Y-34372619D01*
X162261904Y-34067857D01*
X162214285Y-33991666D01*
X162119047Y-33953571D01*
X161928571Y-33953571D01*
X161833333Y-33991666D01*
X161785714Y-34067857D01*
X161785714Y-34144047D01*
X162261904Y-34220238D01*
X160928571Y-34486904D02*
X160928571Y-33686904D01*
X160928571Y-34448809D02*
X161023809Y-34486904D01*
X161214285Y-34486904D01*
X161309523Y-34448809D01*
X161357142Y-34410714D01*
X161404761Y-34334523D01*
X161404761Y-34105952D01*
X161357142Y-34029761D01*
X161309523Y-33991666D01*
X161214285Y-33953571D01*
X161023809Y-33953571D01*
X160928571Y-33991666D01*
X159690476Y-34486904D02*
X159690476Y-33686904D01*
X159690476Y-33991666D02*
X159595238Y-33953571D01*
X159404761Y-33953571D01*
X159309523Y-33991666D01*
X159261904Y-34029761D01*
X159214285Y-34105952D01*
X159214285Y-34334523D01*
X159261904Y-34410714D01*
X159309523Y-34448809D01*
X159404761Y-34486904D01*
X159595238Y-34486904D01*
X159690476Y-34448809D01*
X158880952Y-33953571D02*
X158642857Y-34486904D01*
X158404761Y-33953571D02*
X158642857Y-34486904D01*
X158738095Y-34677380D01*
X158785714Y-34715476D01*
X158880952Y-34753571D01*
X157309523Y-34258333D02*
X156833333Y-34258333D01*
X157404761Y-34486904D02*
X157071428Y-33686904D01*
X156738095Y-34486904D01*
X156547619Y-33953571D02*
X156166666Y-33953571D01*
X156404761Y-33686904D02*
X156404761Y-34372619D01*
X156357142Y-34448809D01*
X156261904Y-34486904D01*
X156166666Y-34486904D01*
X155976190Y-33953571D02*
X155595238Y-33953571D01*
X155833333Y-33686904D02*
X155833333Y-34372619D01*
X155785714Y-34448809D01*
X155690476Y-34486904D01*
X155595238Y-34486904D01*
X155261904Y-34486904D02*
X155261904Y-33953571D01*
X155261904Y-33686904D02*
X155309523Y-33725000D01*
X155261904Y-33763095D01*
X155214285Y-33725000D01*
X155261904Y-33686904D01*
X155261904Y-33763095D01*
X154642857Y-34486904D02*
X154738095Y-34448809D01*
X154785714Y-34372619D01*
X154785714Y-33686904D01*
X153833333Y-34486904D02*
X153833333Y-34067857D01*
X153880952Y-33991666D01*
X153976190Y-33953571D01*
X154166666Y-33953571D01*
X154261904Y-33991666D01*
X153833333Y-34448809D02*
X153928571Y-34486904D01*
X154166666Y-34486904D01*
X154261904Y-34448809D01*
X154309523Y-34372619D01*
X154309523Y-34296428D01*
X154261904Y-34220238D01*
X154166666Y-34182142D01*
X153928571Y-34182142D01*
X153833333Y-34144047D01*
X152738095Y-33686904D02*
X152166666Y-33686904D01*
X152452380Y-34486904D02*
X152452380Y-33686904D01*
X151690476Y-34486904D02*
X151785714Y-34448809D01*
X151833333Y-34410714D01*
X151880952Y-34334523D01*
X151880952Y-34105952D01*
X151833333Y-34029761D01*
X151785714Y-33991666D01*
X151690476Y-33953571D01*
X151547619Y-33953571D01*
X151452380Y-33991666D01*
X151404761Y-34029761D01*
X151357142Y-34105952D01*
X151357142Y-34334523D01*
X151404761Y-34410714D01*
X151452380Y-34448809D01*
X151547619Y-34486904D01*
X151690476Y-34486904D01*
X151642857Y-33648809D02*
X151785714Y-33763095D01*
X151309523Y-33648809D02*
X151452380Y-33763095D01*
X150928571Y-34486904D02*
X150928571Y-33686904D01*
X150833333Y-34182142D02*
X150547619Y-34486904D01*
X150547619Y-33953571D02*
X150928571Y-34258333D01*
X149738095Y-34448809D02*
X149833333Y-34486904D01*
X150023809Y-34486904D01*
X150119047Y-34448809D01*
X150166666Y-34372619D01*
X150166666Y-34067857D01*
X150119047Y-33991666D01*
X150023809Y-33953571D01*
X149833333Y-33953571D01*
X149738095Y-33991666D01*
X149690476Y-34067857D01*
X149690476Y-34144047D01*
X150166666Y-34220238D01*
X149833333Y-33648809D02*
X149976190Y-33763095D01*
X149309523Y-34448809D02*
X149214285Y-34486904D01*
X149023809Y-34486904D01*
X148928571Y-34448809D01*
X148880952Y-34372619D01*
X148880952Y-34334523D01*
X148928571Y-34258333D01*
X149023809Y-34220238D01*
X149166666Y-34220238D01*
X149261904Y-34182142D01*
X149309523Y-34105952D01*
X149309523Y-34067857D01*
X149261904Y-33991666D01*
X149166666Y-33953571D01*
X149023809Y-33953571D01*
X148928571Y-33991666D01*
D11*
G04 #@! TO.C,BT1*
X168400000Y-39725000D02*
X171600000Y-39725000D01*
X171600000Y-39725000D02*
X171600000Y-41275000D01*
X168400000Y-35225000D02*
X168400000Y-39725000D01*
X168400000Y-35225000D02*
X147500000Y-35225000D01*
X145700000Y-37025000D02*
X145700000Y-39725000D01*
X147500000Y-35225000D02*
X145700000Y-37025000D01*
X145700000Y-39725000D02*
X142500000Y-39725000D01*
X142500000Y-39725000D02*
X142500000Y-41275000D01*
X145700000Y-47425000D02*
X142500000Y-47425000D01*
X142500000Y-47425000D02*
X142500000Y-45875000D01*
X168400000Y-47425000D02*
X171600000Y-47425000D01*
X171600000Y-47425000D02*
X171600000Y-45875000D01*
X145700000Y-51925000D02*
X168400000Y-51925000D01*
X145700000Y-51925000D02*
X145700000Y-47425000D01*
X168400000Y-51925000D02*
X168400000Y-47425000D01*
X144050000Y-38575000D02*
X144050000Y-36575000D01*
X145050000Y-37575000D02*
X143050000Y-37575000D01*
G04 #@! TO.C,C1*
X170930000Y-37508578D02*
X170930000Y-36991422D01*
X169510000Y-37508578D02*
X169510000Y-36991422D01*
G04 #@! TO.C,C3*
X143191422Y-50090000D02*
X143708578Y-50090000D01*
X143191422Y-51510000D02*
X143708578Y-51510000D01*
G04 #@! TO.C,C10*
X143200049Y-48039007D02*
X143717205Y-48039007D01*
X143200049Y-49459007D02*
X143717205Y-49459007D01*
G04 #@! TO.C,R2*
X143341236Y-39033874D02*
X143858392Y-39033874D01*
X143341236Y-37613874D02*
X143858392Y-37613874D01*
G04 #@! TO.C,R3*
X143858578Y-37050000D02*
X143341422Y-37050000D01*
X143858578Y-35630000D02*
X143341422Y-35630000D01*
G04 #@! TD*
M02*
