M48
INCH,TZ
T1C0.0118
T2C0.0157
T3C0.0256
%
G90
G05
T1
X55650Y-20382
X55654Y-19232
X55669Y-15433
X55669Y-15984
X55717Y-18256
X56004Y-21063
X56594Y-15945
X56744Y-18520
X56780Y-17795
X56925Y-21193
X56949Y-17126
X56988Y-16437
X57020Y-13772
X57217Y-19992
X57232Y-19209
X57638Y-16457
X57744Y-17079
X57795Y-19291
X57894Y-20240
X57953Y-21193
X58037Y-15364
X58079Y-13744
X58307Y-17063
X58346Y-19764
X58437Y-16531
X58437Y-18079
X59035Y-16898
X59063Y-21193
X59154Y-13878
X59154Y-14764
X59154Y-15650
X59256Y-19236
X59256Y-19791
X59638Y-16780
X59720Y-18098
X59807Y-16220
X59839Y-13299
X60138Y-21161
X60531Y-17815
X60630Y-13240
X60807Y-14862
X61122Y-16673
X61209Y-19327
X61215Y-16384
X61217Y-16965
X61248Y-15294
X61281Y-17628
X61283Y-17327
X61335Y-18201
X61472Y-13169
X61654Y-20252
X61894Y-18693
X62205Y-13189
X62303Y-16732
X62378Y-20209
X62424Y-19183
X62535Y-14827
X62843Y-15280
X62878Y-13197
X63163Y-18826
X63567Y-13244
X63583Y-20571
X63583Y-21173
X63591Y-18622
X63661Y-19032
X63976Y-20276
X64102Y-18362
X64189Y-19843
X64189Y-21161
X64272Y-13287
X64480Y-16193
X64567Y-13681
X64594Y-15819
X64764Y-17421
X64764Y-21161
X64961Y-13287
X64961Y-19882
X65059Y-17028
X65157Y-13681
X65354Y-17421
X65354Y-21161
X65453Y-16634
X65492Y-16142
X65551Y-19882
X65650Y-13287
X65748Y-13780
X65846Y-15846
X65945Y-14272
X65945Y-17421
X65945Y-18504
X65945Y-21161
X66043Y-14764
X66043Y-15354
X66142Y-18898
X66142Y-19488
X66142Y-20079
X66142Y-20669
X66339Y-13287
X66535Y-17421
X66535Y-18504
X66535Y-21161
X66831Y-20768
X67028Y-13287
X67126Y-17421
X67126Y-18504
X67126Y-21161
X67421Y-20768
X67579Y-13413
X67618Y-17717
X67717Y-21063
X67913Y-13780
X67913Y-14370
X67913Y-14961
X67913Y-15551
X67913Y-16142
X67913Y-16732
X67913Y-17421
X68008Y-18012
T2
X55700Y-14900
T3
X61008Y-20673
X61008Y-21173
X61508Y-20673
X61508Y-21173
X62008Y-20673
X62008Y-21173
X62508Y-20673
X62508Y-21173
X63008Y-20673
X63008Y-21173
T0
M30
