G04 #@! TF.GenerationSoftware,KiCad,Pcbnew,5.0.2-bee76a0~70~ubuntu18.04.1*
G04 #@! TF.CreationDate,2020-01-17T08:49:31+02:00*
G04 #@! TF.ProjectId,nanoSense-Motion,4b656d65-742d-4424-9c45-2e6b69636164,rev?*
G04 #@! TF.SameCoordinates,Original*
G04 #@! TF.FileFunction,Legend,Top*
G04 #@! TF.FilePolarity,Positive*
%FSLAX46Y46*%
G04 Gerber Fmt 4.6, Leading zero omitted, Abs format (unit mm)*
G04 Created by KiCad (PCBNEW 5.0.2-bee76a0~70~ubuntu18.04.1) date Fri 17 Jan 2020 08:49:31 AM EET*
%MOMM*%
%LPD*%
G01*
G04 APERTURE LIST*
%ADD10C,0.100000*%
%ADD11C,0.150000*%
%ADD12C,0.300000*%
%ADD13C,0.350000*%
%ADD14C,0.010000*%
%ADD15C,0.200000*%
%ADD16C,0.127000*%
%ADD17C,0.120000*%
G04 APERTURE END LIST*
D10*
X149035714Y-40057857D02*
X149035714Y-39486428D01*
X149035714Y-39129285D02*
X149035714Y-38557857D01*
X149035714Y-38200714D02*
X149035714Y-37629285D01*
X149035714Y-37272142D02*
X149035714Y-36700714D01*
X149035714Y-36343571D02*
X149035714Y-35772142D01*
X149035714Y-35415000D02*
X149035714Y-34843571D01*
X142635714Y-40957857D02*
X142635714Y-40386428D01*
X142635714Y-40029285D02*
X142635714Y-39457857D01*
X142635714Y-39100714D02*
X142635714Y-38529285D01*
X142635714Y-38172142D02*
X142635714Y-37600714D01*
X142635714Y-37243571D02*
X142635714Y-36672142D01*
X142635714Y-36315000D02*
X142635714Y-35743571D01*
X142942142Y-41235714D02*
X143513571Y-41235714D01*
X143870714Y-41235714D02*
X144442142Y-41235714D01*
X144799285Y-41235714D02*
X145370714Y-41235714D01*
X145727857Y-41235714D02*
X146299285Y-41235714D01*
X146656428Y-41235714D02*
X147227857Y-41235714D01*
X147585000Y-41235714D02*
X148156428Y-41235714D01*
X143542142Y-34535714D02*
X144113571Y-34535714D01*
X144470714Y-34535714D02*
X145042142Y-34535714D01*
X145399285Y-34535714D02*
X145970714Y-34535714D01*
X146327857Y-34535714D02*
X146899285Y-34535714D01*
X147256428Y-34535714D02*
X147827857Y-34535714D01*
X148185000Y-34535714D02*
X148756428Y-34535714D01*
D11*
X142243284Y-43594949D02*
X142092349Y-43918631D01*
X141412618Y-43601667D01*
X142437318Y-43094334D02*
X142439500Y-43174164D01*
X142379126Y-43303636D01*
X142316570Y-43353279D01*
X142236741Y-43355460D01*
X141977796Y-43234712D01*
X141928153Y-43172157D01*
X141925972Y-43092327D01*
X141986346Y-42962855D01*
X142048901Y-42913212D01*
X142128731Y-42911031D01*
X142193467Y-42941218D01*
X142107268Y-43295086D01*
X142167468Y-42574437D02*
X142620622Y-42785746D01*
X142232204Y-42604624D02*
X142214929Y-42557162D01*
X142212748Y-42477333D01*
X142258029Y-42380228D01*
X142320584Y-42330585D01*
X142400414Y-42328404D01*
X142756463Y-42494433D01*
X142859937Y-42188026D02*
X142922492Y-42138383D01*
X142982866Y-42008911D01*
X142980685Y-41929081D01*
X142931042Y-41866526D01*
X142898674Y-41851432D01*
X142818844Y-41853613D01*
X142756289Y-41903256D01*
X142711008Y-42000361D01*
X142648453Y-42050003D01*
X142568624Y-42052185D01*
X142536255Y-42037091D01*
X142486613Y-41974536D01*
X142484432Y-41894706D01*
X142529712Y-41797602D01*
X142592267Y-41747959D01*
X142883291Y-44563298D02*
X143124787Y-44045407D01*
X143275722Y-43721726D02*
X143517219Y-43203836D01*
X143473945Y-42789594D02*
X143909650Y-42362264D01*
X143862363Y-42970716D01*
X171542380Y-41743214D02*
X170875714Y-41743214D01*
X170970952Y-41743214D02*
X170923333Y-41671785D01*
X170875714Y-41528928D01*
X170875714Y-41314642D01*
X170923333Y-41171785D01*
X171018571Y-41100357D01*
X171542380Y-41100357D01*
X171018571Y-41100357D02*
X170923333Y-41028928D01*
X170875714Y-40886071D01*
X170875714Y-40671785D01*
X170923333Y-40528928D01*
X171018571Y-40457500D01*
X171542380Y-40457500D01*
X171542380Y-39528928D02*
X171494761Y-39671785D01*
X171447142Y-39743214D01*
X171351904Y-39814642D01*
X171066190Y-39814642D01*
X170970952Y-39743214D01*
X170923333Y-39671785D01*
X170875714Y-39528928D01*
X170875714Y-39314642D01*
X170923333Y-39171785D01*
X170970952Y-39100357D01*
X171066190Y-39028928D01*
X171351904Y-39028928D01*
X171447142Y-39100357D01*
X171494761Y-39171785D01*
X171542380Y-39314642D01*
X171542380Y-39528928D01*
X170875714Y-38600357D02*
X170875714Y-38028928D01*
X170542380Y-38386071D02*
X171399523Y-38386071D01*
X171494761Y-38314642D01*
X171542380Y-38171785D01*
X171542380Y-38028928D01*
X171542380Y-37528928D02*
X170875714Y-37528928D01*
X170542380Y-37528928D02*
X170590000Y-37600357D01*
X170637619Y-37528928D01*
X170590000Y-37457500D01*
X170542380Y-37528928D01*
X170637619Y-37528928D01*
X171542380Y-36600357D02*
X171494761Y-36743214D01*
X171447142Y-36814642D01*
X171351904Y-36886071D01*
X171066190Y-36886071D01*
X170970952Y-36814642D01*
X170923333Y-36743214D01*
X170875714Y-36600357D01*
X170875714Y-36386071D01*
X170923333Y-36243214D01*
X170970952Y-36171785D01*
X171066190Y-36100357D01*
X171351904Y-36100357D01*
X171447142Y-36171785D01*
X171494761Y-36243214D01*
X171542380Y-36386071D01*
X171542380Y-36600357D01*
X170875714Y-35457500D02*
X171542380Y-35457500D01*
X170970952Y-35457500D02*
X170923333Y-35386071D01*
X170875714Y-35243214D01*
X170875714Y-35028928D01*
X170923333Y-34886071D01*
X171018571Y-34814642D01*
X171542380Y-34814642D01*
D12*
X166348333Y-42415000D02*
X166348333Y-43581666D01*
X166348333Y-42581666D02*
X166431666Y-42498333D01*
X166598333Y-42415000D01*
X166848333Y-42415000D01*
X167015000Y-42498333D01*
X167098333Y-42665000D01*
X167098333Y-43581666D01*
X168681666Y-43581666D02*
X168681666Y-42665000D01*
X168598333Y-42498333D01*
X168431666Y-42415000D01*
X168098333Y-42415000D01*
X167931666Y-42498333D01*
X168681666Y-43498333D02*
X168515000Y-43581666D01*
X168098333Y-43581666D01*
X167931666Y-43498333D01*
X167848333Y-43331666D01*
X167848333Y-43165000D01*
X167931666Y-42998333D01*
X168098333Y-42915000D01*
X168515000Y-42915000D01*
X168681666Y-42831666D01*
X169515000Y-42415000D02*
X169515000Y-43581666D01*
X169515000Y-42581666D02*
X169598333Y-42498333D01*
X169765000Y-42415000D01*
X170015000Y-42415000D01*
X170181666Y-42498333D01*
X170265000Y-42665000D01*
X170265000Y-43581666D01*
X171348333Y-43581666D02*
X171181666Y-43498333D01*
X171098333Y-43415000D01*
X171015000Y-43248333D01*
X171015000Y-42748333D01*
X171098333Y-42581666D01*
X171181666Y-42498333D01*
X171348333Y-42415000D01*
X171598333Y-42415000D01*
X171765000Y-42498333D01*
X171848333Y-42581666D01*
X171931666Y-42748333D01*
X171931666Y-43248333D01*
X171848333Y-43415000D01*
X171765000Y-43498333D01*
X171598333Y-43581666D01*
X171348333Y-43581666D01*
D13*
X169838333Y-41649166D02*
X169921666Y-41399166D01*
X169921666Y-40982500D01*
X169838333Y-40815833D01*
X169755000Y-40732500D01*
X169588333Y-40649166D01*
X169421666Y-40649166D01*
X169255000Y-40732500D01*
X169171666Y-40815833D01*
X169088333Y-40982500D01*
X169005000Y-41315833D01*
X168921666Y-41482500D01*
X168838333Y-41565833D01*
X168671666Y-41649166D01*
X168505000Y-41649166D01*
X168338333Y-41565833D01*
X168255000Y-41482500D01*
X168171666Y-41315833D01*
X168171666Y-40899166D01*
X168255000Y-40649166D01*
X169838333Y-39232500D02*
X169921666Y-39399166D01*
X169921666Y-39732500D01*
X169838333Y-39899166D01*
X169671666Y-39982500D01*
X169005000Y-39982500D01*
X168838333Y-39899166D01*
X168755000Y-39732500D01*
X168755000Y-39399166D01*
X168838333Y-39232500D01*
X169005000Y-39149166D01*
X169171666Y-39149166D01*
X169338333Y-39982500D01*
X168755000Y-38399166D02*
X169921666Y-38399166D01*
X168921666Y-38399166D02*
X168838333Y-38315833D01*
X168755000Y-38149166D01*
X168755000Y-37899166D01*
X168838333Y-37732500D01*
X169005000Y-37649166D01*
X169921666Y-37649166D01*
X169838333Y-36899166D02*
X169921666Y-36732500D01*
X169921666Y-36399166D01*
X169838333Y-36232500D01*
X169671666Y-36149166D01*
X169588333Y-36149166D01*
X169421666Y-36232500D01*
X169338333Y-36399166D01*
X169338333Y-36649166D01*
X169255000Y-36815833D01*
X169088333Y-36899166D01*
X169005000Y-36899166D01*
X168838333Y-36815833D01*
X168755000Y-36649166D01*
X168755000Y-36399166D01*
X168838333Y-36232500D01*
X169838333Y-34732500D02*
X169921666Y-34899166D01*
X169921666Y-35232500D01*
X169838333Y-35399166D01*
X169671666Y-35482500D01*
X169005000Y-35482500D01*
X168838333Y-35399166D01*
X168755000Y-35232500D01*
X168755000Y-34899166D01*
X168838333Y-34732500D01*
X169005000Y-34649166D01*
X169171666Y-34649166D01*
X169338333Y-35482500D01*
D11*
X149902500Y-53453571D02*
X150473928Y-53453571D01*
X145772500Y-53453571D02*
X146343928Y-53453571D01*
X146058214Y-53739285D02*
X146058214Y-53167857D01*
X153493571Y-54096071D02*
X153529285Y-53988928D01*
X153529285Y-53810357D01*
X153493571Y-53738928D01*
X153457857Y-53703214D01*
X153386428Y-53667500D01*
X153315000Y-53667500D01*
X153243571Y-53703214D01*
X153207857Y-53738928D01*
X153172142Y-53810357D01*
X153136428Y-53953214D01*
X153100714Y-54024642D01*
X153065000Y-54060357D01*
X152993571Y-54096071D01*
X152922142Y-54096071D01*
X152850714Y-54060357D01*
X152815000Y-54024642D01*
X152779285Y-53953214D01*
X152779285Y-53774642D01*
X152815000Y-53667500D01*
X152779285Y-53417500D02*
X153529285Y-53238928D01*
X152993571Y-53096071D01*
X153529285Y-52953214D01*
X152779285Y-52774642D01*
X153529285Y-52488928D02*
X152779285Y-52488928D01*
X152779285Y-52310357D01*
X152815000Y-52203214D01*
X152886428Y-52131785D01*
X152957857Y-52096071D01*
X153100714Y-52060357D01*
X153207857Y-52060357D01*
X153350714Y-52096071D01*
X153422142Y-52131785D01*
X153493571Y-52203214D01*
X153529285Y-52310357D01*
X153529285Y-52488928D01*
X141524751Y-53098026D02*
X141633003Y-53065826D01*
X141779280Y-52963402D01*
X141817306Y-52893177D01*
X141826076Y-52843436D01*
X141814362Y-52764441D01*
X141773392Y-52705930D01*
X141703167Y-52667904D01*
X141653427Y-52659133D01*
X141574431Y-52670848D01*
X141436924Y-52723532D01*
X141357929Y-52735246D01*
X141308188Y-52726475D01*
X141237963Y-52688449D01*
X141196994Y-52629939D01*
X141185279Y-52550943D01*
X141194050Y-52501203D01*
X141232076Y-52430977D01*
X141378353Y-52328553D01*
X141486604Y-52296354D01*
X142373159Y-52503964D02*
X142335133Y-52574189D01*
X142218111Y-52656129D01*
X142139116Y-52667843D01*
X142068890Y-52629817D01*
X141905011Y-52395774D01*
X141893297Y-52316778D01*
X141931323Y-52246553D01*
X142048345Y-52164613D01*
X142127340Y-52152899D01*
X142197566Y-52190925D01*
X142238535Y-52249436D01*
X141986951Y-52512795D01*
X142399410Y-51918795D02*
X142686198Y-52328371D01*
X142440380Y-51977306D02*
X142449150Y-51927565D01*
X142487176Y-51857340D01*
X142574943Y-51795886D01*
X142653938Y-51784171D01*
X142724163Y-51822197D01*
X142949497Y-52144007D01*
X143192311Y-51930388D02*
X143271307Y-51918673D01*
X143388328Y-51836734D01*
X143426354Y-51766509D01*
X143414640Y-51687513D01*
X143394155Y-51658258D01*
X143323930Y-51620232D01*
X143244934Y-51631946D01*
X143157168Y-51693401D01*
X143078172Y-51705115D01*
X143007947Y-51667089D01*
X142987462Y-51637833D01*
X142975748Y-51558838D01*
X143013774Y-51488613D01*
X143101540Y-51427158D01*
X143180536Y-51415444D01*
X143739394Y-51590915D02*
X143452605Y-51181339D01*
X143309211Y-50976551D02*
X143300441Y-51026292D01*
X143350181Y-51035062D01*
X143358952Y-50985322D01*
X143309211Y-50976551D01*
X143350181Y-51035062D01*
X143657393Y-51037945D02*
X143891437Y-50874066D01*
X143601766Y-50771703D02*
X143970493Y-51298300D01*
X144040718Y-51336326D01*
X144119714Y-51324612D01*
X144178225Y-51283642D01*
X144383013Y-51140248D02*
X144096225Y-50730672D01*
X143952831Y-50525884D02*
X143944060Y-50575625D01*
X143993801Y-50584395D01*
X144002571Y-50534655D01*
X143952831Y-50525884D01*
X143993801Y-50584395D01*
X144330268Y-50566793D02*
X144763334Y-50873945D01*
X144622823Y-50361945D01*
X145143654Y-50607642D02*
X144856866Y-50198066D01*
X144713472Y-49993278D02*
X144704701Y-50043018D01*
X144754442Y-50051788D01*
X144763212Y-50002048D01*
X144713472Y-49993278D01*
X144754442Y-50051788D01*
X145061654Y-50054671D02*
X145295698Y-49890792D01*
X145006026Y-49788429D02*
X145374754Y-50315027D01*
X145444979Y-50353053D01*
X145523975Y-50341338D01*
X145582486Y-50300368D01*
X145441975Y-49788368D02*
X145875040Y-50095520D01*
X145734529Y-49583519D02*
X145875040Y-50095520D01*
X145918954Y-50282767D01*
X145910183Y-50332507D01*
X145872157Y-50402732D01*
X143604694Y-52892928D02*
X144072781Y-52565170D01*
X144365336Y-52360321D02*
X144833422Y-52032563D01*
X145003067Y-51652182D02*
X145594064Y-51499957D01*
X145248886Y-52003247D01*
D14*
G04 #@! TO.C,REF\002A\002A*
G36*
X170839460Y-52438030D02*
X170882711Y-52451245D01*
X170910558Y-52467941D01*
X170919629Y-52481145D01*
X170917132Y-52496797D01*
X170900931Y-52521385D01*
X170887232Y-52538800D01*
X170858992Y-52570283D01*
X170837775Y-52583529D01*
X170819688Y-52582664D01*
X170766035Y-52569010D01*
X170726630Y-52569630D01*
X170694632Y-52585104D01*
X170683890Y-52594161D01*
X170649505Y-52626027D01*
X170649505Y-53042179D01*
X170511188Y-53042179D01*
X170511188Y-52438614D01*
X170580347Y-52438614D01*
X170621869Y-52440256D01*
X170643291Y-52446087D01*
X170649502Y-52457461D01*
X170649505Y-52457798D01*
X170652439Y-52469713D01*
X170665704Y-52468159D01*
X170684084Y-52459563D01*
X170722046Y-52443568D01*
X170752872Y-52433945D01*
X170792536Y-52431478D01*
X170839460Y-52438030D01*
X170839460Y-52438030D01*
G37*
X170839460Y-52438030D02*
X170882711Y-52451245D01*
X170910558Y-52467941D01*
X170919629Y-52481145D01*
X170917132Y-52496797D01*
X170900931Y-52521385D01*
X170887232Y-52538800D01*
X170858992Y-52570283D01*
X170837775Y-52583529D01*
X170819688Y-52582664D01*
X170766035Y-52569010D01*
X170726630Y-52569630D01*
X170694632Y-52585104D01*
X170683890Y-52594161D01*
X170649505Y-52626027D01*
X170649505Y-53042179D01*
X170511188Y-53042179D01*
X170511188Y-52438614D01*
X170580347Y-52438614D01*
X170621869Y-52440256D01*
X170643291Y-52446087D01*
X170649502Y-52457461D01*
X170649505Y-52457798D01*
X170652439Y-52469713D01*
X170665704Y-52468159D01*
X170684084Y-52459563D01*
X170722046Y-52443568D01*
X170752872Y-52433945D01*
X170792536Y-52431478D01*
X170839460Y-52438030D01*
G36*
X168285988Y-52449002D02*
X168317283Y-52463950D01*
X168347591Y-52485541D01*
X168370682Y-52510391D01*
X168387500Y-52542087D01*
X168398994Y-52584214D01*
X168406109Y-52640358D01*
X168409793Y-52714106D01*
X168410992Y-52809044D01*
X168411011Y-52818985D01*
X168411287Y-53042179D01*
X168272970Y-53042179D01*
X168272970Y-52836418D01*
X168272872Y-52760189D01*
X168272191Y-52704939D01*
X168270349Y-52666501D01*
X168266767Y-52640706D01*
X168260868Y-52623384D01*
X168252073Y-52610368D01*
X168239820Y-52597507D01*
X168196953Y-52569873D01*
X168150157Y-52564745D01*
X168105576Y-52582217D01*
X168090072Y-52595221D01*
X168078690Y-52607447D01*
X168070519Y-52620540D01*
X168065026Y-52638615D01*
X168061680Y-52665787D01*
X168059949Y-52706170D01*
X168059303Y-52763879D01*
X168059208Y-52834132D01*
X168059208Y-53042179D01*
X167920891Y-53042179D01*
X167920891Y-52438614D01*
X167990050Y-52438614D01*
X168031572Y-52440256D01*
X168052994Y-52446087D01*
X168059205Y-52457461D01*
X168059208Y-52457798D01*
X168062090Y-52468938D01*
X168074801Y-52467674D01*
X168100074Y-52455434D01*
X168157395Y-52437424D01*
X168222963Y-52435421D01*
X168285988Y-52449002D01*
X168285988Y-52449002D01*
G37*
X168285988Y-52449002D02*
X168317283Y-52463950D01*
X168347591Y-52485541D01*
X168370682Y-52510391D01*
X168387500Y-52542087D01*
X168398994Y-52584214D01*
X168406109Y-52640358D01*
X168409793Y-52714106D01*
X168410992Y-52809044D01*
X168411011Y-52818985D01*
X168411287Y-53042179D01*
X168272970Y-53042179D01*
X168272970Y-52836418D01*
X168272872Y-52760189D01*
X168272191Y-52704939D01*
X168270349Y-52666501D01*
X168266767Y-52640706D01*
X168260868Y-52623384D01*
X168252073Y-52610368D01*
X168239820Y-52597507D01*
X168196953Y-52569873D01*
X168150157Y-52564745D01*
X168105576Y-52582217D01*
X168090072Y-52595221D01*
X168078690Y-52607447D01*
X168070519Y-52620540D01*
X168065026Y-52638615D01*
X168061680Y-52665787D01*
X168059949Y-52706170D01*
X168059303Y-52763879D01*
X168059208Y-52834132D01*
X168059208Y-53042179D01*
X167920891Y-53042179D01*
X167920891Y-52438614D01*
X167990050Y-52438614D01*
X168031572Y-52440256D01*
X168052994Y-52446087D01*
X168059205Y-52457461D01*
X168059208Y-52457798D01*
X168062090Y-52468938D01*
X168074801Y-52467674D01*
X168100074Y-52455434D01*
X168157395Y-52437424D01*
X168222963Y-52435421D01*
X168285988Y-52449002D01*
G36*
X171717898Y-52436457D02*
X171750096Y-52444279D01*
X171811825Y-52472921D01*
X171864610Y-52516667D01*
X171901141Y-52569117D01*
X171906160Y-52580893D01*
X171913045Y-52611740D01*
X171917864Y-52657371D01*
X171919505Y-52703492D01*
X171919505Y-52790693D01*
X171737178Y-52790693D01*
X171661979Y-52790978D01*
X171609003Y-52792704D01*
X171575325Y-52797181D01*
X171558020Y-52805720D01*
X171554163Y-52819630D01*
X171560829Y-52840222D01*
X171572770Y-52864315D01*
X171606080Y-52904525D01*
X171652368Y-52924558D01*
X171708944Y-52923905D01*
X171773031Y-52902101D01*
X171828417Y-52875193D01*
X171874375Y-52911532D01*
X171920333Y-52947872D01*
X171877096Y-52987819D01*
X171819374Y-53025563D01*
X171748386Y-53048320D01*
X171672029Y-53054688D01*
X171598199Y-53043268D01*
X171586287Y-53039393D01*
X171521399Y-53005506D01*
X171473130Y-52954986D01*
X171440465Y-52886325D01*
X171422385Y-52798014D01*
X171422175Y-52796121D01*
X171420556Y-52699878D01*
X171427100Y-52665542D01*
X171554852Y-52665542D01*
X171566584Y-52670822D01*
X171598438Y-52674867D01*
X171645397Y-52677176D01*
X171675154Y-52677525D01*
X171730648Y-52677306D01*
X171765346Y-52675916D01*
X171783601Y-52672251D01*
X171789766Y-52665210D01*
X171788195Y-52653690D01*
X171786878Y-52649233D01*
X171764382Y-52607355D01*
X171729003Y-52573604D01*
X171697780Y-52558773D01*
X171656301Y-52559668D01*
X171614269Y-52578164D01*
X171579012Y-52608786D01*
X171557854Y-52646062D01*
X171554852Y-52665542D01*
X171427100Y-52665542D01*
X171436690Y-52615229D01*
X171468698Y-52544191D01*
X171514701Y-52488779D01*
X171572821Y-52451009D01*
X171641180Y-52432896D01*
X171717898Y-52436457D01*
X171717898Y-52436457D01*
G37*
X171717898Y-52436457D02*
X171750096Y-52444279D01*
X171811825Y-52472921D01*
X171864610Y-52516667D01*
X171901141Y-52569117D01*
X171906160Y-52580893D01*
X171913045Y-52611740D01*
X171917864Y-52657371D01*
X171919505Y-52703492D01*
X171919505Y-52790693D01*
X171737178Y-52790693D01*
X171661979Y-52790978D01*
X171609003Y-52792704D01*
X171575325Y-52797181D01*
X171558020Y-52805720D01*
X171554163Y-52819630D01*
X171560829Y-52840222D01*
X171572770Y-52864315D01*
X171606080Y-52904525D01*
X171652368Y-52924558D01*
X171708944Y-52923905D01*
X171773031Y-52902101D01*
X171828417Y-52875193D01*
X171874375Y-52911532D01*
X171920333Y-52947872D01*
X171877096Y-52987819D01*
X171819374Y-53025563D01*
X171748386Y-53048320D01*
X171672029Y-53054688D01*
X171598199Y-53043268D01*
X171586287Y-53039393D01*
X171521399Y-53005506D01*
X171473130Y-52954986D01*
X171440465Y-52886325D01*
X171422385Y-52798014D01*
X171422175Y-52796121D01*
X171420556Y-52699878D01*
X171427100Y-52665542D01*
X171554852Y-52665542D01*
X171566584Y-52670822D01*
X171598438Y-52674867D01*
X171645397Y-52677176D01*
X171675154Y-52677525D01*
X171730648Y-52677306D01*
X171765346Y-52675916D01*
X171783601Y-52672251D01*
X171789766Y-52665210D01*
X171788195Y-52653690D01*
X171786878Y-52649233D01*
X171764382Y-52607355D01*
X171729003Y-52573604D01*
X171697780Y-52558773D01*
X171656301Y-52559668D01*
X171614269Y-52578164D01*
X171579012Y-52608786D01*
X171557854Y-52646062D01*
X171554852Y-52665542D01*
X171427100Y-52665542D01*
X171436690Y-52615229D01*
X171468698Y-52544191D01*
X171514701Y-52488779D01*
X171572821Y-52451009D01*
X171641180Y-52432896D01*
X171717898Y-52436457D01*
G36*
X171257226Y-52443880D02*
X171330080Y-52474830D01*
X171353027Y-52489895D01*
X171382354Y-52513048D01*
X171400764Y-52531253D01*
X171403961Y-52537183D01*
X171394935Y-52550340D01*
X171371837Y-52572667D01*
X171353344Y-52588250D01*
X171302728Y-52628926D01*
X171262760Y-52595295D01*
X171231874Y-52573584D01*
X171201759Y-52566090D01*
X171167292Y-52567920D01*
X171112561Y-52581528D01*
X171074886Y-52609772D01*
X171051991Y-52655433D01*
X171041597Y-52721289D01*
X171041595Y-52721331D01*
X171042494Y-52794939D01*
X171056463Y-52848946D01*
X171084328Y-52885716D01*
X171103325Y-52898168D01*
X171153776Y-52913673D01*
X171207663Y-52913683D01*
X171254546Y-52898638D01*
X171265644Y-52891287D01*
X171293476Y-52872511D01*
X171315236Y-52869434D01*
X171338704Y-52883409D01*
X171364649Y-52908510D01*
X171405716Y-52950880D01*
X171360121Y-52988464D01*
X171289674Y-53030882D01*
X171210233Y-53051785D01*
X171127215Y-53050272D01*
X171072694Y-53036411D01*
X171008970Y-53002135D01*
X170958005Y-52948212D01*
X170934851Y-52910149D01*
X170916099Y-52855536D01*
X170906715Y-52786369D01*
X170906643Y-52711407D01*
X170915824Y-52639409D01*
X170934199Y-52579137D01*
X170937093Y-52572958D01*
X170979952Y-52512351D01*
X171037979Y-52468224D01*
X171106591Y-52441493D01*
X171181201Y-52433073D01*
X171257226Y-52443880D01*
X171257226Y-52443880D01*
G37*
X171257226Y-52443880D02*
X171330080Y-52474830D01*
X171353027Y-52489895D01*
X171382354Y-52513048D01*
X171400764Y-52531253D01*
X171403961Y-52537183D01*
X171394935Y-52550340D01*
X171371837Y-52572667D01*
X171353344Y-52588250D01*
X171302728Y-52628926D01*
X171262760Y-52595295D01*
X171231874Y-52573584D01*
X171201759Y-52566090D01*
X171167292Y-52567920D01*
X171112561Y-52581528D01*
X171074886Y-52609772D01*
X171051991Y-52655433D01*
X171041597Y-52721289D01*
X171041595Y-52721331D01*
X171042494Y-52794939D01*
X171056463Y-52848946D01*
X171084328Y-52885716D01*
X171103325Y-52898168D01*
X171153776Y-52913673D01*
X171207663Y-52913683D01*
X171254546Y-52898638D01*
X171265644Y-52891287D01*
X171293476Y-52872511D01*
X171315236Y-52869434D01*
X171338704Y-52883409D01*
X171364649Y-52908510D01*
X171405716Y-52950880D01*
X171360121Y-52988464D01*
X171289674Y-53030882D01*
X171210233Y-53051785D01*
X171127215Y-53050272D01*
X171072694Y-53036411D01*
X171008970Y-53002135D01*
X170958005Y-52948212D01*
X170934851Y-52910149D01*
X170916099Y-52855536D01*
X170906715Y-52786369D01*
X170906643Y-52711407D01*
X170915824Y-52639409D01*
X170934199Y-52579137D01*
X170937093Y-52572958D01*
X170979952Y-52512351D01*
X171037979Y-52468224D01*
X171106591Y-52441493D01*
X171181201Y-52433073D01*
X171257226Y-52443880D01*
G36*
X170033367Y-52634342D02*
X170034555Y-52726563D01*
X170038897Y-52796610D01*
X170047558Y-52847381D01*
X170061704Y-52881772D01*
X170082500Y-52902679D01*
X170111110Y-52913000D01*
X170146535Y-52915636D01*
X170183636Y-52912682D01*
X170211818Y-52901889D01*
X170232243Y-52880360D01*
X170246079Y-52845199D01*
X170254491Y-52793510D01*
X170258643Y-52722394D01*
X170259703Y-52634342D01*
X170259703Y-52438614D01*
X170398020Y-52438614D01*
X170398020Y-53042179D01*
X170328862Y-53042179D01*
X170287170Y-53040489D01*
X170265701Y-53034556D01*
X170259703Y-53023293D01*
X170256091Y-53013261D01*
X170241714Y-53015383D01*
X170212736Y-53029580D01*
X170146319Y-53051480D01*
X170075875Y-53049928D01*
X170008377Y-53026147D01*
X169976233Y-53007362D01*
X169951715Y-52987022D01*
X169933804Y-52961573D01*
X169921479Y-52927458D01*
X169913723Y-52881121D01*
X169909516Y-52819007D01*
X169907840Y-52737561D01*
X169907624Y-52674578D01*
X169907624Y-52438614D01*
X170033367Y-52438614D01*
X170033367Y-52634342D01*
X170033367Y-52634342D01*
G37*
X170033367Y-52634342D02*
X170034555Y-52726563D01*
X170038897Y-52796610D01*
X170047558Y-52847381D01*
X170061704Y-52881772D01*
X170082500Y-52902679D01*
X170111110Y-52913000D01*
X170146535Y-52915636D01*
X170183636Y-52912682D01*
X170211818Y-52901889D01*
X170232243Y-52880360D01*
X170246079Y-52845199D01*
X170254491Y-52793510D01*
X170258643Y-52722394D01*
X170259703Y-52634342D01*
X170259703Y-52438614D01*
X170398020Y-52438614D01*
X170398020Y-53042179D01*
X170328862Y-53042179D01*
X170287170Y-53040489D01*
X170265701Y-53034556D01*
X170259703Y-53023293D01*
X170256091Y-53013261D01*
X170241714Y-53015383D01*
X170212736Y-53029580D01*
X170146319Y-53051480D01*
X170075875Y-53049928D01*
X170008377Y-53026147D01*
X169976233Y-53007362D01*
X169951715Y-52987022D01*
X169933804Y-52961573D01*
X169921479Y-52927458D01*
X169913723Y-52881121D01*
X169909516Y-52819007D01*
X169907840Y-52737561D01*
X169907624Y-52674578D01*
X169907624Y-52438614D01*
X170033367Y-52438614D01*
X170033367Y-52634342D01*
G36*
X169650762Y-52446055D02*
X169714363Y-52480692D01*
X169764123Y-52535372D01*
X169787568Y-52579842D01*
X169797634Y-52619121D01*
X169804156Y-52675116D01*
X169806951Y-52739621D01*
X169805836Y-52804429D01*
X169800626Y-52861334D01*
X169794541Y-52891727D01*
X169774014Y-52933306D01*
X169738463Y-52977468D01*
X169695619Y-53016087D01*
X169653211Y-53041034D01*
X169652177Y-53041430D01*
X169599553Y-53052331D01*
X169537188Y-53052601D01*
X169477924Y-53042676D01*
X169455040Y-53034722D01*
X169396102Y-53001300D01*
X169353890Y-52957511D01*
X169326156Y-52899538D01*
X169310651Y-52823565D01*
X169307143Y-52783771D01*
X169307590Y-52733766D01*
X169442376Y-52733766D01*
X169446917Y-52806732D01*
X169459986Y-52862334D01*
X169480756Y-52897861D01*
X169495552Y-52908020D01*
X169533464Y-52915104D01*
X169578527Y-52913007D01*
X169617487Y-52902812D01*
X169627704Y-52897204D01*
X169654659Y-52864538D01*
X169672451Y-52814545D01*
X169680024Y-52753705D01*
X169676325Y-52688497D01*
X169668057Y-52649253D01*
X169644320Y-52603805D01*
X169606849Y-52575396D01*
X169561720Y-52565573D01*
X169515011Y-52575887D01*
X169479132Y-52601112D01*
X169460277Y-52621925D01*
X169449272Y-52642439D01*
X169444026Y-52670203D01*
X169442449Y-52712762D01*
X169442376Y-52733766D01*
X169307590Y-52733766D01*
X169308094Y-52677580D01*
X169325388Y-52590501D01*
X169359029Y-52522530D01*
X169409018Y-52473664D01*
X169475356Y-52443899D01*
X169489601Y-52440448D01*
X169575210Y-52432345D01*
X169650762Y-52446055D01*
X169650762Y-52446055D01*
G37*
X169650762Y-52446055D02*
X169714363Y-52480692D01*
X169764123Y-52535372D01*
X169787568Y-52579842D01*
X169797634Y-52619121D01*
X169804156Y-52675116D01*
X169806951Y-52739621D01*
X169805836Y-52804429D01*
X169800626Y-52861334D01*
X169794541Y-52891727D01*
X169774014Y-52933306D01*
X169738463Y-52977468D01*
X169695619Y-53016087D01*
X169653211Y-53041034D01*
X169652177Y-53041430D01*
X169599553Y-53052331D01*
X169537188Y-53052601D01*
X169477924Y-53042676D01*
X169455040Y-53034722D01*
X169396102Y-53001300D01*
X169353890Y-52957511D01*
X169326156Y-52899538D01*
X169310651Y-52823565D01*
X169307143Y-52783771D01*
X169307590Y-52733766D01*
X169442376Y-52733766D01*
X169446917Y-52806732D01*
X169459986Y-52862334D01*
X169480756Y-52897861D01*
X169495552Y-52908020D01*
X169533464Y-52915104D01*
X169578527Y-52913007D01*
X169617487Y-52902812D01*
X169627704Y-52897204D01*
X169654659Y-52864538D01*
X169672451Y-52814545D01*
X169680024Y-52753705D01*
X169676325Y-52688497D01*
X169668057Y-52649253D01*
X169644320Y-52603805D01*
X169606849Y-52575396D01*
X169561720Y-52565573D01*
X169515011Y-52575887D01*
X169479132Y-52601112D01*
X169460277Y-52621925D01*
X169449272Y-52642439D01*
X169444026Y-52670203D01*
X169442449Y-52712762D01*
X169442376Y-52733766D01*
X169307590Y-52733766D01*
X169308094Y-52677580D01*
X169325388Y-52590501D01*
X169359029Y-52522530D01*
X169409018Y-52473664D01*
X169475356Y-52443899D01*
X169489601Y-52440448D01*
X169575210Y-52432345D01*
X169650762Y-52446055D01*
G36*
X169054017Y-52436452D02*
X169101634Y-52445482D01*
X169151034Y-52464370D01*
X169156312Y-52466777D01*
X169193774Y-52486476D01*
X169219717Y-52504781D01*
X169228103Y-52516508D01*
X169220117Y-52535632D01*
X169200720Y-52563850D01*
X169192110Y-52574384D01*
X169156628Y-52615847D01*
X169110885Y-52588858D01*
X169067350Y-52570878D01*
X169017050Y-52561267D01*
X168968812Y-52560660D01*
X168931467Y-52569691D01*
X168922505Y-52575327D01*
X168905437Y-52601171D01*
X168903363Y-52630941D01*
X168916134Y-52654197D01*
X168923688Y-52658708D01*
X168946325Y-52664309D01*
X168986115Y-52670892D01*
X169035166Y-52677183D01*
X169044215Y-52678170D01*
X169122996Y-52691798D01*
X169180136Y-52714946D01*
X169218030Y-52749752D01*
X169239079Y-52798354D01*
X169245635Y-52857718D01*
X169236577Y-52925198D01*
X169207164Y-52978188D01*
X169157278Y-53016783D01*
X169086800Y-53041081D01*
X169008565Y-53050667D01*
X168944766Y-53050552D01*
X168893016Y-53041845D01*
X168857673Y-53029825D01*
X168813017Y-53008880D01*
X168771747Y-52984574D01*
X168757079Y-52973876D01*
X168719357Y-52943084D01*
X168764852Y-52897049D01*
X168810347Y-52851013D01*
X168862072Y-52885243D01*
X168913952Y-52910952D01*
X168969351Y-52924399D01*
X169022605Y-52925818D01*
X169068049Y-52915443D01*
X169100016Y-52893507D01*
X169110338Y-52874998D01*
X169108789Y-52845314D01*
X169083140Y-52822615D01*
X169033460Y-52806940D01*
X168979031Y-52799695D01*
X168895264Y-52785873D01*
X168833033Y-52759796D01*
X168791507Y-52720699D01*
X168769853Y-52667820D01*
X168766853Y-52605126D01*
X168781671Y-52539642D01*
X168815454Y-52490144D01*
X168868505Y-52456408D01*
X168941126Y-52438207D01*
X168994928Y-52434639D01*
X169054017Y-52436452D01*
X169054017Y-52436452D01*
G37*
X169054017Y-52436452D02*
X169101634Y-52445482D01*
X169151034Y-52464370D01*
X169156312Y-52466777D01*
X169193774Y-52486476D01*
X169219717Y-52504781D01*
X169228103Y-52516508D01*
X169220117Y-52535632D01*
X169200720Y-52563850D01*
X169192110Y-52574384D01*
X169156628Y-52615847D01*
X169110885Y-52588858D01*
X169067350Y-52570878D01*
X169017050Y-52561267D01*
X168968812Y-52560660D01*
X168931467Y-52569691D01*
X168922505Y-52575327D01*
X168905437Y-52601171D01*
X168903363Y-52630941D01*
X168916134Y-52654197D01*
X168923688Y-52658708D01*
X168946325Y-52664309D01*
X168986115Y-52670892D01*
X169035166Y-52677183D01*
X169044215Y-52678170D01*
X169122996Y-52691798D01*
X169180136Y-52714946D01*
X169218030Y-52749752D01*
X169239079Y-52798354D01*
X169245635Y-52857718D01*
X169236577Y-52925198D01*
X169207164Y-52978188D01*
X169157278Y-53016783D01*
X169086800Y-53041081D01*
X169008565Y-53050667D01*
X168944766Y-53050552D01*
X168893016Y-53041845D01*
X168857673Y-53029825D01*
X168813017Y-53008880D01*
X168771747Y-52984574D01*
X168757079Y-52973876D01*
X168719357Y-52943084D01*
X168764852Y-52897049D01*
X168810347Y-52851013D01*
X168862072Y-52885243D01*
X168913952Y-52910952D01*
X168969351Y-52924399D01*
X169022605Y-52925818D01*
X169068049Y-52915443D01*
X169100016Y-52893507D01*
X169110338Y-52874998D01*
X169108789Y-52845314D01*
X169083140Y-52822615D01*
X169033460Y-52806940D01*
X168979031Y-52799695D01*
X168895264Y-52785873D01*
X168833033Y-52759796D01*
X168791507Y-52720699D01*
X168769853Y-52667820D01*
X168766853Y-52605126D01*
X168781671Y-52539642D01*
X168815454Y-52490144D01*
X168868505Y-52456408D01*
X168941126Y-52438207D01*
X168994928Y-52434639D01*
X169054017Y-52436452D01*
G36*
X167683301Y-52452614D02*
X167695832Y-52458514D01*
X167739201Y-52490283D01*
X167780210Y-52536646D01*
X167810832Y-52587696D01*
X167819541Y-52611166D01*
X167827488Y-52653091D01*
X167832226Y-52703757D01*
X167832801Y-52724679D01*
X167832871Y-52790693D01*
X167452917Y-52790693D01*
X167461017Y-52825273D01*
X167480896Y-52866170D01*
X167515653Y-52901514D01*
X167557002Y-52924282D01*
X167583351Y-52929010D01*
X167619084Y-52923273D01*
X167661718Y-52908882D01*
X167676201Y-52902262D01*
X167729760Y-52875513D01*
X167775467Y-52910376D01*
X167801842Y-52933955D01*
X167815876Y-52953417D01*
X167816586Y-52959129D01*
X167804049Y-52972973D01*
X167776572Y-52994012D01*
X167751634Y-53010425D01*
X167684336Y-53039930D01*
X167608890Y-53053284D01*
X167534112Y-53049812D01*
X167474505Y-53031663D01*
X167413059Y-52992784D01*
X167369392Y-52941595D01*
X167342074Y-52875367D01*
X167329678Y-52791371D01*
X167328579Y-52752936D01*
X167332978Y-52664861D01*
X167333518Y-52662299D01*
X167459418Y-52662299D01*
X167462885Y-52670558D01*
X167477137Y-52675113D01*
X167506530Y-52677065D01*
X167555425Y-52677517D01*
X167574252Y-52677525D01*
X167631533Y-52676843D01*
X167667859Y-52674364D01*
X167687396Y-52669443D01*
X167694310Y-52661434D01*
X167694555Y-52658862D01*
X167686664Y-52638423D01*
X167666915Y-52609789D01*
X167658425Y-52599763D01*
X167626906Y-52571408D01*
X167594051Y-52560259D01*
X167576349Y-52559327D01*
X167528461Y-52570981D01*
X167488301Y-52602285D01*
X167462827Y-52647752D01*
X167462375Y-52649233D01*
X167459418Y-52662299D01*
X167333518Y-52662299D01*
X167347608Y-52595510D01*
X167373962Y-52540025D01*
X167406193Y-52500639D01*
X167465783Y-52457931D01*
X167535832Y-52435109D01*
X167610339Y-52433046D01*
X167683301Y-52452614D01*
X167683301Y-52452614D01*
G37*
X167683301Y-52452614D02*
X167695832Y-52458514D01*
X167739201Y-52490283D01*
X167780210Y-52536646D01*
X167810832Y-52587696D01*
X167819541Y-52611166D01*
X167827488Y-52653091D01*
X167832226Y-52703757D01*
X167832801Y-52724679D01*
X167832871Y-52790693D01*
X167452917Y-52790693D01*
X167461017Y-52825273D01*
X167480896Y-52866170D01*
X167515653Y-52901514D01*
X167557002Y-52924282D01*
X167583351Y-52929010D01*
X167619084Y-52923273D01*
X167661718Y-52908882D01*
X167676201Y-52902262D01*
X167729760Y-52875513D01*
X167775467Y-52910376D01*
X167801842Y-52933955D01*
X167815876Y-52953417D01*
X167816586Y-52959129D01*
X167804049Y-52972973D01*
X167776572Y-52994012D01*
X167751634Y-53010425D01*
X167684336Y-53039930D01*
X167608890Y-53053284D01*
X167534112Y-53049812D01*
X167474505Y-53031663D01*
X167413059Y-52992784D01*
X167369392Y-52941595D01*
X167342074Y-52875367D01*
X167329678Y-52791371D01*
X167328579Y-52752936D01*
X167332978Y-52664861D01*
X167333518Y-52662299D01*
X167459418Y-52662299D01*
X167462885Y-52670558D01*
X167477137Y-52675113D01*
X167506530Y-52677065D01*
X167555425Y-52677517D01*
X167574252Y-52677525D01*
X167631533Y-52676843D01*
X167667859Y-52674364D01*
X167687396Y-52669443D01*
X167694310Y-52661434D01*
X167694555Y-52658862D01*
X167686664Y-52638423D01*
X167666915Y-52609789D01*
X167658425Y-52599763D01*
X167626906Y-52571408D01*
X167594051Y-52560259D01*
X167576349Y-52559327D01*
X167528461Y-52570981D01*
X167488301Y-52602285D01*
X167462827Y-52647752D01*
X167462375Y-52649233D01*
X167459418Y-52662299D01*
X167333518Y-52662299D01*
X167347608Y-52595510D01*
X167373962Y-52540025D01*
X167406193Y-52500639D01*
X167465783Y-52457931D01*
X167535832Y-52435109D01*
X167610339Y-52433046D01*
X167683301Y-52452614D01*
G36*
X166501739Y-52445148D02*
X166567521Y-52474231D01*
X166617460Y-52522793D01*
X166651626Y-52590908D01*
X166670093Y-52678651D01*
X166671417Y-52692351D01*
X166672454Y-52788939D01*
X166659007Y-52873602D01*
X166631892Y-52942221D01*
X166617373Y-52964294D01*
X166566799Y-53011011D01*
X166502391Y-53041268D01*
X166430334Y-53053824D01*
X166356815Y-53047439D01*
X166300928Y-53027772D01*
X166252868Y-52994629D01*
X166213588Y-52951175D01*
X166212908Y-52950158D01*
X166196956Y-52923338D01*
X166186590Y-52896368D01*
X166180312Y-52862332D01*
X166176627Y-52814310D01*
X166175003Y-52774931D01*
X166174328Y-52739219D01*
X166300045Y-52739219D01*
X166301274Y-52774770D01*
X166305734Y-52822094D01*
X166313603Y-52852465D01*
X166327793Y-52874072D01*
X166341083Y-52886694D01*
X166388198Y-52913122D01*
X166437495Y-52916653D01*
X166483407Y-52897639D01*
X166506362Y-52876331D01*
X166522904Y-52854859D01*
X166532579Y-52834313D01*
X166536826Y-52807574D01*
X166537080Y-52767523D01*
X166535772Y-52730638D01*
X166532957Y-52677947D01*
X166528495Y-52643772D01*
X166520452Y-52621480D01*
X166506897Y-52604442D01*
X166496155Y-52594703D01*
X166451223Y-52569123D01*
X166402751Y-52567847D01*
X166362106Y-52582999D01*
X166327433Y-52614642D01*
X166306776Y-52666620D01*
X166300045Y-52739219D01*
X166174328Y-52739219D01*
X166173521Y-52696621D01*
X166176052Y-52638056D01*
X166183638Y-52594007D01*
X166197319Y-52559248D01*
X166218135Y-52528551D01*
X166225853Y-52519436D01*
X166274111Y-52474021D01*
X166325872Y-52447493D01*
X166389172Y-52436379D01*
X166420039Y-52435471D01*
X166501739Y-52445148D01*
X166501739Y-52445148D01*
G37*
X166501739Y-52445148D02*
X166567521Y-52474231D01*
X166617460Y-52522793D01*
X166651626Y-52590908D01*
X166670093Y-52678651D01*
X166671417Y-52692351D01*
X166672454Y-52788939D01*
X166659007Y-52873602D01*
X166631892Y-52942221D01*
X166617373Y-52964294D01*
X166566799Y-53011011D01*
X166502391Y-53041268D01*
X166430334Y-53053824D01*
X166356815Y-53047439D01*
X166300928Y-53027772D01*
X166252868Y-52994629D01*
X166213588Y-52951175D01*
X166212908Y-52950158D01*
X166196956Y-52923338D01*
X166186590Y-52896368D01*
X166180312Y-52862332D01*
X166176627Y-52814310D01*
X166175003Y-52774931D01*
X166174328Y-52739219D01*
X166300045Y-52739219D01*
X166301274Y-52774770D01*
X166305734Y-52822094D01*
X166313603Y-52852465D01*
X166327793Y-52874072D01*
X166341083Y-52886694D01*
X166388198Y-52913122D01*
X166437495Y-52916653D01*
X166483407Y-52897639D01*
X166506362Y-52876331D01*
X166522904Y-52854859D01*
X166532579Y-52834313D01*
X166536826Y-52807574D01*
X166537080Y-52767523D01*
X166535772Y-52730638D01*
X166532957Y-52677947D01*
X166528495Y-52643772D01*
X166520452Y-52621480D01*
X166506897Y-52604442D01*
X166496155Y-52594703D01*
X166451223Y-52569123D01*
X166402751Y-52567847D01*
X166362106Y-52582999D01*
X166327433Y-52614642D01*
X166306776Y-52666620D01*
X166300045Y-52739219D01*
X166174328Y-52739219D01*
X166173521Y-52696621D01*
X166176052Y-52638056D01*
X166183638Y-52594007D01*
X166197319Y-52559248D01*
X166218135Y-52528551D01*
X166225853Y-52519436D01*
X166274111Y-52474021D01*
X166325872Y-52447493D01*
X166389172Y-52436379D01*
X166420039Y-52435471D01*
X166501739Y-52445148D01*
G36*
X171072581Y-53384970D02*
X171132685Y-53400597D01*
X171183021Y-53432848D01*
X171207393Y-53456940D01*
X171247345Y-53513895D01*
X171270242Y-53579965D01*
X171278108Y-53661182D01*
X171278148Y-53667748D01*
X171278218Y-53733763D01*
X170898264Y-53733763D01*
X170906363Y-53768342D01*
X170920987Y-53799659D01*
X170946581Y-53832291D01*
X170951935Y-53837500D01*
X170997943Y-53865694D01*
X171050410Y-53870475D01*
X171110803Y-53851926D01*
X171121040Y-53846931D01*
X171152439Y-53831745D01*
X171173470Y-53823094D01*
X171177139Y-53822293D01*
X171189948Y-53830063D01*
X171214378Y-53849072D01*
X171226779Y-53859460D01*
X171252476Y-53883321D01*
X171260915Y-53899077D01*
X171255058Y-53913571D01*
X171251928Y-53917534D01*
X171230725Y-53934879D01*
X171195738Y-53955959D01*
X171171337Y-53968265D01*
X171102072Y-53989946D01*
X171025388Y-53996971D01*
X170952765Y-53988647D01*
X170932426Y-53982686D01*
X170869476Y-53948952D01*
X170822815Y-53897045D01*
X170792173Y-53826459D01*
X170777282Y-53736692D01*
X170775647Y-53689753D01*
X170780421Y-53621413D01*
X170900990Y-53621413D01*
X170912652Y-53626465D01*
X170943998Y-53630429D01*
X170989571Y-53632768D01*
X171020446Y-53633169D01*
X171075981Y-53632783D01*
X171111033Y-53630975D01*
X171130262Y-53626773D01*
X171138330Y-53619203D01*
X171139901Y-53608218D01*
X171129121Y-53574381D01*
X171101980Y-53540940D01*
X171066277Y-53515272D01*
X171030560Y-53504772D01*
X170982048Y-53514086D01*
X170940053Y-53541013D01*
X170910936Y-53579827D01*
X170900990Y-53621413D01*
X170780421Y-53621413D01*
X170782599Y-53590236D01*
X170804055Y-53510949D01*
X170840470Y-53451263D01*
X170892297Y-53410549D01*
X170959990Y-53388179D01*
X170996662Y-53383871D01*
X171072581Y-53384970D01*
X171072581Y-53384970D01*
G37*
X171072581Y-53384970D02*
X171132685Y-53400597D01*
X171183021Y-53432848D01*
X171207393Y-53456940D01*
X171247345Y-53513895D01*
X171270242Y-53579965D01*
X171278108Y-53661182D01*
X171278148Y-53667748D01*
X171278218Y-53733763D01*
X170898264Y-53733763D01*
X170906363Y-53768342D01*
X170920987Y-53799659D01*
X170946581Y-53832291D01*
X170951935Y-53837500D01*
X170997943Y-53865694D01*
X171050410Y-53870475D01*
X171110803Y-53851926D01*
X171121040Y-53846931D01*
X171152439Y-53831745D01*
X171173470Y-53823094D01*
X171177139Y-53822293D01*
X171189948Y-53830063D01*
X171214378Y-53849072D01*
X171226779Y-53859460D01*
X171252476Y-53883321D01*
X171260915Y-53899077D01*
X171255058Y-53913571D01*
X171251928Y-53917534D01*
X171230725Y-53934879D01*
X171195738Y-53955959D01*
X171171337Y-53968265D01*
X171102072Y-53989946D01*
X171025388Y-53996971D01*
X170952765Y-53988647D01*
X170932426Y-53982686D01*
X170869476Y-53948952D01*
X170822815Y-53897045D01*
X170792173Y-53826459D01*
X170777282Y-53736692D01*
X170775647Y-53689753D01*
X170780421Y-53621413D01*
X170900990Y-53621413D01*
X170912652Y-53626465D01*
X170943998Y-53630429D01*
X170989571Y-53632768D01*
X171020446Y-53633169D01*
X171075981Y-53632783D01*
X171111033Y-53630975D01*
X171130262Y-53626773D01*
X171138330Y-53619203D01*
X171139901Y-53608218D01*
X171129121Y-53574381D01*
X171101980Y-53540940D01*
X171066277Y-53515272D01*
X171030560Y-53504772D01*
X170982048Y-53514086D01*
X170940053Y-53541013D01*
X170910936Y-53579827D01*
X170900990Y-53621413D01*
X170780421Y-53621413D01*
X170782599Y-53590236D01*
X170804055Y-53510949D01*
X170840470Y-53451263D01*
X170892297Y-53410549D01*
X170959990Y-53388179D01*
X170996662Y-53383871D01*
X171072581Y-53384970D01*
G36*
X170675255Y-53381486D02*
X170723595Y-53391015D01*
X170751114Y-53405125D01*
X170780064Y-53428568D01*
X170738876Y-53480571D01*
X170713482Y-53512064D01*
X170696238Y-53527428D01*
X170679102Y-53529776D01*
X170654027Y-53522217D01*
X170642257Y-53517941D01*
X170594270Y-53511631D01*
X170550324Y-53525156D01*
X170518060Y-53555710D01*
X170512819Y-53565452D01*
X170507112Y-53591258D01*
X170502706Y-53638817D01*
X170499811Y-53704758D01*
X170498631Y-53785710D01*
X170498614Y-53797226D01*
X170498614Y-53997822D01*
X170360297Y-53997822D01*
X170360297Y-53381683D01*
X170429456Y-53381683D01*
X170469333Y-53382725D01*
X170490107Y-53387358D01*
X170497789Y-53397849D01*
X170498614Y-53407745D01*
X170498614Y-53433806D01*
X170531745Y-53407745D01*
X170569735Y-53389965D01*
X170620770Y-53381174D01*
X170675255Y-53381486D01*
X170675255Y-53381486D01*
G37*
X170675255Y-53381486D02*
X170723595Y-53391015D01*
X170751114Y-53405125D01*
X170780064Y-53428568D01*
X170738876Y-53480571D01*
X170713482Y-53512064D01*
X170696238Y-53527428D01*
X170679102Y-53529776D01*
X170654027Y-53522217D01*
X170642257Y-53517941D01*
X170594270Y-53511631D01*
X170550324Y-53525156D01*
X170518060Y-53555710D01*
X170512819Y-53565452D01*
X170507112Y-53591258D01*
X170502706Y-53638817D01*
X170499811Y-53704758D01*
X170498631Y-53785710D01*
X170498614Y-53797226D01*
X170498614Y-53997822D01*
X170360297Y-53997822D01*
X170360297Y-53381683D01*
X170429456Y-53381683D01*
X170469333Y-53382725D01*
X170490107Y-53387358D01*
X170497789Y-53397849D01*
X170498614Y-53407745D01*
X170498614Y-53433806D01*
X170531745Y-53407745D01*
X170569735Y-53389965D01*
X170620770Y-53381174D01*
X170675255Y-53381486D01*
G36*
X170078411Y-53385417D02*
X170131411Y-53398290D01*
X170146731Y-53405110D01*
X170176428Y-53422974D01*
X170199220Y-53443093D01*
X170216083Y-53468962D01*
X170227998Y-53504073D01*
X170235942Y-53551920D01*
X170240894Y-53615996D01*
X170243831Y-53699794D01*
X170244947Y-53755768D01*
X170249052Y-53997822D01*
X170178932Y-53997822D01*
X170136393Y-53996038D01*
X170114476Y-53989942D01*
X170108812Y-53979706D01*
X170105821Y-53968637D01*
X170092451Y-53970754D01*
X170074233Y-53979629D01*
X170028624Y-53993233D01*
X169970007Y-53996899D01*
X169908354Y-53990903D01*
X169853638Y-53975521D01*
X169848730Y-53973386D01*
X169798723Y-53938255D01*
X169765756Y-53889419D01*
X169750587Y-53832333D01*
X169751746Y-53811824D01*
X169875508Y-53811824D01*
X169886413Y-53839425D01*
X169918745Y-53859204D01*
X169970910Y-53869819D01*
X169998787Y-53871228D01*
X170045247Y-53867620D01*
X170076129Y-53853597D01*
X170083664Y-53846931D01*
X170104076Y-53810666D01*
X170108812Y-53777773D01*
X170108812Y-53733763D01*
X170047513Y-53733763D01*
X169976256Y-53737395D01*
X169926276Y-53748818D01*
X169894696Y-53768824D01*
X169887626Y-53777743D01*
X169875508Y-53811824D01*
X169751746Y-53811824D01*
X169753971Y-53772456D01*
X169776663Y-53715244D01*
X169807624Y-53676580D01*
X169826376Y-53659864D01*
X169844733Y-53648878D01*
X169868619Y-53642180D01*
X169903957Y-53638326D01*
X169956669Y-53635873D01*
X169977577Y-53635168D01*
X170108812Y-53630879D01*
X170108620Y-53591158D01*
X170103537Y-53549405D01*
X170085162Y-53524158D01*
X170048039Y-53508030D01*
X170047043Y-53507742D01*
X169994410Y-53501400D01*
X169942906Y-53509684D01*
X169904630Y-53529827D01*
X169889272Y-53539773D01*
X169872730Y-53538397D01*
X169847275Y-53523987D01*
X169832328Y-53513817D01*
X169803091Y-53492088D01*
X169784980Y-53475800D01*
X169782074Y-53471137D01*
X169794040Y-53447005D01*
X169829396Y-53418185D01*
X169844753Y-53408461D01*
X169888901Y-53391714D01*
X169948398Y-53382227D01*
X170014487Y-53380095D01*
X170078411Y-53385417D01*
X170078411Y-53385417D01*
G37*
X170078411Y-53385417D02*
X170131411Y-53398290D01*
X170146731Y-53405110D01*
X170176428Y-53422974D01*
X170199220Y-53443093D01*
X170216083Y-53468962D01*
X170227998Y-53504073D01*
X170235942Y-53551920D01*
X170240894Y-53615996D01*
X170243831Y-53699794D01*
X170244947Y-53755768D01*
X170249052Y-53997822D01*
X170178932Y-53997822D01*
X170136393Y-53996038D01*
X170114476Y-53989942D01*
X170108812Y-53979706D01*
X170105821Y-53968637D01*
X170092451Y-53970754D01*
X170074233Y-53979629D01*
X170028624Y-53993233D01*
X169970007Y-53996899D01*
X169908354Y-53990903D01*
X169853638Y-53975521D01*
X169848730Y-53973386D01*
X169798723Y-53938255D01*
X169765756Y-53889419D01*
X169750587Y-53832333D01*
X169751746Y-53811824D01*
X169875508Y-53811824D01*
X169886413Y-53839425D01*
X169918745Y-53859204D01*
X169970910Y-53869819D01*
X169998787Y-53871228D01*
X170045247Y-53867620D01*
X170076129Y-53853597D01*
X170083664Y-53846931D01*
X170104076Y-53810666D01*
X170108812Y-53777773D01*
X170108812Y-53733763D01*
X170047513Y-53733763D01*
X169976256Y-53737395D01*
X169926276Y-53748818D01*
X169894696Y-53768824D01*
X169887626Y-53777743D01*
X169875508Y-53811824D01*
X169751746Y-53811824D01*
X169753971Y-53772456D01*
X169776663Y-53715244D01*
X169807624Y-53676580D01*
X169826376Y-53659864D01*
X169844733Y-53648878D01*
X169868619Y-53642180D01*
X169903957Y-53638326D01*
X169956669Y-53635873D01*
X169977577Y-53635168D01*
X170108812Y-53630879D01*
X170108620Y-53591158D01*
X170103537Y-53549405D01*
X170085162Y-53524158D01*
X170048039Y-53508030D01*
X170047043Y-53507742D01*
X169994410Y-53501400D01*
X169942906Y-53509684D01*
X169904630Y-53529827D01*
X169889272Y-53539773D01*
X169872730Y-53538397D01*
X169847275Y-53523987D01*
X169832328Y-53513817D01*
X169803091Y-53492088D01*
X169784980Y-53475800D01*
X169782074Y-53471137D01*
X169794040Y-53447005D01*
X169829396Y-53418185D01*
X169844753Y-53408461D01*
X169888901Y-53391714D01*
X169948398Y-53382227D01*
X170014487Y-53380095D01*
X170078411Y-53385417D01*
G36*
X169321524Y-53384237D02*
X169371255Y-53387971D01*
X169501291Y-53777773D01*
X169521678Y-53708614D01*
X169533946Y-53665874D01*
X169550085Y-53608115D01*
X169567512Y-53544625D01*
X169576726Y-53510570D01*
X169611388Y-53381683D01*
X169754391Y-53381683D01*
X169711646Y-53516857D01*
X169690596Y-53583342D01*
X169665167Y-53663539D01*
X169638610Y-53747193D01*
X169614902Y-53821782D01*
X169560902Y-53991535D01*
X169502598Y-53995328D01*
X169444295Y-53999122D01*
X169412679Y-53894734D01*
X169393182Y-53829889D01*
X169371904Y-53758400D01*
X169353308Y-53695263D01*
X169352574Y-53692750D01*
X169338684Y-53649969D01*
X169326429Y-53620779D01*
X169317846Y-53609741D01*
X169316082Y-53611018D01*
X169309891Y-53628130D01*
X169298128Y-53664787D01*
X169282225Y-53716378D01*
X169263614Y-53778294D01*
X169253543Y-53812352D01*
X169199007Y-53997822D01*
X169083264Y-53997822D01*
X168990737Y-53705471D01*
X168964744Y-53623462D01*
X168941066Y-53548987D01*
X168920820Y-53485544D01*
X168905126Y-53436632D01*
X168895102Y-53405749D01*
X168892055Y-53396726D01*
X168894467Y-53387487D01*
X168913408Y-53383441D01*
X168952823Y-53383846D01*
X168958993Y-53384152D01*
X169032086Y-53387971D01*
X169079957Y-53564010D01*
X169097553Y-53628211D01*
X169113277Y-53684649D01*
X169125746Y-53728422D01*
X169133574Y-53754630D01*
X169135020Y-53758903D01*
X169141014Y-53753990D01*
X169153101Y-53728532D01*
X169169893Y-53685997D01*
X169190003Y-53629850D01*
X169207003Y-53579130D01*
X169271794Y-53380504D01*
X169321524Y-53384237D01*
X169321524Y-53384237D01*
G37*
X169321524Y-53384237D02*
X169371255Y-53387971D01*
X169501291Y-53777773D01*
X169521678Y-53708614D01*
X169533946Y-53665874D01*
X169550085Y-53608115D01*
X169567512Y-53544625D01*
X169576726Y-53510570D01*
X169611388Y-53381683D01*
X169754391Y-53381683D01*
X169711646Y-53516857D01*
X169690596Y-53583342D01*
X169665167Y-53663539D01*
X169638610Y-53747193D01*
X169614902Y-53821782D01*
X169560902Y-53991535D01*
X169502598Y-53995328D01*
X169444295Y-53999122D01*
X169412679Y-53894734D01*
X169393182Y-53829889D01*
X169371904Y-53758400D01*
X169353308Y-53695263D01*
X169352574Y-53692750D01*
X169338684Y-53649969D01*
X169326429Y-53620779D01*
X169317846Y-53609741D01*
X169316082Y-53611018D01*
X169309891Y-53628130D01*
X169298128Y-53664787D01*
X169282225Y-53716378D01*
X169263614Y-53778294D01*
X169253543Y-53812352D01*
X169199007Y-53997822D01*
X169083264Y-53997822D01*
X168990737Y-53705471D01*
X168964744Y-53623462D01*
X168941066Y-53548987D01*
X168920820Y-53485544D01*
X168905126Y-53436632D01*
X168895102Y-53405749D01*
X168892055Y-53396726D01*
X168894467Y-53387487D01*
X168913408Y-53383441D01*
X168952823Y-53383846D01*
X168958993Y-53384152D01*
X169032086Y-53387971D01*
X169079957Y-53564010D01*
X169097553Y-53628211D01*
X169113277Y-53684649D01*
X169125746Y-53728422D01*
X169133574Y-53754630D01*
X169135020Y-53758903D01*
X169141014Y-53753990D01*
X169153101Y-53728532D01*
X169169893Y-53685997D01*
X169190003Y-53629850D01*
X169207003Y-53579130D01*
X169271794Y-53380504D01*
X169321524Y-53384237D01*
G36*
X168838812Y-53997822D02*
X168769654Y-53997822D01*
X168729512Y-53996645D01*
X168708606Y-53991772D01*
X168701078Y-53981186D01*
X168700495Y-53974029D01*
X168699226Y-53959676D01*
X168691221Y-53956923D01*
X168670185Y-53965771D01*
X168653827Y-53974029D01*
X168591023Y-53993597D01*
X168522752Y-53994729D01*
X168467248Y-53980135D01*
X168415562Y-53944877D01*
X168376162Y-53892835D01*
X168354587Y-53831450D01*
X168354038Y-53828018D01*
X168350833Y-53790571D01*
X168349239Y-53736813D01*
X168349367Y-53696155D01*
X168486721Y-53696155D01*
X168489903Y-53750194D01*
X168497141Y-53794735D01*
X168506940Y-53819888D01*
X168544011Y-53854260D01*
X168588026Y-53866582D01*
X168633416Y-53856618D01*
X168672203Y-53826895D01*
X168686892Y-53806905D01*
X168695481Y-53783050D01*
X168699504Y-53748230D01*
X168700495Y-53695930D01*
X168698722Y-53644139D01*
X168694037Y-53598634D01*
X168687397Y-53568181D01*
X168686290Y-53565452D01*
X168659509Y-53533000D01*
X168620421Y-53515183D01*
X168576685Y-53512306D01*
X168535962Y-53524674D01*
X168505913Y-53552593D01*
X168502796Y-53558148D01*
X168493039Y-53592022D01*
X168487723Y-53640728D01*
X168486721Y-53696155D01*
X168349367Y-53696155D01*
X168349432Y-53675540D01*
X168350336Y-53642563D01*
X168356486Y-53560981D01*
X168369267Y-53499730D01*
X168390529Y-53454449D01*
X168422122Y-53420779D01*
X168452793Y-53401014D01*
X168495646Y-53387120D01*
X168548944Y-53382354D01*
X168603520Y-53386236D01*
X168650208Y-53398282D01*
X168674876Y-53412693D01*
X168700495Y-53435878D01*
X168700495Y-53142773D01*
X168838812Y-53142773D01*
X168838812Y-53997822D01*
X168838812Y-53997822D01*
G37*
X168838812Y-53997822D02*
X168769654Y-53997822D01*
X168729512Y-53996645D01*
X168708606Y-53991772D01*
X168701078Y-53981186D01*
X168700495Y-53974029D01*
X168699226Y-53959676D01*
X168691221Y-53956923D01*
X168670185Y-53965771D01*
X168653827Y-53974029D01*
X168591023Y-53993597D01*
X168522752Y-53994729D01*
X168467248Y-53980135D01*
X168415562Y-53944877D01*
X168376162Y-53892835D01*
X168354587Y-53831450D01*
X168354038Y-53828018D01*
X168350833Y-53790571D01*
X168349239Y-53736813D01*
X168349367Y-53696155D01*
X168486721Y-53696155D01*
X168489903Y-53750194D01*
X168497141Y-53794735D01*
X168506940Y-53819888D01*
X168544011Y-53854260D01*
X168588026Y-53866582D01*
X168633416Y-53856618D01*
X168672203Y-53826895D01*
X168686892Y-53806905D01*
X168695481Y-53783050D01*
X168699504Y-53748230D01*
X168700495Y-53695930D01*
X168698722Y-53644139D01*
X168694037Y-53598634D01*
X168687397Y-53568181D01*
X168686290Y-53565452D01*
X168659509Y-53533000D01*
X168620421Y-53515183D01*
X168576685Y-53512306D01*
X168535962Y-53524674D01*
X168505913Y-53552593D01*
X168502796Y-53558148D01*
X168493039Y-53592022D01*
X168487723Y-53640728D01*
X168486721Y-53696155D01*
X168349367Y-53696155D01*
X168349432Y-53675540D01*
X168350336Y-53642563D01*
X168356486Y-53560981D01*
X168369267Y-53499730D01*
X168390529Y-53454449D01*
X168422122Y-53420779D01*
X168452793Y-53401014D01*
X168495646Y-53387120D01*
X168548944Y-53382354D01*
X168603520Y-53386236D01*
X168650208Y-53398282D01*
X168674876Y-53412693D01*
X168700495Y-53435878D01*
X168700495Y-53142773D01*
X168838812Y-53142773D01*
X168838812Y-53997822D01*
G36*
X168046644Y-53383020D02*
X168065461Y-53388660D01*
X168071527Y-53401053D01*
X168071782Y-53406647D01*
X168072871Y-53422230D01*
X168080368Y-53424676D01*
X168100619Y-53413993D01*
X168112649Y-53406694D01*
X168150600Y-53391063D01*
X168195928Y-53383334D01*
X168243456Y-53382740D01*
X168288005Y-53388513D01*
X168324398Y-53399884D01*
X168347457Y-53416088D01*
X168352004Y-53436355D01*
X168349709Y-53441843D01*
X168332980Y-53464626D01*
X168307037Y-53492647D01*
X168302345Y-53497177D01*
X168277617Y-53518005D01*
X168256282Y-53524735D01*
X168226445Y-53520038D01*
X168214492Y-53516917D01*
X168177295Y-53509421D01*
X168151141Y-53512792D01*
X168129054Y-53524681D01*
X168108822Y-53540635D01*
X168093921Y-53560700D01*
X168083566Y-53588702D01*
X168076971Y-53628467D01*
X168073351Y-53683823D01*
X168071922Y-53758594D01*
X168071782Y-53803740D01*
X168071782Y-53997822D01*
X167946040Y-53997822D01*
X167946040Y-53381683D01*
X168008911Y-53381683D01*
X168046644Y-53383020D01*
X168046644Y-53383020D01*
G37*
X168046644Y-53383020D02*
X168065461Y-53388660D01*
X168071527Y-53401053D01*
X168071782Y-53406647D01*
X168072871Y-53422230D01*
X168080368Y-53424676D01*
X168100619Y-53413993D01*
X168112649Y-53406694D01*
X168150600Y-53391063D01*
X168195928Y-53383334D01*
X168243456Y-53382740D01*
X168288005Y-53388513D01*
X168324398Y-53399884D01*
X168347457Y-53416088D01*
X168352004Y-53436355D01*
X168349709Y-53441843D01*
X168332980Y-53464626D01*
X168307037Y-53492647D01*
X168302345Y-53497177D01*
X168277617Y-53518005D01*
X168256282Y-53524735D01*
X168226445Y-53520038D01*
X168214492Y-53516917D01*
X168177295Y-53509421D01*
X168151141Y-53512792D01*
X168129054Y-53524681D01*
X168108822Y-53540635D01*
X168093921Y-53560700D01*
X168083566Y-53588702D01*
X168076971Y-53628467D01*
X168073351Y-53683823D01*
X168071922Y-53758594D01*
X168071782Y-53803740D01*
X168071782Y-53997822D01*
X167946040Y-53997822D01*
X167946040Y-53381683D01*
X168008911Y-53381683D01*
X168046644Y-53383020D01*
G36*
X167655790Y-53386555D02*
X167714945Y-53402339D01*
X167759977Y-53430948D01*
X167791754Y-53468419D01*
X167801634Y-53484411D01*
X167808927Y-53501163D01*
X167814026Y-53522592D01*
X167817321Y-53552616D01*
X167819203Y-53595154D01*
X167820063Y-53654122D01*
X167820293Y-53733440D01*
X167820297Y-53754484D01*
X167820297Y-53997822D01*
X167759941Y-53997822D01*
X167721443Y-53995126D01*
X167692977Y-53988295D01*
X167685845Y-53984083D01*
X167666348Y-53976813D01*
X167646434Y-53984083D01*
X167613647Y-53993160D01*
X167566022Y-53996813D01*
X167513236Y-53995228D01*
X167464964Y-53988589D01*
X167436782Y-53980072D01*
X167382247Y-53945063D01*
X167348165Y-53896479D01*
X167332843Y-53831882D01*
X167332701Y-53830223D01*
X167334045Y-53801566D01*
X167455644Y-53801566D01*
X167466274Y-53834161D01*
X167483590Y-53852505D01*
X167518348Y-53866379D01*
X167564227Y-53871917D01*
X167611012Y-53869191D01*
X167648486Y-53858274D01*
X167658985Y-53851269D01*
X167677332Y-53818904D01*
X167681980Y-53782111D01*
X167681980Y-53733763D01*
X167612418Y-53733763D01*
X167546333Y-53738850D01*
X167496236Y-53753263D01*
X167465071Y-53775729D01*
X167455644Y-53801566D01*
X167334045Y-53801566D01*
X167336013Y-53759647D01*
X167359290Y-53703845D01*
X167403052Y-53661647D01*
X167409101Y-53657808D01*
X167435093Y-53645309D01*
X167467265Y-53637740D01*
X167512240Y-53634061D01*
X167565669Y-53633216D01*
X167681980Y-53633169D01*
X167681980Y-53584411D01*
X167677047Y-53546581D01*
X167664457Y-53521236D01*
X167662983Y-53519887D01*
X167634966Y-53508800D01*
X167592674Y-53504503D01*
X167545936Y-53506615D01*
X167504582Y-53514756D01*
X167480043Y-53526965D01*
X167466747Y-53536746D01*
X167452706Y-53538613D01*
X167433329Y-53530600D01*
X167404024Y-53510739D01*
X167360197Y-53477063D01*
X167356175Y-53473909D01*
X167358236Y-53462236D01*
X167375432Y-53442822D01*
X167401567Y-53421248D01*
X167430448Y-53403096D01*
X167439522Y-53398809D01*
X167472620Y-53390256D01*
X167521120Y-53384155D01*
X167575305Y-53381708D01*
X167577839Y-53381703D01*
X167655790Y-53386555D01*
X167655790Y-53386555D01*
G37*
X167655790Y-53386555D02*
X167714945Y-53402339D01*
X167759977Y-53430948D01*
X167791754Y-53468419D01*
X167801634Y-53484411D01*
X167808927Y-53501163D01*
X167814026Y-53522592D01*
X167817321Y-53552616D01*
X167819203Y-53595154D01*
X167820063Y-53654122D01*
X167820293Y-53733440D01*
X167820297Y-53754484D01*
X167820297Y-53997822D01*
X167759941Y-53997822D01*
X167721443Y-53995126D01*
X167692977Y-53988295D01*
X167685845Y-53984083D01*
X167666348Y-53976813D01*
X167646434Y-53984083D01*
X167613647Y-53993160D01*
X167566022Y-53996813D01*
X167513236Y-53995228D01*
X167464964Y-53988589D01*
X167436782Y-53980072D01*
X167382247Y-53945063D01*
X167348165Y-53896479D01*
X167332843Y-53831882D01*
X167332701Y-53830223D01*
X167334045Y-53801566D01*
X167455644Y-53801566D01*
X167466274Y-53834161D01*
X167483590Y-53852505D01*
X167518348Y-53866379D01*
X167564227Y-53871917D01*
X167611012Y-53869191D01*
X167648486Y-53858274D01*
X167658985Y-53851269D01*
X167677332Y-53818904D01*
X167681980Y-53782111D01*
X167681980Y-53733763D01*
X167612418Y-53733763D01*
X167546333Y-53738850D01*
X167496236Y-53753263D01*
X167465071Y-53775729D01*
X167455644Y-53801566D01*
X167334045Y-53801566D01*
X167336013Y-53759647D01*
X167359290Y-53703845D01*
X167403052Y-53661647D01*
X167409101Y-53657808D01*
X167435093Y-53645309D01*
X167467265Y-53637740D01*
X167512240Y-53634061D01*
X167565669Y-53633216D01*
X167681980Y-53633169D01*
X167681980Y-53584411D01*
X167677047Y-53546581D01*
X167664457Y-53521236D01*
X167662983Y-53519887D01*
X167634966Y-53508800D01*
X167592674Y-53504503D01*
X167545936Y-53506615D01*
X167504582Y-53514756D01*
X167480043Y-53526965D01*
X167466747Y-53536746D01*
X167452706Y-53538613D01*
X167433329Y-53530600D01*
X167404024Y-53510739D01*
X167360197Y-53477063D01*
X167356175Y-53473909D01*
X167358236Y-53462236D01*
X167375432Y-53442822D01*
X167401567Y-53421248D01*
X167430448Y-53403096D01*
X167439522Y-53398809D01*
X167472620Y-53390256D01*
X167521120Y-53384155D01*
X167575305Y-53381708D01*
X167577839Y-53381703D01*
X167655790Y-53386555D01*
G36*
X167131241Y-52449184D02*
X167157753Y-52462282D01*
X167190447Y-52485106D01*
X167214275Y-52509996D01*
X167230594Y-52541249D01*
X167240760Y-52583166D01*
X167246128Y-52640044D01*
X167248056Y-52716184D01*
X167248169Y-52748917D01*
X167247839Y-52820656D01*
X167246473Y-52871927D01*
X167243500Y-52907404D01*
X167238351Y-52931763D01*
X167230457Y-52949680D01*
X167222243Y-52961902D01*
X167169813Y-53013905D01*
X167108070Y-53045184D01*
X167041464Y-53054592D01*
X166974442Y-53040980D01*
X166953208Y-53031354D01*
X166902376Y-53004859D01*
X166902376Y-53420052D01*
X166939475Y-53400868D01*
X166988357Y-53386025D01*
X167048439Y-53382222D01*
X167108436Y-53389243D01*
X167153744Y-53405013D01*
X167191325Y-53435047D01*
X167223436Y-53478024D01*
X167225850Y-53482436D01*
X167236033Y-53503221D01*
X167243470Y-53524170D01*
X167248589Y-53549548D01*
X167251819Y-53583618D01*
X167253587Y-53630641D01*
X167254323Y-53694882D01*
X167254456Y-53767176D01*
X167254456Y-53997822D01*
X167116139Y-53997822D01*
X167116139Y-53572533D01*
X167077451Y-53539979D01*
X167037262Y-53513940D01*
X166999203Y-53509205D01*
X166960934Y-53521389D01*
X166940538Y-53533320D01*
X166925358Y-53550313D01*
X166914562Y-53575995D01*
X166907317Y-53613991D01*
X166902792Y-53667926D01*
X166900156Y-53741425D01*
X166899228Y-53790347D01*
X166896089Y-53991535D01*
X166830074Y-53995336D01*
X166764060Y-53999136D01*
X166764060Y-52750650D01*
X166902376Y-52750650D01*
X166905903Y-52820254D01*
X166917785Y-52868569D01*
X166939980Y-52898631D01*
X166974441Y-52913471D01*
X167009258Y-52916436D01*
X167048671Y-52913028D01*
X167074829Y-52899617D01*
X167091186Y-52881896D01*
X167104063Y-52862835D01*
X167111728Y-52841601D01*
X167115139Y-52811849D01*
X167115251Y-52767236D01*
X167114103Y-52729880D01*
X167111468Y-52673604D01*
X167107544Y-52636658D01*
X167100937Y-52613223D01*
X167090251Y-52597480D01*
X167080167Y-52588380D01*
X167038030Y-52568537D01*
X166988160Y-52565332D01*
X166959524Y-52572168D01*
X166931172Y-52596464D01*
X166912391Y-52643728D01*
X166903288Y-52713624D01*
X166902376Y-52750650D01*
X166764060Y-52750650D01*
X166764060Y-52438614D01*
X166833218Y-52438614D01*
X166874740Y-52440256D01*
X166896162Y-52446087D01*
X166902374Y-52457461D01*
X166902376Y-52457798D01*
X166905258Y-52468938D01*
X166917970Y-52467673D01*
X166943243Y-52455433D01*
X167002131Y-52436707D01*
X167068385Y-52434739D01*
X167131241Y-52449184D01*
X167131241Y-52449184D01*
G37*
X167131241Y-52449184D02*
X167157753Y-52462282D01*
X167190447Y-52485106D01*
X167214275Y-52509996D01*
X167230594Y-52541249D01*
X167240760Y-52583166D01*
X167246128Y-52640044D01*
X167248056Y-52716184D01*
X167248169Y-52748917D01*
X167247839Y-52820656D01*
X167246473Y-52871927D01*
X167243500Y-52907404D01*
X167238351Y-52931763D01*
X167230457Y-52949680D01*
X167222243Y-52961902D01*
X167169813Y-53013905D01*
X167108070Y-53045184D01*
X167041464Y-53054592D01*
X166974442Y-53040980D01*
X166953208Y-53031354D01*
X166902376Y-53004859D01*
X166902376Y-53420052D01*
X166939475Y-53400868D01*
X166988357Y-53386025D01*
X167048439Y-53382222D01*
X167108436Y-53389243D01*
X167153744Y-53405013D01*
X167191325Y-53435047D01*
X167223436Y-53478024D01*
X167225850Y-53482436D01*
X167236033Y-53503221D01*
X167243470Y-53524170D01*
X167248589Y-53549548D01*
X167251819Y-53583618D01*
X167253587Y-53630641D01*
X167254323Y-53694882D01*
X167254456Y-53767176D01*
X167254456Y-53997822D01*
X167116139Y-53997822D01*
X167116139Y-53572533D01*
X167077451Y-53539979D01*
X167037262Y-53513940D01*
X166999203Y-53509205D01*
X166960934Y-53521389D01*
X166940538Y-53533320D01*
X166925358Y-53550313D01*
X166914562Y-53575995D01*
X166907317Y-53613991D01*
X166902792Y-53667926D01*
X166900156Y-53741425D01*
X166899228Y-53790347D01*
X166896089Y-53991535D01*
X166830074Y-53995336D01*
X166764060Y-53999136D01*
X166764060Y-52750650D01*
X166902376Y-52750650D01*
X166905903Y-52820254D01*
X166917785Y-52868569D01*
X166939980Y-52898631D01*
X166974441Y-52913471D01*
X167009258Y-52916436D01*
X167048671Y-52913028D01*
X167074829Y-52899617D01*
X167091186Y-52881896D01*
X167104063Y-52862835D01*
X167111728Y-52841601D01*
X167115139Y-52811849D01*
X167115251Y-52767236D01*
X167114103Y-52729880D01*
X167111468Y-52673604D01*
X167107544Y-52636658D01*
X167100937Y-52613223D01*
X167090251Y-52597480D01*
X167080167Y-52588380D01*
X167038030Y-52568537D01*
X166988160Y-52565332D01*
X166959524Y-52572168D01*
X166931172Y-52596464D01*
X166912391Y-52643728D01*
X166903288Y-52713624D01*
X166902376Y-52750650D01*
X166764060Y-52750650D01*
X166764060Y-52438614D01*
X166833218Y-52438614D01*
X166874740Y-52440256D01*
X166896162Y-52446087D01*
X166902374Y-52457461D01*
X166902376Y-52457798D01*
X166905258Y-52468938D01*
X166917970Y-52467673D01*
X166943243Y-52455433D01*
X167002131Y-52436707D01*
X167068385Y-52434739D01*
X167131241Y-52449184D01*
D15*
G04 #@! TO.C,IC2*
X163002322Y-46205278D02*
G75*
G03X163002322Y-46205278I-100000J0D01*
G01*
G04 #@! TO.C,RV1*
X146350000Y-49010000D02*
X146350000Y-51676000D01*
X146350000Y-49010000D02*
X147154000Y-49010000D01*
X149950000Y-49010000D02*
X149146000Y-49010000D01*
X149950000Y-49010000D02*
X149950000Y-51676000D01*
X147006340Y-53186000D02*
G75*
G03X147006340Y-53186000I-37340J0D01*
G01*
D16*
G04 #@! TO.C,U1*
X148540000Y-46890000D02*
X148540000Y-45090000D01*
X151640000Y-45090000D02*
X151640000Y-46890000D01*
D15*
X149190000Y-48390000D02*
G75*
G03X149190000Y-48390000I-100000J0D01*
G01*
G04 #@! TO.C,IC4*
X152198000Y-38045000D02*
X152198000Y-37895000D01*
X152198000Y-37895000D02*
X154222000Y-37895000D01*
X154222000Y-37895000D02*
X154222000Y-38045000D01*
X154222000Y-38045000D02*
X152198000Y-38045000D01*
X152010000Y-39445000D02*
X152010000Y-38395000D01*
G04 #@! TO.C,AE1*
X171680000Y-47545000D02*
G75*
G03X171680000Y-47545000I-100000J0D01*
G01*
D16*
X171200000Y-50950000D02*
X171200000Y-48950000D01*
X172800000Y-50950000D02*
X172800000Y-48950000D01*
D10*
G04 #@! TO.C,IC3*
X152870000Y-42510000D02*
X152870000Y-42510000D01*
X152970000Y-42510000D02*
X152970000Y-42510000D01*
X152970000Y-42510000D02*
G75*
G03X152870000Y-42510000I-50000J0D01*
G01*
X152870000Y-42510000D02*
G75*
G03X152970000Y-42510000I50000J0D01*
G01*
G04 #@! TO.C,IC1*
X143400000Y-35900000D02*
X143400000Y-35400000D01*
X143400000Y-35400000D02*
X148200000Y-35400000D01*
X148200000Y-35400000D02*
X148200000Y-35900000D01*
X143400000Y-39900000D02*
X143400000Y-40400000D01*
X143400000Y-40400000D02*
X148200000Y-40400000D01*
X148200000Y-40400000D02*
X148200000Y-39900000D01*
D15*
X142900000Y-36700000D02*
X142900000Y-36700000D01*
X142900000Y-36900000D02*
X142900000Y-36900000D01*
X142900000Y-36900000D02*
G75*
G02X142900000Y-36700000I0J100000D01*
G01*
X142900000Y-36700000D02*
G75*
G02X142900000Y-36900000I0J-100000D01*
G01*
D17*
G04 #@! TO.C,C2*
X166890000Y-48118922D02*
X166890000Y-48636078D01*
X165470000Y-48118922D02*
X165470000Y-48636078D01*
G04 #@! TO.C,C4*
X163517322Y-48121700D02*
X163517322Y-48638856D01*
X164937322Y-48121700D02*
X164937322Y-48638856D01*
G04 #@! TO.C,C5*
X165390578Y-36968000D02*
X164873422Y-36968000D01*
X165390578Y-35548000D02*
X164873422Y-35548000D01*
G04 #@! TO.C,C6*
X159342000Y-36202578D02*
X159342000Y-35685422D01*
X160762000Y-36202578D02*
X160762000Y-35685422D01*
G04 #@! TO.C,C7*
X165390578Y-39254000D02*
X164873422Y-39254000D01*
X165390578Y-37834000D02*
X164873422Y-37834000D01*
G04 #@! TO.C,C8*
X162370000Y-49448578D02*
X162370000Y-48931422D01*
X160950000Y-49448578D02*
X160950000Y-48931422D01*
G04 #@! TO.C,C9*
X146758578Y-46330000D02*
X146241422Y-46330000D01*
X146758578Y-47750000D02*
X146241422Y-47750000D01*
G04 #@! TO.C,C11*
X151390000Y-49851422D02*
X151390000Y-50368578D01*
X152810000Y-49851422D02*
X152810000Y-50368578D01*
G04 #@! TO.C,C12*
X153978578Y-47100000D02*
X153461422Y-47100000D01*
X153978578Y-45680000D02*
X153461422Y-45680000D01*
G04 #@! TO.C,C13*
X153311422Y-34480000D02*
X153828578Y-34480000D01*
X153311422Y-35900000D02*
X153828578Y-35900000D01*
G04 #@! TO.C,L1*
X168353744Y-46305278D02*
X168870900Y-46305278D01*
X168353744Y-44885278D02*
X168870900Y-44885278D01*
G04 #@! TO.C,L2*
X164928744Y-44885278D02*
X165445900Y-44885278D01*
X164928744Y-46305278D02*
X165445900Y-46305278D01*
G04 #@! TO.C,L3*
X162794000Y-35685422D02*
X162794000Y-36202578D01*
X161374000Y-35685422D02*
X161374000Y-36202578D01*
G04 #@! TO.C,R1*
X146748578Y-45540000D02*
X146231422Y-45540000D01*
X146748578Y-44120000D02*
X146231422Y-44120000D01*
G04 #@! TO.C,R5*
X155000000Y-48861422D02*
X155000000Y-49378578D01*
X153580000Y-48861422D02*
X153580000Y-49378578D01*
G04 #@! TO.C,R6*
X154008578Y-44900000D02*
X153491422Y-44900000D01*
X154008578Y-43480000D02*
X153491422Y-43480000D01*
G04 #@! TO.C,R7*
X156280000Y-38168578D02*
X156280000Y-37651422D01*
X154860000Y-38168578D02*
X154860000Y-37651422D01*
G04 #@! TO.C,Y2*
X160608000Y-50426000D02*
X160608000Y-48126000D01*
X160608000Y-48126000D02*
X157908000Y-48126000D01*
G04 #@! TO.C,Y1*
X161220000Y-37880000D02*
X161520000Y-37880000D01*
X161220000Y-39480000D02*
X161520000Y-39480000D01*
X160020000Y-37930000D02*
X160020000Y-39430000D01*
G04 #@! TO.C,D1*
X158160000Y-33810000D02*
X155475000Y-33810000D01*
X155475000Y-33810000D02*
X155475000Y-35730000D01*
X155475000Y-35730000D02*
X158160000Y-35730000D01*
G04 #@! TO.C,R4*
X158350000Y-37171422D02*
X158350000Y-37688578D01*
X156930000Y-37171422D02*
X156930000Y-37688578D01*
D10*
G04 #@! TO.C,svg2mod*
G36*
X165645546Y-52363159D02*
X165168590Y-52274464D01*
X165140359Y-52250180D01*
X164994159Y-51909094D01*
X164996480Y-51872218D01*
X165274374Y-51467186D01*
X165271327Y-51434227D01*
X164924236Y-51087136D01*
X164891305Y-51084089D01*
X164479165Y-51366915D01*
X164442115Y-51369584D01*
X164111474Y-51234235D01*
X164087103Y-51206324D01*
X163995275Y-50713004D01*
X163969829Y-50691853D01*
X163478917Y-50691853D01*
X163453501Y-50713004D01*
X163361702Y-51206324D01*
X163337330Y-51234235D01*
X163006661Y-51369584D01*
X162969610Y-51366915D01*
X162557499Y-51084089D01*
X162524540Y-51087136D01*
X162177420Y-51434227D01*
X162174373Y-51467186D01*
X162452296Y-51872218D01*
X162454588Y-51909094D01*
X162308359Y-52250180D01*
X162280128Y-52274464D01*
X161803201Y-52363159D01*
X161782050Y-52388633D01*
X161782079Y-52879516D01*
X161803230Y-52904990D01*
X162268465Y-52991567D01*
X162296086Y-53016026D01*
X162441329Y-53378842D01*
X162438572Y-53415893D01*
X162174315Y-53800992D01*
X162177362Y-53833981D01*
X162524511Y-54181072D01*
X162557470Y-54184118D01*
X162935751Y-53924475D01*
X162972019Y-53923227D01*
X163138847Y-54012299D01*
X163166265Y-54002202D01*
X163510252Y-53171046D01*
X163500155Y-53139973D01*
X163458405Y-53114411D01*
X163432002Y-53094189D01*
X163398168Y-53070672D01*
X163366268Y-53044723D01*
X163336436Y-53016475D01*
X163308808Y-52986062D01*
X163283517Y-52953616D01*
X163260697Y-52919272D01*
X163240484Y-52883162D01*
X163223012Y-52845420D01*
X163208415Y-52806180D01*
X163196828Y-52765575D01*
X163188384Y-52723738D01*
X163183220Y-52680803D01*
X163181469Y-52636904D01*
X163183102Y-52594477D01*
X163187922Y-52552944D01*
X163195808Y-52512425D01*
X163206638Y-52473041D01*
X163220293Y-52434911D01*
X163236651Y-52398158D01*
X163255592Y-52362901D01*
X163276995Y-52329262D01*
X163300740Y-52297360D01*
X163326705Y-52267317D01*
X163354769Y-52239253D01*
X163384813Y-52213290D01*
X163416715Y-52189547D01*
X163450355Y-52168145D01*
X163485612Y-52149205D01*
X163522364Y-52132848D01*
X163560492Y-52119195D01*
X163599875Y-52108365D01*
X163640392Y-52100480D01*
X163681922Y-52095661D01*
X163724344Y-52094028D01*
X163766767Y-52095661D01*
X163808296Y-52100480D01*
X163848812Y-52108365D01*
X163888194Y-52119195D01*
X163926320Y-52132848D01*
X163963071Y-52149205D01*
X163998326Y-52168145D01*
X164031964Y-52189547D01*
X164063864Y-52213290D01*
X164093906Y-52239253D01*
X164121969Y-52267317D01*
X164147932Y-52297360D01*
X164171674Y-52329262D01*
X164193075Y-52362901D01*
X164212014Y-52398158D01*
X164228371Y-52434911D01*
X164242024Y-52473041D01*
X164252854Y-52512425D01*
X164260739Y-52552944D01*
X164265558Y-52594477D01*
X164267191Y-52636904D01*
X164265440Y-52680803D01*
X164260277Y-52723738D01*
X164251836Y-52765575D01*
X164240251Y-52806180D01*
X164225656Y-52845420D01*
X164208186Y-52883162D01*
X164187974Y-52919272D01*
X164165156Y-52953616D01*
X164139865Y-52986062D01*
X164112235Y-53016475D01*
X164082401Y-53044723D01*
X164050497Y-53070672D01*
X164016658Y-53094189D01*
X163990313Y-53114411D01*
X163948562Y-53139973D01*
X163938466Y-53171046D01*
X164282423Y-54002231D01*
X164309841Y-54012328D01*
X164476670Y-53923256D01*
X164512937Y-53924504D01*
X164891247Y-54184147D01*
X164924178Y-54181101D01*
X165271327Y-53834010D01*
X165274374Y-53801021D01*
X165010088Y-53415922D01*
X165007360Y-53378872D01*
X165152603Y-53016055D01*
X165180195Y-52991596D01*
X165645430Y-52905019D01*
X165666581Y-52879545D01*
X165666639Y-52388662D01*
X165645546Y-52363159D01*
X165645546Y-52363159D01*
G37*
G04 #@! TD*
M02*
