G04 #@! TF.GenerationSoftware,KiCad,Pcbnew,5.0.2-bee76a0~70~ubuntu18.04.1*
G04 #@! TF.CreationDate,2020-01-17T08:49:31+02:00*
G04 #@! TF.ProjectId,nanoSense-Motion,4b656d65-742d-4424-9c45-2e6b69636164,rev?*
G04 #@! TF.SameCoordinates,Original*
G04 #@! TF.FileFunction,Soldermask,Bot*
G04 #@! TF.FilePolarity,Negative*
%FSLAX46Y46*%
G04 Gerber Fmt 4.6, Leading zero omitted, Abs format (unit mm)*
G04 Created by KiCad (PCBNEW 5.0.2-bee76a0~70~ubuntu18.04.1) date Fri 17 Jan 2020 08:49:31 AM EET*
%MOMM*%
%LPD*%
G01*
G04 APERTURE LIST*
%ADD10C,0.100000*%
G04 APERTURE END LIST*
D10*
G36*
X155068015Y-51966973D02*
X155171879Y-51998479D01*
X155267600Y-52049644D01*
X155351501Y-52118499D01*
X155420356Y-52202400D01*
X155471521Y-52298121D01*
X155475383Y-52310854D01*
X155484760Y-52333493D01*
X155498374Y-52353867D01*
X155515701Y-52371194D01*
X155536076Y-52384808D01*
X155558715Y-52394186D01*
X155582748Y-52398966D01*
X155607252Y-52398966D01*
X155631286Y-52394185D01*
X155653925Y-52384808D01*
X155674299Y-52371194D01*
X155691626Y-52353867D01*
X155705240Y-52333492D01*
X155714617Y-52310854D01*
X155718479Y-52298121D01*
X155769644Y-52202400D01*
X155838499Y-52118499D01*
X155922400Y-52049644D01*
X156018121Y-51998479D01*
X156121985Y-51966973D01*
X156202933Y-51959000D01*
X156257067Y-51959000D01*
X156338015Y-51966973D01*
X156441879Y-51998479D01*
X156537600Y-52049644D01*
X156621501Y-52118499D01*
X156690356Y-52202400D01*
X156741521Y-52298121D01*
X156745383Y-52310854D01*
X156754760Y-52333493D01*
X156768374Y-52353867D01*
X156785701Y-52371194D01*
X156806076Y-52384808D01*
X156828715Y-52394186D01*
X156852748Y-52398966D01*
X156877252Y-52398966D01*
X156901286Y-52394185D01*
X156923925Y-52384808D01*
X156944299Y-52371194D01*
X156961626Y-52353867D01*
X156975240Y-52333492D01*
X156984617Y-52310854D01*
X156988479Y-52298121D01*
X157039644Y-52202400D01*
X157108499Y-52118499D01*
X157192400Y-52049644D01*
X157288121Y-51998479D01*
X157391985Y-51966973D01*
X157472933Y-51959000D01*
X157527067Y-51959000D01*
X157608015Y-51966973D01*
X157711879Y-51998479D01*
X157807600Y-52049644D01*
X157891501Y-52118499D01*
X157960356Y-52202400D01*
X158011521Y-52298121D01*
X158015383Y-52310854D01*
X158024760Y-52333493D01*
X158038374Y-52353867D01*
X158055701Y-52371194D01*
X158076076Y-52384808D01*
X158098715Y-52394186D01*
X158122748Y-52398966D01*
X158147252Y-52398966D01*
X158171286Y-52394185D01*
X158193925Y-52384808D01*
X158214299Y-52371194D01*
X158231626Y-52353867D01*
X158245240Y-52333492D01*
X158254617Y-52310854D01*
X158258479Y-52298121D01*
X158309644Y-52202400D01*
X158378499Y-52118499D01*
X158462400Y-52049644D01*
X158558121Y-51998479D01*
X158661985Y-51966973D01*
X158742933Y-51959000D01*
X158797067Y-51959000D01*
X158878015Y-51966973D01*
X158981879Y-51998479D01*
X159077600Y-52049644D01*
X159161501Y-52118499D01*
X159230356Y-52202400D01*
X159281521Y-52298121D01*
X159285383Y-52310854D01*
X159294760Y-52333493D01*
X159308374Y-52353867D01*
X159325701Y-52371194D01*
X159346076Y-52384808D01*
X159368715Y-52394186D01*
X159392748Y-52398966D01*
X159417252Y-52398966D01*
X159441286Y-52394185D01*
X159463925Y-52384808D01*
X159484299Y-52371194D01*
X159501626Y-52353867D01*
X159515240Y-52333492D01*
X159524617Y-52310854D01*
X159528479Y-52298121D01*
X159579644Y-52202400D01*
X159648499Y-52118499D01*
X159732400Y-52049644D01*
X159828121Y-51998479D01*
X159931985Y-51966973D01*
X160012933Y-51959000D01*
X160067067Y-51959000D01*
X160148015Y-51966973D01*
X160251879Y-51998479D01*
X160347600Y-52049644D01*
X160431501Y-52118499D01*
X160500356Y-52202400D01*
X160551521Y-52298121D01*
X160583027Y-52401985D01*
X160593666Y-52510000D01*
X160583027Y-52618015D01*
X160551521Y-52721879D01*
X160500356Y-52817600D01*
X160431501Y-52901501D01*
X160347600Y-52970356D01*
X160251879Y-53021521D01*
X160239142Y-53025385D01*
X160216507Y-53034760D01*
X160196133Y-53048374D01*
X160178806Y-53065701D01*
X160165192Y-53086076D01*
X160155814Y-53108715D01*
X160151034Y-53132748D01*
X160151034Y-53157252D01*
X160155815Y-53181286D01*
X160165192Y-53203925D01*
X160178806Y-53224299D01*
X160196133Y-53241626D01*
X160216508Y-53255240D01*
X160239142Y-53264615D01*
X160251879Y-53268479D01*
X160347600Y-53319644D01*
X160431501Y-53388499D01*
X160500356Y-53472400D01*
X160551521Y-53568121D01*
X160583027Y-53671985D01*
X160593666Y-53780000D01*
X160583027Y-53888015D01*
X160551521Y-53991879D01*
X160500356Y-54087600D01*
X160431501Y-54171501D01*
X160347600Y-54240356D01*
X160251879Y-54291521D01*
X160148015Y-54323027D01*
X160067067Y-54331000D01*
X160012933Y-54331000D01*
X159931985Y-54323027D01*
X159828121Y-54291521D01*
X159732400Y-54240356D01*
X159648499Y-54171501D01*
X159579644Y-54087600D01*
X159528479Y-53991879D01*
X159524615Y-53979142D01*
X159515240Y-53956507D01*
X159501626Y-53936133D01*
X159484299Y-53918806D01*
X159463924Y-53905192D01*
X159441285Y-53895814D01*
X159417252Y-53891034D01*
X159392748Y-53891034D01*
X159368714Y-53895815D01*
X159346075Y-53905192D01*
X159325701Y-53918806D01*
X159308374Y-53936133D01*
X159294760Y-53956508D01*
X159285385Y-53979142D01*
X159281521Y-53991879D01*
X159230356Y-54087600D01*
X159161501Y-54171501D01*
X159077600Y-54240356D01*
X158981879Y-54291521D01*
X158878015Y-54323027D01*
X158797067Y-54331000D01*
X158742933Y-54331000D01*
X158661985Y-54323027D01*
X158558121Y-54291521D01*
X158462400Y-54240356D01*
X158378499Y-54171501D01*
X158309644Y-54087600D01*
X158258479Y-53991879D01*
X158254615Y-53979142D01*
X158245240Y-53956507D01*
X158231626Y-53936133D01*
X158214299Y-53918806D01*
X158193924Y-53905192D01*
X158171285Y-53895814D01*
X158147252Y-53891034D01*
X158122748Y-53891034D01*
X158098714Y-53895815D01*
X158076075Y-53905192D01*
X158055701Y-53918806D01*
X158038374Y-53936133D01*
X158024760Y-53956508D01*
X158015385Y-53979142D01*
X158011521Y-53991879D01*
X157960356Y-54087600D01*
X157891501Y-54171501D01*
X157807600Y-54240356D01*
X157711879Y-54291521D01*
X157608015Y-54323027D01*
X157527067Y-54331000D01*
X157472933Y-54331000D01*
X157391985Y-54323027D01*
X157288121Y-54291521D01*
X157192400Y-54240356D01*
X157108499Y-54171501D01*
X157039644Y-54087600D01*
X156988479Y-53991879D01*
X156984615Y-53979142D01*
X156975240Y-53956507D01*
X156961626Y-53936133D01*
X156944299Y-53918806D01*
X156923924Y-53905192D01*
X156901285Y-53895814D01*
X156877252Y-53891034D01*
X156852748Y-53891034D01*
X156828714Y-53895815D01*
X156806075Y-53905192D01*
X156785701Y-53918806D01*
X156768374Y-53936133D01*
X156754760Y-53956508D01*
X156745385Y-53979142D01*
X156741521Y-53991879D01*
X156690356Y-54087600D01*
X156621501Y-54171501D01*
X156537600Y-54240356D01*
X156441879Y-54291521D01*
X156338015Y-54323027D01*
X156257067Y-54331000D01*
X156202933Y-54331000D01*
X156121985Y-54323027D01*
X156018121Y-54291521D01*
X155922400Y-54240356D01*
X155838499Y-54171501D01*
X155769644Y-54087600D01*
X155746234Y-54043805D01*
X155732626Y-54023439D01*
X155715299Y-54006111D01*
X155694924Y-53992498D01*
X155672285Y-53983120D01*
X155648252Y-53978340D01*
X155623748Y-53978340D01*
X155599714Y-53983121D01*
X155577075Y-53992498D01*
X155556701Y-54006112D01*
X155539373Y-54023439D01*
X155525760Y-54043814D01*
X155516382Y-54066453D01*
X155511000Y-54102738D01*
X155511000Y-54331000D01*
X154409000Y-54331000D01*
X154409000Y-53229000D01*
X154637262Y-53229000D01*
X154661648Y-53226598D01*
X154685097Y-53219485D01*
X154706708Y-53207934D01*
X154725650Y-53192388D01*
X154741196Y-53173446D01*
X154752747Y-53151835D01*
X154759860Y-53128386D01*
X154762262Y-53104000D01*
X154761056Y-53091748D01*
X155158340Y-53091748D01*
X155158340Y-53116252D01*
X155163121Y-53140286D01*
X155172498Y-53162925D01*
X155186112Y-53183299D01*
X155203439Y-53200627D01*
X155223814Y-53214240D01*
X155246453Y-53223618D01*
X155282738Y-53229000D01*
X155511000Y-53229000D01*
X155511000Y-53457262D01*
X155513402Y-53481648D01*
X155520515Y-53505097D01*
X155532066Y-53526708D01*
X155547612Y-53545650D01*
X155566554Y-53561196D01*
X155588165Y-53572747D01*
X155611614Y-53579860D01*
X155636000Y-53582262D01*
X155660386Y-53579860D01*
X155683835Y-53572747D01*
X155705446Y-53561196D01*
X155724388Y-53545650D01*
X155746236Y-53516192D01*
X155769644Y-53472400D01*
X155838499Y-53388499D01*
X155922400Y-53319644D01*
X156018121Y-53268479D01*
X156030858Y-53264615D01*
X156053493Y-53255240D01*
X156073867Y-53241626D01*
X156091194Y-53224299D01*
X156104808Y-53203924D01*
X156114186Y-53181285D01*
X156118966Y-53157252D01*
X156118966Y-53132748D01*
X156341034Y-53132748D01*
X156341034Y-53157252D01*
X156345815Y-53181286D01*
X156355192Y-53203925D01*
X156368806Y-53224299D01*
X156386133Y-53241626D01*
X156406508Y-53255240D01*
X156429142Y-53264615D01*
X156441879Y-53268479D01*
X156537600Y-53319644D01*
X156621501Y-53388499D01*
X156690356Y-53472400D01*
X156741521Y-53568121D01*
X156745383Y-53580854D01*
X156754760Y-53603493D01*
X156768374Y-53623867D01*
X156785701Y-53641194D01*
X156806076Y-53654808D01*
X156828715Y-53664186D01*
X156852748Y-53668966D01*
X156877252Y-53668966D01*
X156901286Y-53664185D01*
X156923925Y-53654808D01*
X156944299Y-53641194D01*
X156961626Y-53623867D01*
X156975240Y-53603492D01*
X156984617Y-53580854D01*
X156988479Y-53568121D01*
X157039644Y-53472400D01*
X157108499Y-53388499D01*
X157192400Y-53319644D01*
X157288121Y-53268479D01*
X157300858Y-53264615D01*
X157323493Y-53255240D01*
X157343867Y-53241626D01*
X157361194Y-53224299D01*
X157374808Y-53203924D01*
X157384186Y-53181285D01*
X157388966Y-53157252D01*
X157388966Y-53132748D01*
X157611034Y-53132748D01*
X157611034Y-53157252D01*
X157615815Y-53181286D01*
X157625192Y-53203925D01*
X157638806Y-53224299D01*
X157656133Y-53241626D01*
X157676508Y-53255240D01*
X157699142Y-53264615D01*
X157711879Y-53268479D01*
X157807600Y-53319644D01*
X157891501Y-53388499D01*
X157960356Y-53472400D01*
X158011521Y-53568121D01*
X158015383Y-53580854D01*
X158024760Y-53603493D01*
X158038374Y-53623867D01*
X158055701Y-53641194D01*
X158076076Y-53654808D01*
X158098715Y-53664186D01*
X158122748Y-53668966D01*
X158147252Y-53668966D01*
X158171286Y-53664185D01*
X158193925Y-53654808D01*
X158214299Y-53641194D01*
X158231626Y-53623867D01*
X158245240Y-53603492D01*
X158254617Y-53580854D01*
X158258479Y-53568121D01*
X158309644Y-53472400D01*
X158378499Y-53388499D01*
X158462400Y-53319644D01*
X158558121Y-53268479D01*
X158570858Y-53264615D01*
X158593493Y-53255240D01*
X158613867Y-53241626D01*
X158631194Y-53224299D01*
X158644808Y-53203924D01*
X158654186Y-53181285D01*
X158658966Y-53157252D01*
X158658966Y-53132748D01*
X158881034Y-53132748D01*
X158881034Y-53157252D01*
X158885815Y-53181286D01*
X158895192Y-53203925D01*
X158908806Y-53224299D01*
X158926133Y-53241626D01*
X158946508Y-53255240D01*
X158969142Y-53264615D01*
X158981879Y-53268479D01*
X159077600Y-53319644D01*
X159161501Y-53388499D01*
X159230356Y-53472400D01*
X159281521Y-53568121D01*
X159285383Y-53580854D01*
X159294760Y-53603493D01*
X159308374Y-53623867D01*
X159325701Y-53641194D01*
X159346076Y-53654808D01*
X159368715Y-53664186D01*
X159392748Y-53668966D01*
X159417252Y-53668966D01*
X159441286Y-53664185D01*
X159463925Y-53654808D01*
X159484299Y-53641194D01*
X159501626Y-53623867D01*
X159515240Y-53603492D01*
X159524617Y-53580854D01*
X159528479Y-53568121D01*
X159579644Y-53472400D01*
X159648499Y-53388499D01*
X159732400Y-53319644D01*
X159828121Y-53268479D01*
X159840858Y-53264615D01*
X159863493Y-53255240D01*
X159883867Y-53241626D01*
X159901194Y-53224299D01*
X159914808Y-53203924D01*
X159924186Y-53181285D01*
X159928966Y-53157252D01*
X159928966Y-53132748D01*
X159924185Y-53108714D01*
X159914808Y-53086075D01*
X159901194Y-53065701D01*
X159883867Y-53048374D01*
X159863492Y-53034760D01*
X159840858Y-53025385D01*
X159828121Y-53021521D01*
X159732400Y-52970356D01*
X159648499Y-52901501D01*
X159579644Y-52817600D01*
X159528479Y-52721879D01*
X159524615Y-52709142D01*
X159515240Y-52686507D01*
X159501626Y-52666133D01*
X159484299Y-52648806D01*
X159463924Y-52635192D01*
X159441285Y-52625814D01*
X159417252Y-52621034D01*
X159392748Y-52621034D01*
X159368714Y-52625815D01*
X159346075Y-52635192D01*
X159325701Y-52648806D01*
X159308374Y-52666133D01*
X159294760Y-52686508D01*
X159285385Y-52709142D01*
X159281521Y-52721879D01*
X159230356Y-52817600D01*
X159161501Y-52901501D01*
X159077600Y-52970356D01*
X158981879Y-53021521D01*
X158969142Y-53025385D01*
X158946507Y-53034760D01*
X158926133Y-53048374D01*
X158908806Y-53065701D01*
X158895192Y-53086076D01*
X158885814Y-53108715D01*
X158881034Y-53132748D01*
X158658966Y-53132748D01*
X158654185Y-53108714D01*
X158644808Y-53086075D01*
X158631194Y-53065701D01*
X158613867Y-53048374D01*
X158593492Y-53034760D01*
X158570858Y-53025385D01*
X158558121Y-53021521D01*
X158462400Y-52970356D01*
X158378499Y-52901501D01*
X158309644Y-52817600D01*
X158258479Y-52721879D01*
X158254615Y-52709142D01*
X158245240Y-52686507D01*
X158231626Y-52666133D01*
X158214299Y-52648806D01*
X158193924Y-52635192D01*
X158171285Y-52625814D01*
X158147252Y-52621034D01*
X158122748Y-52621034D01*
X158098714Y-52625815D01*
X158076075Y-52635192D01*
X158055701Y-52648806D01*
X158038374Y-52666133D01*
X158024760Y-52686508D01*
X158015385Y-52709142D01*
X158011521Y-52721879D01*
X157960356Y-52817600D01*
X157891501Y-52901501D01*
X157807600Y-52970356D01*
X157711879Y-53021521D01*
X157699142Y-53025385D01*
X157676507Y-53034760D01*
X157656133Y-53048374D01*
X157638806Y-53065701D01*
X157625192Y-53086076D01*
X157615814Y-53108715D01*
X157611034Y-53132748D01*
X157388966Y-53132748D01*
X157384185Y-53108714D01*
X157374808Y-53086075D01*
X157361194Y-53065701D01*
X157343867Y-53048374D01*
X157323492Y-53034760D01*
X157300858Y-53025385D01*
X157288121Y-53021521D01*
X157192400Y-52970356D01*
X157108499Y-52901501D01*
X157039644Y-52817600D01*
X156988479Y-52721879D01*
X156984615Y-52709142D01*
X156975240Y-52686507D01*
X156961626Y-52666133D01*
X156944299Y-52648806D01*
X156923924Y-52635192D01*
X156901285Y-52625814D01*
X156877252Y-52621034D01*
X156852748Y-52621034D01*
X156828714Y-52625815D01*
X156806075Y-52635192D01*
X156785701Y-52648806D01*
X156768374Y-52666133D01*
X156754760Y-52686508D01*
X156745385Y-52709142D01*
X156741521Y-52721879D01*
X156690356Y-52817600D01*
X156621501Y-52901501D01*
X156537600Y-52970356D01*
X156441879Y-53021521D01*
X156429142Y-53025385D01*
X156406507Y-53034760D01*
X156386133Y-53048374D01*
X156368806Y-53065701D01*
X156355192Y-53086076D01*
X156345814Y-53108715D01*
X156341034Y-53132748D01*
X156118966Y-53132748D01*
X156114185Y-53108714D01*
X156104808Y-53086075D01*
X156091194Y-53065701D01*
X156073867Y-53048374D01*
X156053492Y-53034760D01*
X156030858Y-53025385D01*
X156018121Y-53021521D01*
X155922400Y-52970356D01*
X155838499Y-52901501D01*
X155769644Y-52817600D01*
X155718479Y-52721879D01*
X155714615Y-52709142D01*
X155705240Y-52686507D01*
X155691626Y-52666133D01*
X155674299Y-52648806D01*
X155653924Y-52635192D01*
X155631285Y-52625814D01*
X155607252Y-52621034D01*
X155582748Y-52621034D01*
X155558714Y-52625815D01*
X155536075Y-52635192D01*
X155515701Y-52648806D01*
X155498374Y-52666133D01*
X155484760Y-52686508D01*
X155475385Y-52709142D01*
X155471521Y-52721879D01*
X155420356Y-52817600D01*
X155351501Y-52901501D01*
X155267600Y-52970356D01*
X155223805Y-52993766D01*
X155203439Y-53007374D01*
X155186111Y-53024701D01*
X155172498Y-53045076D01*
X155163120Y-53067715D01*
X155158340Y-53091748D01*
X154761056Y-53091748D01*
X154759860Y-53079614D01*
X154752747Y-53056165D01*
X154741196Y-53034554D01*
X154725650Y-53015612D01*
X154696192Y-52993764D01*
X154652400Y-52970356D01*
X154568499Y-52901501D01*
X154499644Y-52817600D01*
X154448479Y-52721879D01*
X154416973Y-52618015D01*
X154406334Y-52510000D01*
X154416973Y-52401985D01*
X154448479Y-52298121D01*
X154499644Y-52202400D01*
X154568499Y-52118499D01*
X154652400Y-52049644D01*
X154748121Y-51998479D01*
X154851985Y-51966973D01*
X154932933Y-51959000D01*
X154987067Y-51959000D01*
X155068015Y-51966973D01*
X155068015Y-51966973D01*
G37*
G36*
X144759466Y-50053565D02*
X144798137Y-50065296D01*
X144833779Y-50084348D01*
X144865017Y-50109983D01*
X144890652Y-50141221D01*
X144909704Y-50176863D01*
X144921435Y-50215534D01*
X144926000Y-50261888D01*
X144926000Y-51338112D01*
X144921435Y-51384466D01*
X144909704Y-51423137D01*
X144890652Y-51458779D01*
X144865017Y-51490017D01*
X144833779Y-51515652D01*
X144798137Y-51534704D01*
X144759466Y-51546435D01*
X144713112Y-51551000D01*
X144061888Y-51551000D01*
X144015534Y-51546435D01*
X143976863Y-51534704D01*
X143941221Y-51515652D01*
X143909983Y-51490017D01*
X143884348Y-51458779D01*
X143865296Y-51423137D01*
X143853565Y-51384466D01*
X143849000Y-51338112D01*
X143849000Y-50261888D01*
X143853565Y-50215534D01*
X143865296Y-50176863D01*
X143884348Y-50141221D01*
X143909983Y-50109983D01*
X143941221Y-50084348D01*
X143976863Y-50065296D01*
X144015534Y-50053565D01*
X144061888Y-50049000D01*
X144713112Y-50049000D01*
X144759466Y-50053565D01*
X144759466Y-50053565D01*
G37*
G36*
X142884466Y-50053565D02*
X142923137Y-50065296D01*
X142958779Y-50084348D01*
X142990017Y-50109983D01*
X143015652Y-50141221D01*
X143034704Y-50176863D01*
X143046435Y-50215534D01*
X143051000Y-50261888D01*
X143051000Y-51338112D01*
X143046435Y-51384466D01*
X143034704Y-51423137D01*
X143015652Y-51458779D01*
X142990017Y-51490017D01*
X142958779Y-51515652D01*
X142923137Y-51534704D01*
X142884466Y-51546435D01*
X142838112Y-51551000D01*
X142186888Y-51551000D01*
X142140534Y-51546435D01*
X142101863Y-51534704D01*
X142066221Y-51515652D01*
X142034983Y-51490017D01*
X142009348Y-51458779D01*
X141990296Y-51423137D01*
X141978565Y-51384466D01*
X141974000Y-51338112D01*
X141974000Y-50261888D01*
X141978565Y-50215534D01*
X141990296Y-50176863D01*
X142009348Y-50141221D01*
X142034983Y-50109983D01*
X142066221Y-50084348D01*
X142101863Y-50065296D01*
X142140534Y-50053565D01*
X142186888Y-50049000D01*
X142838112Y-50049000D01*
X142884466Y-50053565D01*
X142884466Y-50053565D01*
G37*
G36*
X144768093Y-48002572D02*
X144806764Y-48014303D01*
X144842406Y-48033355D01*
X144873644Y-48058990D01*
X144899279Y-48090228D01*
X144918331Y-48125870D01*
X144930062Y-48164541D01*
X144934627Y-48210895D01*
X144934627Y-49287119D01*
X144930062Y-49333473D01*
X144918331Y-49372144D01*
X144899279Y-49407786D01*
X144873644Y-49439024D01*
X144842406Y-49464659D01*
X144806764Y-49483711D01*
X144768093Y-49495442D01*
X144721739Y-49500007D01*
X144070515Y-49500007D01*
X144024161Y-49495442D01*
X143985490Y-49483711D01*
X143949848Y-49464659D01*
X143918610Y-49439024D01*
X143892975Y-49407786D01*
X143873923Y-49372144D01*
X143862192Y-49333473D01*
X143857627Y-49287119D01*
X143857627Y-48210895D01*
X143862192Y-48164541D01*
X143873923Y-48125870D01*
X143892975Y-48090228D01*
X143918610Y-48058990D01*
X143949848Y-48033355D01*
X143985490Y-48014303D01*
X144024161Y-48002572D01*
X144070515Y-47998007D01*
X144721739Y-47998007D01*
X144768093Y-48002572D01*
X144768093Y-48002572D01*
G37*
G36*
X142893093Y-48002572D02*
X142931764Y-48014303D01*
X142967406Y-48033355D01*
X142998644Y-48058990D01*
X143024279Y-48090228D01*
X143043331Y-48125870D01*
X143055062Y-48164541D01*
X143059627Y-48210895D01*
X143059627Y-49287119D01*
X143055062Y-49333473D01*
X143043331Y-49372144D01*
X143024279Y-49407786D01*
X142998644Y-49439024D01*
X142967406Y-49464659D01*
X142931764Y-49483711D01*
X142893093Y-49495442D01*
X142846739Y-49500007D01*
X142195515Y-49500007D01*
X142149161Y-49495442D01*
X142110490Y-49483711D01*
X142074848Y-49464659D01*
X142043610Y-49439024D01*
X142017975Y-49407786D01*
X141998923Y-49372144D01*
X141987192Y-49333473D01*
X141982627Y-49287119D01*
X141982627Y-48210895D01*
X141987192Y-48164541D01*
X141998923Y-48125870D01*
X142017975Y-48090228D01*
X142043610Y-48058990D01*
X142074848Y-48033355D01*
X142110490Y-48014303D01*
X142149161Y-48002572D01*
X142195515Y-47998007D01*
X142846739Y-47998007D01*
X142893093Y-48002572D01*
X142893093Y-48002572D01*
G37*
G36*
X143751000Y-45426000D02*
X141049000Y-45426000D01*
X141049000Y-41724000D01*
X143751000Y-41724000D01*
X143751000Y-45426000D01*
X143751000Y-45426000D01*
G37*
G36*
X173051000Y-45426000D02*
X170349000Y-45426000D01*
X170349000Y-41724000D01*
X173051000Y-41724000D01*
X173051000Y-45426000D01*
X173051000Y-45426000D01*
G37*
G36*
X144909280Y-37577439D02*
X144947951Y-37589170D01*
X144983593Y-37608222D01*
X145014831Y-37633857D01*
X145040466Y-37665095D01*
X145059518Y-37700737D01*
X145071249Y-37739408D01*
X145075814Y-37785762D01*
X145075814Y-38861986D01*
X145071249Y-38908340D01*
X145059518Y-38947011D01*
X145040466Y-38982653D01*
X145014831Y-39013891D01*
X144983593Y-39039526D01*
X144947951Y-39058578D01*
X144909280Y-39070309D01*
X144862926Y-39074874D01*
X144211702Y-39074874D01*
X144165348Y-39070309D01*
X144126677Y-39058578D01*
X144091035Y-39039526D01*
X144059797Y-39013891D01*
X144034162Y-38982653D01*
X144015110Y-38947011D01*
X144003379Y-38908340D01*
X143998814Y-38861986D01*
X143998814Y-37785762D01*
X144003379Y-37739408D01*
X144015110Y-37700737D01*
X144034162Y-37665095D01*
X144059797Y-37633857D01*
X144091035Y-37608222D01*
X144126677Y-37589170D01*
X144165348Y-37577439D01*
X144211702Y-37572874D01*
X144862926Y-37572874D01*
X144909280Y-37577439D01*
X144909280Y-37577439D01*
G37*
G36*
X143034280Y-37577439D02*
X143072951Y-37589170D01*
X143108593Y-37608222D01*
X143139831Y-37633857D01*
X143165466Y-37665095D01*
X143184518Y-37700737D01*
X143196249Y-37739408D01*
X143200814Y-37785762D01*
X143200814Y-38861986D01*
X143196249Y-38908340D01*
X143184518Y-38947011D01*
X143165466Y-38982653D01*
X143139831Y-39013891D01*
X143108593Y-39039526D01*
X143072951Y-39058578D01*
X143034280Y-39070309D01*
X142987926Y-39074874D01*
X142336702Y-39074874D01*
X142290348Y-39070309D01*
X142251677Y-39058578D01*
X142216035Y-39039526D01*
X142184797Y-39013891D01*
X142159162Y-38982653D01*
X142140110Y-38947011D01*
X142128379Y-38908340D01*
X142123814Y-38861986D01*
X142123814Y-37785762D01*
X142128379Y-37739408D01*
X142140110Y-37700737D01*
X142159162Y-37665095D01*
X142184797Y-37633857D01*
X142216035Y-37608222D01*
X142251677Y-37589170D01*
X142290348Y-37577439D01*
X142336702Y-37572874D01*
X142987926Y-37572874D01*
X143034280Y-37577439D01*
X143034280Y-37577439D01*
G37*
G36*
X170804466Y-37653565D02*
X170843137Y-37665296D01*
X170878779Y-37684348D01*
X170910017Y-37709983D01*
X170935652Y-37741221D01*
X170954704Y-37776863D01*
X170966435Y-37815534D01*
X170971000Y-37861888D01*
X170971000Y-38513112D01*
X170966435Y-38559466D01*
X170954704Y-38598137D01*
X170935652Y-38633779D01*
X170910017Y-38665017D01*
X170878779Y-38690652D01*
X170843137Y-38709704D01*
X170804466Y-38721435D01*
X170758112Y-38726000D01*
X169681888Y-38726000D01*
X169635534Y-38721435D01*
X169596863Y-38709704D01*
X169561221Y-38690652D01*
X169529983Y-38665017D01*
X169504348Y-38633779D01*
X169485296Y-38598137D01*
X169473565Y-38559466D01*
X169469000Y-38513112D01*
X169469000Y-37861888D01*
X169473565Y-37815534D01*
X169485296Y-37776863D01*
X169504348Y-37741221D01*
X169529983Y-37709983D01*
X169561221Y-37684348D01*
X169596863Y-37665296D01*
X169635534Y-37653565D01*
X169681888Y-37649000D01*
X170758112Y-37649000D01*
X170804466Y-37653565D01*
X170804466Y-37653565D01*
G37*
G36*
X143034466Y-35593565D02*
X143073137Y-35605296D01*
X143108779Y-35624348D01*
X143140017Y-35649983D01*
X143165652Y-35681221D01*
X143184704Y-35716863D01*
X143196435Y-35755534D01*
X143201000Y-35801888D01*
X143201000Y-36878112D01*
X143196435Y-36924466D01*
X143184704Y-36963137D01*
X143165652Y-36998779D01*
X143140017Y-37030017D01*
X143108779Y-37055652D01*
X143073137Y-37074704D01*
X143034466Y-37086435D01*
X142988112Y-37091000D01*
X142336888Y-37091000D01*
X142290534Y-37086435D01*
X142251863Y-37074704D01*
X142216221Y-37055652D01*
X142184983Y-37030017D01*
X142159348Y-36998779D01*
X142140296Y-36963137D01*
X142128565Y-36924466D01*
X142124000Y-36878112D01*
X142124000Y-35801888D01*
X142128565Y-35755534D01*
X142140296Y-35716863D01*
X142159348Y-35681221D01*
X142184983Y-35649983D01*
X142216221Y-35624348D01*
X142251863Y-35605296D01*
X142290534Y-35593565D01*
X142336888Y-35589000D01*
X142988112Y-35589000D01*
X143034466Y-35593565D01*
X143034466Y-35593565D01*
G37*
G36*
X144909466Y-35593565D02*
X144948137Y-35605296D01*
X144983779Y-35624348D01*
X145015017Y-35649983D01*
X145040652Y-35681221D01*
X145059704Y-35716863D01*
X145071435Y-35755534D01*
X145076000Y-35801888D01*
X145076000Y-36878112D01*
X145071435Y-36924466D01*
X145059704Y-36963137D01*
X145040652Y-36998779D01*
X145015017Y-37030017D01*
X144983779Y-37055652D01*
X144948137Y-37074704D01*
X144909466Y-37086435D01*
X144863112Y-37091000D01*
X144211888Y-37091000D01*
X144165534Y-37086435D01*
X144126863Y-37074704D01*
X144091221Y-37055652D01*
X144059983Y-37030017D01*
X144034348Y-36998779D01*
X144015296Y-36963137D01*
X144003565Y-36924466D01*
X143999000Y-36878112D01*
X143999000Y-35801888D01*
X144003565Y-35755534D01*
X144015296Y-35716863D01*
X144034348Y-35681221D01*
X144059983Y-35649983D01*
X144091221Y-35624348D01*
X144126863Y-35605296D01*
X144165534Y-35593565D01*
X144211888Y-35589000D01*
X144863112Y-35589000D01*
X144909466Y-35593565D01*
X144909466Y-35593565D01*
G37*
G36*
X170804466Y-35778565D02*
X170843137Y-35790296D01*
X170878779Y-35809348D01*
X170910017Y-35834983D01*
X170935652Y-35866221D01*
X170954704Y-35901863D01*
X170966435Y-35940534D01*
X170971000Y-35986888D01*
X170971000Y-36638112D01*
X170966435Y-36684466D01*
X170954704Y-36723137D01*
X170935652Y-36758779D01*
X170910017Y-36790017D01*
X170878779Y-36815652D01*
X170843137Y-36834704D01*
X170804466Y-36846435D01*
X170758112Y-36851000D01*
X169681888Y-36851000D01*
X169635534Y-36846435D01*
X169596863Y-36834704D01*
X169561221Y-36815652D01*
X169529983Y-36790017D01*
X169504348Y-36758779D01*
X169485296Y-36723137D01*
X169473565Y-36684466D01*
X169469000Y-36638112D01*
X169469000Y-35986888D01*
X169473565Y-35940534D01*
X169485296Y-35901863D01*
X169504348Y-35866221D01*
X169529983Y-35834983D01*
X169561221Y-35809348D01*
X169596863Y-35790296D01*
X169635534Y-35778565D01*
X169681888Y-35774000D01*
X170758112Y-35774000D01*
X170804466Y-35778565D01*
X170804466Y-35778565D01*
G37*
M02*
