G04 #@! TF.GenerationSoftware,KiCad,Pcbnew,5.0.2-bee76a0~70~ubuntu18.04.1*
G04 #@! TF.CreationDate,2020-01-17T08:49:31+02:00*
G04 #@! TF.ProjectId,nanoSense-Motion,4b656d65-742d-4424-9c45-2e6b69636164,rev?*
G04 #@! TF.SameCoordinates,Original*
G04 #@! TF.FileFunction,Paste,Top*
G04 #@! TF.FilePolarity,Positive*
%FSLAX46Y46*%
G04 Gerber Fmt 4.6, Leading zero omitted, Abs format (unit mm)*
G04 Created by KiCad (PCBNEW 5.0.2-bee76a0~70~ubuntu18.04.1) date Fri 17 Jan 2020 08:49:31 AM EET*
%MOMM*%
%LPD*%
G01*
G04 APERTURE LIST*
%ADD10R,0.850000X0.200000*%
%ADD11R,0.200000X0.850000*%
%ADD12R,4.600000X4.600000*%
%ADD13R,1.100000X0.900000*%
%ADD14R,1.400000X0.900000*%
%ADD15R,0.580000X1.310000*%
%ADD16R,0.400000X1.050000*%
%ADD17R,1.600000X0.800000*%
%ADD18R,0.650000X0.800000*%
%ADD19R,0.300000X0.580000*%
%ADD20R,0.250000X0.580000*%
%ADD21R,0.630000X0.350000*%
%ADD22R,1.475000X1.050000*%
%ADD23C,0.100000*%
%ADD24C,0.975000*%
%ADD25R,0.900000X0.800000*%
%ADD26R,0.800000X1.500000*%
G04 APERTURE END LIST*
D10*
G04 #@! TO.C,IC2*
X162477322Y-45605278D03*
X162477322Y-45205278D03*
X162477322Y-44805278D03*
X162477322Y-44405278D03*
X162477322Y-44005278D03*
X162477322Y-43605278D03*
X162477322Y-43205278D03*
X162477322Y-42805278D03*
X162477322Y-42405278D03*
X162477322Y-42005278D03*
X162477322Y-41605278D03*
X162477322Y-41205278D03*
D11*
X161727322Y-40455278D03*
X161327322Y-40455278D03*
X160927322Y-40455278D03*
X160527322Y-40455278D03*
X160127322Y-40455278D03*
X159727322Y-40455278D03*
X159327322Y-40455278D03*
X158927322Y-40455278D03*
X158527322Y-40455278D03*
X158127322Y-40455278D03*
X157727322Y-40455278D03*
X157327322Y-40455278D03*
D10*
X156577322Y-41205278D03*
X156577322Y-41605278D03*
X156577322Y-42005278D03*
X156577322Y-42405278D03*
X156577322Y-42805278D03*
X156577322Y-43205278D03*
X156577322Y-43605278D03*
X156577322Y-44005278D03*
X156577322Y-44405278D03*
X156577322Y-44805278D03*
X156577322Y-45205278D03*
X156577322Y-45605278D03*
D11*
X157327322Y-46355278D03*
X157727322Y-46355278D03*
X158127322Y-46355278D03*
X158527322Y-46355278D03*
X158927322Y-46355278D03*
X159327322Y-46355278D03*
X159727322Y-46355278D03*
X160127322Y-46355278D03*
X160527322Y-46355278D03*
X160927322Y-46355278D03*
X161327322Y-46355278D03*
X161727322Y-46355278D03*
D12*
X159527322Y-43405278D03*
G04 #@! TD*
D13*
G04 #@! TO.C,RV1*
X147000000Y-52360000D03*
D14*
X148150000Y-49060000D03*
D13*
X149300000Y-52360000D03*
G04 #@! TD*
D15*
G04 #@! TO.C,U1*
X149140000Y-47195000D03*
X150090000Y-47195000D03*
X151040000Y-47195000D03*
X151040000Y-44785000D03*
X149140000Y-44785000D03*
G04 #@! TD*
D16*
G04 #@! TO.C,IC4*
X152560000Y-38920000D03*
X153210000Y-38920000D03*
X153860000Y-38920000D03*
X153860000Y-37020000D03*
X153210000Y-37020000D03*
X152560000Y-37020000D03*
G04 #@! TD*
D17*
G04 #@! TO.C,AE1*
X172000000Y-51550000D03*
D18*
X171525000Y-48350000D03*
X172475000Y-48350000D03*
G04 #@! TD*
D19*
G04 #@! TO.C,IC3*
X152920000Y-41950000D03*
D20*
X153420000Y-41950000D03*
X153920000Y-41950000D03*
D19*
X154420000Y-41950000D03*
D21*
X154530000Y-41310000D03*
D19*
X154420000Y-40670000D03*
D20*
X153920000Y-40670000D03*
X153420000Y-40670000D03*
D19*
X152920000Y-40670000D03*
D21*
X152810000Y-41310000D03*
G04 #@! TD*
D22*
G04 #@! TO.C,IC1*
X144187000Y-36775000D03*
X144187000Y-39025000D03*
X147413000Y-39025000D03*
X147413000Y-36775000D03*
G04 #@! TD*
D23*
G04 #@! TO.C,C2*
G36*
X166660142Y-46953674D02*
X166683803Y-46957184D01*
X166707007Y-46962996D01*
X166729529Y-46971054D01*
X166751153Y-46981282D01*
X166771670Y-46993579D01*
X166790883Y-47007829D01*
X166808607Y-47023893D01*
X166824671Y-47041617D01*
X166838921Y-47060830D01*
X166851218Y-47081347D01*
X166861446Y-47102971D01*
X166869504Y-47125493D01*
X166875316Y-47148697D01*
X166878826Y-47172358D01*
X166880000Y-47196250D01*
X166880000Y-47683750D01*
X166878826Y-47707642D01*
X166875316Y-47731303D01*
X166869504Y-47754507D01*
X166861446Y-47777029D01*
X166851218Y-47798653D01*
X166838921Y-47819170D01*
X166824671Y-47838383D01*
X166808607Y-47856107D01*
X166790883Y-47872171D01*
X166771670Y-47886421D01*
X166751153Y-47898718D01*
X166729529Y-47908946D01*
X166707007Y-47917004D01*
X166683803Y-47922816D01*
X166660142Y-47926326D01*
X166636250Y-47927500D01*
X165723750Y-47927500D01*
X165699858Y-47926326D01*
X165676197Y-47922816D01*
X165652993Y-47917004D01*
X165630471Y-47908946D01*
X165608847Y-47898718D01*
X165588330Y-47886421D01*
X165569117Y-47872171D01*
X165551393Y-47856107D01*
X165535329Y-47838383D01*
X165521079Y-47819170D01*
X165508782Y-47798653D01*
X165498554Y-47777029D01*
X165490496Y-47754507D01*
X165484684Y-47731303D01*
X165481174Y-47707642D01*
X165480000Y-47683750D01*
X165480000Y-47196250D01*
X165481174Y-47172358D01*
X165484684Y-47148697D01*
X165490496Y-47125493D01*
X165498554Y-47102971D01*
X165508782Y-47081347D01*
X165521079Y-47060830D01*
X165535329Y-47041617D01*
X165551393Y-47023893D01*
X165569117Y-47007829D01*
X165588330Y-46993579D01*
X165608847Y-46981282D01*
X165630471Y-46971054D01*
X165652993Y-46962996D01*
X165676197Y-46957184D01*
X165699858Y-46953674D01*
X165723750Y-46952500D01*
X166636250Y-46952500D01*
X166660142Y-46953674D01*
X166660142Y-46953674D01*
G37*
D24*
X166180000Y-47440000D03*
D23*
G36*
X166660142Y-48828674D02*
X166683803Y-48832184D01*
X166707007Y-48837996D01*
X166729529Y-48846054D01*
X166751153Y-48856282D01*
X166771670Y-48868579D01*
X166790883Y-48882829D01*
X166808607Y-48898893D01*
X166824671Y-48916617D01*
X166838921Y-48935830D01*
X166851218Y-48956347D01*
X166861446Y-48977971D01*
X166869504Y-49000493D01*
X166875316Y-49023697D01*
X166878826Y-49047358D01*
X166880000Y-49071250D01*
X166880000Y-49558750D01*
X166878826Y-49582642D01*
X166875316Y-49606303D01*
X166869504Y-49629507D01*
X166861446Y-49652029D01*
X166851218Y-49673653D01*
X166838921Y-49694170D01*
X166824671Y-49713383D01*
X166808607Y-49731107D01*
X166790883Y-49747171D01*
X166771670Y-49761421D01*
X166751153Y-49773718D01*
X166729529Y-49783946D01*
X166707007Y-49792004D01*
X166683803Y-49797816D01*
X166660142Y-49801326D01*
X166636250Y-49802500D01*
X165723750Y-49802500D01*
X165699858Y-49801326D01*
X165676197Y-49797816D01*
X165652993Y-49792004D01*
X165630471Y-49783946D01*
X165608847Y-49773718D01*
X165588330Y-49761421D01*
X165569117Y-49747171D01*
X165551393Y-49731107D01*
X165535329Y-49713383D01*
X165521079Y-49694170D01*
X165508782Y-49673653D01*
X165498554Y-49652029D01*
X165490496Y-49629507D01*
X165484684Y-49606303D01*
X165481174Y-49582642D01*
X165480000Y-49558750D01*
X165480000Y-49071250D01*
X165481174Y-49047358D01*
X165484684Y-49023697D01*
X165490496Y-49000493D01*
X165498554Y-48977971D01*
X165508782Y-48956347D01*
X165521079Y-48935830D01*
X165535329Y-48916617D01*
X165551393Y-48898893D01*
X165569117Y-48882829D01*
X165588330Y-48868579D01*
X165608847Y-48856282D01*
X165630471Y-48846054D01*
X165652993Y-48837996D01*
X165676197Y-48832184D01*
X165699858Y-48828674D01*
X165723750Y-48827500D01*
X166636250Y-48827500D01*
X166660142Y-48828674D01*
X166660142Y-48828674D01*
G37*
D24*
X166180000Y-49315000D03*
G04 #@! TD*
D23*
G04 #@! TO.C,C4*
G36*
X164707464Y-48831452D02*
X164731125Y-48834962D01*
X164754329Y-48840774D01*
X164776851Y-48848832D01*
X164798475Y-48859060D01*
X164818992Y-48871357D01*
X164838205Y-48885607D01*
X164855929Y-48901671D01*
X164871993Y-48919395D01*
X164886243Y-48938608D01*
X164898540Y-48959125D01*
X164908768Y-48980749D01*
X164916826Y-49003271D01*
X164922638Y-49026475D01*
X164926148Y-49050136D01*
X164927322Y-49074028D01*
X164927322Y-49561528D01*
X164926148Y-49585420D01*
X164922638Y-49609081D01*
X164916826Y-49632285D01*
X164908768Y-49654807D01*
X164898540Y-49676431D01*
X164886243Y-49696948D01*
X164871993Y-49716161D01*
X164855929Y-49733885D01*
X164838205Y-49749949D01*
X164818992Y-49764199D01*
X164798475Y-49776496D01*
X164776851Y-49786724D01*
X164754329Y-49794782D01*
X164731125Y-49800594D01*
X164707464Y-49804104D01*
X164683572Y-49805278D01*
X163771072Y-49805278D01*
X163747180Y-49804104D01*
X163723519Y-49800594D01*
X163700315Y-49794782D01*
X163677793Y-49786724D01*
X163656169Y-49776496D01*
X163635652Y-49764199D01*
X163616439Y-49749949D01*
X163598715Y-49733885D01*
X163582651Y-49716161D01*
X163568401Y-49696948D01*
X163556104Y-49676431D01*
X163545876Y-49654807D01*
X163537818Y-49632285D01*
X163532006Y-49609081D01*
X163528496Y-49585420D01*
X163527322Y-49561528D01*
X163527322Y-49074028D01*
X163528496Y-49050136D01*
X163532006Y-49026475D01*
X163537818Y-49003271D01*
X163545876Y-48980749D01*
X163556104Y-48959125D01*
X163568401Y-48938608D01*
X163582651Y-48919395D01*
X163598715Y-48901671D01*
X163616439Y-48885607D01*
X163635652Y-48871357D01*
X163656169Y-48859060D01*
X163677793Y-48848832D01*
X163700315Y-48840774D01*
X163723519Y-48834962D01*
X163747180Y-48831452D01*
X163771072Y-48830278D01*
X164683572Y-48830278D01*
X164707464Y-48831452D01*
X164707464Y-48831452D01*
G37*
D24*
X164227322Y-49317778D03*
D23*
G36*
X164707464Y-46956452D02*
X164731125Y-46959962D01*
X164754329Y-46965774D01*
X164776851Y-46973832D01*
X164798475Y-46984060D01*
X164818992Y-46996357D01*
X164838205Y-47010607D01*
X164855929Y-47026671D01*
X164871993Y-47044395D01*
X164886243Y-47063608D01*
X164898540Y-47084125D01*
X164908768Y-47105749D01*
X164916826Y-47128271D01*
X164922638Y-47151475D01*
X164926148Y-47175136D01*
X164927322Y-47199028D01*
X164927322Y-47686528D01*
X164926148Y-47710420D01*
X164922638Y-47734081D01*
X164916826Y-47757285D01*
X164908768Y-47779807D01*
X164898540Y-47801431D01*
X164886243Y-47821948D01*
X164871993Y-47841161D01*
X164855929Y-47858885D01*
X164838205Y-47874949D01*
X164818992Y-47889199D01*
X164798475Y-47901496D01*
X164776851Y-47911724D01*
X164754329Y-47919782D01*
X164731125Y-47925594D01*
X164707464Y-47929104D01*
X164683572Y-47930278D01*
X163771072Y-47930278D01*
X163747180Y-47929104D01*
X163723519Y-47925594D01*
X163700315Y-47919782D01*
X163677793Y-47911724D01*
X163656169Y-47901496D01*
X163635652Y-47889199D01*
X163616439Y-47874949D01*
X163598715Y-47858885D01*
X163582651Y-47841161D01*
X163568401Y-47821948D01*
X163556104Y-47801431D01*
X163545876Y-47779807D01*
X163537818Y-47757285D01*
X163532006Y-47734081D01*
X163528496Y-47710420D01*
X163527322Y-47686528D01*
X163527322Y-47199028D01*
X163528496Y-47175136D01*
X163532006Y-47151475D01*
X163537818Y-47128271D01*
X163545876Y-47105749D01*
X163556104Y-47084125D01*
X163568401Y-47063608D01*
X163582651Y-47044395D01*
X163598715Y-47026671D01*
X163616439Y-47010607D01*
X163635652Y-46996357D01*
X163656169Y-46984060D01*
X163677793Y-46973832D01*
X163700315Y-46965774D01*
X163723519Y-46959962D01*
X163747180Y-46956452D01*
X163771072Y-46955278D01*
X164683572Y-46955278D01*
X164707464Y-46956452D01*
X164707464Y-46956452D01*
G37*
D24*
X164227322Y-47442778D03*
G04 #@! TD*
D23*
G04 #@! TO.C,C5*
G36*
X166337142Y-35559174D02*
X166360803Y-35562684D01*
X166384007Y-35568496D01*
X166406529Y-35576554D01*
X166428153Y-35586782D01*
X166448670Y-35599079D01*
X166467883Y-35613329D01*
X166485607Y-35629393D01*
X166501671Y-35647117D01*
X166515921Y-35666330D01*
X166528218Y-35686847D01*
X166538446Y-35708471D01*
X166546504Y-35730993D01*
X166552316Y-35754197D01*
X166555826Y-35777858D01*
X166557000Y-35801750D01*
X166557000Y-36714250D01*
X166555826Y-36738142D01*
X166552316Y-36761803D01*
X166546504Y-36785007D01*
X166538446Y-36807529D01*
X166528218Y-36829153D01*
X166515921Y-36849670D01*
X166501671Y-36868883D01*
X166485607Y-36886607D01*
X166467883Y-36902671D01*
X166448670Y-36916921D01*
X166428153Y-36929218D01*
X166406529Y-36939446D01*
X166384007Y-36947504D01*
X166360803Y-36953316D01*
X166337142Y-36956826D01*
X166313250Y-36958000D01*
X165825750Y-36958000D01*
X165801858Y-36956826D01*
X165778197Y-36953316D01*
X165754993Y-36947504D01*
X165732471Y-36939446D01*
X165710847Y-36929218D01*
X165690330Y-36916921D01*
X165671117Y-36902671D01*
X165653393Y-36886607D01*
X165637329Y-36868883D01*
X165623079Y-36849670D01*
X165610782Y-36829153D01*
X165600554Y-36807529D01*
X165592496Y-36785007D01*
X165586684Y-36761803D01*
X165583174Y-36738142D01*
X165582000Y-36714250D01*
X165582000Y-35801750D01*
X165583174Y-35777858D01*
X165586684Y-35754197D01*
X165592496Y-35730993D01*
X165600554Y-35708471D01*
X165610782Y-35686847D01*
X165623079Y-35666330D01*
X165637329Y-35647117D01*
X165653393Y-35629393D01*
X165671117Y-35613329D01*
X165690330Y-35599079D01*
X165710847Y-35586782D01*
X165732471Y-35576554D01*
X165754993Y-35568496D01*
X165778197Y-35562684D01*
X165801858Y-35559174D01*
X165825750Y-35558000D01*
X166313250Y-35558000D01*
X166337142Y-35559174D01*
X166337142Y-35559174D01*
G37*
D24*
X166069500Y-36258000D03*
D23*
G36*
X164462142Y-35559174D02*
X164485803Y-35562684D01*
X164509007Y-35568496D01*
X164531529Y-35576554D01*
X164553153Y-35586782D01*
X164573670Y-35599079D01*
X164592883Y-35613329D01*
X164610607Y-35629393D01*
X164626671Y-35647117D01*
X164640921Y-35666330D01*
X164653218Y-35686847D01*
X164663446Y-35708471D01*
X164671504Y-35730993D01*
X164677316Y-35754197D01*
X164680826Y-35777858D01*
X164682000Y-35801750D01*
X164682000Y-36714250D01*
X164680826Y-36738142D01*
X164677316Y-36761803D01*
X164671504Y-36785007D01*
X164663446Y-36807529D01*
X164653218Y-36829153D01*
X164640921Y-36849670D01*
X164626671Y-36868883D01*
X164610607Y-36886607D01*
X164592883Y-36902671D01*
X164573670Y-36916921D01*
X164553153Y-36929218D01*
X164531529Y-36939446D01*
X164509007Y-36947504D01*
X164485803Y-36953316D01*
X164462142Y-36956826D01*
X164438250Y-36958000D01*
X163950750Y-36958000D01*
X163926858Y-36956826D01*
X163903197Y-36953316D01*
X163879993Y-36947504D01*
X163857471Y-36939446D01*
X163835847Y-36929218D01*
X163815330Y-36916921D01*
X163796117Y-36902671D01*
X163778393Y-36886607D01*
X163762329Y-36868883D01*
X163748079Y-36849670D01*
X163735782Y-36829153D01*
X163725554Y-36807529D01*
X163717496Y-36785007D01*
X163711684Y-36761803D01*
X163708174Y-36738142D01*
X163707000Y-36714250D01*
X163707000Y-35801750D01*
X163708174Y-35777858D01*
X163711684Y-35754197D01*
X163717496Y-35730993D01*
X163725554Y-35708471D01*
X163735782Y-35686847D01*
X163748079Y-35666330D01*
X163762329Y-35647117D01*
X163778393Y-35629393D01*
X163796117Y-35613329D01*
X163815330Y-35599079D01*
X163835847Y-35586782D01*
X163857471Y-35576554D01*
X163879993Y-35568496D01*
X163903197Y-35562684D01*
X163926858Y-35559174D01*
X163950750Y-35558000D01*
X164438250Y-35558000D01*
X164462142Y-35559174D01*
X164462142Y-35559174D01*
G37*
D24*
X164194500Y-36258000D03*
G04 #@! TD*
D23*
G04 #@! TO.C,C6*
G36*
X160532142Y-36395174D02*
X160555803Y-36398684D01*
X160579007Y-36404496D01*
X160601529Y-36412554D01*
X160623153Y-36422782D01*
X160643670Y-36435079D01*
X160662883Y-36449329D01*
X160680607Y-36465393D01*
X160696671Y-36483117D01*
X160710921Y-36502330D01*
X160723218Y-36522847D01*
X160733446Y-36544471D01*
X160741504Y-36566993D01*
X160747316Y-36590197D01*
X160750826Y-36613858D01*
X160752000Y-36637750D01*
X160752000Y-37125250D01*
X160750826Y-37149142D01*
X160747316Y-37172803D01*
X160741504Y-37196007D01*
X160733446Y-37218529D01*
X160723218Y-37240153D01*
X160710921Y-37260670D01*
X160696671Y-37279883D01*
X160680607Y-37297607D01*
X160662883Y-37313671D01*
X160643670Y-37327921D01*
X160623153Y-37340218D01*
X160601529Y-37350446D01*
X160579007Y-37358504D01*
X160555803Y-37364316D01*
X160532142Y-37367826D01*
X160508250Y-37369000D01*
X159595750Y-37369000D01*
X159571858Y-37367826D01*
X159548197Y-37364316D01*
X159524993Y-37358504D01*
X159502471Y-37350446D01*
X159480847Y-37340218D01*
X159460330Y-37327921D01*
X159441117Y-37313671D01*
X159423393Y-37297607D01*
X159407329Y-37279883D01*
X159393079Y-37260670D01*
X159380782Y-37240153D01*
X159370554Y-37218529D01*
X159362496Y-37196007D01*
X159356684Y-37172803D01*
X159353174Y-37149142D01*
X159352000Y-37125250D01*
X159352000Y-36637750D01*
X159353174Y-36613858D01*
X159356684Y-36590197D01*
X159362496Y-36566993D01*
X159370554Y-36544471D01*
X159380782Y-36522847D01*
X159393079Y-36502330D01*
X159407329Y-36483117D01*
X159423393Y-36465393D01*
X159441117Y-36449329D01*
X159460330Y-36435079D01*
X159480847Y-36422782D01*
X159502471Y-36412554D01*
X159524993Y-36404496D01*
X159548197Y-36398684D01*
X159571858Y-36395174D01*
X159595750Y-36394000D01*
X160508250Y-36394000D01*
X160532142Y-36395174D01*
X160532142Y-36395174D01*
G37*
D24*
X160052000Y-36881500D03*
D23*
G36*
X160532142Y-34520174D02*
X160555803Y-34523684D01*
X160579007Y-34529496D01*
X160601529Y-34537554D01*
X160623153Y-34547782D01*
X160643670Y-34560079D01*
X160662883Y-34574329D01*
X160680607Y-34590393D01*
X160696671Y-34608117D01*
X160710921Y-34627330D01*
X160723218Y-34647847D01*
X160733446Y-34669471D01*
X160741504Y-34691993D01*
X160747316Y-34715197D01*
X160750826Y-34738858D01*
X160752000Y-34762750D01*
X160752000Y-35250250D01*
X160750826Y-35274142D01*
X160747316Y-35297803D01*
X160741504Y-35321007D01*
X160733446Y-35343529D01*
X160723218Y-35365153D01*
X160710921Y-35385670D01*
X160696671Y-35404883D01*
X160680607Y-35422607D01*
X160662883Y-35438671D01*
X160643670Y-35452921D01*
X160623153Y-35465218D01*
X160601529Y-35475446D01*
X160579007Y-35483504D01*
X160555803Y-35489316D01*
X160532142Y-35492826D01*
X160508250Y-35494000D01*
X159595750Y-35494000D01*
X159571858Y-35492826D01*
X159548197Y-35489316D01*
X159524993Y-35483504D01*
X159502471Y-35475446D01*
X159480847Y-35465218D01*
X159460330Y-35452921D01*
X159441117Y-35438671D01*
X159423393Y-35422607D01*
X159407329Y-35404883D01*
X159393079Y-35385670D01*
X159380782Y-35365153D01*
X159370554Y-35343529D01*
X159362496Y-35321007D01*
X159356684Y-35297803D01*
X159353174Y-35274142D01*
X159352000Y-35250250D01*
X159352000Y-34762750D01*
X159353174Y-34738858D01*
X159356684Y-34715197D01*
X159362496Y-34691993D01*
X159370554Y-34669471D01*
X159380782Y-34647847D01*
X159393079Y-34627330D01*
X159407329Y-34608117D01*
X159423393Y-34590393D01*
X159441117Y-34574329D01*
X159460330Y-34560079D01*
X159480847Y-34547782D01*
X159502471Y-34537554D01*
X159524993Y-34529496D01*
X159548197Y-34523684D01*
X159571858Y-34520174D01*
X159595750Y-34519000D01*
X160508250Y-34519000D01*
X160532142Y-34520174D01*
X160532142Y-34520174D01*
G37*
D24*
X160052000Y-35006500D03*
G04 #@! TD*
D23*
G04 #@! TO.C,C7*
G36*
X166337142Y-37845174D02*
X166360803Y-37848684D01*
X166384007Y-37854496D01*
X166406529Y-37862554D01*
X166428153Y-37872782D01*
X166448670Y-37885079D01*
X166467883Y-37899329D01*
X166485607Y-37915393D01*
X166501671Y-37933117D01*
X166515921Y-37952330D01*
X166528218Y-37972847D01*
X166538446Y-37994471D01*
X166546504Y-38016993D01*
X166552316Y-38040197D01*
X166555826Y-38063858D01*
X166557000Y-38087750D01*
X166557000Y-39000250D01*
X166555826Y-39024142D01*
X166552316Y-39047803D01*
X166546504Y-39071007D01*
X166538446Y-39093529D01*
X166528218Y-39115153D01*
X166515921Y-39135670D01*
X166501671Y-39154883D01*
X166485607Y-39172607D01*
X166467883Y-39188671D01*
X166448670Y-39202921D01*
X166428153Y-39215218D01*
X166406529Y-39225446D01*
X166384007Y-39233504D01*
X166360803Y-39239316D01*
X166337142Y-39242826D01*
X166313250Y-39244000D01*
X165825750Y-39244000D01*
X165801858Y-39242826D01*
X165778197Y-39239316D01*
X165754993Y-39233504D01*
X165732471Y-39225446D01*
X165710847Y-39215218D01*
X165690330Y-39202921D01*
X165671117Y-39188671D01*
X165653393Y-39172607D01*
X165637329Y-39154883D01*
X165623079Y-39135670D01*
X165610782Y-39115153D01*
X165600554Y-39093529D01*
X165592496Y-39071007D01*
X165586684Y-39047803D01*
X165583174Y-39024142D01*
X165582000Y-39000250D01*
X165582000Y-38087750D01*
X165583174Y-38063858D01*
X165586684Y-38040197D01*
X165592496Y-38016993D01*
X165600554Y-37994471D01*
X165610782Y-37972847D01*
X165623079Y-37952330D01*
X165637329Y-37933117D01*
X165653393Y-37915393D01*
X165671117Y-37899329D01*
X165690330Y-37885079D01*
X165710847Y-37872782D01*
X165732471Y-37862554D01*
X165754993Y-37854496D01*
X165778197Y-37848684D01*
X165801858Y-37845174D01*
X165825750Y-37844000D01*
X166313250Y-37844000D01*
X166337142Y-37845174D01*
X166337142Y-37845174D01*
G37*
D24*
X166069500Y-38544000D03*
D23*
G36*
X164462142Y-37845174D02*
X164485803Y-37848684D01*
X164509007Y-37854496D01*
X164531529Y-37862554D01*
X164553153Y-37872782D01*
X164573670Y-37885079D01*
X164592883Y-37899329D01*
X164610607Y-37915393D01*
X164626671Y-37933117D01*
X164640921Y-37952330D01*
X164653218Y-37972847D01*
X164663446Y-37994471D01*
X164671504Y-38016993D01*
X164677316Y-38040197D01*
X164680826Y-38063858D01*
X164682000Y-38087750D01*
X164682000Y-39000250D01*
X164680826Y-39024142D01*
X164677316Y-39047803D01*
X164671504Y-39071007D01*
X164663446Y-39093529D01*
X164653218Y-39115153D01*
X164640921Y-39135670D01*
X164626671Y-39154883D01*
X164610607Y-39172607D01*
X164592883Y-39188671D01*
X164573670Y-39202921D01*
X164553153Y-39215218D01*
X164531529Y-39225446D01*
X164509007Y-39233504D01*
X164485803Y-39239316D01*
X164462142Y-39242826D01*
X164438250Y-39244000D01*
X163950750Y-39244000D01*
X163926858Y-39242826D01*
X163903197Y-39239316D01*
X163879993Y-39233504D01*
X163857471Y-39225446D01*
X163835847Y-39215218D01*
X163815330Y-39202921D01*
X163796117Y-39188671D01*
X163778393Y-39172607D01*
X163762329Y-39154883D01*
X163748079Y-39135670D01*
X163735782Y-39115153D01*
X163725554Y-39093529D01*
X163717496Y-39071007D01*
X163711684Y-39047803D01*
X163708174Y-39024142D01*
X163707000Y-39000250D01*
X163707000Y-38087750D01*
X163708174Y-38063858D01*
X163711684Y-38040197D01*
X163717496Y-38016993D01*
X163725554Y-37994471D01*
X163735782Y-37972847D01*
X163748079Y-37952330D01*
X163762329Y-37933117D01*
X163778393Y-37915393D01*
X163796117Y-37899329D01*
X163815330Y-37885079D01*
X163835847Y-37872782D01*
X163857471Y-37862554D01*
X163879993Y-37854496D01*
X163903197Y-37848684D01*
X163926858Y-37845174D01*
X163950750Y-37844000D01*
X164438250Y-37844000D01*
X164462142Y-37845174D01*
X164462142Y-37845174D01*
G37*
D24*
X164194500Y-38544000D03*
G04 #@! TD*
D23*
G04 #@! TO.C,C8*
G36*
X162140142Y-47766174D02*
X162163803Y-47769684D01*
X162187007Y-47775496D01*
X162209529Y-47783554D01*
X162231153Y-47793782D01*
X162251670Y-47806079D01*
X162270883Y-47820329D01*
X162288607Y-47836393D01*
X162304671Y-47854117D01*
X162318921Y-47873330D01*
X162331218Y-47893847D01*
X162341446Y-47915471D01*
X162349504Y-47937993D01*
X162355316Y-47961197D01*
X162358826Y-47984858D01*
X162360000Y-48008750D01*
X162360000Y-48496250D01*
X162358826Y-48520142D01*
X162355316Y-48543803D01*
X162349504Y-48567007D01*
X162341446Y-48589529D01*
X162331218Y-48611153D01*
X162318921Y-48631670D01*
X162304671Y-48650883D01*
X162288607Y-48668607D01*
X162270883Y-48684671D01*
X162251670Y-48698921D01*
X162231153Y-48711218D01*
X162209529Y-48721446D01*
X162187007Y-48729504D01*
X162163803Y-48735316D01*
X162140142Y-48738826D01*
X162116250Y-48740000D01*
X161203750Y-48740000D01*
X161179858Y-48738826D01*
X161156197Y-48735316D01*
X161132993Y-48729504D01*
X161110471Y-48721446D01*
X161088847Y-48711218D01*
X161068330Y-48698921D01*
X161049117Y-48684671D01*
X161031393Y-48668607D01*
X161015329Y-48650883D01*
X161001079Y-48631670D01*
X160988782Y-48611153D01*
X160978554Y-48589529D01*
X160970496Y-48567007D01*
X160964684Y-48543803D01*
X160961174Y-48520142D01*
X160960000Y-48496250D01*
X160960000Y-48008750D01*
X160961174Y-47984858D01*
X160964684Y-47961197D01*
X160970496Y-47937993D01*
X160978554Y-47915471D01*
X160988782Y-47893847D01*
X161001079Y-47873330D01*
X161015329Y-47854117D01*
X161031393Y-47836393D01*
X161049117Y-47820329D01*
X161068330Y-47806079D01*
X161088847Y-47793782D01*
X161110471Y-47783554D01*
X161132993Y-47775496D01*
X161156197Y-47769684D01*
X161179858Y-47766174D01*
X161203750Y-47765000D01*
X162116250Y-47765000D01*
X162140142Y-47766174D01*
X162140142Y-47766174D01*
G37*
D24*
X161660000Y-48252500D03*
D23*
G36*
X162140142Y-49641174D02*
X162163803Y-49644684D01*
X162187007Y-49650496D01*
X162209529Y-49658554D01*
X162231153Y-49668782D01*
X162251670Y-49681079D01*
X162270883Y-49695329D01*
X162288607Y-49711393D01*
X162304671Y-49729117D01*
X162318921Y-49748330D01*
X162331218Y-49768847D01*
X162341446Y-49790471D01*
X162349504Y-49812993D01*
X162355316Y-49836197D01*
X162358826Y-49859858D01*
X162360000Y-49883750D01*
X162360000Y-50371250D01*
X162358826Y-50395142D01*
X162355316Y-50418803D01*
X162349504Y-50442007D01*
X162341446Y-50464529D01*
X162331218Y-50486153D01*
X162318921Y-50506670D01*
X162304671Y-50525883D01*
X162288607Y-50543607D01*
X162270883Y-50559671D01*
X162251670Y-50573921D01*
X162231153Y-50586218D01*
X162209529Y-50596446D01*
X162187007Y-50604504D01*
X162163803Y-50610316D01*
X162140142Y-50613826D01*
X162116250Y-50615000D01*
X161203750Y-50615000D01*
X161179858Y-50613826D01*
X161156197Y-50610316D01*
X161132993Y-50604504D01*
X161110471Y-50596446D01*
X161088847Y-50586218D01*
X161068330Y-50573921D01*
X161049117Y-50559671D01*
X161031393Y-50543607D01*
X161015329Y-50525883D01*
X161001079Y-50506670D01*
X160988782Y-50486153D01*
X160978554Y-50464529D01*
X160970496Y-50442007D01*
X160964684Y-50418803D01*
X160961174Y-50395142D01*
X160960000Y-50371250D01*
X160960000Y-49883750D01*
X160961174Y-49859858D01*
X160964684Y-49836197D01*
X160970496Y-49812993D01*
X160978554Y-49790471D01*
X160988782Y-49768847D01*
X161001079Y-49748330D01*
X161015329Y-49729117D01*
X161031393Y-49711393D01*
X161049117Y-49695329D01*
X161068330Y-49681079D01*
X161088847Y-49668782D01*
X161110471Y-49658554D01*
X161132993Y-49650496D01*
X161156197Y-49644684D01*
X161179858Y-49641174D01*
X161203750Y-49640000D01*
X162116250Y-49640000D01*
X162140142Y-49641174D01*
X162140142Y-49641174D01*
G37*
D24*
X161660000Y-50127500D03*
G04 #@! TD*
D23*
G04 #@! TO.C,C9*
G36*
X145830142Y-46341174D02*
X145853803Y-46344684D01*
X145877007Y-46350496D01*
X145899529Y-46358554D01*
X145921153Y-46368782D01*
X145941670Y-46381079D01*
X145960883Y-46395329D01*
X145978607Y-46411393D01*
X145994671Y-46429117D01*
X146008921Y-46448330D01*
X146021218Y-46468847D01*
X146031446Y-46490471D01*
X146039504Y-46512993D01*
X146045316Y-46536197D01*
X146048826Y-46559858D01*
X146050000Y-46583750D01*
X146050000Y-47496250D01*
X146048826Y-47520142D01*
X146045316Y-47543803D01*
X146039504Y-47567007D01*
X146031446Y-47589529D01*
X146021218Y-47611153D01*
X146008921Y-47631670D01*
X145994671Y-47650883D01*
X145978607Y-47668607D01*
X145960883Y-47684671D01*
X145941670Y-47698921D01*
X145921153Y-47711218D01*
X145899529Y-47721446D01*
X145877007Y-47729504D01*
X145853803Y-47735316D01*
X145830142Y-47738826D01*
X145806250Y-47740000D01*
X145318750Y-47740000D01*
X145294858Y-47738826D01*
X145271197Y-47735316D01*
X145247993Y-47729504D01*
X145225471Y-47721446D01*
X145203847Y-47711218D01*
X145183330Y-47698921D01*
X145164117Y-47684671D01*
X145146393Y-47668607D01*
X145130329Y-47650883D01*
X145116079Y-47631670D01*
X145103782Y-47611153D01*
X145093554Y-47589529D01*
X145085496Y-47567007D01*
X145079684Y-47543803D01*
X145076174Y-47520142D01*
X145075000Y-47496250D01*
X145075000Y-46583750D01*
X145076174Y-46559858D01*
X145079684Y-46536197D01*
X145085496Y-46512993D01*
X145093554Y-46490471D01*
X145103782Y-46468847D01*
X145116079Y-46448330D01*
X145130329Y-46429117D01*
X145146393Y-46411393D01*
X145164117Y-46395329D01*
X145183330Y-46381079D01*
X145203847Y-46368782D01*
X145225471Y-46358554D01*
X145247993Y-46350496D01*
X145271197Y-46344684D01*
X145294858Y-46341174D01*
X145318750Y-46340000D01*
X145806250Y-46340000D01*
X145830142Y-46341174D01*
X145830142Y-46341174D01*
G37*
D24*
X145562500Y-47040000D03*
D23*
G36*
X147705142Y-46341174D02*
X147728803Y-46344684D01*
X147752007Y-46350496D01*
X147774529Y-46358554D01*
X147796153Y-46368782D01*
X147816670Y-46381079D01*
X147835883Y-46395329D01*
X147853607Y-46411393D01*
X147869671Y-46429117D01*
X147883921Y-46448330D01*
X147896218Y-46468847D01*
X147906446Y-46490471D01*
X147914504Y-46512993D01*
X147920316Y-46536197D01*
X147923826Y-46559858D01*
X147925000Y-46583750D01*
X147925000Y-47496250D01*
X147923826Y-47520142D01*
X147920316Y-47543803D01*
X147914504Y-47567007D01*
X147906446Y-47589529D01*
X147896218Y-47611153D01*
X147883921Y-47631670D01*
X147869671Y-47650883D01*
X147853607Y-47668607D01*
X147835883Y-47684671D01*
X147816670Y-47698921D01*
X147796153Y-47711218D01*
X147774529Y-47721446D01*
X147752007Y-47729504D01*
X147728803Y-47735316D01*
X147705142Y-47738826D01*
X147681250Y-47740000D01*
X147193750Y-47740000D01*
X147169858Y-47738826D01*
X147146197Y-47735316D01*
X147122993Y-47729504D01*
X147100471Y-47721446D01*
X147078847Y-47711218D01*
X147058330Y-47698921D01*
X147039117Y-47684671D01*
X147021393Y-47668607D01*
X147005329Y-47650883D01*
X146991079Y-47631670D01*
X146978782Y-47611153D01*
X146968554Y-47589529D01*
X146960496Y-47567007D01*
X146954684Y-47543803D01*
X146951174Y-47520142D01*
X146950000Y-47496250D01*
X146950000Y-46583750D01*
X146951174Y-46559858D01*
X146954684Y-46536197D01*
X146960496Y-46512993D01*
X146968554Y-46490471D01*
X146978782Y-46468847D01*
X146991079Y-46448330D01*
X147005329Y-46429117D01*
X147021393Y-46411393D01*
X147039117Y-46395329D01*
X147058330Y-46381079D01*
X147078847Y-46368782D01*
X147100471Y-46358554D01*
X147122993Y-46350496D01*
X147146197Y-46344684D01*
X147169858Y-46341174D01*
X147193750Y-46340000D01*
X147681250Y-46340000D01*
X147705142Y-46341174D01*
X147705142Y-46341174D01*
G37*
D24*
X147437500Y-47040000D03*
G04 #@! TD*
D23*
G04 #@! TO.C,C11*
G36*
X152580142Y-50561174D02*
X152603803Y-50564684D01*
X152627007Y-50570496D01*
X152649529Y-50578554D01*
X152671153Y-50588782D01*
X152691670Y-50601079D01*
X152710883Y-50615329D01*
X152728607Y-50631393D01*
X152744671Y-50649117D01*
X152758921Y-50668330D01*
X152771218Y-50688847D01*
X152781446Y-50710471D01*
X152789504Y-50732993D01*
X152795316Y-50756197D01*
X152798826Y-50779858D01*
X152800000Y-50803750D01*
X152800000Y-51291250D01*
X152798826Y-51315142D01*
X152795316Y-51338803D01*
X152789504Y-51362007D01*
X152781446Y-51384529D01*
X152771218Y-51406153D01*
X152758921Y-51426670D01*
X152744671Y-51445883D01*
X152728607Y-51463607D01*
X152710883Y-51479671D01*
X152691670Y-51493921D01*
X152671153Y-51506218D01*
X152649529Y-51516446D01*
X152627007Y-51524504D01*
X152603803Y-51530316D01*
X152580142Y-51533826D01*
X152556250Y-51535000D01*
X151643750Y-51535000D01*
X151619858Y-51533826D01*
X151596197Y-51530316D01*
X151572993Y-51524504D01*
X151550471Y-51516446D01*
X151528847Y-51506218D01*
X151508330Y-51493921D01*
X151489117Y-51479671D01*
X151471393Y-51463607D01*
X151455329Y-51445883D01*
X151441079Y-51426670D01*
X151428782Y-51406153D01*
X151418554Y-51384529D01*
X151410496Y-51362007D01*
X151404684Y-51338803D01*
X151401174Y-51315142D01*
X151400000Y-51291250D01*
X151400000Y-50803750D01*
X151401174Y-50779858D01*
X151404684Y-50756197D01*
X151410496Y-50732993D01*
X151418554Y-50710471D01*
X151428782Y-50688847D01*
X151441079Y-50668330D01*
X151455329Y-50649117D01*
X151471393Y-50631393D01*
X151489117Y-50615329D01*
X151508330Y-50601079D01*
X151528847Y-50588782D01*
X151550471Y-50578554D01*
X151572993Y-50570496D01*
X151596197Y-50564684D01*
X151619858Y-50561174D01*
X151643750Y-50560000D01*
X152556250Y-50560000D01*
X152580142Y-50561174D01*
X152580142Y-50561174D01*
G37*
D24*
X152100000Y-51047500D03*
D23*
G36*
X152580142Y-48686174D02*
X152603803Y-48689684D01*
X152627007Y-48695496D01*
X152649529Y-48703554D01*
X152671153Y-48713782D01*
X152691670Y-48726079D01*
X152710883Y-48740329D01*
X152728607Y-48756393D01*
X152744671Y-48774117D01*
X152758921Y-48793330D01*
X152771218Y-48813847D01*
X152781446Y-48835471D01*
X152789504Y-48857993D01*
X152795316Y-48881197D01*
X152798826Y-48904858D01*
X152800000Y-48928750D01*
X152800000Y-49416250D01*
X152798826Y-49440142D01*
X152795316Y-49463803D01*
X152789504Y-49487007D01*
X152781446Y-49509529D01*
X152771218Y-49531153D01*
X152758921Y-49551670D01*
X152744671Y-49570883D01*
X152728607Y-49588607D01*
X152710883Y-49604671D01*
X152691670Y-49618921D01*
X152671153Y-49631218D01*
X152649529Y-49641446D01*
X152627007Y-49649504D01*
X152603803Y-49655316D01*
X152580142Y-49658826D01*
X152556250Y-49660000D01*
X151643750Y-49660000D01*
X151619858Y-49658826D01*
X151596197Y-49655316D01*
X151572993Y-49649504D01*
X151550471Y-49641446D01*
X151528847Y-49631218D01*
X151508330Y-49618921D01*
X151489117Y-49604671D01*
X151471393Y-49588607D01*
X151455329Y-49570883D01*
X151441079Y-49551670D01*
X151428782Y-49531153D01*
X151418554Y-49509529D01*
X151410496Y-49487007D01*
X151404684Y-49463803D01*
X151401174Y-49440142D01*
X151400000Y-49416250D01*
X151400000Y-48928750D01*
X151401174Y-48904858D01*
X151404684Y-48881197D01*
X151410496Y-48857993D01*
X151418554Y-48835471D01*
X151428782Y-48813847D01*
X151441079Y-48793330D01*
X151455329Y-48774117D01*
X151471393Y-48756393D01*
X151489117Y-48740329D01*
X151508330Y-48726079D01*
X151528847Y-48713782D01*
X151550471Y-48703554D01*
X151572993Y-48695496D01*
X151596197Y-48689684D01*
X151619858Y-48686174D01*
X151643750Y-48685000D01*
X152556250Y-48685000D01*
X152580142Y-48686174D01*
X152580142Y-48686174D01*
G37*
D24*
X152100000Y-49172500D03*
G04 #@! TD*
D23*
G04 #@! TO.C,C12*
G36*
X154925142Y-45691174D02*
X154948803Y-45694684D01*
X154972007Y-45700496D01*
X154994529Y-45708554D01*
X155016153Y-45718782D01*
X155036670Y-45731079D01*
X155055883Y-45745329D01*
X155073607Y-45761393D01*
X155089671Y-45779117D01*
X155103921Y-45798330D01*
X155116218Y-45818847D01*
X155126446Y-45840471D01*
X155134504Y-45862993D01*
X155140316Y-45886197D01*
X155143826Y-45909858D01*
X155145000Y-45933750D01*
X155145000Y-46846250D01*
X155143826Y-46870142D01*
X155140316Y-46893803D01*
X155134504Y-46917007D01*
X155126446Y-46939529D01*
X155116218Y-46961153D01*
X155103921Y-46981670D01*
X155089671Y-47000883D01*
X155073607Y-47018607D01*
X155055883Y-47034671D01*
X155036670Y-47048921D01*
X155016153Y-47061218D01*
X154994529Y-47071446D01*
X154972007Y-47079504D01*
X154948803Y-47085316D01*
X154925142Y-47088826D01*
X154901250Y-47090000D01*
X154413750Y-47090000D01*
X154389858Y-47088826D01*
X154366197Y-47085316D01*
X154342993Y-47079504D01*
X154320471Y-47071446D01*
X154298847Y-47061218D01*
X154278330Y-47048921D01*
X154259117Y-47034671D01*
X154241393Y-47018607D01*
X154225329Y-47000883D01*
X154211079Y-46981670D01*
X154198782Y-46961153D01*
X154188554Y-46939529D01*
X154180496Y-46917007D01*
X154174684Y-46893803D01*
X154171174Y-46870142D01*
X154170000Y-46846250D01*
X154170000Y-45933750D01*
X154171174Y-45909858D01*
X154174684Y-45886197D01*
X154180496Y-45862993D01*
X154188554Y-45840471D01*
X154198782Y-45818847D01*
X154211079Y-45798330D01*
X154225329Y-45779117D01*
X154241393Y-45761393D01*
X154259117Y-45745329D01*
X154278330Y-45731079D01*
X154298847Y-45718782D01*
X154320471Y-45708554D01*
X154342993Y-45700496D01*
X154366197Y-45694684D01*
X154389858Y-45691174D01*
X154413750Y-45690000D01*
X154901250Y-45690000D01*
X154925142Y-45691174D01*
X154925142Y-45691174D01*
G37*
D24*
X154657500Y-46390000D03*
D23*
G36*
X153050142Y-45691174D02*
X153073803Y-45694684D01*
X153097007Y-45700496D01*
X153119529Y-45708554D01*
X153141153Y-45718782D01*
X153161670Y-45731079D01*
X153180883Y-45745329D01*
X153198607Y-45761393D01*
X153214671Y-45779117D01*
X153228921Y-45798330D01*
X153241218Y-45818847D01*
X153251446Y-45840471D01*
X153259504Y-45862993D01*
X153265316Y-45886197D01*
X153268826Y-45909858D01*
X153270000Y-45933750D01*
X153270000Y-46846250D01*
X153268826Y-46870142D01*
X153265316Y-46893803D01*
X153259504Y-46917007D01*
X153251446Y-46939529D01*
X153241218Y-46961153D01*
X153228921Y-46981670D01*
X153214671Y-47000883D01*
X153198607Y-47018607D01*
X153180883Y-47034671D01*
X153161670Y-47048921D01*
X153141153Y-47061218D01*
X153119529Y-47071446D01*
X153097007Y-47079504D01*
X153073803Y-47085316D01*
X153050142Y-47088826D01*
X153026250Y-47090000D01*
X152538750Y-47090000D01*
X152514858Y-47088826D01*
X152491197Y-47085316D01*
X152467993Y-47079504D01*
X152445471Y-47071446D01*
X152423847Y-47061218D01*
X152403330Y-47048921D01*
X152384117Y-47034671D01*
X152366393Y-47018607D01*
X152350329Y-47000883D01*
X152336079Y-46981670D01*
X152323782Y-46961153D01*
X152313554Y-46939529D01*
X152305496Y-46917007D01*
X152299684Y-46893803D01*
X152296174Y-46870142D01*
X152295000Y-46846250D01*
X152295000Y-45933750D01*
X152296174Y-45909858D01*
X152299684Y-45886197D01*
X152305496Y-45862993D01*
X152313554Y-45840471D01*
X152323782Y-45818847D01*
X152336079Y-45798330D01*
X152350329Y-45779117D01*
X152366393Y-45761393D01*
X152384117Y-45745329D01*
X152403330Y-45731079D01*
X152423847Y-45718782D01*
X152445471Y-45708554D01*
X152467993Y-45700496D01*
X152491197Y-45694684D01*
X152514858Y-45691174D01*
X152538750Y-45690000D01*
X153026250Y-45690000D01*
X153050142Y-45691174D01*
X153050142Y-45691174D01*
G37*
D24*
X152782500Y-46390000D03*
G04 #@! TD*
D23*
G04 #@! TO.C,C13*
G36*
X152900142Y-34491174D02*
X152923803Y-34494684D01*
X152947007Y-34500496D01*
X152969529Y-34508554D01*
X152991153Y-34518782D01*
X153011670Y-34531079D01*
X153030883Y-34545329D01*
X153048607Y-34561393D01*
X153064671Y-34579117D01*
X153078921Y-34598330D01*
X153091218Y-34618847D01*
X153101446Y-34640471D01*
X153109504Y-34662993D01*
X153115316Y-34686197D01*
X153118826Y-34709858D01*
X153120000Y-34733750D01*
X153120000Y-35646250D01*
X153118826Y-35670142D01*
X153115316Y-35693803D01*
X153109504Y-35717007D01*
X153101446Y-35739529D01*
X153091218Y-35761153D01*
X153078921Y-35781670D01*
X153064671Y-35800883D01*
X153048607Y-35818607D01*
X153030883Y-35834671D01*
X153011670Y-35848921D01*
X152991153Y-35861218D01*
X152969529Y-35871446D01*
X152947007Y-35879504D01*
X152923803Y-35885316D01*
X152900142Y-35888826D01*
X152876250Y-35890000D01*
X152388750Y-35890000D01*
X152364858Y-35888826D01*
X152341197Y-35885316D01*
X152317993Y-35879504D01*
X152295471Y-35871446D01*
X152273847Y-35861218D01*
X152253330Y-35848921D01*
X152234117Y-35834671D01*
X152216393Y-35818607D01*
X152200329Y-35800883D01*
X152186079Y-35781670D01*
X152173782Y-35761153D01*
X152163554Y-35739529D01*
X152155496Y-35717007D01*
X152149684Y-35693803D01*
X152146174Y-35670142D01*
X152145000Y-35646250D01*
X152145000Y-34733750D01*
X152146174Y-34709858D01*
X152149684Y-34686197D01*
X152155496Y-34662993D01*
X152163554Y-34640471D01*
X152173782Y-34618847D01*
X152186079Y-34598330D01*
X152200329Y-34579117D01*
X152216393Y-34561393D01*
X152234117Y-34545329D01*
X152253330Y-34531079D01*
X152273847Y-34518782D01*
X152295471Y-34508554D01*
X152317993Y-34500496D01*
X152341197Y-34494684D01*
X152364858Y-34491174D01*
X152388750Y-34490000D01*
X152876250Y-34490000D01*
X152900142Y-34491174D01*
X152900142Y-34491174D01*
G37*
D24*
X152632500Y-35190000D03*
D23*
G36*
X154775142Y-34491174D02*
X154798803Y-34494684D01*
X154822007Y-34500496D01*
X154844529Y-34508554D01*
X154866153Y-34518782D01*
X154886670Y-34531079D01*
X154905883Y-34545329D01*
X154923607Y-34561393D01*
X154939671Y-34579117D01*
X154953921Y-34598330D01*
X154966218Y-34618847D01*
X154976446Y-34640471D01*
X154984504Y-34662993D01*
X154990316Y-34686197D01*
X154993826Y-34709858D01*
X154995000Y-34733750D01*
X154995000Y-35646250D01*
X154993826Y-35670142D01*
X154990316Y-35693803D01*
X154984504Y-35717007D01*
X154976446Y-35739529D01*
X154966218Y-35761153D01*
X154953921Y-35781670D01*
X154939671Y-35800883D01*
X154923607Y-35818607D01*
X154905883Y-35834671D01*
X154886670Y-35848921D01*
X154866153Y-35861218D01*
X154844529Y-35871446D01*
X154822007Y-35879504D01*
X154798803Y-35885316D01*
X154775142Y-35888826D01*
X154751250Y-35890000D01*
X154263750Y-35890000D01*
X154239858Y-35888826D01*
X154216197Y-35885316D01*
X154192993Y-35879504D01*
X154170471Y-35871446D01*
X154148847Y-35861218D01*
X154128330Y-35848921D01*
X154109117Y-35834671D01*
X154091393Y-35818607D01*
X154075329Y-35800883D01*
X154061079Y-35781670D01*
X154048782Y-35761153D01*
X154038554Y-35739529D01*
X154030496Y-35717007D01*
X154024684Y-35693803D01*
X154021174Y-35670142D01*
X154020000Y-35646250D01*
X154020000Y-34733750D01*
X154021174Y-34709858D01*
X154024684Y-34686197D01*
X154030496Y-34662993D01*
X154038554Y-34640471D01*
X154048782Y-34618847D01*
X154061079Y-34598330D01*
X154075329Y-34579117D01*
X154091393Y-34561393D01*
X154109117Y-34545329D01*
X154128330Y-34531079D01*
X154148847Y-34518782D01*
X154170471Y-34508554D01*
X154192993Y-34500496D01*
X154216197Y-34494684D01*
X154239858Y-34491174D01*
X154263750Y-34490000D01*
X154751250Y-34490000D01*
X154775142Y-34491174D01*
X154775142Y-34491174D01*
G37*
D24*
X154507500Y-35190000D03*
G04 #@! TD*
D23*
G04 #@! TO.C,L1*
G36*
X169817464Y-44896452D02*
X169841125Y-44899962D01*
X169864329Y-44905774D01*
X169886851Y-44913832D01*
X169908475Y-44924060D01*
X169928992Y-44936357D01*
X169948205Y-44950607D01*
X169965929Y-44966671D01*
X169981993Y-44984395D01*
X169996243Y-45003608D01*
X170008540Y-45024125D01*
X170018768Y-45045749D01*
X170026826Y-45068271D01*
X170032638Y-45091475D01*
X170036148Y-45115136D01*
X170037322Y-45139028D01*
X170037322Y-46051528D01*
X170036148Y-46075420D01*
X170032638Y-46099081D01*
X170026826Y-46122285D01*
X170018768Y-46144807D01*
X170008540Y-46166431D01*
X169996243Y-46186948D01*
X169981993Y-46206161D01*
X169965929Y-46223885D01*
X169948205Y-46239949D01*
X169928992Y-46254199D01*
X169908475Y-46266496D01*
X169886851Y-46276724D01*
X169864329Y-46284782D01*
X169841125Y-46290594D01*
X169817464Y-46294104D01*
X169793572Y-46295278D01*
X169306072Y-46295278D01*
X169282180Y-46294104D01*
X169258519Y-46290594D01*
X169235315Y-46284782D01*
X169212793Y-46276724D01*
X169191169Y-46266496D01*
X169170652Y-46254199D01*
X169151439Y-46239949D01*
X169133715Y-46223885D01*
X169117651Y-46206161D01*
X169103401Y-46186948D01*
X169091104Y-46166431D01*
X169080876Y-46144807D01*
X169072818Y-46122285D01*
X169067006Y-46099081D01*
X169063496Y-46075420D01*
X169062322Y-46051528D01*
X169062322Y-45139028D01*
X169063496Y-45115136D01*
X169067006Y-45091475D01*
X169072818Y-45068271D01*
X169080876Y-45045749D01*
X169091104Y-45024125D01*
X169103401Y-45003608D01*
X169117651Y-44984395D01*
X169133715Y-44966671D01*
X169151439Y-44950607D01*
X169170652Y-44936357D01*
X169191169Y-44924060D01*
X169212793Y-44913832D01*
X169235315Y-44905774D01*
X169258519Y-44899962D01*
X169282180Y-44896452D01*
X169306072Y-44895278D01*
X169793572Y-44895278D01*
X169817464Y-44896452D01*
X169817464Y-44896452D01*
G37*
D24*
X169549822Y-45595278D03*
D23*
G36*
X167942464Y-44896452D02*
X167966125Y-44899962D01*
X167989329Y-44905774D01*
X168011851Y-44913832D01*
X168033475Y-44924060D01*
X168053992Y-44936357D01*
X168073205Y-44950607D01*
X168090929Y-44966671D01*
X168106993Y-44984395D01*
X168121243Y-45003608D01*
X168133540Y-45024125D01*
X168143768Y-45045749D01*
X168151826Y-45068271D01*
X168157638Y-45091475D01*
X168161148Y-45115136D01*
X168162322Y-45139028D01*
X168162322Y-46051528D01*
X168161148Y-46075420D01*
X168157638Y-46099081D01*
X168151826Y-46122285D01*
X168143768Y-46144807D01*
X168133540Y-46166431D01*
X168121243Y-46186948D01*
X168106993Y-46206161D01*
X168090929Y-46223885D01*
X168073205Y-46239949D01*
X168053992Y-46254199D01*
X168033475Y-46266496D01*
X168011851Y-46276724D01*
X167989329Y-46284782D01*
X167966125Y-46290594D01*
X167942464Y-46294104D01*
X167918572Y-46295278D01*
X167431072Y-46295278D01*
X167407180Y-46294104D01*
X167383519Y-46290594D01*
X167360315Y-46284782D01*
X167337793Y-46276724D01*
X167316169Y-46266496D01*
X167295652Y-46254199D01*
X167276439Y-46239949D01*
X167258715Y-46223885D01*
X167242651Y-46206161D01*
X167228401Y-46186948D01*
X167216104Y-46166431D01*
X167205876Y-46144807D01*
X167197818Y-46122285D01*
X167192006Y-46099081D01*
X167188496Y-46075420D01*
X167187322Y-46051528D01*
X167187322Y-45139028D01*
X167188496Y-45115136D01*
X167192006Y-45091475D01*
X167197818Y-45068271D01*
X167205876Y-45045749D01*
X167216104Y-45024125D01*
X167228401Y-45003608D01*
X167242651Y-44984395D01*
X167258715Y-44966671D01*
X167276439Y-44950607D01*
X167295652Y-44936357D01*
X167316169Y-44924060D01*
X167337793Y-44913832D01*
X167360315Y-44905774D01*
X167383519Y-44899962D01*
X167407180Y-44896452D01*
X167431072Y-44895278D01*
X167918572Y-44895278D01*
X167942464Y-44896452D01*
X167942464Y-44896452D01*
G37*
D24*
X167674822Y-45595278D03*
G04 #@! TD*
D23*
G04 #@! TO.C,L2*
G36*
X164517464Y-44896452D02*
X164541125Y-44899962D01*
X164564329Y-44905774D01*
X164586851Y-44913832D01*
X164608475Y-44924060D01*
X164628992Y-44936357D01*
X164648205Y-44950607D01*
X164665929Y-44966671D01*
X164681993Y-44984395D01*
X164696243Y-45003608D01*
X164708540Y-45024125D01*
X164718768Y-45045749D01*
X164726826Y-45068271D01*
X164732638Y-45091475D01*
X164736148Y-45115136D01*
X164737322Y-45139028D01*
X164737322Y-46051528D01*
X164736148Y-46075420D01*
X164732638Y-46099081D01*
X164726826Y-46122285D01*
X164718768Y-46144807D01*
X164708540Y-46166431D01*
X164696243Y-46186948D01*
X164681993Y-46206161D01*
X164665929Y-46223885D01*
X164648205Y-46239949D01*
X164628992Y-46254199D01*
X164608475Y-46266496D01*
X164586851Y-46276724D01*
X164564329Y-46284782D01*
X164541125Y-46290594D01*
X164517464Y-46294104D01*
X164493572Y-46295278D01*
X164006072Y-46295278D01*
X163982180Y-46294104D01*
X163958519Y-46290594D01*
X163935315Y-46284782D01*
X163912793Y-46276724D01*
X163891169Y-46266496D01*
X163870652Y-46254199D01*
X163851439Y-46239949D01*
X163833715Y-46223885D01*
X163817651Y-46206161D01*
X163803401Y-46186948D01*
X163791104Y-46166431D01*
X163780876Y-46144807D01*
X163772818Y-46122285D01*
X163767006Y-46099081D01*
X163763496Y-46075420D01*
X163762322Y-46051528D01*
X163762322Y-45139028D01*
X163763496Y-45115136D01*
X163767006Y-45091475D01*
X163772818Y-45068271D01*
X163780876Y-45045749D01*
X163791104Y-45024125D01*
X163803401Y-45003608D01*
X163817651Y-44984395D01*
X163833715Y-44966671D01*
X163851439Y-44950607D01*
X163870652Y-44936357D01*
X163891169Y-44924060D01*
X163912793Y-44913832D01*
X163935315Y-44905774D01*
X163958519Y-44899962D01*
X163982180Y-44896452D01*
X164006072Y-44895278D01*
X164493572Y-44895278D01*
X164517464Y-44896452D01*
X164517464Y-44896452D01*
G37*
D24*
X164249822Y-45595278D03*
D23*
G36*
X166392464Y-44896452D02*
X166416125Y-44899962D01*
X166439329Y-44905774D01*
X166461851Y-44913832D01*
X166483475Y-44924060D01*
X166503992Y-44936357D01*
X166523205Y-44950607D01*
X166540929Y-44966671D01*
X166556993Y-44984395D01*
X166571243Y-45003608D01*
X166583540Y-45024125D01*
X166593768Y-45045749D01*
X166601826Y-45068271D01*
X166607638Y-45091475D01*
X166611148Y-45115136D01*
X166612322Y-45139028D01*
X166612322Y-46051528D01*
X166611148Y-46075420D01*
X166607638Y-46099081D01*
X166601826Y-46122285D01*
X166593768Y-46144807D01*
X166583540Y-46166431D01*
X166571243Y-46186948D01*
X166556993Y-46206161D01*
X166540929Y-46223885D01*
X166523205Y-46239949D01*
X166503992Y-46254199D01*
X166483475Y-46266496D01*
X166461851Y-46276724D01*
X166439329Y-46284782D01*
X166416125Y-46290594D01*
X166392464Y-46294104D01*
X166368572Y-46295278D01*
X165881072Y-46295278D01*
X165857180Y-46294104D01*
X165833519Y-46290594D01*
X165810315Y-46284782D01*
X165787793Y-46276724D01*
X165766169Y-46266496D01*
X165745652Y-46254199D01*
X165726439Y-46239949D01*
X165708715Y-46223885D01*
X165692651Y-46206161D01*
X165678401Y-46186948D01*
X165666104Y-46166431D01*
X165655876Y-46144807D01*
X165647818Y-46122285D01*
X165642006Y-46099081D01*
X165638496Y-46075420D01*
X165637322Y-46051528D01*
X165637322Y-45139028D01*
X165638496Y-45115136D01*
X165642006Y-45091475D01*
X165647818Y-45068271D01*
X165655876Y-45045749D01*
X165666104Y-45024125D01*
X165678401Y-45003608D01*
X165692651Y-44984395D01*
X165708715Y-44966671D01*
X165726439Y-44950607D01*
X165745652Y-44936357D01*
X165766169Y-44924060D01*
X165787793Y-44913832D01*
X165810315Y-44905774D01*
X165833519Y-44899962D01*
X165857180Y-44896452D01*
X165881072Y-44895278D01*
X166368572Y-44895278D01*
X166392464Y-44896452D01*
X166392464Y-44896452D01*
G37*
D24*
X166124822Y-45595278D03*
G04 #@! TD*
D23*
G04 #@! TO.C,L3*
G36*
X162564142Y-34520174D02*
X162587803Y-34523684D01*
X162611007Y-34529496D01*
X162633529Y-34537554D01*
X162655153Y-34547782D01*
X162675670Y-34560079D01*
X162694883Y-34574329D01*
X162712607Y-34590393D01*
X162728671Y-34608117D01*
X162742921Y-34627330D01*
X162755218Y-34647847D01*
X162765446Y-34669471D01*
X162773504Y-34691993D01*
X162779316Y-34715197D01*
X162782826Y-34738858D01*
X162784000Y-34762750D01*
X162784000Y-35250250D01*
X162782826Y-35274142D01*
X162779316Y-35297803D01*
X162773504Y-35321007D01*
X162765446Y-35343529D01*
X162755218Y-35365153D01*
X162742921Y-35385670D01*
X162728671Y-35404883D01*
X162712607Y-35422607D01*
X162694883Y-35438671D01*
X162675670Y-35452921D01*
X162655153Y-35465218D01*
X162633529Y-35475446D01*
X162611007Y-35483504D01*
X162587803Y-35489316D01*
X162564142Y-35492826D01*
X162540250Y-35494000D01*
X161627750Y-35494000D01*
X161603858Y-35492826D01*
X161580197Y-35489316D01*
X161556993Y-35483504D01*
X161534471Y-35475446D01*
X161512847Y-35465218D01*
X161492330Y-35452921D01*
X161473117Y-35438671D01*
X161455393Y-35422607D01*
X161439329Y-35404883D01*
X161425079Y-35385670D01*
X161412782Y-35365153D01*
X161402554Y-35343529D01*
X161394496Y-35321007D01*
X161388684Y-35297803D01*
X161385174Y-35274142D01*
X161384000Y-35250250D01*
X161384000Y-34762750D01*
X161385174Y-34738858D01*
X161388684Y-34715197D01*
X161394496Y-34691993D01*
X161402554Y-34669471D01*
X161412782Y-34647847D01*
X161425079Y-34627330D01*
X161439329Y-34608117D01*
X161455393Y-34590393D01*
X161473117Y-34574329D01*
X161492330Y-34560079D01*
X161512847Y-34547782D01*
X161534471Y-34537554D01*
X161556993Y-34529496D01*
X161580197Y-34523684D01*
X161603858Y-34520174D01*
X161627750Y-34519000D01*
X162540250Y-34519000D01*
X162564142Y-34520174D01*
X162564142Y-34520174D01*
G37*
D24*
X162084000Y-35006500D03*
D23*
G36*
X162564142Y-36395174D02*
X162587803Y-36398684D01*
X162611007Y-36404496D01*
X162633529Y-36412554D01*
X162655153Y-36422782D01*
X162675670Y-36435079D01*
X162694883Y-36449329D01*
X162712607Y-36465393D01*
X162728671Y-36483117D01*
X162742921Y-36502330D01*
X162755218Y-36522847D01*
X162765446Y-36544471D01*
X162773504Y-36566993D01*
X162779316Y-36590197D01*
X162782826Y-36613858D01*
X162784000Y-36637750D01*
X162784000Y-37125250D01*
X162782826Y-37149142D01*
X162779316Y-37172803D01*
X162773504Y-37196007D01*
X162765446Y-37218529D01*
X162755218Y-37240153D01*
X162742921Y-37260670D01*
X162728671Y-37279883D01*
X162712607Y-37297607D01*
X162694883Y-37313671D01*
X162675670Y-37327921D01*
X162655153Y-37340218D01*
X162633529Y-37350446D01*
X162611007Y-37358504D01*
X162587803Y-37364316D01*
X162564142Y-37367826D01*
X162540250Y-37369000D01*
X161627750Y-37369000D01*
X161603858Y-37367826D01*
X161580197Y-37364316D01*
X161556993Y-37358504D01*
X161534471Y-37350446D01*
X161512847Y-37340218D01*
X161492330Y-37327921D01*
X161473117Y-37313671D01*
X161455393Y-37297607D01*
X161439329Y-37279883D01*
X161425079Y-37260670D01*
X161412782Y-37240153D01*
X161402554Y-37218529D01*
X161394496Y-37196007D01*
X161388684Y-37172803D01*
X161385174Y-37149142D01*
X161384000Y-37125250D01*
X161384000Y-36637750D01*
X161385174Y-36613858D01*
X161388684Y-36590197D01*
X161394496Y-36566993D01*
X161402554Y-36544471D01*
X161412782Y-36522847D01*
X161425079Y-36502330D01*
X161439329Y-36483117D01*
X161455393Y-36465393D01*
X161473117Y-36449329D01*
X161492330Y-36435079D01*
X161512847Y-36422782D01*
X161534471Y-36412554D01*
X161556993Y-36404496D01*
X161580197Y-36398684D01*
X161603858Y-36395174D01*
X161627750Y-36394000D01*
X162540250Y-36394000D01*
X162564142Y-36395174D01*
X162564142Y-36395174D01*
G37*
D24*
X162084000Y-36881500D03*
G04 #@! TD*
D23*
G04 #@! TO.C,R1*
G36*
X147695142Y-44131174D02*
X147718803Y-44134684D01*
X147742007Y-44140496D01*
X147764529Y-44148554D01*
X147786153Y-44158782D01*
X147806670Y-44171079D01*
X147825883Y-44185329D01*
X147843607Y-44201393D01*
X147859671Y-44219117D01*
X147873921Y-44238330D01*
X147886218Y-44258847D01*
X147896446Y-44280471D01*
X147904504Y-44302993D01*
X147910316Y-44326197D01*
X147913826Y-44349858D01*
X147915000Y-44373750D01*
X147915000Y-45286250D01*
X147913826Y-45310142D01*
X147910316Y-45333803D01*
X147904504Y-45357007D01*
X147896446Y-45379529D01*
X147886218Y-45401153D01*
X147873921Y-45421670D01*
X147859671Y-45440883D01*
X147843607Y-45458607D01*
X147825883Y-45474671D01*
X147806670Y-45488921D01*
X147786153Y-45501218D01*
X147764529Y-45511446D01*
X147742007Y-45519504D01*
X147718803Y-45525316D01*
X147695142Y-45528826D01*
X147671250Y-45530000D01*
X147183750Y-45530000D01*
X147159858Y-45528826D01*
X147136197Y-45525316D01*
X147112993Y-45519504D01*
X147090471Y-45511446D01*
X147068847Y-45501218D01*
X147048330Y-45488921D01*
X147029117Y-45474671D01*
X147011393Y-45458607D01*
X146995329Y-45440883D01*
X146981079Y-45421670D01*
X146968782Y-45401153D01*
X146958554Y-45379529D01*
X146950496Y-45357007D01*
X146944684Y-45333803D01*
X146941174Y-45310142D01*
X146940000Y-45286250D01*
X146940000Y-44373750D01*
X146941174Y-44349858D01*
X146944684Y-44326197D01*
X146950496Y-44302993D01*
X146958554Y-44280471D01*
X146968782Y-44258847D01*
X146981079Y-44238330D01*
X146995329Y-44219117D01*
X147011393Y-44201393D01*
X147029117Y-44185329D01*
X147048330Y-44171079D01*
X147068847Y-44158782D01*
X147090471Y-44148554D01*
X147112993Y-44140496D01*
X147136197Y-44134684D01*
X147159858Y-44131174D01*
X147183750Y-44130000D01*
X147671250Y-44130000D01*
X147695142Y-44131174D01*
X147695142Y-44131174D01*
G37*
D24*
X147427500Y-44830000D03*
D23*
G36*
X145820142Y-44131174D02*
X145843803Y-44134684D01*
X145867007Y-44140496D01*
X145889529Y-44148554D01*
X145911153Y-44158782D01*
X145931670Y-44171079D01*
X145950883Y-44185329D01*
X145968607Y-44201393D01*
X145984671Y-44219117D01*
X145998921Y-44238330D01*
X146011218Y-44258847D01*
X146021446Y-44280471D01*
X146029504Y-44302993D01*
X146035316Y-44326197D01*
X146038826Y-44349858D01*
X146040000Y-44373750D01*
X146040000Y-45286250D01*
X146038826Y-45310142D01*
X146035316Y-45333803D01*
X146029504Y-45357007D01*
X146021446Y-45379529D01*
X146011218Y-45401153D01*
X145998921Y-45421670D01*
X145984671Y-45440883D01*
X145968607Y-45458607D01*
X145950883Y-45474671D01*
X145931670Y-45488921D01*
X145911153Y-45501218D01*
X145889529Y-45511446D01*
X145867007Y-45519504D01*
X145843803Y-45525316D01*
X145820142Y-45528826D01*
X145796250Y-45530000D01*
X145308750Y-45530000D01*
X145284858Y-45528826D01*
X145261197Y-45525316D01*
X145237993Y-45519504D01*
X145215471Y-45511446D01*
X145193847Y-45501218D01*
X145173330Y-45488921D01*
X145154117Y-45474671D01*
X145136393Y-45458607D01*
X145120329Y-45440883D01*
X145106079Y-45421670D01*
X145093782Y-45401153D01*
X145083554Y-45379529D01*
X145075496Y-45357007D01*
X145069684Y-45333803D01*
X145066174Y-45310142D01*
X145065000Y-45286250D01*
X145065000Y-44373750D01*
X145066174Y-44349858D01*
X145069684Y-44326197D01*
X145075496Y-44302993D01*
X145083554Y-44280471D01*
X145093782Y-44258847D01*
X145106079Y-44238330D01*
X145120329Y-44219117D01*
X145136393Y-44201393D01*
X145154117Y-44185329D01*
X145173330Y-44171079D01*
X145193847Y-44158782D01*
X145215471Y-44148554D01*
X145237993Y-44140496D01*
X145261197Y-44134684D01*
X145284858Y-44131174D01*
X145308750Y-44130000D01*
X145796250Y-44130000D01*
X145820142Y-44131174D01*
X145820142Y-44131174D01*
G37*
D24*
X145552500Y-44830000D03*
G04 #@! TD*
D23*
G04 #@! TO.C,R5*
G36*
X154770142Y-47696174D02*
X154793803Y-47699684D01*
X154817007Y-47705496D01*
X154839529Y-47713554D01*
X154861153Y-47723782D01*
X154881670Y-47736079D01*
X154900883Y-47750329D01*
X154918607Y-47766393D01*
X154934671Y-47784117D01*
X154948921Y-47803330D01*
X154961218Y-47823847D01*
X154971446Y-47845471D01*
X154979504Y-47867993D01*
X154985316Y-47891197D01*
X154988826Y-47914858D01*
X154990000Y-47938750D01*
X154990000Y-48426250D01*
X154988826Y-48450142D01*
X154985316Y-48473803D01*
X154979504Y-48497007D01*
X154971446Y-48519529D01*
X154961218Y-48541153D01*
X154948921Y-48561670D01*
X154934671Y-48580883D01*
X154918607Y-48598607D01*
X154900883Y-48614671D01*
X154881670Y-48628921D01*
X154861153Y-48641218D01*
X154839529Y-48651446D01*
X154817007Y-48659504D01*
X154793803Y-48665316D01*
X154770142Y-48668826D01*
X154746250Y-48670000D01*
X153833750Y-48670000D01*
X153809858Y-48668826D01*
X153786197Y-48665316D01*
X153762993Y-48659504D01*
X153740471Y-48651446D01*
X153718847Y-48641218D01*
X153698330Y-48628921D01*
X153679117Y-48614671D01*
X153661393Y-48598607D01*
X153645329Y-48580883D01*
X153631079Y-48561670D01*
X153618782Y-48541153D01*
X153608554Y-48519529D01*
X153600496Y-48497007D01*
X153594684Y-48473803D01*
X153591174Y-48450142D01*
X153590000Y-48426250D01*
X153590000Y-47938750D01*
X153591174Y-47914858D01*
X153594684Y-47891197D01*
X153600496Y-47867993D01*
X153608554Y-47845471D01*
X153618782Y-47823847D01*
X153631079Y-47803330D01*
X153645329Y-47784117D01*
X153661393Y-47766393D01*
X153679117Y-47750329D01*
X153698330Y-47736079D01*
X153718847Y-47723782D01*
X153740471Y-47713554D01*
X153762993Y-47705496D01*
X153786197Y-47699684D01*
X153809858Y-47696174D01*
X153833750Y-47695000D01*
X154746250Y-47695000D01*
X154770142Y-47696174D01*
X154770142Y-47696174D01*
G37*
D24*
X154290000Y-48182500D03*
D23*
G36*
X154770142Y-49571174D02*
X154793803Y-49574684D01*
X154817007Y-49580496D01*
X154839529Y-49588554D01*
X154861153Y-49598782D01*
X154881670Y-49611079D01*
X154900883Y-49625329D01*
X154918607Y-49641393D01*
X154934671Y-49659117D01*
X154948921Y-49678330D01*
X154961218Y-49698847D01*
X154971446Y-49720471D01*
X154979504Y-49742993D01*
X154985316Y-49766197D01*
X154988826Y-49789858D01*
X154990000Y-49813750D01*
X154990000Y-50301250D01*
X154988826Y-50325142D01*
X154985316Y-50348803D01*
X154979504Y-50372007D01*
X154971446Y-50394529D01*
X154961218Y-50416153D01*
X154948921Y-50436670D01*
X154934671Y-50455883D01*
X154918607Y-50473607D01*
X154900883Y-50489671D01*
X154881670Y-50503921D01*
X154861153Y-50516218D01*
X154839529Y-50526446D01*
X154817007Y-50534504D01*
X154793803Y-50540316D01*
X154770142Y-50543826D01*
X154746250Y-50545000D01*
X153833750Y-50545000D01*
X153809858Y-50543826D01*
X153786197Y-50540316D01*
X153762993Y-50534504D01*
X153740471Y-50526446D01*
X153718847Y-50516218D01*
X153698330Y-50503921D01*
X153679117Y-50489671D01*
X153661393Y-50473607D01*
X153645329Y-50455883D01*
X153631079Y-50436670D01*
X153618782Y-50416153D01*
X153608554Y-50394529D01*
X153600496Y-50372007D01*
X153594684Y-50348803D01*
X153591174Y-50325142D01*
X153590000Y-50301250D01*
X153590000Y-49813750D01*
X153591174Y-49789858D01*
X153594684Y-49766197D01*
X153600496Y-49742993D01*
X153608554Y-49720471D01*
X153618782Y-49698847D01*
X153631079Y-49678330D01*
X153645329Y-49659117D01*
X153661393Y-49641393D01*
X153679117Y-49625329D01*
X153698330Y-49611079D01*
X153718847Y-49598782D01*
X153740471Y-49588554D01*
X153762993Y-49580496D01*
X153786197Y-49574684D01*
X153809858Y-49571174D01*
X153833750Y-49570000D01*
X154746250Y-49570000D01*
X154770142Y-49571174D01*
X154770142Y-49571174D01*
G37*
D24*
X154290000Y-50057500D03*
G04 #@! TD*
D23*
G04 #@! TO.C,R6*
G36*
X154955142Y-43491174D02*
X154978803Y-43494684D01*
X155002007Y-43500496D01*
X155024529Y-43508554D01*
X155046153Y-43518782D01*
X155066670Y-43531079D01*
X155085883Y-43545329D01*
X155103607Y-43561393D01*
X155119671Y-43579117D01*
X155133921Y-43598330D01*
X155146218Y-43618847D01*
X155156446Y-43640471D01*
X155164504Y-43662993D01*
X155170316Y-43686197D01*
X155173826Y-43709858D01*
X155175000Y-43733750D01*
X155175000Y-44646250D01*
X155173826Y-44670142D01*
X155170316Y-44693803D01*
X155164504Y-44717007D01*
X155156446Y-44739529D01*
X155146218Y-44761153D01*
X155133921Y-44781670D01*
X155119671Y-44800883D01*
X155103607Y-44818607D01*
X155085883Y-44834671D01*
X155066670Y-44848921D01*
X155046153Y-44861218D01*
X155024529Y-44871446D01*
X155002007Y-44879504D01*
X154978803Y-44885316D01*
X154955142Y-44888826D01*
X154931250Y-44890000D01*
X154443750Y-44890000D01*
X154419858Y-44888826D01*
X154396197Y-44885316D01*
X154372993Y-44879504D01*
X154350471Y-44871446D01*
X154328847Y-44861218D01*
X154308330Y-44848921D01*
X154289117Y-44834671D01*
X154271393Y-44818607D01*
X154255329Y-44800883D01*
X154241079Y-44781670D01*
X154228782Y-44761153D01*
X154218554Y-44739529D01*
X154210496Y-44717007D01*
X154204684Y-44693803D01*
X154201174Y-44670142D01*
X154200000Y-44646250D01*
X154200000Y-43733750D01*
X154201174Y-43709858D01*
X154204684Y-43686197D01*
X154210496Y-43662993D01*
X154218554Y-43640471D01*
X154228782Y-43618847D01*
X154241079Y-43598330D01*
X154255329Y-43579117D01*
X154271393Y-43561393D01*
X154289117Y-43545329D01*
X154308330Y-43531079D01*
X154328847Y-43518782D01*
X154350471Y-43508554D01*
X154372993Y-43500496D01*
X154396197Y-43494684D01*
X154419858Y-43491174D01*
X154443750Y-43490000D01*
X154931250Y-43490000D01*
X154955142Y-43491174D01*
X154955142Y-43491174D01*
G37*
D24*
X154687500Y-44190000D03*
D23*
G36*
X153080142Y-43491174D02*
X153103803Y-43494684D01*
X153127007Y-43500496D01*
X153149529Y-43508554D01*
X153171153Y-43518782D01*
X153191670Y-43531079D01*
X153210883Y-43545329D01*
X153228607Y-43561393D01*
X153244671Y-43579117D01*
X153258921Y-43598330D01*
X153271218Y-43618847D01*
X153281446Y-43640471D01*
X153289504Y-43662993D01*
X153295316Y-43686197D01*
X153298826Y-43709858D01*
X153300000Y-43733750D01*
X153300000Y-44646250D01*
X153298826Y-44670142D01*
X153295316Y-44693803D01*
X153289504Y-44717007D01*
X153281446Y-44739529D01*
X153271218Y-44761153D01*
X153258921Y-44781670D01*
X153244671Y-44800883D01*
X153228607Y-44818607D01*
X153210883Y-44834671D01*
X153191670Y-44848921D01*
X153171153Y-44861218D01*
X153149529Y-44871446D01*
X153127007Y-44879504D01*
X153103803Y-44885316D01*
X153080142Y-44888826D01*
X153056250Y-44890000D01*
X152568750Y-44890000D01*
X152544858Y-44888826D01*
X152521197Y-44885316D01*
X152497993Y-44879504D01*
X152475471Y-44871446D01*
X152453847Y-44861218D01*
X152433330Y-44848921D01*
X152414117Y-44834671D01*
X152396393Y-44818607D01*
X152380329Y-44800883D01*
X152366079Y-44781670D01*
X152353782Y-44761153D01*
X152343554Y-44739529D01*
X152335496Y-44717007D01*
X152329684Y-44693803D01*
X152326174Y-44670142D01*
X152325000Y-44646250D01*
X152325000Y-43733750D01*
X152326174Y-43709858D01*
X152329684Y-43686197D01*
X152335496Y-43662993D01*
X152343554Y-43640471D01*
X152353782Y-43618847D01*
X152366079Y-43598330D01*
X152380329Y-43579117D01*
X152396393Y-43561393D01*
X152414117Y-43545329D01*
X152433330Y-43531079D01*
X152453847Y-43518782D01*
X152475471Y-43508554D01*
X152497993Y-43500496D01*
X152521197Y-43494684D01*
X152544858Y-43491174D01*
X152568750Y-43490000D01*
X153056250Y-43490000D01*
X153080142Y-43491174D01*
X153080142Y-43491174D01*
G37*
D24*
X152812500Y-44190000D03*
G04 #@! TD*
D23*
G04 #@! TO.C,R7*
G36*
X156050142Y-36486174D02*
X156073803Y-36489684D01*
X156097007Y-36495496D01*
X156119529Y-36503554D01*
X156141153Y-36513782D01*
X156161670Y-36526079D01*
X156180883Y-36540329D01*
X156198607Y-36556393D01*
X156214671Y-36574117D01*
X156228921Y-36593330D01*
X156241218Y-36613847D01*
X156251446Y-36635471D01*
X156259504Y-36657993D01*
X156265316Y-36681197D01*
X156268826Y-36704858D01*
X156270000Y-36728750D01*
X156270000Y-37216250D01*
X156268826Y-37240142D01*
X156265316Y-37263803D01*
X156259504Y-37287007D01*
X156251446Y-37309529D01*
X156241218Y-37331153D01*
X156228921Y-37351670D01*
X156214671Y-37370883D01*
X156198607Y-37388607D01*
X156180883Y-37404671D01*
X156161670Y-37418921D01*
X156141153Y-37431218D01*
X156119529Y-37441446D01*
X156097007Y-37449504D01*
X156073803Y-37455316D01*
X156050142Y-37458826D01*
X156026250Y-37460000D01*
X155113750Y-37460000D01*
X155089858Y-37458826D01*
X155066197Y-37455316D01*
X155042993Y-37449504D01*
X155020471Y-37441446D01*
X154998847Y-37431218D01*
X154978330Y-37418921D01*
X154959117Y-37404671D01*
X154941393Y-37388607D01*
X154925329Y-37370883D01*
X154911079Y-37351670D01*
X154898782Y-37331153D01*
X154888554Y-37309529D01*
X154880496Y-37287007D01*
X154874684Y-37263803D01*
X154871174Y-37240142D01*
X154870000Y-37216250D01*
X154870000Y-36728750D01*
X154871174Y-36704858D01*
X154874684Y-36681197D01*
X154880496Y-36657993D01*
X154888554Y-36635471D01*
X154898782Y-36613847D01*
X154911079Y-36593330D01*
X154925329Y-36574117D01*
X154941393Y-36556393D01*
X154959117Y-36540329D01*
X154978330Y-36526079D01*
X154998847Y-36513782D01*
X155020471Y-36503554D01*
X155042993Y-36495496D01*
X155066197Y-36489684D01*
X155089858Y-36486174D01*
X155113750Y-36485000D01*
X156026250Y-36485000D01*
X156050142Y-36486174D01*
X156050142Y-36486174D01*
G37*
D24*
X155570000Y-36972500D03*
D23*
G36*
X156050142Y-38361174D02*
X156073803Y-38364684D01*
X156097007Y-38370496D01*
X156119529Y-38378554D01*
X156141153Y-38388782D01*
X156161670Y-38401079D01*
X156180883Y-38415329D01*
X156198607Y-38431393D01*
X156214671Y-38449117D01*
X156228921Y-38468330D01*
X156241218Y-38488847D01*
X156251446Y-38510471D01*
X156259504Y-38532993D01*
X156265316Y-38556197D01*
X156268826Y-38579858D01*
X156270000Y-38603750D01*
X156270000Y-39091250D01*
X156268826Y-39115142D01*
X156265316Y-39138803D01*
X156259504Y-39162007D01*
X156251446Y-39184529D01*
X156241218Y-39206153D01*
X156228921Y-39226670D01*
X156214671Y-39245883D01*
X156198607Y-39263607D01*
X156180883Y-39279671D01*
X156161670Y-39293921D01*
X156141153Y-39306218D01*
X156119529Y-39316446D01*
X156097007Y-39324504D01*
X156073803Y-39330316D01*
X156050142Y-39333826D01*
X156026250Y-39335000D01*
X155113750Y-39335000D01*
X155089858Y-39333826D01*
X155066197Y-39330316D01*
X155042993Y-39324504D01*
X155020471Y-39316446D01*
X154998847Y-39306218D01*
X154978330Y-39293921D01*
X154959117Y-39279671D01*
X154941393Y-39263607D01*
X154925329Y-39245883D01*
X154911079Y-39226670D01*
X154898782Y-39206153D01*
X154888554Y-39184529D01*
X154880496Y-39162007D01*
X154874684Y-39138803D01*
X154871174Y-39115142D01*
X154870000Y-39091250D01*
X154870000Y-38603750D01*
X154871174Y-38579858D01*
X154874684Y-38556197D01*
X154880496Y-38532993D01*
X154888554Y-38510471D01*
X154898782Y-38488847D01*
X154911079Y-38468330D01*
X154925329Y-38449117D01*
X154941393Y-38431393D01*
X154959117Y-38415329D01*
X154978330Y-38401079D01*
X154998847Y-38388782D01*
X155020471Y-38378554D01*
X155042993Y-38370496D01*
X155066197Y-38364684D01*
X155089858Y-38361174D01*
X155113750Y-38360000D01*
X156026250Y-38360000D01*
X156050142Y-38361174D01*
X156050142Y-38361174D01*
G37*
D24*
X155570000Y-38847500D03*
G04 #@! TD*
D25*
G04 #@! TO.C,Y2*
X159958000Y-48726000D03*
X158558000Y-48726000D03*
X158558000Y-49826000D03*
X159958000Y-49826000D03*
G04 #@! TD*
D26*
G04 #@! TO.C,Y1*
X160620000Y-38680000D03*
X162120000Y-38680000D03*
G04 #@! TD*
D23*
G04 #@! TO.C,D1*
G36*
X156490142Y-34071174D02*
X156513803Y-34074684D01*
X156537007Y-34080496D01*
X156559529Y-34088554D01*
X156581153Y-34098782D01*
X156601670Y-34111079D01*
X156620883Y-34125329D01*
X156638607Y-34141393D01*
X156654671Y-34159117D01*
X156668921Y-34178330D01*
X156681218Y-34198847D01*
X156691446Y-34220471D01*
X156699504Y-34242993D01*
X156705316Y-34266197D01*
X156708826Y-34289858D01*
X156710000Y-34313750D01*
X156710000Y-35226250D01*
X156708826Y-35250142D01*
X156705316Y-35273803D01*
X156699504Y-35297007D01*
X156691446Y-35319529D01*
X156681218Y-35341153D01*
X156668921Y-35361670D01*
X156654671Y-35380883D01*
X156638607Y-35398607D01*
X156620883Y-35414671D01*
X156601670Y-35428921D01*
X156581153Y-35441218D01*
X156559529Y-35451446D01*
X156537007Y-35459504D01*
X156513803Y-35465316D01*
X156490142Y-35468826D01*
X156466250Y-35470000D01*
X155978750Y-35470000D01*
X155954858Y-35468826D01*
X155931197Y-35465316D01*
X155907993Y-35459504D01*
X155885471Y-35451446D01*
X155863847Y-35441218D01*
X155843330Y-35428921D01*
X155824117Y-35414671D01*
X155806393Y-35398607D01*
X155790329Y-35380883D01*
X155776079Y-35361670D01*
X155763782Y-35341153D01*
X155753554Y-35319529D01*
X155745496Y-35297007D01*
X155739684Y-35273803D01*
X155736174Y-35250142D01*
X155735000Y-35226250D01*
X155735000Y-34313750D01*
X155736174Y-34289858D01*
X155739684Y-34266197D01*
X155745496Y-34242993D01*
X155753554Y-34220471D01*
X155763782Y-34198847D01*
X155776079Y-34178330D01*
X155790329Y-34159117D01*
X155806393Y-34141393D01*
X155824117Y-34125329D01*
X155843330Y-34111079D01*
X155863847Y-34098782D01*
X155885471Y-34088554D01*
X155907993Y-34080496D01*
X155931197Y-34074684D01*
X155954858Y-34071174D01*
X155978750Y-34070000D01*
X156466250Y-34070000D01*
X156490142Y-34071174D01*
X156490142Y-34071174D01*
G37*
D24*
X156222500Y-34770000D03*
D23*
G36*
X158365142Y-34071174D02*
X158388803Y-34074684D01*
X158412007Y-34080496D01*
X158434529Y-34088554D01*
X158456153Y-34098782D01*
X158476670Y-34111079D01*
X158495883Y-34125329D01*
X158513607Y-34141393D01*
X158529671Y-34159117D01*
X158543921Y-34178330D01*
X158556218Y-34198847D01*
X158566446Y-34220471D01*
X158574504Y-34242993D01*
X158580316Y-34266197D01*
X158583826Y-34289858D01*
X158585000Y-34313750D01*
X158585000Y-35226250D01*
X158583826Y-35250142D01*
X158580316Y-35273803D01*
X158574504Y-35297007D01*
X158566446Y-35319529D01*
X158556218Y-35341153D01*
X158543921Y-35361670D01*
X158529671Y-35380883D01*
X158513607Y-35398607D01*
X158495883Y-35414671D01*
X158476670Y-35428921D01*
X158456153Y-35441218D01*
X158434529Y-35451446D01*
X158412007Y-35459504D01*
X158388803Y-35465316D01*
X158365142Y-35468826D01*
X158341250Y-35470000D01*
X157853750Y-35470000D01*
X157829858Y-35468826D01*
X157806197Y-35465316D01*
X157782993Y-35459504D01*
X157760471Y-35451446D01*
X157738847Y-35441218D01*
X157718330Y-35428921D01*
X157699117Y-35414671D01*
X157681393Y-35398607D01*
X157665329Y-35380883D01*
X157651079Y-35361670D01*
X157638782Y-35341153D01*
X157628554Y-35319529D01*
X157620496Y-35297007D01*
X157614684Y-35273803D01*
X157611174Y-35250142D01*
X157610000Y-35226250D01*
X157610000Y-34313750D01*
X157611174Y-34289858D01*
X157614684Y-34266197D01*
X157620496Y-34242993D01*
X157628554Y-34220471D01*
X157638782Y-34198847D01*
X157651079Y-34178330D01*
X157665329Y-34159117D01*
X157681393Y-34141393D01*
X157699117Y-34125329D01*
X157718330Y-34111079D01*
X157738847Y-34098782D01*
X157760471Y-34088554D01*
X157782993Y-34080496D01*
X157806197Y-34074684D01*
X157829858Y-34071174D01*
X157853750Y-34070000D01*
X158341250Y-34070000D01*
X158365142Y-34071174D01*
X158365142Y-34071174D01*
G37*
D24*
X158097500Y-34770000D03*
G04 #@! TD*
D23*
G04 #@! TO.C,R4*
G36*
X158120142Y-36006174D02*
X158143803Y-36009684D01*
X158167007Y-36015496D01*
X158189529Y-36023554D01*
X158211153Y-36033782D01*
X158231670Y-36046079D01*
X158250883Y-36060329D01*
X158268607Y-36076393D01*
X158284671Y-36094117D01*
X158298921Y-36113330D01*
X158311218Y-36133847D01*
X158321446Y-36155471D01*
X158329504Y-36177993D01*
X158335316Y-36201197D01*
X158338826Y-36224858D01*
X158340000Y-36248750D01*
X158340000Y-36736250D01*
X158338826Y-36760142D01*
X158335316Y-36783803D01*
X158329504Y-36807007D01*
X158321446Y-36829529D01*
X158311218Y-36851153D01*
X158298921Y-36871670D01*
X158284671Y-36890883D01*
X158268607Y-36908607D01*
X158250883Y-36924671D01*
X158231670Y-36938921D01*
X158211153Y-36951218D01*
X158189529Y-36961446D01*
X158167007Y-36969504D01*
X158143803Y-36975316D01*
X158120142Y-36978826D01*
X158096250Y-36980000D01*
X157183750Y-36980000D01*
X157159858Y-36978826D01*
X157136197Y-36975316D01*
X157112993Y-36969504D01*
X157090471Y-36961446D01*
X157068847Y-36951218D01*
X157048330Y-36938921D01*
X157029117Y-36924671D01*
X157011393Y-36908607D01*
X156995329Y-36890883D01*
X156981079Y-36871670D01*
X156968782Y-36851153D01*
X156958554Y-36829529D01*
X156950496Y-36807007D01*
X156944684Y-36783803D01*
X156941174Y-36760142D01*
X156940000Y-36736250D01*
X156940000Y-36248750D01*
X156941174Y-36224858D01*
X156944684Y-36201197D01*
X156950496Y-36177993D01*
X156958554Y-36155471D01*
X156968782Y-36133847D01*
X156981079Y-36113330D01*
X156995329Y-36094117D01*
X157011393Y-36076393D01*
X157029117Y-36060329D01*
X157048330Y-36046079D01*
X157068847Y-36033782D01*
X157090471Y-36023554D01*
X157112993Y-36015496D01*
X157136197Y-36009684D01*
X157159858Y-36006174D01*
X157183750Y-36005000D01*
X158096250Y-36005000D01*
X158120142Y-36006174D01*
X158120142Y-36006174D01*
G37*
D24*
X157640000Y-36492500D03*
D23*
G36*
X158120142Y-37881174D02*
X158143803Y-37884684D01*
X158167007Y-37890496D01*
X158189529Y-37898554D01*
X158211153Y-37908782D01*
X158231670Y-37921079D01*
X158250883Y-37935329D01*
X158268607Y-37951393D01*
X158284671Y-37969117D01*
X158298921Y-37988330D01*
X158311218Y-38008847D01*
X158321446Y-38030471D01*
X158329504Y-38052993D01*
X158335316Y-38076197D01*
X158338826Y-38099858D01*
X158340000Y-38123750D01*
X158340000Y-38611250D01*
X158338826Y-38635142D01*
X158335316Y-38658803D01*
X158329504Y-38682007D01*
X158321446Y-38704529D01*
X158311218Y-38726153D01*
X158298921Y-38746670D01*
X158284671Y-38765883D01*
X158268607Y-38783607D01*
X158250883Y-38799671D01*
X158231670Y-38813921D01*
X158211153Y-38826218D01*
X158189529Y-38836446D01*
X158167007Y-38844504D01*
X158143803Y-38850316D01*
X158120142Y-38853826D01*
X158096250Y-38855000D01*
X157183750Y-38855000D01*
X157159858Y-38853826D01*
X157136197Y-38850316D01*
X157112993Y-38844504D01*
X157090471Y-38836446D01*
X157068847Y-38826218D01*
X157048330Y-38813921D01*
X157029117Y-38799671D01*
X157011393Y-38783607D01*
X156995329Y-38765883D01*
X156981079Y-38746670D01*
X156968782Y-38726153D01*
X156958554Y-38704529D01*
X156950496Y-38682007D01*
X156944684Y-38658803D01*
X156941174Y-38635142D01*
X156940000Y-38611250D01*
X156940000Y-38123750D01*
X156941174Y-38099858D01*
X156944684Y-38076197D01*
X156950496Y-38052993D01*
X156958554Y-38030471D01*
X156968782Y-38008847D01*
X156981079Y-37988330D01*
X156995329Y-37969117D01*
X157011393Y-37951393D01*
X157029117Y-37935329D01*
X157048330Y-37921079D01*
X157068847Y-37908782D01*
X157090471Y-37898554D01*
X157112993Y-37890496D01*
X157136197Y-37884684D01*
X157159858Y-37881174D01*
X157183750Y-37880000D01*
X158096250Y-37880000D01*
X158120142Y-37881174D01*
X158120142Y-37881174D01*
G37*
D24*
X157640000Y-38367500D03*
G04 #@! TD*
M02*
